*
G04 Mass Parameters ***
*
G04 Image ***
*
%INC:\PROJECTS\ORCAD\ACTUATOR\ACTUATOR.DRD*%
%ICAS*%
%MOIN*%
%IPPOS*%
%ASAXBY*%
G74*%FSLAN2X34Y34*%
*
G04 Aperture Definitions ***
*
%ADD10C,0.0550*%
%ADD11R,0.0550X0.0550*%
%ADD12C,0.0520*%
%ADD13R,0.0520X0.0520*%
%ADD14R,0.0600X0.0600*%
%ADD15R,0.0500X0.0340*%
%ADD16R,0.0400X0.0340*%
%ADD17C,0.1040*%
%ADD18C,0.0710*%
%ADD19R,0.0710X0.0710*%
%ADD20R,0.0400X0.0560*%
%ADD21C,0.0580*%
%ADD22R,0.0580X0.0580*%
%ADD23C,0.0120*%
%ADD24C,0.0200*%
%ADD25C,0.0500*%
%ADD26C,0.0300*%
%ADD27C,0.0400*%
%ADD28O,0.0240X0.0860*%
%ADD29R,0.0240X0.0860*%
%ADD30R,0.0650X0.0650*%
%ADD31C,0.0150*%
%ADD32C,0.0100*%
%ADD33C,0.0010*%
%ADD34C,0.0250*%
%ADD35C,0.1000*%
%ADD36C,0.0750*%
%ADD37R,0.0750X0.0750*%
%ADD38C,0.0720*%
%ADD39R,0.0720X0.0720*%
%ADD40C,0.0650*%
%ADD41C,0.1100*%
%ADD42C,0.0910*%
%ADD43R,0.0910X0.0910*%
%ADD44C,0.0780*%
%ADD45R,0.0780X0.0780*%
%ADD46C,0.0500*%
%ADD47C,0.0600*%
%ADD48C,0.1090*%
%ADD49C,0.0080*%
%ADD50C,0.0060*%
*
G04 Plot Data ***
*
G54D32*
G01X0024291Y-0014333D02*
X0024125Y-0014167D01*
X0024042Y-0014000D01*
X0024041D02*
X0024042Y-0013667D01*
X0024041D02*
X0024125Y-0013500D01*
X0024292Y-0013333D01*
X0024291D02*
X0024458D01*
X0024625Y-0013500D01*
X0024708Y-0013667D01*
Y-0014000D01*
X0024625Y-0014167D01*
X0024458Y-0014333D01*
X0024292D01*
X0023258D02*
X0023758Y-0013333D01*
X0023092D01*
X0012312Y-0014333D02*
X0011729D01*
Y-0013333D01*
X0011446Y-0014000D02*
X0010779D01*
X0011446Y-0014333D02*
Y-0013833D01*
X0011196Y-0013333D01*
X0011029D01*
X0010779Y-0013833D01*
Y-0014333D01*
X0010162D02*
Y-0013333D01*
X0010496D02*
X0009829D01*
X0008962Y-0014333D02*
X0008879Y-0014167D01*
Y-0013500D01*
X0008962Y-0013333D01*
X0009462D01*
X0009546Y-0013500D01*
Y-0014167D01*
X0009462Y-0014333D01*
X0008962D01*
X0008262D02*
Y-0013333D01*
X0008596D02*
X0007929D01*
X0024708Y-0012472D02*
X0024486D01*
X0024597D02*
Y-0011806D01*
X0024486Y-0011917D01*
X0010869Y-0012472D02*
Y-0012139D01*
X0011092Y-0012472D02*
Y-0012139D01*
X0011036Y-0012028D01*
X0010925D01*
X0010869Y-0012139D01*
X0010814Y-0012028D01*
X0010703D01*
X0010647Y-0012139D01*
Y-0012472D01*
X0010169D02*
Y-0012139D01*
X0010392Y-0012472D02*
Y-0012139D01*
X0010336Y-0012028D01*
X0010225D01*
X0010169Y-0012139D01*
X0010114Y-0012028D01*
X0010003D01*
X0009947Y-0012139D01*
Y-0012472D01*
X0008742D02*
X0008297D01*
X0008742Y-0012028D01*
Y-0011917D01*
X0008686Y-0011806D01*
X0008353D01*
X0008297Y-0011917D01*
X0007597Y-0012361D02*
X0007708Y-0012472D01*
X0007930D01*
X0008042Y-0012361D01*
Y-0012250D01*
X0007819Y-0012028D01*
X0008042Y-0011806D01*
X0007597D01*
X0007064Y-0012472D02*
X0006953Y-0012361D01*
X0006897Y-0012250D01*
Y-0012028D01*
X0006953Y-0011917D01*
X0007064Y-0011806D01*
X0007175D01*
X0007286Y-0011917D01*
X0007342Y-0012028D01*
Y-0012250D01*
X0007286Y-0012361D01*
X0007175Y-0012472D01*
X0007064D01*
X0006530D02*
X0006642D01*
Y-0012361D01*
X0006531D01*
X0006530D02*
X0006531Y-0012472D01*
X0006164D02*
X0005719D01*
X0006164Y-0012028D01*
Y-0011917D01*
X0006108Y-0011806D01*
X0005775D01*
X0005719Y-0011917D01*
X0024430Y-0010972D02*
X0024319Y-0010861D01*
X0024264Y-0010750D01*
Y-0010528D01*
X0024319Y-0010417D01*
X0024430Y-0010306D01*
X0024542D01*
X0024541D02*
X0024653Y-0010417D01*
X0024708Y-0010528D01*
Y-0010750D01*
X0024653Y-0010861D01*
X0024542Y-0010972D01*
X0024541D02*
X0024430D01*
X0024008D02*
X0023786D01*
X0023897D02*
Y-0010306D01*
X0023786Y-0010417D01*
X0010869Y-0010972D02*
Y-0010639D01*
X0011092Y-0010972D02*
Y-0010639D01*
X0011036Y-0010528D01*
X0010925D01*
X0010869Y-0010639D01*
X0010814Y-0010528D01*
X0010703D01*
X0010647Y-0010639D01*
Y-0010972D01*
X0010169D02*
Y-0010639D01*
X0010392Y-0010972D02*
Y-0010639D01*
X0010336Y-0010528D01*
X0010225D01*
X0010169Y-0010639D01*
X0010114Y-0010528D01*
X0010003D01*
X0009947Y-0010639D01*
Y-0010972D01*
X0008464D02*
X0008353Y-0010861D01*
X0008297Y-0010750D01*
Y-0010528D01*
X0008353Y-0010417D01*
X0008464Y-0010306D01*
X0008575D01*
X0008686Y-0010417D01*
X0008742Y-0010528D01*
Y-0010750D01*
X0008686Y-0010861D01*
X0008575Y-0010972D01*
X0008464D01*
X0007708D02*
X0008042Y-0010306D01*
X0007597D01*
X0007342Y-0010972D02*
X0006897D01*
X0007342Y-0010528D01*
Y-0010417D01*
X0007286Y-0010306D01*
X0006953D01*
X0006897Y-0010417D01*
X0006530Y-0010972D02*
X0006642D01*
Y-0010861D01*
X0006531D01*
X0006530D02*
X0006531Y-0010972D01*
X0006164D02*
X0005942D01*
X0006053D02*
Y-0010306D01*
X0005942Y-0010417D01*
X0024264Y-0009361D02*
X0024375Y-0009472D01*
X0024597D01*
X0024708Y-0009361D01*
Y-0009250D01*
X0024486Y-0009028D01*
X0024708Y-0008806D01*
X0024264D01*
X0010869Y-0009472D02*
Y-0009139D01*
X0011092Y-0009472D02*
Y-0009139D01*
X0011036Y-0009028D01*
X0010925D01*
X0010869Y-0009139D01*
X0010814Y-0009028D01*
X0010703D01*
X0010647Y-0009139D01*
Y-0009472D01*
X0010169D02*
Y-0009139D01*
X0010392Y-0009472D02*
Y-0009139D01*
X0010336Y-0009028D01*
X0010225D01*
X0010169Y-0009139D01*
X0010114Y-0009028D01*
X0010003D01*
X0009947Y-0009139D01*
Y-0009472D01*
X0008742Y-0009250D02*
X0008297D01*
X0008519Y-0008806D01*
X0008630D01*
Y-0009472D01*
X0008042D02*
X0007819D01*
X0007930D02*
Y-0008806D01*
X0007819Y-0008917D01*
X0007397Y-0009139D02*
X0007064D01*
X0007008Y-0009028D01*
Y-0008917D01*
X0007064Y-0008806D01*
X0007397D01*
X0007453Y-0008917D01*
Y-0009028D01*
X0007230Y-0009472D01*
X0006642D02*
X0006753D01*
Y-0009361D01*
X0006642D01*
Y-0009472D01*
X0005997D02*
X0005886Y-0009361D01*
X0005831Y-0009250D01*
Y-0009028D01*
X0005886Y-0008917D01*
X0005997Y-0008806D01*
X0006108D01*
X0006219Y-0008917D01*
X0006275Y-0009028D01*
Y-0009250D01*
X0006219Y-0009361D01*
X0006108Y-0009472D01*
X0005997D01*
X0024319Y-0007639D02*
X0024653D01*
X0024708Y-0007750D01*
Y-0007861D01*
X0024653Y-0007972D01*
X0024319D01*
X0024264Y-0007861D01*
Y-0007750D01*
X0024486Y-0007306D01*
X0023564Y-0007861D02*
X0023675Y-0007972D01*
X0023897D01*
X0024008Y-0007861D01*
Y-0007750D01*
X0023786Y-0007528D01*
X0024008Y-0007306D01*
X0023564D01*
X0010869Y-0007972D02*
Y-0007639D01*
X0011092Y-0007972D02*
Y-0007639D01*
X0011036Y-0007528D01*
X0010925D01*
X0010869Y-0007639D01*
X0010814Y-0007528D01*
X0010703D01*
X0010647Y-0007639D01*
Y-0007972D01*
X0010169D02*
Y-0007639D01*
X0010392Y-0007972D02*
Y-0007639D01*
X0010336Y-0007528D01*
X0010225D01*
X0010169Y-0007639D01*
X0010114Y-0007528D01*
X0010003D01*
X0009947Y-0007639D01*
Y-0007972D01*
X0008742Y-0007750D02*
X0008297D01*
X0008519Y-0007306D01*
X0008630D01*
Y-0007972D01*
X0007653Y-0007639D02*
X0007986D01*
X0008042Y-0007750D01*
Y-0007861D01*
X0007986Y-0007972D01*
X0007653D01*
X0007597Y-0007861D01*
Y-0007750D01*
X0007819Y-0007306D01*
X0007286Y-0007639D02*
X0007342Y-0007528D01*
Y-0007417D01*
X0007286Y-0007306D01*
X0006953D01*
X0006897Y-0007417D01*
Y-0007528D01*
X0006953Y-0007639D01*
X0007286D01*
X0007342Y-0007750D01*
Y-0007861D01*
X0007286Y-0007972D01*
X0006953D01*
X0006897Y-0007861D01*
Y-0007750D01*
X0006953Y-0007639D01*
X0006530Y-0007972D02*
X0006642D01*
Y-0007861D01*
X0006531D01*
X0006530D02*
X0006531Y-0007972D01*
X0005886D02*
X0005775Y-0007861D01*
X0005719Y-0007750D01*
Y-0007528D01*
X0005775Y-0007417D01*
X0005886Y-0007306D01*
X0005997D01*
X0006108Y-0007417D01*
X0006164Y-0007528D01*
Y-0007750D01*
X0006108Y-0007861D01*
X0005997Y-0007972D01*
X0005886D01*
X0024653Y-0006139D02*
X0024708Y-0006028D01*
Y-0005917D01*
X0024653Y-0005806D01*
X0024319D01*
X0024264Y-0005917D01*
Y-0006028D01*
X0024319Y-0006139D01*
X0024653D01*
X0024708Y-0006250D01*
Y-0006361D01*
X0024653Y-0006472D01*
X0024319D01*
X0024264Y-0006361D01*
Y-0006250D01*
X0024319Y-0006139D01*
X0010869Y-0006472D02*
Y-0006139D01*
X0011092Y-0006472D02*
Y-0006139D01*
X0011036Y-0006028D01*
X0010925D01*
X0010869Y-0006139D01*
X0010814Y-0006028D01*
X0010703D01*
X0010647Y-0006139D01*
Y-0006472D01*
X0010169D02*
Y-0006139D01*
X0010392Y-0006472D02*
Y-0006139D01*
X0010336Y-0006028D01*
X0010225D01*
X0010169Y-0006139D01*
X0010114Y-0006028D01*
X0010003D01*
X0009947Y-0006139D01*
Y-0006472D01*
X0008408D02*
X0008742Y-0005806D01*
X0008297D01*
X0007986Y-0006139D02*
X0008042Y-0006028D01*
Y-0005917D01*
X0007986Y-0005806D01*
X0007653D01*
X0007597Y-0005917D01*
Y-0006028D01*
X0007653Y-0006139D01*
X0007986D01*
X0008042Y-0006250D01*
Y-0006361D01*
X0007986Y-0006472D01*
X0007653D01*
X0007597Y-0006361D01*
Y-0006250D01*
X0007653Y-0006139D01*
X0007008Y-0006472D02*
X0007342Y-0005806D01*
X0006897D01*
X0006530Y-0006472D02*
X0006642D01*
Y-0006361D01*
X0006531D01*
X0006530D02*
X0006531Y-0006472D01*
X0005886D02*
X0005775Y-0006361D01*
X0005719Y-0006250D01*
Y-0006028D01*
X0005775Y-0005917D01*
X0005886Y-0005806D01*
X0005997D01*
X0006108Y-0005917D01*
X0006164Y-0006028D01*
Y-0006250D01*
X0006108Y-0006361D01*
X0005997Y-0006472D01*
X0005886D01*
X0024708Y-0004972D02*
X0024264D01*
X0024708Y-0004528D01*
Y-0004417D01*
X0024653Y-0004306D01*
X0024319D01*
X0024264Y-0004417D01*
X0024008Y-0004972D02*
X0023786D01*
X0023897D02*
Y-0004306D01*
X0023786Y-0004417D01*
X0010869Y-0004972D02*
Y-0004639D01*
X0011092Y-0004972D02*
Y-0004639D01*
X0011036Y-0004528D01*
X0010925D01*
X0010869Y-0004639D01*
X0010814Y-0004528D01*
X0010703D01*
X0010647Y-0004639D01*
Y-0004972D01*
X0010169D02*
Y-0004639D01*
X0010392Y-0004972D02*
Y-0004639D01*
X0010336Y-0004528D01*
X0010225D01*
X0010169Y-0004639D01*
X0010114Y-0004528D01*
X0010003D01*
X0009947Y-0004639D01*
Y-0004972D01*
X0008742D02*
X0008519D01*
X0008630D02*
Y-0004306D01*
X0008519Y-0004417D01*
X0008153Y-0004972D02*
X0007931D01*
X0008042D02*
Y-0004306D01*
X0007931Y-0004417D01*
X0007230Y-0004972D02*
X0007564Y-0004306D01*
X0007119D01*
X0006753Y-0004972D02*
X0006864D01*
Y-0004861D01*
X0006753D01*
Y-0004972D01*
X0006108D02*
X0005997Y-0004861D01*
X0005942Y-0004750D01*
Y-0004528D01*
X0005997Y-0004417D01*
X0006108Y-0004306D01*
X0006220D01*
X0006219D02*
X0006331Y-0004417D01*
X0006386Y-0004528D01*
Y-0004750D01*
X0006331Y-0004861D01*
X0006220Y-0004972D01*
X0006219D02*
X0006108D01*
X0033112Y-0002833D02*
X0032612D01*
X0033279Y-0003333D02*
X0032612D01*
Y-0002333D01*
X0033279D01*
X0031996Y-0003333D02*
Y-0002333D01*
X0032329D02*
X0031662D01*
X0030795Y-0003333D02*
X0030712Y-0003167D01*
Y-0002500D01*
X0030796Y-0002333D01*
X0030795D02*
X0031296D01*
X0031295D02*
X0031379Y-0002500D01*
Y-0003167D01*
X0031296Y-0003333D01*
X0031295D02*
X0030796D01*
X0030429Y-0002333D02*
Y-0003333D01*
X0030262Y-0003167D01*
X0029929Y-0002500D01*
X0029762Y-0002333D01*
Y-0003333D01*
X0023925D02*
Y-0002833D01*
X0024258Y-0002333D02*
X0024008Y-0002833D01*
X0023842D01*
X0023841D02*
X0023592Y-0002333D01*
X0022975Y-0003333D02*
Y-0002333D01*
X0023308D02*
X0022642D01*
X0022025Y-0003000D02*
X0022358Y-0003333D01*
X0021691Y-0003167D02*
X0021775Y-0003333D01*
X0022108D01*
X0022191Y-0003167D01*
X0022358Y-0003000D01*
Y-0002500D01*
X0022275Y-0002333D01*
X0021775D01*
X0021692Y-0002500D01*
X0021691D02*
X0021692Y-0003167D01*
X0017408Y-0003333D02*
X0016825D01*
Y-0002333D01*
X0015958Y-0003333D02*
X0015875Y-0003167D01*
Y-0002500D01*
X0015958Y-0002333D01*
X0016458D01*
X0016542Y-0002500D01*
Y-0003167D01*
X0016458Y-0003333D01*
X0015958D01*
X0015258D02*
Y-0002333D01*
X0015592D02*
X0014925D01*
X0009587Y-0003333D02*
Y-0002333D01*
X0009420Y-0002500D01*
X0009254Y-0002833D01*
X0009087Y-0002500D01*
X0008921Y-0002333D01*
X0008920D02*
X0008921Y-0003333D01*
X0008637Y-0003000D02*
X0007971D01*
X0008637Y-0003333D02*
Y-0002833D01*
X0008387Y-0002333D01*
X0008221D01*
X0008220D02*
X0007971Y-0002833D01*
X0007970D02*
X0007971Y-0003333D01*
X0007687D02*
X0007354D01*
X0007521D02*
Y-0002333D01*
X0007687D02*
X0007354D01*
X0006321Y-0003333D02*
Y-0002333D01*
X0006237Y-0003333D02*
X0006737D01*
X0006904Y-0003000D01*
Y-0002667D01*
X0006737Y-0002333D01*
X0006237D01*
X0003150Y-0003333D02*
Y-0002333D01*
X0002983Y-0002500D01*
X0002817Y-0002833D01*
X0002650Y-0002500D01*
X0002483Y-0002333D01*
Y-0003333D01*
X0001867D02*
Y-0002833D01*
X0002200Y-0002333D02*
X0001950Y-0002833D01*
X0001783D01*
X0001533Y-0002333D01*
X0001250Y-0002500D02*
X0001167Y-0002333D01*
X0001166D02*
X0000667D01*
X0000666D02*
X0000583Y-0002500D01*
Y-0002667D01*
X0000667Y-0002833D01*
X0000666D02*
X0001167D01*
X0001166D02*
X0001250Y-0003000D01*
Y-0003167D01*
X0001167Y-0003333D01*
X0001166D02*
X0000667D01*
X0000666D02*
X0000583Y-0003167D01*
X0023437Y-0001333D02*
Y-0000333D01*
X0023770D02*
X0023104D01*
X0022570Y-0000833D02*
X0022820Y-0001333D01*
X0022154Y-0000833D02*
X0022654D01*
X0022820Y-0000667D01*
Y-0000500D01*
X0022654Y-0000333D01*
X0022154D01*
Y-0001333D01*
X0021870Y-0001000D02*
X0021204D01*
X0021870Y-0001333D02*
Y-0000833D01*
X0021620Y-0000333D01*
X0021454D01*
X0021204Y-0000833D01*
Y-0001333D01*
X0020920Y-0000833D02*
X0020254D01*
X0020920Y-0001333D02*
Y-0000333D01*
X0020254Y-0001333D02*
Y-0000333D01*
X0019970Y-0001167D02*
X0019887Y-0001333D01*
X0019387D01*
X0019304Y-0001167D01*
Y-0000500D01*
X0019387Y-0000333D01*
X0019887D01*
X0019970Y-0000500D01*
X0017695Y-0001333D02*
X0017112D01*
Y-0000333D01*
X0016829Y-0001333D02*
X0016246D01*
Y-0000333D01*
X0015962Y-0001333D02*
X0015629D01*
X0015796D02*
Y-0000333D01*
X0015962D02*
X0015629D01*
X0014929Y-0000833D02*
X0015179Y-0001333D01*
X0014512Y-0000833D02*
X0015012D01*
X0015179Y-0000667D01*
Y-0000500D01*
X0015012Y-0000333D01*
X0014513D01*
X0014512D02*
X0014513Y-0001333D01*
X0013646D02*
Y-0000333D01*
X0013562Y-0001333D02*
X0014062D01*
X0014229Y-0001000D01*
Y-0000667D01*
X0014062Y-0000333D01*
X0013563D01*
X-0203500Y0081750D02*
Y0081250D01*
X-0203000Y0081750D02*
X-0203500D01*
X-0203000Y0081250D02*
Y0081750D01*
X-0203500Y0081250D02*
X-0203000D01*
Y0081500D02*
X-0203500D01*
X-0203250Y0081750D02*
Y0081250D01*
X-0207750Y0082500D02*
Y0082000D01*
X-0207250Y0082500D02*
X-0207750D01*
X-0207250Y0082000D02*
Y0082500D01*
X-0207750Y0082000D02*
X-0207250D01*
Y0082250D02*
X-0207750D01*
X-0207500Y0082500D02*
Y0082000D01*
X-0204000Y0084250D02*
Y0083750D01*
X-0203500Y0084250D02*
X-0204000D01*
X-0203500Y0083750D02*
Y0084250D01*
X-0204000Y0083750D02*
X-0203500D01*
Y0084000D02*
X-0204000D01*
X-0203750Y0084250D02*
Y0083750D01*
X-0204500Y0083250D02*
Y0082750D01*
X-0204000Y0083250D02*
X-0204500D01*
X-0204000Y0082750D02*
Y0083250D01*
X-0204500Y0082750D02*
X-0204000D01*
Y0083000D02*
X-0204500D01*
X-0204250Y0083250D02*
Y0082750D01*
X-0207250Y0079750D02*
Y0079250D01*
X-0206750Y0079750D02*
X-0207250D01*
X-0206750Y0079250D02*
Y0079750D01*
X-0207250Y0079250D02*
X-0206750D01*
Y0079500D02*
X-0207250D01*
X-0207000Y0079750D02*
Y0079250D01*
X-0199500Y0082750D02*
Y0082250D01*
X-0199000Y0082750D02*
X-0199500D01*
X-0199000Y0082250D02*
Y0082750D01*
X-0199500Y0082250D02*
X-0199000D01*
Y0082500D02*
X-0199500D01*
X-0199250Y0082750D02*
Y0082250D01*
X-0202500Y0083250D02*
Y0082750D01*
X-0202000Y0083250D02*
X-0202500D01*
X-0202000Y0082750D02*
Y0083250D01*
X-0202500Y0082750D02*
X-0202000D01*
Y0083000D02*
X-0202500D01*
X-0202250Y0083250D02*
Y0082750D01*
X-0198750Y0080250D02*
Y0079750D01*
X-0198250Y0080250D02*
X-0198750D01*
X-0198250Y0079750D02*
Y0080250D01*
X-0198750Y0079750D02*
X-0198250D01*
Y0080000D02*
X-0198750D01*
X-0198500Y0080250D02*
Y0079750D01*
X-0204250Y0087000D02*
Y0086500D01*
X-0203750Y0087000D02*
X-0204250D01*
X-0203750Y0086500D02*
Y0087000D01*
X-0204250Y0086500D02*
X-0203750D01*
Y0086750D02*
X-0204250D01*
X-0204000Y0087000D02*
Y0086500D01*
X-0201000Y0082000D02*
Y0081500D01*
X-0200500Y0082000D02*
X-0201000D01*
X-0200500Y0081500D02*
Y0082000D01*
X-0201000Y0081500D02*
X-0200500D01*
Y0081750D02*
X-0201000D01*
X-0200750Y0082000D02*
Y0081500D01*
X-0201750Y0082750D02*
Y0082250D01*
X-0201250Y0082750D02*
X-0201750D01*
X-0201250Y0082250D02*
Y0082750D01*
X-0201750Y0082250D02*
X-0201250D01*
Y0082500D02*
X-0201750D01*
X-0201500Y0082750D02*
Y0082250D01*
X-0206500Y0081000D02*
Y0080500D01*
X-0206000Y0081000D02*
X-0206500D01*
X-0206000Y0080500D02*
Y0081000D01*
X-0206500Y0080500D02*
X-0206000D01*
Y0080750D02*
X-0206500D01*
X-0206250Y0081000D02*
Y0080500D01*
X0001575Y-0012000D02*
Y-0012500D01*
X0002075Y-0012000D02*
X0001575D01*
X0002075Y-0012500D02*
Y-0012000D01*
X0001575Y-0012500D02*
X0002075D01*
Y-0012250D02*
X0001575D01*
X0001825Y-0012000D02*
Y-0012500D01*
X0001575Y-0010500D02*
Y-0011000D01*
X0002075Y-0010500D02*
X0001575D01*
X0002075Y-0011000D02*
Y-0010500D01*
X0001575Y-0011000D02*
X0002075D01*
Y-0010500D02*
X0001575Y-0011000D01*
X0002075D02*
X0001575Y-0010500D01*
X0001825Y-0009000D02*
X0001575Y-0009250D01*
X0002075D02*
X0001825Y-0009000D01*
Y-0009500D02*
X0002075Y-0009250D01*
X0001575D02*
X0001825Y-0009500D01*
X0002075Y-0007750D02*
X0001575D01*
X0001825Y-0007500D02*
Y-0008000D01*
X0002075Y-0006000D02*
X0001575Y-0006500D01*
X0002075D02*
X0001575Y-0006000D01*
Y-0004500D02*
Y-0005000D01*
X0002075Y-0004500D02*
X0001575D01*
X0002075Y-0005000D02*
Y-0004500D01*
X0001575Y-0005000D02*
X0002075D01*
Y-0004750D02*
X0001575D01*
X0001825Y-0004500D02*
Y-0005000D01*
X0037300Y-0015050D02*
X-0000050D01*
X0037250Y-0015000D02*
X0000000D01*
X0037250Y-0013000D02*
X0000000D01*
X0037250Y-0011500D02*
X0000000D01*
X0037250Y-0010000D02*
X0000000D01*
X0037250Y-0008500D02*
X0000000D01*
X0037250Y-0007000D02*
X0000000D01*
X0037250Y-0005500D02*
X0000000D01*
X0037250Y-0004000D02*
X0000000D01*
X0037250Y-0003950D02*
X0000000D01*
X0037250Y-0002000D02*
X0000000D01*
X0037250Y-0001950D02*
X0000000D01*
X0037250Y0000000D02*
X0000000D01*
X0037300Y0000050D02*
X-0000050D01*
X0037300Y-0015000D02*
Y0000000D01*
X0037250Y-0015000D02*
Y0000000D01*
X0025708Y-0015000D02*
Y-0002000D01*
X0020158Y-0015000D02*
Y-0002000D01*
X0012092Y-0013000D02*
Y-0002000D01*
X0003700Y-0013000D02*
Y-0002000D01*
X0003650Y-0013000D02*
Y-0002000D01*
X-0000050Y-0015000D02*
Y0000000D01*
X0000000Y-0015000D02*
Y0000000D01*
X-0207000Y0076250D02*
X-0207500D01*
X-0207250Y0076500D02*
Y0076000D01*
X-0207000Y0075250D02*
X-0207500D01*
X-0207250Y0075500D02*
Y0075000D01*
X-0207000Y0074250D02*
X-0207500D01*
X-0207250Y0074500D02*
Y0074000D01*
X-0204000Y0074250D02*
X-0204500D01*
X-0204250Y0074500D02*
Y0074000D01*
X-0204000Y0075250D02*
X-0204500D01*
X-0204250Y0075500D02*
Y0075000D01*
X-0204000Y0076250D02*
X-0204500D01*
X-0204250Y0076500D02*
Y0076000D01*
X-0203000Y0075500D02*
X-0203500D01*
X-0203250Y0075750D02*
Y0075250D01*
X-0201000Y0075500D02*
X-0201500D01*
X-0201250Y0075750D02*
Y0075250D01*
X-0212000Y0076250D02*
X-0212500D01*
X-0212250Y0076500D02*
Y0076000D01*
X-0212000Y0078250D02*
X-0212500D01*
X-0212250Y0078500D02*
Y0078000D01*
X-0212000Y0079500D02*
X-0212500D01*
X-0212250Y0079750D02*
Y0079250D01*
X-0212000Y0081500D02*
X-0212500D01*
X-0212250Y0081750D02*
Y0081250D01*
X-0211500Y0083000D02*
X-0212000D01*
X-0211750Y0083250D02*
Y0082750D01*
X-0209500Y0083000D02*
X-0210000D01*
X-0209750Y0083250D02*
Y0082750D01*
X-0209000Y0074000D02*
Y0073500D01*
X-0208500Y0074000D02*
X-0209000D01*
X-0208500Y0073500D02*
Y0074000D01*
X-0209000Y0073500D02*
X-0208500D01*
Y0074000D02*
X-0209000Y0073500D01*
X-0208500D02*
X-0209000Y0074000D01*
Y0075500D02*
Y0075000D01*
X-0208500Y0075500D02*
X-0209000D01*
X-0208500Y0075000D02*
Y0075500D01*
X-0209000Y0075000D02*
X-0208500D01*
Y0075500D02*
X-0209000Y0075000D01*
X-0208500D02*
X-0209000Y0075500D01*
Y0077000D02*
Y0076500D01*
X-0208500Y0077000D02*
X-0209000D01*
X-0208500Y0076500D02*
Y0077000D01*
X-0209000Y0076500D02*
X-0208500D01*
Y0077000D02*
X-0209000Y0076500D01*
X-0208500D02*
X-0209000Y0077000D01*
X-0203000Y0074000D02*
Y0073500D01*
X-0202500Y0074000D02*
X-0203000D01*
X-0202500Y0073500D02*
Y0074000D01*
X-0203000Y0073500D02*
X-0202500D01*
Y0074000D02*
X-0203000Y0073500D01*
X-0202500D02*
X-0203000Y0074000D01*
X-0201000D02*
Y0073500D01*
X-0200500Y0074000D02*
X-0201000D01*
X-0200500Y0073500D02*
Y0074000D01*
X-0201000Y0073500D02*
X-0200500D01*
Y0074000D02*
X-0201000Y0073500D01*
X-0200500D02*
X-0201000Y0074000D01*
X-0199000D02*
Y0073500D01*
X-0198500Y0074000D02*
X-0199000D01*
X-0198500Y0073500D02*
Y0074000D01*
X-0199000Y0073500D02*
X-0198500D01*
Y0074000D02*
X-0199000Y0073500D01*
X-0198500D02*
X-0199000Y0074000D01*
X-0203000Y0077000D02*
Y0076500D01*
X-0202500Y0077000D02*
X-0203000D01*
X-0202500Y0076500D02*
Y0077000D01*
X-0203000Y0076500D02*
X-0202500D01*
Y0077000D02*
X-0203000Y0076500D01*
X-0202500D02*
X-0203000Y0077000D01*
X-0199000D02*
Y0076500D01*
X-0198500Y0077000D02*
X-0199000D01*
X-0198500Y0076500D02*
Y0077000D01*
X-0199000Y0076500D02*
X-0198500D01*
Y0077000D02*
X-0199000Y0076500D01*
X-0198500D02*
X-0199000Y0077000D01*
X-0201000D02*
Y0076500D01*
X-0200500Y0077000D02*
X-0201000D01*
X-0200500Y0076500D02*
Y0077000D01*
X-0201000Y0076500D02*
X-0200500D01*
Y0077000D02*
X-0201000Y0076500D01*
X-0200500D02*
X-0201000Y0077000D01*
X-0200000Y0075500D02*
Y0075000D01*
X-0199500Y0075500D02*
X-0200000D01*
X-0199500Y0075000D02*
Y0075500D01*
X-0200000Y0075000D02*
X-0199500D01*
Y0075500D02*
X-0200000Y0075000D01*
X-0199500D02*
X-0200000Y0075500D01*
X-0197000Y0075000D02*
X-0197250Y0074750D01*
X-0196750D02*
X-0197000Y0075000D01*
Y0074500D02*
X-0196750Y0074750D01*
X-0197250D02*
X-0197000Y0074500D01*
X-0210500Y0074750D02*
X-0210750Y0074500D01*
X-0210250D02*
X-0210500Y0074750D01*
Y0074250D02*
X-0210250Y0074500D01*
X-0210750D02*
X-0210500Y0074250D01*
X-0197000Y0076500D02*
Y0076000D01*
X-0196500Y0076500D02*
X-0197000D01*
X-0196500Y0076000D02*
Y0076500D01*
X-0197000Y0076000D02*
X-0196500D01*
Y0076250D02*
X-0197000D01*
X-0196750Y0076500D02*
Y0076000D01*
X-0210750Y0084250D02*
X-0211000Y0084000D01*
X-0210500D02*
X-0210750Y0084250D01*
Y0083750D02*
X-0210500Y0084000D01*
X-0211000D02*
X-0210750Y0083750D01*
X-0209000Y0078750D02*
X-0209500Y0078250D01*
X-0209000D02*
X-0209500Y0078750D01*
X-0208000D02*
X-0208500Y0078250D01*
X-0208000D02*
X-0208500Y0078750D01*
X-0206000D02*
X-0206500Y0078250D01*
X-0206000D02*
X-0206500Y0078750D01*
X-0207000D02*
X-0207500Y0078250D01*
X-0207000D02*
X-0207500Y0078750D01*
Y0085250D02*
X-0208000D01*
X-0207750Y0085500D02*
Y0085000D01*
X-0209000Y0085250D02*
X-0209500D01*
X-0209250Y0085500D02*
Y0085000D01*
X-0203750Y0088000D02*
X-0204250Y0087500D01*
X-0203750D02*
X-0204250Y0088000D01*
X-0203750Y0087000D02*
X-0204250Y0086500D01*
X-0203750D02*
X-0204250Y0087000D01*
X-0205750Y0088000D02*
X-0206250Y0087500D01*
X-0205750D02*
X-0206250Y0088000D01*
X-0205750Y0087000D02*
X-0206250Y0086500D01*
X-0205750D02*
X-0206250Y0087000D01*
X-0210500Y0075500D02*
X-0211000D01*
X-0210750Y0075750D02*
Y0075250D01*
X-0210500Y0081500D02*
X-0211000D01*
X-0210750Y0081750D02*
Y0081250D01*
X-0196250Y0078500D02*
X-0196750D01*
X-0196500Y0078750D02*
Y0078250D01*
X-0196250Y0079500D02*
X-0196750D01*
X-0196500Y0079750D02*
Y0079250D01*
X-0196250Y0080500D02*
X-0196750D01*
X-0196500Y0080750D02*
Y0080250D01*
X-0196250Y0081500D02*
X-0196750D01*
X-0196500Y0081750D02*
Y0081250D01*
X-0196250Y0082500D02*
X-0196750D01*
X-0196500Y0082750D02*
Y0082250D01*
X-0196250Y0083500D02*
X-0196750D01*
X-0196500Y0083750D02*
Y0083250D01*
X-0198250Y0085750D02*
X-0198750D01*
X-0198500Y0086000D02*
Y0085500D01*
X-0199250Y0085750D02*
X-0199750D01*
X-0199500Y0086000D02*
Y0085500D01*
X-0200250Y0085750D02*
X-0200750D01*
X-0200500Y0086000D02*
Y0085500D01*
X-0201250Y0085750D02*
X-0201750D01*
X-0201500Y0086000D02*
Y0085500D01*
X-0202250Y0085750D02*
X-0202750D01*
X-0202500Y0086000D02*
Y0085500D01*
X-0203250Y0085750D02*
X-0203750D01*
X-0203500Y0086000D02*
Y0085500D01*
X-0203250Y0078750D02*
X-0203750D01*
X-0203500Y0079000D02*
Y0078500D01*
X-0202250Y0078750D02*
X-0202750D01*
X-0202500Y0079000D02*
Y0078500D01*
X-0201250Y0078750D02*
X-0201750D01*
X-0201500Y0079000D02*
Y0078500D01*
X-0200250Y0078750D02*
X-0200750D01*
X-0200500Y0079000D02*
Y0078500D01*
X-0199250Y0078750D02*
X-0199750D01*
X-0199500Y0079000D02*
Y0078500D01*
X-0198250Y0078750D02*
X-0198750D01*
X-0198500Y0079000D02*
Y0078500D01*
G54D46*
G01X-0194750Y0088500D02*
Y0072500D01*
X-0212750D01*
Y0088500D01*
X-0194750D01*
M02*
