*
G04 Mass Parameters ***
*
G04 Image ***
*
%INC:\PROJECTS\ORCAD\ACTUATOR\ACTUATOR.SMB*%
%ICAS*%
%MOIN*%
%IPPOS*%
%ASAXBY*%
G74*%FSLAN2X34Y34*%
*
G04 Aperture Definitions ***
*
%ADD10C,0.0550*%
%ADD11R,0.0550X0.0550*%
%ADD12C,0.0520*%
%ADD13R,0.0520X0.0520*%
%ADD14R,0.0600X0.0600*%
%ADD15R,0.0500X0.0340*%
%ADD16R,0.0400X0.0340*%
%ADD17C,0.1040*%
%ADD18C,0.0710*%
%ADD19R,0.0710X0.0710*%
%ADD20R,0.0400X0.0560*%
%ADD21C,0.0580*%
%ADD22R,0.0580X0.0580*%
%ADD23C,0.0120*%
%ADD24C,0.0200*%
%ADD25C,0.0500*%
%ADD26C,0.0300*%
%ADD27C,0.0400*%
%ADD28O,0.0240X0.0860*%
%ADD29R,0.0240X0.0860*%
%ADD30R,0.0650X0.0650*%
%ADD31C,0.0150*%
%ADD32C,0.0100*%
%ADD33C,0.0010*%
%ADD34C,0.0250*%
%ADD35C,0.1000*%
%ADD36C,0.0750*%
%ADD37R,0.0750X0.0750*%
%ADD38C,0.0720*%
%ADD39R,0.0720X0.0720*%
%ADD40C,0.0650*%
%ADD41C,0.1100*%
%ADD42C,0.0910*%
%ADD43R,0.0910X0.0910*%
%ADD44C,0.0780*%
%ADD45R,0.0780X0.0780*%
%ADD46C,0.0500*%
%ADD47C,0.0600*%
%ADD48C,0.1090*%
*
G04 Plot Data ***
*
G54D10*
X-0203250Y0081500D03*
X-0207500Y0082250D03*
X-0203750Y0084000D03*
X-0204250Y0083000D03*
X-0207000Y0079500D03*
X-0199250Y0082500D03*
X-0202250Y0083000D03*
X-0198500Y0080000D03*
X-0204000Y0086750D03*
X-0200750Y0081750D03*
X-0201500Y0082500D03*
X-0206250Y0080750D03*
X-0203250Y0075500D03*
X-0201250D03*
X-0212250Y0076250D03*
Y0078250D03*
Y0079500D03*
Y0081500D03*
X-0211750Y0083000D03*
X-0209750D03*
X-0207750Y0085250D03*
X-0209250D03*
X-0210750Y0075500D03*
Y0081500D03*
X-0196500Y0079500D03*
Y0080500D03*
Y0081500D03*
Y0082500D03*
Y0083500D03*
X-0199500Y0085750D03*
X-0200500D03*
X-0201500D03*
X-0202500D03*
X-0203500D03*
X-0202500Y0078750D03*
X-0201500D03*
X-0200500D03*
X-0199500D03*
X-0198500D03*
G54D11*
X-0196500Y0078500D03*
X-0198500Y0085750D03*
X-0203500Y0078750D03*
G54D12*
X-0209250Y0078500D03*
X-0208250D03*
X-0206250D03*
X-0207250D03*
X-0204000Y0086750D03*
X-0206000D03*
G54D13*
X-0204000Y0087750D03*
X-0206000D03*
G54D14*
X-0210000Y0080250D03*
X-0208700D03*
X-0211000Y0078500D03*
Y0079800D03*
Y0076250D03*
Y0077550D03*
X-0195750Y0079500D03*
Y0080800D03*
G54D18*
X-0208750Y0075250D03*
Y0076750D03*
X-0202750Y0073750D03*
X-0200750D03*
X-0198750D03*
X-0202750Y0076750D03*
X-0198750D03*
X-0200750D03*
X-0199750Y0075250D03*
G54D19*
X-0208750Y0073750D03*
G54D21*
X-0207250Y0075250D03*
Y0074250D03*
X-0204250D03*
Y0075250D03*
Y0076250D03*
G54D22*
X-0207250D03*
G54D28*
X-0202750Y0084000D03*
X-0202250D03*
X-0201750D03*
X-0201250D03*
X-0200750D03*
X-0200250D03*
X-0199750D03*
X-0199250D03*
Y0080700D03*
X-0199750D03*
X-0200250D03*
X-0200750D03*
X-0201250D03*
X-0201750D03*
X-0202250D03*
X-0202750D03*
X-0203250D03*
G54D29*
Y0084000D03*
G54D47*
X-0197000Y0074750D03*
X-0210500Y0074500D03*
X-0210750Y0084000D03*
G54D48*
X-0196750Y0076250D03*
M02*
