%
T1C0.028F200S100
X-207500Y082250
X-207000Y079500
X-206250Y080750
X-204250Y083000
X-203750Y084000
X-203250Y081500
X-202250Y083000
X-201500Y082500
X-200750Y081750
X-199250Y082500
X-198500Y080000
T2C0.031F200S100
X-209250Y078500
X-208250Y078500
X-207250Y078500
X-206250Y078500
X-206000Y086750
X-206000Y087750
X-204000Y086750
X-204000Y087750
T3C0.034F200S100
X-212250Y076250
X-212250Y078250
X-212250Y079500
X-212250Y081500
X-211750Y083000
X-210750Y075500
X-210750Y081500
X-209750Y083000
X-209250Y085250
X-207750Y085250
X-207250Y074250
X-207250Y075250
X-207250Y076250
X-204250Y074250
X-204250Y075250
X-204250Y076250
X-203500Y078750
X-203250Y075500
X-203500Y085750
X-202500Y078750
X-201500Y078750
X-201500Y085750
X-202500Y085750
X-201250Y075500
X-200500Y078750
X-200500Y085750
X-199500Y078750
X-198500Y078750
X-198500Y085750
X-199500Y085750
X-196500Y078500
X-196500Y079500
X-196500Y080500
X-196500Y081500
X-196500Y082500
X-196500Y083500
T5C0.050F200S100
X-208750Y073750
X-208750Y075250
X-208750Y076750
X-202750Y073750
X-202750Y076750
X-200750Y073750
X-199750Y075250
X-200750Y076750
X-198750Y073750
X-198750Y076750
T4C0.036F200S100
X-210750Y084000
X-210500Y074500
X-197000Y074750
T6C0.080F200S100
X-196750Y076250
M30
