*
G04 Mass Parameters ***
*
G04 Image ***
*
%INC:\PROJECTS\ORCAD\PV_BOOST\PV_BOOST.AST*%
%ICAS*%
%MOIN*%
%IPPOS*%
%ASAXBY*%
G74*%FSLAN2X34Y34*%
*
G04 Aperture Definitions ***
*
%ADD10C,0.1300*%
%ADD11C,0.0800*%
%ADD12R,0.0800X0.0800*%
%ADD13C,0.0820*%
%ADD14R,0.0820X0.0820*%
%ADD15R,0.0600X0.0600*%
%ADD16C,0.0550*%
%ADD17R,0.0550X0.0550*%
%ADD18R,0.0640X0.1000*%
%ADD19R,0.1000X0.0640*%
%ADD20C,0.0520*%
%ADD21C,0.0750*%
%ADD22R,0.0750X0.0750*%
%ADD23R,0.2000X0.2000*%
%ADD24R,0.1181X0.2756*%
%ADD25C,0.0620*%
%ADD26R,0.0500X0.0340*%
%ADD27R,0.0400X0.0340*%
%ADD28O,0.0250X0.0860*%
%ADD29R,0.0250X0.0860*%
%ADD30O,0.0250X0.0940*%
%ADD31R,0.0250X0.0940*%
%ADD32C,0.1040*%
%ADD33C,0.0500*%
%ADD34C,0.0010*%
%ADD35C,0.0100*%
%ADD36C,0.0120*%
%ADD37C,0.0080*%
%ADD38C,0.0300*%
%ADD39C,0.0200*%
%ADD40C,0.0500*%
%ADD41C,0.2000*%
%ADD42C,0.1000*%
%ADD43C,0.0050*%
%ADD44C,0.1000*%
%ADD45R,0.1000X0.1000*%
%ADD46C,0.1020*%
%ADD47R,0.1020X0.1020*%
%ADD48C,0.0720*%
%ADD49C,0.0950*%
%ADD50R,0.0950X0.0950*%
%ADD51C,0.2000*%
%ADD52C,0.0700*%
%ADD53C,0.1100*%
%ADD54C,0.0650*%
%ADD55C,0.1600*%
%ADD56C,0.0670*%
%ADD57C,0.1090*%
%ADD58C,0.0600*%
%ADD59C,0.0060*%
%ADD60C,0.0098*%
%ADD61C,0.0600*%
*
G04 Plot Data ***
*
G54D37*
G01X-0101560Y0011633D02*
X-0101783D01*
X-0101560Y0011855D01*
Y0011910D01*
X-0101588Y0011966D01*
X-0101755D01*
X-0101783Y0011910D01*
X-0102165Y0011633D02*
Y0011966D01*
X-0102193Y0011633D02*
X-0102026D01*
X-0101970Y0011744D01*
Y0011855D01*
X-0102026Y0011966D01*
X-0102193D01*
X-0072617Y0011981D02*
Y0012092D01*
Y0012037D02*
X-0072284D01*
X-0072339Y0012092D01*
X-0072451Y0012363D02*
X-0072395Y0012335D01*
X-0072339D01*
X-0072284Y0012363D01*
Y0012530D01*
X-0072339Y0012558D01*
X-0072395D01*
X-0072451Y0012530D01*
Y0012363D01*
X-0072506Y0012335D01*
X-0072562D01*
X-0072617Y0012363D01*
Y0012530D01*
X-0072562Y0012558D01*
X-0072506D01*
X-0072451Y0012530D01*
X-0072617Y0012940D02*
X-0072284D01*
X-0072617Y0012968D02*
Y0012801D01*
X-0072506Y0012745D01*
X-0072395D01*
X-0072284Y0012801D01*
Y0012968D01*
X-0121862Y0016958D02*
X-0122085D01*
X-0121862Y0017180D01*
Y0017235D01*
X-0121890Y0017291D01*
X-0122057D01*
X-0122085Y0017235D01*
X-0122272D02*
X-0122300Y0017291D01*
X-0122467D01*
X-0122495Y0017235D01*
Y0017180D01*
X-0122467Y0017124D01*
X-0122300D01*
X-0122272Y0017069D01*
Y0017013D01*
X-0122300Y0016958D01*
X-0122467D01*
X-0122495Y0017013D01*
X-0122738Y0017124D02*
X-0122905D01*
Y0016958D02*
Y0017291D01*
X-0122682D01*
X-0103049Y0018567D02*
X-0102827D01*
X-0103049Y0018345D01*
Y0018289D01*
X-0103022Y0018234D01*
X-0102855D01*
X-0102827Y0018289D01*
X-0102417Y0018512D02*
X-0102473Y0018567D01*
X-0102584D01*
X-0102639Y0018512D01*
Y0018456D01*
X-0102528Y0018345D01*
X-0102639Y0018234D01*
X-0102417D01*
X-0102229Y0018512D02*
X-0102202Y0018567D01*
X-0102035D01*
X-0102007Y0018512D01*
Y0018289D01*
X-0102035Y0018234D01*
X-0102202D01*
X-0102229Y0018289D01*
X-0099138Y0020619D02*
X-0099361D01*
X-0099249Y0020841D01*
X-0099194D01*
Y0020508D01*
X-0099548D02*
X-0099743D01*
Y0020841D01*
X-0100335Y0022432D02*
X-0100446D01*
X-0100391D02*
Y0022766D01*
X-0100446Y0022710D01*
X-0100689Y0022766D02*
Y0022488D01*
X-0100717Y0022432D01*
X-0100884D01*
X-0100912Y0022488D01*
Y0022766D01*
X-0102913Y0015339D02*
X-0102858Y0015395D01*
Y0015506D01*
X-0102913Y0015562D01*
X-0102969D01*
X-0103080Y0015450D01*
X-0103191Y0015562D01*
Y0015339D01*
X-0102858Y0015152D02*
Y0014957D01*
X-0103191D01*
X-0076337Y0039872D02*
X-0076392Y0039844D01*
Y0039677D01*
X-0076337Y0039649D01*
X-0076226D01*
X-0076170Y0039705D01*
Y0039872D01*
X-0076059D01*
Y0039649D01*
X-0076392Y0040226D02*
X-0076059Y0040059D01*
Y0040282D01*
X-0076337Y0040469D02*
X-0076392Y0040497D01*
Y0040664D01*
X-0076337Y0040692D01*
X-0076115D01*
X-0076059Y0040664D01*
Y0040497D01*
X-0076115Y0040469D01*
X-0084892Y0039705D02*
Y0039816D01*
Y0039761D02*
X-0084559D01*
X-0084615Y0039816D01*
X-0084892Y0040226D02*
X-0084559Y0040059D01*
Y0040282D01*
X-0084837Y0040469D02*
X-0084892Y0040497D01*
Y0040664D01*
X-0084837Y0040692D01*
X-0084615D01*
X-0084559Y0040664D01*
Y0040497D01*
X-0084615Y0040469D01*
X-0098331Y0011460D02*
Y0011683D01*
X-0098109Y0011572D01*
Y0011516D01*
X-0098442D01*
X-0098164Y0011870D02*
X-0098109Y0011898D01*
Y0012065D01*
X-0098164Y0012093D01*
X-0098220D01*
X-0098276Y0012065D01*
Y0011898D01*
X-0098331Y0011870D01*
X-0098387D01*
X-0098442Y0011898D01*
Y0012065D01*
X-0098387Y0012093D01*
X-0067757Y0040528D02*
X-0068091Y0040695D01*
Y0040472D01*
X-0067757Y0040285D02*
Y0040174D01*
Y0040229D02*
X-0068091D01*
X-0068035Y0040174D01*
X-0067813Y0039930D02*
X-0067757Y0039903D01*
Y0039736D01*
X-0067813Y0039708D01*
X-0068035D01*
X-0068091Y0039736D01*
Y0039903D01*
X-0068035Y0039930D01*
X-0072074Y0040667D02*
X-0072130Y0040695D01*
X-0072185D01*
X-0072241Y0040667D01*
Y0040500D01*
X-0072185Y0040472D01*
X-0072130D01*
X-0072074Y0040500D01*
Y0040667D01*
X-0072019Y0040695D01*
X-0071963D01*
X-0071907Y0040667D01*
Y0040500D01*
X-0071963Y0040472D01*
X-0072019D01*
X-0072074Y0040500D01*
X-0071907Y0040285D02*
Y0040174D01*
Y0040229D02*
X-0072241D01*
X-0072185Y0040174D01*
X-0071963Y0039930D02*
X-0071907Y0039903D01*
Y0039736D01*
X-0071963Y0039708D01*
X-0072185D01*
X-0072241Y0039736D01*
Y0039903D01*
X-0072185Y0039930D01*
X-0080476Y0039844D02*
Y0039677D01*
X-0080531Y0039649D01*
X-0080587D01*
X-0080642Y0039677D01*
Y0039844D01*
X-0080587Y0039872D01*
X-0080531D01*
X-0080309Y0039761D01*
X-0080642Y0040226D02*
X-0080309Y0040059D01*
Y0040282D01*
X-0080587Y0040469D02*
X-0080642Y0040497D01*
Y0040664D01*
X-0080587Y0040692D01*
X-0080365D01*
X-0080309Y0040664D01*
Y0040497D01*
X-0080365Y0040469D01*
X-0066750Y0015200D02*
X-0068250D01*
Y0010700D01*
X-0066750D01*
Y0015200D01*
Y0023950D02*
X-0068250D01*
Y0019450D01*
X-0066750D01*
Y0023950D01*
X-0088450Y0018935D02*
X-0085950D01*
Y0019685D01*
X-0088450D01*
Y0018935D01*
X-0088200D02*
Y0019685D01*
X-0085700Y0014550D02*
X-0091700D01*
Y0013550D01*
X-0085700D01*
Y0014550D01*
X-0085650Y0014600D01*
X-0102400Y0024400D02*
X-0098200D01*
Y0022150D01*
X-0102400D01*
Y0024400D01*
X-0098200Y0023850D02*
X-0102400D01*
X-0074050Y0010725D02*
X-0072050D01*
Y0013975D01*
X-0074050D01*
Y0010725D01*
X-0097050Y0011050D02*
X-0091050D01*
Y0012050D01*
X-0097050D01*
Y0011050D01*
X-0097100Y0011000D01*
X-0099450Y0010450D02*
Y0011950D01*
X-0103950D01*
Y0010450D01*
X-0099450D01*
X-0120550Y0017750D02*
Y0015500D01*
X-0124050D01*
Y0017750D01*
X-0120550D01*
X-0089719Y0027401D02*
X-0089492Y0027742D01*
X-0089500Y0027750D02*
X-0088016D01*
X-0088008Y0027742D01*
X-0087781Y0027401D01*
Y0026599D02*
X-0088008Y0026258D01*
X-0088349Y0026031D01*
X-0088750Y0025951D01*
X-0089151Y0026031D01*
X-0089492Y0026258D01*
X-0089719Y0026599D01*
X-0086350Y0032650D02*
Y0036850D01*
X-0089300Y0032650D02*
Y0036850D01*
X-0082850D01*
Y0032650D01*
X-0089300D01*
X-0098750Y0036850D02*
Y0032650D01*
X-0095800Y0036850D02*
Y0032650D01*
X-0102250D01*
Y0036850D01*
X-0095800D01*
X-0098250Y0020825D02*
Y0021075D01*
X-0100750D01*
Y0020825D01*
Y0020075D02*
Y0019825D01*
X-0098250D01*
Y0020075D01*
X-0102925Y0016700D02*
X-0103175D01*
Y0014200D01*
X-0102925D01*
X-0102175D02*
X-0101925D01*
Y0016700D01*
X-0102175D01*
X-0098125Y0010600D02*
X-0097875D01*
Y0013100D01*
X-0098125D01*
X-0098875D02*
X-0099125D01*
Y0010600D01*
X-0098875D01*
X-0099650Y0026375D02*
Y0026625D01*
X-0102150D01*
Y0026375D01*
Y0025625D02*
Y0025375D01*
X-0099650D01*
Y0025625D01*
X-0093825Y0018955D02*
X-0090575D01*
Y0019705D01*
X-0093825D01*
Y0018955D01*
X-0093575D02*
Y0019705D01*
X-0096500Y0026435D02*
X-0094000D01*
Y0027185D01*
X-0096500D01*
Y0026435D01*
X-0096250D02*
Y0027185D01*
X-0119292Y0027250D02*
X-0125428D01*
Y0018663D01*
X-0119292D01*
Y0027250D01*
Y0039250D02*
X-0125428D01*
Y0030663D01*
X-0119292D01*
Y0039250D01*
X-0065258Y0036450D02*
X-0059122D01*
Y0045037D01*
X-0065258D01*
Y0036450D01*
G01X-0101125Y0019250D02*
G03X-0102625Y0020750I0001500J0000000D01*
G03X-0104125Y0019250I0000000J0001500D01*
G03X-0102625Y0017750I0001500J0000000D01*
G03X-0101125Y0019250I0000000J0001500D01*
G01X-0107850Y0026550D02*
G03X-0104350Y0030050I0000000J0003500D01*
G03X-0107850Y0033550I0003500J0000000D01*
G03X-0111350Y0030050I0000000J0003500D01*
G03X-0107850Y0026550I0003500J0000000D01*
Y0019150D02*
G03X-0104350Y0022650I0000000J0003500D01*
G03X-0107850Y0026150I0003500J0000000D01*
G03X-0111350Y0022650I0000000J0003500D01*
G03X-0107850Y0019150I0003500J0000000D01*
Y0011750D02*
G03X-0104350Y0015250I0000000J0003500D01*
G03X-0107850Y0018750I0003500J0000000D01*
G03X-0111350Y0015250I0000000J0003500D01*
G03X-0107850Y0011750I0003500J0000000D01*
G01X-0115250D02*
G03X-0111750Y0015250I0000000J0003500D01*
G03X-0115250Y0018750I0003500J0000000D01*
G03X-0118750Y0015250I0000000J0003500D01*
G03X-0115250Y0011750I0003500J0000000D01*
Y0019200D02*
G03X-0111750Y0022700I0000000J0003500D01*
G03X-0115250Y0026200I0003500J0000000D01*
G03X-0118750Y0022700I0000000J0003500D01*
G03X-0115250Y0019200I0003500J0000000D01*
G01X-0107850Y0034050D02*
G03X-0104350Y0037550I0000000J0003500D01*
G03X-0107850Y0041050I0003500J0000000D01*
G03X-0111350Y0037550I0000000J0003500D01*
G03X-0107850Y0034050I0003500J0000000D01*
G01X-0107800Y0041450D02*
G03X-0104300Y0044950I0000000J0003500D01*
G03X-0107800Y0048450I0003500J0000000D01*
G03X-0111300Y0044950I0000000J0003500D01*
G03X-0107800Y0041450I0003500J0000000D01*
G01X-0115250Y0026600D02*
G03X-0111750Y0030100I0000000J0003500D01*
G03X-0115250Y0033600I0003500J0000000D01*
G03X-0118750Y0030100I0000000J0003500D01*
G03X-0115250Y0026600I0003500J0000000D01*
Y0034050D02*
G03X-0111750Y0037550I0000000J0003500D01*
G03X-0115250Y0041050I0003500J0000000D01*
G03X-0118750Y0037550I0000000J0003500D01*
G03X-0115250Y0034050I0003500J0000000D01*
Y0041450D02*
G03X-0111750Y0044950I0000000J0003500D01*
G03X-0115250Y0048450I0003500J0000000D01*
G03X-0118750Y0044950I0000000J0003500D01*
G03X-0115250Y0041450I0003500J0000000D01*
G54D40*
G01X-0125750Y0049250D02*
Y0010000D01*
X-0058750D01*
Y0049250D01*
X-0125750D01*
G54D59*
G01X-0064097Y0031638D02*
X-0064069Y0031582D01*
X-0063902D01*
X-0063874Y0031638D01*
Y0031749D01*
X-0063930Y0031805D01*
X-0064097D01*
Y0031916D01*
X-0063874D01*
X-0064328Y0031749D02*
X-0064244Y0031582D01*
X-0064467Y0031749D02*
X-0064300D01*
X-0064244Y0031805D01*
Y0031860D01*
X-0064300Y0031916D01*
X-0064467D01*
Y0031582D01*
X-0068950Y0015700D02*
X-0071150D01*
Y0016600D01*
X-0068950D01*
Y0015700D01*
X-0071150Y0015400D02*
X-0068950D01*
Y0014500D01*
X-0071150D01*
Y0015400D01*
X-0100805Y0019600D02*
Y0018300D01*
X-0098555D01*
Y0019600D01*
X-0098530D01*
X-0100805D01*
X-0097350Y0019670D02*
Y0019930D01*
X-0097650D01*
Y0019980D01*
Y0018730D02*
X-0097350D01*
Y0018990D01*
X-0093950Y0030900D02*
Y0028700D01*
X-0094850D01*
Y0030900D01*
X-0093950D01*
Y0024050D02*
X-0096150D01*
Y0024950D01*
X-0093950D01*
Y0024050D01*
X-0097600Y0027855D02*
X-0098900D01*
Y0025605D01*
X-0097600D01*
Y0025580D01*
Y0027855D01*
X-0091600Y0027955D02*
X-0092900D01*
Y0025705D01*
X-0091600D01*
Y0025680D01*
Y0027955D01*
X-0096500Y0018245D02*
X-0095200D01*
Y0020495D01*
X-0096500D01*
Y0020520D01*
Y0018245D01*
X-0092550Y0012500D02*
X-0094750D01*
Y0013400D01*
X-0092550D01*
Y0012500D01*
X-0094200Y0020500D02*
Y0018300D01*
X-0095100D01*
Y0020500D01*
X-0094200D01*
X-0084750Y0012900D02*
Y0010700D01*
X-0085650D01*
Y0012900D01*
X-0084750D01*
X-0089500Y0018350D02*
Y0020550D01*
X-0088600D01*
Y0018350D01*
X-0089500D01*
X-0088600Y0018250D02*
Y0016050D01*
X-0089500D01*
Y0018250D01*
X-0088600D01*
X-0092950Y0027950D02*
Y0025750D01*
X-0093850D01*
Y0027950D01*
X-0092950D01*
X-0085550Y0020550D02*
X-0083350D01*
Y0019650D01*
X-0085550D01*
Y0020550D01*
X-0096600Y0027850D02*
Y0025650D01*
X-0097500D01*
Y0027850D01*
X-0096600D01*
X-0086550Y0021950D02*
Y0024150D01*
X-0085650D01*
Y0021950D01*
X-0086550D01*
X-0090400Y0016050D02*
Y0018250D01*
X-0089500D01*
Y0016050D01*
X-0090400D01*
X-0089200Y0024150D02*
Y0021950D01*
X-0090100D01*
Y0024150D01*
X-0089200D01*
X-0086000Y0015700D02*
X-0088200D01*
Y0016600D01*
X-0086000D01*
Y0015700D01*
X-0085750Y0012900D02*
Y0010700D01*
X-0086650D01*
Y0012900D01*
X-0085750D01*
X-0088200Y0015600D02*
X-0086000D01*
Y0014700D01*
X-0088200D01*
Y0015600D01*
X-0097000Y0013400D02*
X-0094800D01*
Y0012500D01*
X-0097000D01*
Y0013400D01*
X-0085550Y0026250D02*
X-0083350D01*
Y0025350D01*
X-0085550D01*
Y0026250D01*
X-0072550Y0014450D02*
X-0074750D01*
Y0015350D01*
X-0072550D01*
Y0014450D01*
X-0088750Y0012900D02*
Y0010700D01*
X-0089650D01*
Y0012900D01*
X-0088750D01*
X-0086000Y0016700D02*
X-0088200D01*
Y0017600D01*
X-0086000D01*
Y0016700D01*
X-0096200Y0017600D02*
X-0094000D01*
Y0016700D01*
X-0096200D01*
Y0017600D01*
X-0090250Y0024150D02*
Y0021950D01*
X-0091150D01*
Y0024150D01*
X-0090250D01*
X-0089950Y0025700D02*
X-0087750D01*
Y0024800D01*
X-0089950D01*
Y0025700D01*
X-0087750Y0012900D02*
Y0010700D01*
X-0088650D01*
Y0012900D01*
X-0087750D01*
X-0090400Y0018350D02*
Y0020550D01*
X-0089500D01*
Y0018350D01*
X-0090400D01*
X-0095050Y0030900D02*
Y0028700D01*
X-0095950D01*
Y0030900D01*
X-0095050D01*
X-0072600Y0047300D02*
X-0070400D01*
Y0046400D01*
X-0072600D01*
Y0047300D01*
X-0074950D02*
X-0072750D01*
Y0046400D01*
X-0074950D01*
Y0047300D01*
X-0116600Y0010450D02*
X-0118800D01*
Y0011350D01*
X-0116600D01*
Y0010450D01*
X-0114150D02*
X-0116350D01*
Y0011350D01*
X-0114150D01*
Y0010450D01*
X-0111700D02*
X-0113900D01*
Y0011350D01*
X-0111700D01*
Y0010450D01*
X-0089050Y0021950D02*
Y0024150D01*
X-0088150D01*
Y0021950D01*
X-0089050D01*
X-0070250Y0047300D02*
X-0068050D01*
Y0046400D01*
X-0070250D01*
Y0047300D01*
X-0086750Y0012900D02*
Y0010700D01*
X-0087650D01*
Y0012900D01*
X-0086750D01*
X-0091300Y0024150D02*
Y0021950D01*
X-0092200D01*
Y0024150D01*
X-0091300D01*
X-0085550Y0022850D02*
X-0083350D01*
Y0021950D01*
X-0085550D01*
Y0022850D01*
Y0024150D02*
X-0083350D01*
Y0023250D01*
X-0085550D01*
Y0024150D01*
Y0025200D02*
X-0083350D01*
Y0024300D01*
X-0085550D01*
Y0025200D01*
X-0077300Y0047300D02*
X-0075100D01*
Y0046400D01*
X-0077300D01*
Y0047300D01*
X-0079650D02*
X-0077450D01*
Y0046400D01*
X-0079650D01*
Y0047300D01*
X-0094000Y0015700D02*
X-0096200D01*
Y0016600D01*
X-0094000D01*
Y0015700D01*
X-0109150Y0010450D02*
X-0111350D01*
Y0011350D01*
X-0109150D01*
Y0010450D01*
X-0093350Y0021950D02*
Y0024150D01*
X-0092450D01*
Y0021950D01*
X-0093350D01*
X-0072550Y0015700D02*
X-0074750D01*
Y0016600D01*
X-0072550D01*
Y0015700D01*
X-0083350Y0020800D02*
X-0085550D01*
Y0021700D01*
X-0083350D01*
Y0020800D01*
X-0065120Y0030570D02*
X-0065050Y0030500D01*
X-0064800Y0030175D01*
X-0059550D01*
Y0032930D01*
X-0065120D01*
Y0030570D01*
G54D11*
X-0115250Y0046450D03*
Y0039050D03*
Y0031600D03*
X-0107800Y0046450D03*
X-0107850Y0039050D03*
X-0115250Y0024200D03*
Y0016750D03*
X-0107850D03*
Y0024150D03*
Y0031550D03*
G54D12*
X-0115250Y0043450D03*
Y0036050D03*
Y0028600D03*
X-0107800Y0043450D03*
X-0107850Y0036050D03*
X-0115250Y0021200D03*
Y0013750D03*
X-0107850D03*
Y0021150D03*
Y0028550D03*
G54D13*
X-0080500Y0031950D03*
X-0076250D03*
X-0084750D03*
X-0072050Y0043700D03*
X-0067900D03*
G54D14*
X-0080500D03*
X-0076250D03*
X-0084750D03*
X-0072050Y0031950D03*
X-0067900D03*
G54D15*
X-0070700Y0016150D03*
X-0069400D03*
Y0014950D03*
X-0070700D03*
X-0083800Y0024750D03*
X-0085100D03*
X-0083800Y0023700D03*
X-0085100D03*
X-0089950Y0020100D03*
Y0018800D03*
X-0083800Y0022400D03*
X-0085100D03*
Y0021250D03*
X-0083800D03*
X-0074300Y0016150D03*
X-0073000D03*
X-0095700Y0024500D03*
X-0094400D03*
Y0029150D03*
Y0030450D03*
X-0088200Y0011150D03*
Y0012450D03*
X-0087750Y0017150D03*
X-0086450D03*
X-0089200Y0011150D03*
Y0012450D03*
X-0074300Y0014900D03*
X-0073000D03*
X-0095250Y0012950D03*
X-0096550D03*
X-0086450Y0015150D03*
X-0087750D03*
X-0086200Y0011150D03*
Y0012450D03*
X-0087750Y0016150D03*
X-0086450D03*
X-0091750Y0022400D03*
Y0023700D03*
X-0087200Y0011150D03*
Y0012450D03*
X-0068500Y0046850D03*
X-0069800D03*
X-0088600Y0023700D03*
Y0022400D03*
X-0113450Y0010900D03*
X-0112150D03*
X-0092900Y0023700D03*
Y0022400D03*
X-0110900Y0010900D03*
X-0109600D03*
X-0115900D03*
X-0114600D03*
X-0095750Y0016150D03*
X-0094450D03*
X-0118350Y0010900D03*
X-0117050D03*
X-0077900Y0046850D03*
X-0079200D03*
X-0075550D03*
X-0076850D03*
X-0073200D03*
X-0074500D03*
X-0070850D03*
X-0072150D03*
X-0095500Y0029150D03*
Y0030450D03*
X-0089650Y0022400D03*
Y0023700D03*
X-0089950Y0017800D03*
Y0016500D03*
X-0086100Y0023700D03*
Y0022400D03*
X-0097050Y0026100D03*
Y0027400D03*
X-0083800Y0020100D03*
X-0085100D03*
X-0093400Y0026200D03*
Y0027500D03*
X-0089050Y0016500D03*
Y0017800D03*
Y0020100D03*
Y0018800D03*
X-0085200Y0011150D03*
Y0012450D03*
X-0094650Y0018750D03*
Y0020050D03*
X-0094300Y0012950D03*
X-0093000D03*
X-0088200Y0025250D03*
X-0089500D03*
X-0090700Y0022400D03*
Y0023700D03*
X-0094450Y0017150D03*
X-0095750D03*
X-0083800Y0025800D03*
X-0085100D03*
G54D16*
X-0087750Y0027000D03*
X-0089750D03*
X-0087200Y0014050D03*
X-0088200D03*
X-0089200D03*
X-0090200D03*
X-0091200D03*
X-0095550Y0011550D03*
X-0094550D03*
X-0093550D03*
X-0092550D03*
X-0091550D03*
X-0123300Y0017250D03*
X-0121300Y0016000D03*
X-0103250Y0019250D03*
G54D17*
X-0088750Y0027000D03*
X-0086200Y0014050D03*
X-0096550Y0011550D03*
X-0102000Y0019250D03*
G54D18*
X-0099000Y0018950D03*
X-0100350D03*
G54D19*
X-0098250Y0026050D03*
Y0027400D03*
X-0092250Y0026150D03*
Y0027500D03*
X-0095850Y0020050D03*
Y0018700D03*
G54D20*
X-0067500Y0011450D03*
Y0014450D03*
Y0020200D03*
Y0023200D03*
X-0098500Y0012850D03*
Y0010850D03*
X-0100500Y0020450D03*
X-0098500D03*
X-0102550Y0014450D03*
Y0016450D03*
X-0073050Y0013350D03*
Y0011350D03*
X-0101900Y0026000D03*
X-0099900D03*
X-0103200Y0011200D03*
X-0100200D03*
G54D21*
X-0100300Y0023250D03*
X-0099300D03*
X-0093600Y0034750D03*
X-0095100Y0035750D03*
X-0090000Y0034750D03*
X-0091500Y0033750D03*
G54D22*
X-0101300Y0023250D03*
X-0095100Y0033750D03*
X-0091500Y0035750D03*
G54D24*
X-0064406Y0031553D03*
X-0060470D03*
G54D26*
X-0097260Y0019330D03*
G54D27*
X-0098050Y0019700D03*
Y0018960D03*
G54D28*
X-0087450Y0018250D03*
X-0086950D03*
X-0086450D03*
Y0020370D03*
X-0086950D03*
X-0087450D03*
X-0087950D03*
X-0095500Y0025750D03*
X-0095000D03*
X-0094500D03*
Y0027870D03*
X-0095000D03*
X-0095500D03*
X-0096000D03*
G54D29*
X-0087950Y0018250D03*
X-0096000Y0025750D03*
G54D30*
X-0093200Y0018250D03*
X-0092700D03*
X-0092200D03*
X-0091700D03*
X-0091200D03*
X-0090700D03*
X-0090690Y0020410D03*
X-0091220D03*
X-0091720D03*
X-0092210D03*
X-0092720Y0020400D03*
X-0093200D03*
X-0093690D03*
G54D31*
X-0093700Y0018250D03*
G54D55*
X-0101800Y0046800D03*
X-0095800Y0041800D03*
M02*
