*
G04 Mass Parameters ***
*
G04 Image ***
*
%INC:\PROJECTS\ORCAD\PV_BOOST\PV_BOOST.SSB*%
%ICAS*%
%MOIN*%
%IPPOS*%
%ASAXBY*%
G74*%FSLAN2X34Y34*%
*
G04 Aperture Definitions ***
*
%ADD10C,0.1300*%
%ADD11C,0.0800*%
%ADD12R,0.0800X0.0800*%
%ADD13C,0.0820*%
%ADD14R,0.0820X0.0820*%
%ADD15R,0.0600X0.0600*%
%ADD16C,0.0550*%
%ADD17R,0.0550X0.0550*%
%ADD18R,0.0640X0.1000*%
%ADD19R,0.1000X0.0640*%
%ADD20C,0.0520*%
%ADD21C,0.0750*%
%ADD22R,0.0750X0.0750*%
%ADD23R,0.2000X0.2000*%
%ADD24R,0.1181X0.2756*%
%ADD25C,0.0620*%
%ADD26R,0.0500X0.0340*%
%ADD27R,0.0400X0.0340*%
%ADD28O,0.0250X0.0860*%
%ADD29R,0.0250X0.0860*%
%ADD30O,0.0250X0.0940*%
%ADD31R,0.0250X0.0940*%
%ADD32C,0.1040*%
%ADD33C,0.0500*%
%ADD34C,0.0010*%
%ADD35C,0.0100*%
%ADD36C,0.0120*%
%ADD37C,0.0080*%
%ADD38C,0.0300*%
%ADD39C,0.0200*%
%ADD40C,0.0500*%
%ADD41C,0.2000*%
%ADD42C,0.1000*%
%ADD43C,0.0050*%
%ADD44C,0.1000*%
%ADD45R,0.1000X0.1000*%
%ADD46C,0.1020*%
%ADD47R,0.1020X0.1020*%
%ADD48C,0.0720*%
%ADD49C,0.0950*%
%ADD50R,0.0950X0.0950*%
%ADD51C,0.2000*%
%ADD52C,0.0700*%
%ADD53C,0.1100*%
%ADD54C,0.0650*%
%ADD55C,0.1600*%
%ADD56C,0.0670*%
%ADD57C,0.1090*%
%ADD58C,0.0600*%
%ADD59C,0.0060*%
%ADD60C,0.0098*%
%ADD61C,0.0600*%
*
G04 Plot Data ***
*
G54D37*
G01X-0090652Y0032012D02*
X-0090680Y0032067D01*
X-0090847D01*
X-0090875Y0032012D01*
Y0031901D01*
X-0090819Y0031845D01*
X-0090652D01*
Y0031734D01*
X-0090875D01*
X-0090465Y0032067D02*
X-0090354D01*
X-0090409D02*
Y0031734D01*
X-0090354Y0031789D01*
X-0089916Y0032067D02*
Y0031734D01*
X-0089888Y0032067D02*
X-0090055D01*
X-0090110Y0031956D01*
Y0031845D01*
X-0090055Y0031734D01*
X-0089888D01*
X-0098635Y0037183D02*
X-0098746D01*
X-0098691D02*
Y0037516D01*
X-0098746Y0037460D01*
X-0099101Y0037294D02*
X-0098989Y0037183D01*
X-0099212Y0037238D02*
X-0099184Y0037183D01*
X-0099073D01*
X-0099045Y0037238D01*
X-0098989Y0037294D01*
Y0037460D01*
X-0099017Y0037516D01*
X-0099184D01*
X-0099212Y0037460D01*
Y0037238D01*
G54D59*
G01X-0089335Y0039899D02*
X-0089169D01*
Y0039732D02*
Y0040066D01*
X-0089391D01*
X-0089021D02*
Y0039732D01*
X-0088965Y0039788D01*
X-0088854Y0040010D01*
X-0088799Y0040066D01*
Y0039732D01*
X-0088512D02*
X-0088456Y0039788D01*
X-0088429Y0039844D01*
Y0039955D01*
X-0088456Y0040010D01*
X-0088512Y0040066D01*
X-0088568D01*
X-0088567D02*
X-0088623Y0040010D01*
X-0088651Y0039955D01*
Y0039844D01*
X-0088623Y0039788D01*
X-0088568Y0039732D01*
X-0088567D02*
X-0088512D01*
X-0088142D02*
X-0088086Y0039788D01*
X-0088059Y0039844D01*
Y0039955D01*
X-0088086Y0040010D01*
X-0088142Y0040066D01*
X-0088198D01*
X-0088197D02*
X-0088253Y0040010D01*
X-0088281Y0039955D01*
Y0039844D01*
X-0088253Y0039788D01*
X-0088198Y0039732D01*
X-0088197D02*
X-0088142D01*
X-0087911D02*
X-0087800D01*
X-0087855D02*
Y0040066D01*
X-0087800Y0040010D01*
X-0097335Y0021949D02*
X-0097169D01*
Y0021782D02*
Y0022116D01*
X-0097391D01*
X-0097021D02*
Y0021782D01*
X-0096965Y0021838D01*
X-0096854Y0022060D01*
X-0096799Y0022116D01*
Y0021782D01*
X-0096512D02*
X-0096456Y0021838D01*
X-0096429Y0021894D01*
Y0022005D01*
X-0096456Y0022060D01*
X-0096512Y0022116D01*
X-0096568D01*
X-0096567D02*
X-0096623Y0022060D01*
X-0096651Y0022005D01*
Y0021894D01*
X-0096623Y0021838D01*
X-0096568Y0021782D01*
X-0096567D02*
X-0096512D01*
X-0096142D02*
X-0096086Y0021838D01*
X-0096059Y0021894D01*
Y0022005D01*
X-0096086Y0022060D01*
X-0096142Y0022116D01*
X-0096198D01*
X-0096197D02*
X-0096253Y0022060D01*
X-0096281Y0022005D01*
Y0021894D01*
X-0096253Y0021838D01*
X-0096198Y0021782D01*
X-0096197D02*
X-0096142D01*
X-0095911D02*
X-0095800D01*
X-0095855D02*
Y0022116D01*
X-0095800Y0022060D01*
X-0089335Y0038749D02*
X-0089169D01*
Y0038582D02*
Y0038916D01*
X-0089391D01*
X-0089021D02*
Y0038582D01*
X-0088965Y0038638D01*
X-0088854Y0038860D01*
X-0088799Y0038916D01*
Y0038582D01*
X-0088512D02*
X-0088456Y0038638D01*
X-0088429Y0038694D01*
Y0038805D01*
X-0088456Y0038860D01*
X-0088512Y0038916D01*
X-0088568D01*
X-0088567D02*
X-0088623Y0038860D01*
X-0088651Y0038805D01*
Y0038694D01*
X-0088623Y0038638D01*
X-0088568Y0038582D01*
X-0088567D02*
X-0088512D01*
X-0088142D02*
X-0088086Y0038638D01*
X-0088059Y0038694D01*
Y0038805D01*
X-0088086Y0038860D01*
X-0088142Y0038916D01*
X-0088198D01*
X-0088197D02*
X-0088253Y0038860D01*
X-0088281Y0038805D01*
Y0038694D01*
X-0088253Y0038638D01*
X-0088198Y0038582D01*
X-0088197D02*
X-0088142D01*
X-0087911D02*
X-0087800D01*
X-0087855D02*
Y0038916D01*
X-0087800Y0038860D01*
X-0089335Y0037649D02*
X-0089169D01*
Y0037482D02*
Y0037816D01*
X-0089391D01*
X-0089021D02*
Y0037482D01*
X-0088965Y0037538D01*
X-0088854Y0037760D01*
X-0088799Y0037816D01*
Y0037482D01*
X-0088512D02*
X-0088456Y0037538D01*
X-0088429Y0037594D01*
Y0037705D01*
X-0088456Y0037760D01*
X-0088512Y0037816D01*
X-0088568D01*
X-0088567D02*
X-0088623Y0037760D01*
X-0088651Y0037705D01*
Y0037594D01*
X-0088623Y0037538D01*
X-0088568Y0037482D01*
X-0088567D02*
X-0088512D01*
X-0088142D02*
X-0088086Y0037538D01*
X-0088059Y0037594D01*
Y0037705D01*
X-0088086Y0037760D01*
X-0088142Y0037816D01*
X-0088198D01*
X-0088197D02*
X-0088253Y0037760D01*
X-0088281Y0037705D01*
Y0037594D01*
X-0088253Y0037538D01*
X-0088198Y0037482D01*
X-0088197D02*
X-0088142D01*
X-0087911D02*
X-0087800D01*
X-0087855D02*
Y0037816D01*
X-0087800Y0037760D01*
X-0103602Y0022062D02*
X-0103435D01*
Y0021895D02*
Y0022228D01*
X-0103658D01*
X-0103288D02*
Y0021895D01*
X-0103232Y0021951D01*
X-0103121Y0022173D01*
X-0103065Y0022228D01*
Y0021895D01*
X-0102779D02*
X-0102723Y0021951D01*
X-0102695Y0022006D01*
Y0022117D01*
X-0102723Y0022173D01*
X-0102779Y0022228D01*
X-0102834D01*
X-0102890Y0022173D01*
X-0102918Y0022117D01*
Y0022006D01*
X-0102890Y0021951D01*
X-0102834Y0021895D01*
X-0102779D01*
X-0102409D02*
X-0102353Y0021951D01*
X-0102325Y0022006D01*
Y0022117D01*
X-0102353Y0022173D01*
X-0102409Y0022228D01*
X-0102464D01*
X-0102520Y0022173D01*
X-0102548Y0022117D01*
Y0022006D01*
X-0102520Y0021951D01*
X-0102464Y0021895D01*
X-0102409D01*
X-0102178D02*
X-0102067D01*
X-0102122D02*
Y0022228D01*
X-0102067Y0022173D01*
X-0091900Y0039450D02*
X-0089700D01*
Y0040350D01*
X-0091900D01*
Y0039450D01*
X-0099650Y0021500D02*
X-0097450D01*
Y0022400D01*
X-0099650D01*
Y0021500D01*
X-0107400Y0028950D02*
Y0031150D01*
X-0108300D01*
Y0028950D01*
X-0107400D01*
Y0036500D02*
Y0038700D01*
X-0108300D01*
Y0036500D01*
X-0107400D01*
X-0107350Y0043750D02*
Y0045950D01*
X-0108250D01*
Y0043750D01*
X-0107350D01*
X-0107450Y0021700D02*
Y0023900D01*
X-0108350D01*
Y0021700D01*
X-0107450D01*
X-0091900Y0038300D02*
X-0089700D01*
Y0039200D01*
X-0091900D01*
Y0038300D01*
Y0037200D02*
X-0089700D01*
Y0038100D01*
X-0091900D01*
Y0037200D01*
X-0099800Y0022400D02*
X-0102000D01*
Y0021500D01*
X-0099800D01*
Y0022400D01*
G54D55*
X-0101800Y0046800D03*
X-0095800Y0041800D03*
M02*
