*
G04 Mass Parameters ***
*
G04 Image ***
*
%INC:\PROJECTS\ORCAD\PV_BOOST\PV_BOOST.DRD*%
%ICAS*%
%MOIN*%
%IPPOS*%
%ASAXBY*%
G74*%FSLAN2X34Y34*%
*
G04 Aperture Definitions ***
*
%ADD10C,0.1300*%
%ADD11C,0.0800*%
%ADD12R,0.0800X0.0800*%
%ADD13C,0.0820*%
%ADD14R,0.0820X0.0820*%
%ADD15R,0.0600X0.0600*%
%ADD16C,0.0550*%
%ADD17R,0.0550X0.0550*%
%ADD18R,0.0640X0.1000*%
%ADD19R,0.1000X0.0640*%
%ADD20C,0.0520*%
%ADD21C,0.0750*%
%ADD22R,0.0750X0.0750*%
%ADD23R,0.2000X0.2000*%
%ADD24R,0.1181X0.2756*%
%ADD25C,0.0620*%
%ADD26R,0.0500X0.0340*%
%ADD27R,0.0400X0.0340*%
%ADD28O,0.0250X0.0860*%
%ADD29R,0.0250X0.0860*%
%ADD30O,0.0250X0.0940*%
%ADD31R,0.0250X0.0940*%
%ADD32C,0.1040*%
%ADD33C,0.0500*%
%ADD34C,0.0010*%
%ADD35C,0.0100*%
%ADD36C,0.0120*%
%ADD37C,0.0080*%
%ADD38C,0.0300*%
%ADD39C,0.0200*%
%ADD40C,0.0500*%
%ADD41C,0.2000*%
%ADD42C,0.1000*%
%ADD43C,0.0050*%
%ADD44C,0.1000*%
%ADD45R,0.1000X0.1000*%
%ADD46C,0.1020*%
%ADD47R,0.1020X0.1020*%
%ADD48C,0.0720*%
%ADD49C,0.0950*%
%ADD50R,0.0950X0.0950*%
%ADD51C,0.2000*%
%ADD52C,0.0700*%
%ADD53C,0.1100*%
%ADD54C,0.0650*%
%ADD55C,0.1600*%
%ADD56C,0.0670*%
%ADD57C,0.1090*%
%ADD58C,0.0600*%
%ADD59C,0.0060*%
%ADD60C,0.0098*%
%ADD61C,0.0600*%
*
G04 Plot Data ***
*
G54D35*
G01X0024625Y-0021333D02*
X0024708Y-0021167D01*
Y-0021000D01*
X0024625Y-0020833D01*
X0024125D01*
X0024042Y-0021000D01*
X0024041D02*
X0024042Y-0021167D01*
X0024041D02*
X0024125Y-0021333D01*
X0024625D01*
X0024708Y-0021500D01*
Y-0021667D01*
X0024625Y-0021833D01*
X0024125D01*
X0024042Y-0021667D01*
X0024041D02*
X0024042Y-0021500D01*
X0024041D02*
X0024125Y-0021333D01*
X0023175D02*
X0023675D01*
X0023758Y-0021500D01*
Y-0021667D01*
X0023675Y-0021833D01*
X0023175D01*
X0023092Y-0021667D01*
X0023091D02*
X0023092Y-0021500D01*
X0023091D02*
X0023425Y-0020833D01*
X0022808Y-0021833D02*
X0022475D01*
X0022642D02*
Y-0020833D01*
X0022475Y-0021000D01*
X0012312Y-0021833D02*
X0011729D01*
Y-0020833D01*
X0011446Y-0021500D02*
X0010779D01*
X0011446Y-0021833D02*
Y-0021333D01*
X0011196Y-0020833D01*
X0011029D01*
X0010779Y-0021333D01*
Y-0021833D01*
X0010162D02*
Y-0020833D01*
X0010496D02*
X0009829D01*
X0008962Y-0021833D02*
X0008879Y-0021667D01*
Y-0021000D01*
X0008962Y-0020833D01*
X0009462D01*
X0009546Y-0021000D01*
Y-0021667D01*
X0009462Y-0021833D01*
X0008962D01*
X0008262D02*
Y-0020833D01*
X0008596D02*
X0007929D01*
X0024708Y-0019972D02*
X0024264D01*
X0024708Y-0019528D01*
Y-0019417D01*
X0024653Y-0019306D01*
X0024319D01*
X0024264Y-0019417D01*
X0010814Y-0019972D02*
X0010703Y-0019861D01*
X0010647Y-0019750D01*
Y-0019528D01*
X0010703Y-0019417D01*
X0010814Y-0019306D01*
X0010925D01*
X0011036Y-0019417D01*
X0011092Y-0019528D01*
Y-0019750D01*
X0011036Y-0019861D01*
X0010925Y-0019972D01*
X0010814D01*
X0010003Y-0019639D02*
X0010336D01*
X0010392Y-0019750D01*
Y-0019861D01*
X0010336Y-0019972D01*
X0010003D01*
X0009947Y-0019861D01*
Y-0019750D01*
X0010169Y-0019306D01*
X0009692Y-0019972D02*
X0009469D01*
X0009580D02*
Y-0019306D01*
X0009469Y-0019417D01*
X0008992Y-0019972D02*
X0009103D01*
Y-0019861D01*
X0008992D01*
Y-0019972D01*
X0008347D02*
X0008236Y-0019861D01*
X0008181Y-0019750D01*
Y-0019528D01*
X0008236Y-0019417D01*
X0008347Y-0019306D01*
X0008458D01*
X0008569Y-0019417D01*
X0008625Y-0019528D01*
Y-0019750D01*
X0008569Y-0019861D01*
X0008458Y-0019972D01*
X0008347D01*
X0024708Y-0018250D02*
X0024264D01*
X0024486Y-0017806D01*
X0024597D01*
Y-0018472D01*
X0024008D02*
X0023564D01*
X0024008Y-0018028D01*
Y-0017917D01*
X0023953Y-0017806D01*
X0023619D01*
X0023564Y-0017917D01*
X0010647Y-0018361D02*
X0010703Y-0018472D01*
X0011036D01*
X0011092Y-0018361D01*
Y-0018139D01*
X0010980Y-0018028D01*
X0010647D01*
Y-0017806D01*
X0011092D01*
X0010336Y-0018139D02*
X0010003D01*
X0009947Y-0018028D01*
Y-0017917D01*
X0010003Y-0017806D01*
X0010336D01*
X0010392Y-0017917D01*
Y-0018028D01*
X0010169Y-0018472D01*
X0009414D02*
X0009303Y-0018361D01*
X0009247Y-0018250D01*
Y-0018028D01*
X0009303Y-0017917D01*
X0009414Y-0017806D01*
X0009525D01*
X0009636Y-0017917D01*
X0009692Y-0018028D01*
Y-0018250D01*
X0009636Y-0018361D01*
X0009525Y-0018472D01*
X0009414D01*
X0008880D02*
X0008992D01*
Y-0018361D01*
X0008881D01*
X0008880D02*
X0008881Y-0018472D01*
X0008236D02*
X0008125Y-0018361D01*
X0008069Y-0018250D01*
Y-0018028D01*
X0008125Y-0017917D01*
X0008236Y-0017806D01*
X0008347D01*
X0008458Y-0017917D01*
X0008514Y-0018028D01*
Y-0018250D01*
X0008458Y-0018361D01*
X0008347Y-0018472D01*
X0008236D01*
X0024653Y-0016639D02*
X0024708Y-0016528D01*
Y-0016417D01*
X0024653Y-0016306D01*
X0024319D01*
X0024264Y-0016417D01*
Y-0016528D01*
X0024319Y-0016639D01*
X0024653D01*
X0024708Y-0016750D01*
Y-0016861D01*
X0024653Y-0016972D01*
X0024319D01*
X0024264Y-0016861D01*
Y-0016750D01*
X0024319Y-0016639D01*
X0010814Y-0016972D02*
X0010703Y-0016861D01*
X0010647Y-0016750D01*
Y-0016528D01*
X0010703Y-0016417D01*
X0010814Y-0016306D01*
X0010925D01*
X0011036Y-0016417D01*
X0011092Y-0016528D01*
Y-0016750D01*
X0011036Y-0016861D01*
X0010925Y-0016972D01*
X0010814D01*
X0010336Y-0016639D02*
X0010392Y-0016528D01*
Y-0016417D01*
X0010336Y-0016306D01*
X0010003D01*
X0009947Y-0016417D01*
Y-0016528D01*
X0010003Y-0016639D01*
X0010336D01*
X0010392Y-0016750D01*
Y-0016861D01*
X0010336Y-0016972D01*
X0010003D01*
X0009947Y-0016861D01*
Y-0016750D01*
X0010003Y-0016639D01*
X0009414Y-0016972D02*
X0009303Y-0016861D01*
X0009247Y-0016750D01*
Y-0016528D01*
X0009303Y-0016417D01*
X0009414Y-0016306D01*
X0009525D01*
X0009636Y-0016417D01*
X0009692Y-0016528D01*
Y-0016750D01*
X0009636Y-0016861D01*
X0009525Y-0016972D01*
X0009414D01*
X0008880D02*
X0008992D01*
Y-0016861D01*
X0008881D01*
X0008880D02*
X0008881Y-0016972D01*
X0008236D02*
X0008125Y-0016861D01*
X0008069Y-0016750D01*
Y-0016528D01*
X0008125Y-0016417D01*
X0008236Y-0016306D01*
X0008347D01*
X0008458Y-0016417D01*
X0008514Y-0016528D01*
Y-0016750D01*
X0008458Y-0016861D01*
X0008347Y-0016972D01*
X0008236D01*
X0024430Y-0015472D02*
X0024319Y-0015361D01*
X0024264Y-0015250D01*
Y-0015028D01*
X0024319Y-0014917D01*
X0024430Y-0014806D01*
X0024542D01*
X0024541D02*
X0024653Y-0014917D01*
X0024708Y-0015028D01*
Y-0015250D01*
X0024653Y-0015361D01*
X0024542Y-0015472D01*
X0024541D02*
X0024430D01*
X0024008D02*
X0023786D01*
X0023897D02*
Y-0014806D01*
X0023786Y-0014917D01*
X0011092Y-0015472D02*
X0010869D01*
X0010980D02*
Y-0014806D01*
X0010869Y-0014917D01*
X0010114Y-0015139D02*
X0010447D01*
X0010503Y-0015250D01*
Y-0015361D01*
X0010447Y-0015472D01*
X0010114D01*
X0010058Y-0015361D01*
Y-0015250D01*
X0010280Y-0014806D01*
X0009525Y-0015472D02*
X0009414Y-0015361D01*
X0009358Y-0015250D01*
Y-0015028D01*
X0009414Y-0014917D01*
X0009525Y-0014806D01*
X0009636D01*
X0009747Y-0014917D01*
X0009803Y-0015028D01*
Y-0015250D01*
X0009747Y-0015361D01*
X0009636Y-0015472D01*
X0009525D01*
X0008992D02*
X0009103D01*
Y-0015361D01*
X0008992D01*
Y-0015472D01*
X0008347D02*
X0008236Y-0015361D01*
X0008181Y-0015250D01*
Y-0015028D01*
X0008236Y-0014917D01*
X0008347Y-0014806D01*
X0008458D01*
X0008569Y-0014917D01*
X0008625Y-0015028D01*
Y-0015250D01*
X0008569Y-0015361D01*
X0008458Y-0015472D01*
X0008347D01*
X0024653Y-0013639D02*
X0024319D01*
X0024264Y-0013528D01*
Y-0013417D01*
X0024319Y-0013306D01*
X0024653D01*
X0024708Y-0013417D01*
Y-0013528D01*
X0024486Y-0013972D01*
X0011092Y-0013750D02*
X0010647D01*
X0010869Y-0013306D01*
X0010980D01*
Y-0013972D01*
X0009947Y-0013861D02*
X0010003Y-0013972D01*
X0010336D01*
X0010392Y-0013861D01*
Y-0013639D01*
X0010280Y-0013528D01*
X0009947D01*
Y-0013306D01*
X0010392D01*
X0009414Y-0013972D02*
X0009303Y-0013861D01*
X0009247Y-0013750D01*
Y-0013528D01*
X0009303Y-0013417D01*
X0009414Y-0013306D01*
X0009525D01*
X0009636Y-0013417D01*
X0009692Y-0013528D01*
Y-0013750D01*
X0009636Y-0013861D01*
X0009525Y-0013972D01*
X0009414D01*
X0008880D02*
X0008992D01*
Y-0013861D01*
X0008881D01*
X0008880D02*
X0008881Y-0013972D01*
X0008236D02*
X0008125Y-0013861D01*
X0008069Y-0013750D01*
Y-0013528D01*
X0008125Y-0013417D01*
X0008236Y-0013306D01*
X0008347D01*
X0008458Y-0013417D01*
X0008514Y-0013528D01*
Y-0013750D01*
X0008458Y-0013861D01*
X0008347Y-0013972D01*
X0008236D01*
X0024430Y-0012472D02*
X0024319Y-0012361D01*
X0024264Y-0012250D01*
Y-0012028D01*
X0024319Y-0011917D01*
X0024430Y-0011806D01*
X0024542D01*
X0024541D02*
X0024653Y-0011917D01*
X0024708Y-0012028D01*
Y-0012250D01*
X0024653Y-0012361D01*
X0024542Y-0012472D01*
X0024541D02*
X0024430D01*
X0024008D02*
X0023564D01*
X0024008Y-0012028D01*
Y-0011917D01*
X0023953Y-0011806D01*
X0023619D01*
X0023564Y-0011917D01*
X0010814Y-0012472D02*
X0010703Y-0012361D01*
X0010647Y-0012250D01*
Y-0012028D01*
X0010703Y-0011917D01*
X0010814Y-0011806D01*
X0010925D01*
X0011036Y-0011917D01*
X0011092Y-0012028D01*
Y-0012250D01*
X0011036Y-0012361D01*
X0010925Y-0012472D01*
X0010814D01*
X0010392Y-0012250D02*
X0009947D01*
X0010169Y-0011806D01*
X0010280D01*
Y-0012472D01*
X0009414D02*
X0009303Y-0012361D01*
X0009247Y-0012250D01*
Y-0012028D01*
X0009303Y-0011917D01*
X0009414Y-0011806D01*
X0009525D01*
X0009636Y-0011917D01*
X0009692Y-0012028D01*
Y-0012250D01*
X0009636Y-0012361D01*
X0009525Y-0012472D01*
X0009414D01*
X0008880D02*
X0008992D01*
Y-0012361D01*
X0008881D01*
X0008880D02*
X0008881Y-0012472D01*
X0008236D02*
X0008125Y-0012361D01*
X0008069Y-0012250D01*
Y-0012028D01*
X0008125Y-0011917D01*
X0008236Y-0011806D01*
X0008347D01*
X0008458Y-0011917D01*
X0008514Y-0012028D01*
Y-0012250D01*
X0008458Y-0012361D01*
X0008347Y-0012472D01*
X0008236D01*
X0024653Y-0010639D02*
X0024708Y-0010528D01*
Y-0010417D01*
X0024653Y-0010306D01*
X0024319D01*
X0024264Y-0010417D01*
Y-0010528D01*
X0024319Y-0010639D01*
X0024653D01*
X0024708Y-0010750D01*
Y-0010861D01*
X0024653Y-0010972D01*
X0024319D01*
X0024264Y-0010861D01*
Y-0010750D01*
X0024319Y-0010639D01*
X0011036D02*
X0011092Y-0010528D01*
Y-0010417D01*
X0011036Y-0010306D01*
X0010703D01*
X0010647Y-0010417D01*
Y-0010528D01*
X0010703Y-0010639D01*
X0011036D01*
X0011092Y-0010750D01*
Y-0010861D01*
X0011036Y-0010972D01*
X0010703D01*
X0010647Y-0010861D01*
Y-0010750D01*
X0010703Y-0010639D01*
X0009947Y-0010861D02*
X0010058Y-0010972D01*
X0010280D01*
X0010392Y-0010861D01*
Y-0010750D01*
X0010169Y-0010528D01*
X0010392Y-0010306D01*
X0009947D01*
X0009414Y-0010972D02*
X0009303Y-0010861D01*
X0009247Y-0010750D01*
Y-0010528D01*
X0009303Y-0010417D01*
X0009414Y-0010306D01*
X0009525D01*
X0009636Y-0010417D01*
X0009692Y-0010528D01*
Y-0010750D01*
X0009636Y-0010861D01*
X0009525Y-0010972D01*
X0009414D01*
X0008880D02*
X0008992D01*
Y-0010861D01*
X0008881D01*
X0008880D02*
X0008881Y-0010972D01*
X0008236D02*
X0008125Y-0010861D01*
X0008069Y-0010750D01*
Y-0010528D01*
X0008125Y-0010417D01*
X0008236Y-0010306D01*
X0008347D01*
X0008458Y-0010417D01*
X0008514Y-0010528D01*
Y-0010750D01*
X0008458Y-0010861D01*
X0008347Y-0010972D01*
X0008236D01*
X0024264Y-0009361D02*
X0024375Y-0009472D01*
X0024597D01*
X0024708Y-0009361D01*
Y-0009250D01*
X0024486Y-0009028D01*
X0024708Y-0008806D01*
X0024264D01*
X0024008Y-0009472D02*
X0023564D01*
X0024008Y-0009028D01*
Y-0008917D01*
X0023953Y-0008806D01*
X0023619D01*
X0023564Y-0008917D01*
X0010703Y-0009139D02*
X0011036D01*
X0011092Y-0009250D01*
Y-0009361D01*
X0011036Y-0009472D01*
X0010703D01*
X0010647Y-0009361D01*
Y-0009250D01*
X0010869Y-0008806D01*
X0009947Y-0009361D02*
X0010058Y-0009472D01*
X0010280D01*
X0010392Y-0009361D01*
Y-0009250D01*
X0010169Y-0009028D01*
X0010392Y-0008806D01*
X0009947D01*
X0009414Y-0009472D02*
X0009303Y-0009361D01*
X0009247Y-0009250D01*
Y-0009028D01*
X0009303Y-0008917D01*
X0009414Y-0008806D01*
X0009525D01*
X0009636Y-0008917D01*
X0009692Y-0009028D01*
Y-0009250D01*
X0009636Y-0009361D01*
X0009525Y-0009472D01*
X0009414D01*
X0008880D02*
X0008992D01*
Y-0009361D01*
X0008881D01*
X0008880D02*
X0008881Y-0009472D01*
X0008236D02*
X0008125Y-0009361D01*
X0008069Y-0009250D01*
Y-0009028D01*
X0008125Y-0008917D01*
X0008236Y-0008806D01*
X0008347D01*
X0008458Y-0008917D01*
X0008514Y-0009028D01*
Y-0009250D01*
X0008458Y-0009361D01*
X0008347Y-0009472D01*
X0008236D01*
X0024319Y-0007639D02*
X0024653D01*
X0024708Y-0007750D01*
Y-0007861D01*
X0024653Y-0007972D01*
X0024319D01*
X0024264Y-0007861D01*
Y-0007750D01*
X0024486Y-0007306D01*
X0024008Y-0007972D02*
X0023786D01*
X0023897D02*
Y-0007306D01*
X0023786Y-0007417D01*
X0011092Y-0007750D02*
X0010647D01*
X0010869Y-0007306D01*
X0010980D01*
Y-0007972D01*
X0009947Y-0007861D02*
X0010058Y-0007972D01*
X0010280D01*
X0010392Y-0007861D01*
Y-0007750D01*
X0010169Y-0007528D01*
X0010392Y-0007306D01*
X0009947D01*
X0009414Y-0007972D02*
X0009303Y-0007861D01*
X0009247Y-0007750D01*
Y-0007528D01*
X0009303Y-0007417D01*
X0009414Y-0007306D01*
X0009525D01*
X0009636Y-0007417D01*
X0009692Y-0007528D01*
Y-0007750D01*
X0009636Y-0007861D01*
X0009525Y-0007972D01*
X0009414D01*
X0008880D02*
X0008992D01*
Y-0007861D01*
X0008881D01*
X0008880D02*
X0008881Y-0007972D01*
X0008236D02*
X0008125Y-0007861D01*
X0008069Y-0007750D01*
Y-0007528D01*
X0008125Y-0007417D01*
X0008236Y-0007306D01*
X0008347D01*
X0008458Y-0007417D01*
X0008514Y-0007528D01*
Y-0007750D01*
X0008458Y-0007861D01*
X0008347Y-0007972D01*
X0008236D01*
X0024653Y-0006139D02*
X0024319D01*
X0024264Y-0006028D01*
Y-0005917D01*
X0024319Y-0005806D01*
X0024653D01*
X0024708Y-0005917D01*
Y-0006028D01*
X0024486Y-0006472D01*
X0024008D02*
X0023786D01*
X0023897D02*
Y-0005806D01*
X0023786Y-0005917D01*
X0011092Y-0006472D02*
X0010869D01*
X0010980D02*
Y-0005806D01*
X0010869Y-0005917D01*
X0010058Y-0006361D02*
X0010169Y-0006472D01*
X0010392D01*
X0010503Y-0006361D01*
Y-0006250D01*
X0010280Y-0006028D01*
X0010503Y-0005806D01*
X0010058D01*
X0009525Y-0006472D02*
X0009414Y-0006361D01*
X0009358Y-0006250D01*
Y-0006028D01*
X0009414Y-0005917D01*
X0009525Y-0005806D01*
X0009636D01*
X0009747Y-0005917D01*
X0009803Y-0006028D01*
Y-0006250D01*
X0009747Y-0006361D01*
X0009636Y-0006472D01*
X0009525D01*
X0008992D02*
X0009103D01*
Y-0006361D01*
X0008992D01*
Y-0006472D01*
X0008347D02*
X0008236Y-0006361D01*
X0008181Y-0006250D01*
Y-0006028D01*
X0008236Y-0005917D01*
X0008347Y-0005806D01*
X0008458D01*
X0008569Y-0005917D01*
X0008625Y-0006028D01*
Y-0006250D01*
X0008569Y-0006361D01*
X0008458Y-0006472D01*
X0008347D01*
X0024653Y-0004639D02*
X0024319D01*
X0024264Y-0004528D01*
Y-0004417D01*
X0024319Y-0004306D01*
X0024653D01*
X0024708Y-0004417D01*
Y-0004528D01*
X0024486Y-0004972D01*
X0024008D02*
X0023564D01*
X0024008Y-0004528D01*
Y-0004417D01*
X0023953Y-0004306D01*
X0023619D01*
X0023564Y-0004417D01*
X0011036Y-0004639D02*
X0011092Y-0004528D01*
Y-0004417D01*
X0011036Y-0004306D01*
X0010703D01*
X0010647Y-0004417D01*
Y-0004528D01*
X0010703Y-0004639D01*
X0011036D01*
X0011092Y-0004750D01*
Y-0004861D01*
X0011036Y-0004972D01*
X0010703D01*
X0010647Y-0004861D01*
Y-0004750D01*
X0010703Y-0004639D01*
X0010392Y-0004972D02*
X0009947D01*
X0010392Y-0004528D01*
Y-0004417D01*
X0010336Y-0004306D01*
X0010003D01*
X0009947Y-0004417D01*
X0009414Y-0004972D02*
X0009303Y-0004861D01*
X0009247Y-0004750D01*
Y-0004528D01*
X0009303Y-0004417D01*
X0009414Y-0004306D01*
X0009525D01*
X0009636Y-0004417D01*
X0009692Y-0004528D01*
Y-0004750D01*
X0009636Y-0004861D01*
X0009525Y-0004972D01*
X0009414D01*
X0008880D02*
X0008992D01*
Y-0004861D01*
X0008881D01*
X0008880D02*
X0008881Y-0004972D01*
X0008236D02*
X0008125Y-0004861D01*
X0008069Y-0004750D01*
Y-0004528D01*
X0008125Y-0004417D01*
X0008236Y-0004306D01*
X0008347D01*
X0008458Y-0004417D01*
X0008514Y-0004528D01*
Y-0004750D01*
X0008458Y-0004861D01*
X0008347Y-0004972D01*
X0008236D01*
X0033112Y-0002833D02*
X0032612D01*
X0033279Y-0003333D02*
X0032612D01*
Y-0002333D01*
X0033279D01*
X0031996Y-0003333D02*
Y-0002333D01*
X0032329D02*
X0031662D01*
X0030795Y-0003333D02*
X0030712Y-0003167D01*
Y-0002500D01*
X0030796Y-0002333D01*
X0030795D02*
X0031296D01*
X0031295D02*
X0031379Y-0002500D01*
Y-0003167D01*
X0031296Y-0003333D01*
X0031295D02*
X0030796D01*
X0030429Y-0002333D02*
Y-0003333D01*
X0030262Y-0003167D01*
X0029929Y-0002500D01*
X0029762Y-0002333D01*
Y-0003333D01*
X0023925D02*
Y-0002833D01*
X0024258Y-0002333D02*
X0024008Y-0002833D01*
X0023842D01*
X0023841D02*
X0023592Y-0002333D01*
X0022975Y-0003333D02*
Y-0002333D01*
X0023308D02*
X0022642D01*
X0022025Y-0003000D02*
X0022358Y-0003333D01*
X0021691Y-0003167D02*
X0021775Y-0003333D01*
X0022108D01*
X0022191Y-0003167D01*
X0022358Y-0003000D01*
Y-0002500D01*
X0022275Y-0002333D01*
X0021775D01*
X0021692Y-0002500D01*
X0021691D02*
X0021692Y-0003167D01*
X0017408Y-0003333D02*
X0016825D01*
Y-0002333D01*
X0015958Y-0003333D02*
X0015875Y-0003167D01*
Y-0002500D01*
X0015958Y-0002333D01*
X0016458D01*
X0016542Y-0002500D01*
Y-0003167D01*
X0016458Y-0003333D01*
X0015958D01*
X0015258D02*
Y-0002333D01*
X0015592D02*
X0014925D01*
X0009587Y-0003333D02*
Y-0002333D01*
X0009420Y-0002500D01*
X0009254Y-0002833D01*
X0009087Y-0002500D01*
X0008921Y-0002333D01*
X0008920D02*
X0008921Y-0003333D01*
X0008637Y-0003000D02*
X0007971D01*
X0008637Y-0003333D02*
Y-0002833D01*
X0008387Y-0002333D01*
X0008221D01*
X0008220D02*
X0007971Y-0002833D01*
X0007970D02*
X0007971Y-0003333D01*
X0007687D02*
X0007354D01*
X0007521D02*
Y-0002333D01*
X0007687D02*
X0007354D01*
X0006321Y-0003333D02*
Y-0002333D01*
X0006237Y-0003333D02*
X0006737D01*
X0006904Y-0003000D01*
Y-0002667D01*
X0006737Y-0002333D01*
X0006237D01*
X0003150Y-0003333D02*
Y-0002333D01*
X0002983Y-0002500D01*
X0002817Y-0002833D01*
X0002650Y-0002500D01*
X0002483Y-0002333D01*
Y-0003333D01*
X0001867D02*
Y-0002833D01*
X0002200Y-0002333D02*
X0001950Y-0002833D01*
X0001783D01*
X0001533Y-0002333D01*
X0001250Y-0002500D02*
X0001167Y-0002333D01*
X0001166D02*
X0000667D01*
X0000666D02*
X0000583Y-0002500D01*
Y-0002667D01*
X0000667Y-0002833D01*
X0000666D02*
X0001167D01*
X0001166D02*
X0001250Y-0003000D01*
Y-0003167D01*
X0001167Y-0003333D01*
X0001166D02*
X0000667D01*
X0000666D02*
X0000583Y-0003167D01*
X0023437Y-0001333D02*
Y-0000333D01*
X0023770D02*
X0023104D01*
X0022570Y-0000833D02*
X0022820Y-0001333D01*
X0022154Y-0000833D02*
X0022654D01*
X0022820Y-0000667D01*
Y-0000500D01*
X0022654Y-0000333D01*
X0022154D01*
Y-0001333D01*
X0021870Y-0001000D02*
X0021204D01*
X0021870Y-0001333D02*
Y-0000833D01*
X0021620Y-0000333D01*
X0021454D01*
X0021204Y-0000833D01*
Y-0001333D01*
X0020920Y-0000833D02*
X0020254D01*
X0020920Y-0001333D02*
Y-0000333D01*
X0020254Y-0001333D02*
Y-0000333D01*
X0019970Y-0001167D02*
X0019887Y-0001333D01*
X0019387D01*
X0019304Y-0001167D01*
Y-0000500D01*
X0019387Y-0000333D01*
X0019887D01*
X0019970Y-0000500D01*
X0017695Y-0001333D02*
X0017112D01*
Y-0000333D01*
X0016829Y-0001333D02*
X0016246D01*
Y-0000333D01*
X0015962Y-0001333D02*
X0015629D01*
X0015796D02*
Y-0000333D01*
X0015962D02*
X0015629D01*
X0014929Y-0000833D02*
X0015179Y-0001333D01*
X0014512Y-0000833D02*
X0015012D01*
X0015179Y-0000667D01*
Y-0000500D01*
X0015012Y-0000333D01*
X0014513D01*
X0014512D02*
X0014513Y-0001333D01*
X0013646D02*
Y-0000333D01*
X0013562Y-0001333D02*
X0014062D01*
X0014229Y-0001000D01*
Y-0000667D01*
X0014062Y-0000333D01*
X0013563D01*
X-0098600Y0015950D02*
X-0098850Y0015700D01*
X-0098350D02*
X-0098600Y0015950D01*
X-0098850Y0015700D02*
X-0098350D01*
X-0092050Y0014050D02*
X-0092300Y0013800D01*
X-0091800D02*
X-0092050Y0014050D01*
X-0092300Y0013800D02*
X-0091800D01*
X-0097250Y0021300D02*
X-0097500Y0021050D01*
X-0097000D02*
X-0097250Y0021300D01*
X-0097500Y0021050D02*
X-0097000D01*
X-0081950Y0013900D02*
X-0082200Y0013650D01*
X-0081700D02*
X-0081950Y0013900D01*
X-0082200Y0013650D02*
X-0081700D01*
X-0086000Y0015300D02*
X-0086250Y0015050D01*
X-0085750D02*
X-0086000Y0015300D01*
X-0086250Y0015050D02*
X-0085750D01*
X-0094100Y0013900D02*
X-0094350Y0013650D01*
X-0093850D02*
X-0094100Y0013900D01*
X-0094350Y0013650D02*
X-0093850D01*
X-0094700Y0018100D02*
X-0094950Y0017850D01*
X-0094450D02*
X-0094700Y0018100D01*
X-0094950Y0017850D02*
X-0094450D01*
X-0089700Y0021800D02*
X-0089950Y0021550D01*
X-0089450D02*
X-0089700Y0021800D01*
X-0089950Y0021550D02*
X-0089450D01*
X-0091700Y0015800D02*
X-0091950Y0015550D01*
X-0091450D02*
X-0091700Y0015800D01*
X-0091950Y0015550D02*
X-0091450D01*
X-0091200Y0016450D02*
X-0091450Y0016200D01*
X-0090950D02*
X-0091200Y0016450D01*
X-0091450Y0016200D02*
X-0090950D01*
X-0095100Y0015600D02*
X-0095350Y0015350D01*
X-0094850D02*
X-0095100Y0015600D01*
X-0095350Y0015350D02*
X-0094850D01*
X-0096500Y0013950D02*
X-0096750Y0013700D01*
X-0096250D02*
X-0096500Y0013950D01*
X-0096750Y0013700D02*
X-0096250D01*
X-0093200Y0019550D02*
X-0093450Y0019300D01*
X-0092950D02*
X-0093200Y0019550D01*
X-0093450Y0019300D02*
X-0092950D01*
X-0086200Y0013200D02*
X-0086450Y0012950D01*
X-0085950D02*
X-0086200Y0013200D01*
X-0086450Y0012950D02*
X-0085950D01*
X-0086200Y0013200D02*
X-0086450Y0012950D01*
X-0085950D02*
X-0086200Y0013200D01*
X-0086450Y0012950D02*
X-0085950D01*
X-0087200Y0013300D02*
X-0087450Y0013050D01*
X-0086950D02*
X-0087200Y0013300D01*
X-0087450Y0013050D02*
X-0086950D01*
X-0087200Y0013300D02*
X-0087450Y0013050D01*
X-0086950D02*
X-0087200Y0013300D01*
X-0087450Y0013050D02*
X-0086950D01*
X-0092400Y0019550D02*
X-0092650Y0019300D01*
X-0092150D02*
X-0092400Y0019550D01*
X-0092650Y0019300D02*
X-0092150D01*
X-0096350Y0016250D02*
X-0096600Y0016000D01*
X-0096100D02*
X-0096350Y0016250D01*
X-0096600Y0016000D02*
X-0096100D01*
X-0107100Y0012550D02*
X-0107350Y0012300D01*
X-0106850D02*
X-0107100Y0012550D01*
X-0107350Y0012300D02*
X-0106850D01*
X-0090500Y0025300D02*
X-0090750Y0025050D01*
X-0090250D02*
X-0090500Y0025300D01*
X-0090750Y0025050D02*
X-0090250D01*
X-0090500Y0028300D02*
X-0090750Y0028050D01*
X-0090250D02*
X-0090500Y0028300D01*
X-0090750Y0028050D02*
X-0090250D01*
X-0090700Y0017250D02*
X-0090950Y0017000D01*
X-0090450D02*
X-0090700Y0017250D01*
X-0090950Y0017000D02*
X-0090450D01*
X-0090700Y0017250D02*
X-0090950Y0017000D01*
X-0090450D02*
X-0090700Y0017250D01*
X-0090950Y0017000D02*
X-0090450D01*
X-0075400Y0016150D02*
X-0075650Y0015900D01*
X-0075150D02*
X-0075400Y0016150D01*
X-0075650Y0015900D02*
X-0075150D01*
X-0090700Y0017250D02*
X-0090950Y0017000D01*
X-0090450D02*
X-0090700Y0017250D01*
X-0090950Y0017000D02*
X-0090450D01*
X-0097050Y0029550D02*
X-0097300Y0029300D01*
X-0096800D02*
X-0097050Y0029550D01*
X-0097300Y0029300D02*
X-0096800D01*
X-0107900Y0011050D02*
X-0108150Y0010800D01*
X-0107650D02*
X-0107900Y0011050D01*
X-0108150Y0010800D02*
X-0107650D01*
X-0082150Y0016850D02*
X-0082400Y0016600D01*
X-0081900D02*
X-0082150Y0016850D01*
X-0082400Y0016600D02*
X-0081900D01*
X-0092210Y0021260D02*
X-0092460Y0021010D01*
X-0091960D02*
X-0092210Y0021260D01*
X-0092460Y0021010D02*
X-0091960D01*
X-0085750Y0017300D02*
X-0086000Y0017050D01*
X-0085500D02*
X-0085750Y0017300D01*
X-0086000Y0017050D02*
X-0085500D01*
X-0084350Y0017950D02*
X-0084600Y0017700D01*
X-0084100D02*
X-0084350Y0017950D01*
X-0084600Y0017700D02*
X-0084100D01*
X0001575Y-0019650D02*
Y-0019850D01*
X0001725Y-0019500D02*
X0001575Y-0019650D01*
X0001925Y-0019500D02*
X0001725D01*
X0002075Y-0019650D02*
X0001925Y-0019500D01*
X0002075Y-0019850D02*
Y-0019650D01*
X0001925Y-0020000D02*
X0002075Y-0019850D01*
X0001725Y-0020000D02*
X0001925D01*
X0001575Y-0019850D02*
X0001725Y-0020000D01*
X0001575Y-0018000D02*
Y-0018250D01*
X0001825Y-0018000D02*
X0001575D01*
X0001825Y-0018500D02*
Y-0018000D01*
X0002075Y-0018500D02*
X0001825D01*
X0002075Y-0018250D02*
Y-0018500D01*
X0001575Y-0018250D02*
X0002075D01*
X0001575Y-0016650D02*
Y-0016850D01*
X0001725Y-0016500D02*
X0001575Y-0016650D01*
X0001925Y-0016500D02*
X0001725D01*
X0002075Y-0016650D02*
X0001925Y-0016500D01*
X0002075Y-0016850D02*
Y-0016650D01*
X0001925Y-0017000D02*
X0002075Y-0016850D01*
X0001725Y-0017000D02*
X0001925D01*
X0001575Y-0016850D02*
X0001725Y-0017000D01*
X0001575Y-0015000D02*
Y-0015500D01*
X0002075Y-0015000D02*
X0001575D01*
X0002075Y-0015500D02*
Y-0015000D01*
X0001575Y-0015500D02*
X0002075D01*
Y-0015250D02*
X0001575D01*
X0001825Y-0015000D02*
Y-0015500D01*
Y-0013500D02*
X0001575Y-0013750D01*
X0002075D02*
X0001825Y-0013500D01*
Y-0014000D02*
X0002075Y-0013750D01*
X0001575D02*
X0001825Y-0014000D01*
X0001575Y-0012000D02*
Y-0012500D01*
X0002075Y-0012000D02*
X0001575D01*
X0002075Y-0012500D02*
Y-0012000D01*
X0001575Y-0012500D02*
X0002075D01*
Y-0012000D02*
X0001575Y-0012500D01*
X0002075D02*
X0001575Y-0012000D01*
Y-0010500D02*
Y-0010750D01*
X0001825Y-0010500D02*
X0001575D01*
X0001825Y-0011000D02*
Y-0010500D01*
X0002075Y-0011000D02*
X0001825D01*
X0002075Y-0010750D02*
Y-0011000D01*
X0001575Y-0010750D02*
X0002075D01*
X0001575Y-0009150D02*
Y-0009350D01*
X0001825Y-0009400D02*
X0001575Y-0009150D01*
X0002075D02*
X0001825Y-0009400D01*
X0002075Y-0009350D02*
Y-0009150D01*
X0001825Y-0009100D02*
X0002075Y-0009350D01*
X0001575D02*
X0001825Y-0009100D01*
X0002075Y-0007750D02*
X0001575D01*
X0001825Y-0007500D02*
Y-0008000D01*
X0002075Y-0006000D02*
X0001575Y-0006500D01*
X0002075D02*
X0001575Y-0006000D01*
X0001825Y-0004600D02*
X0001575Y-0004850D01*
X0002075D02*
X0001825Y-0004600D01*
X0001575Y-0004850D02*
X0002075D01*
X0037300Y-0022550D02*
X-0000050D01*
X0037250Y-0022500D02*
X0000000D01*
X0037250Y-0020500D02*
X0000000D01*
X0037250Y-0019000D02*
X0000000D01*
X0037250Y-0017500D02*
X0000000D01*
X0037250Y-0016000D02*
X0000000D01*
X0037250Y-0014500D02*
X0000000D01*
X0037250Y-0013000D02*
X0000000D01*
X0037250Y-0011500D02*
X0000000D01*
X0037250Y-0010000D02*
X0000000D01*
X0037250Y-0008500D02*
X0000000D01*
X0037250Y-0007000D02*
X0000000D01*
X0037250Y-0005500D02*
X0000000D01*
X0037250Y-0004000D02*
X0000000D01*
X0037250Y-0003950D02*
X0000000D01*
X0037250Y-0002000D02*
X0000000D01*
X0037250Y-0001950D02*
X0000000D01*
X0037250Y0000000D02*
X0000000D01*
X0037300Y0000050D02*
X-0000050D01*
X0037300Y-0022500D02*
Y0000000D01*
X0037250Y-0022500D02*
Y0000000D01*
X0025708Y-0022500D02*
Y-0002000D01*
X0020158Y-0022500D02*
Y-0002000D01*
X0012092Y-0020500D02*
Y-0002000D01*
X0003700Y-0020500D02*
Y-0002000D01*
X0003650Y-0020500D02*
Y-0002000D01*
X-0000050Y-0022500D02*
Y0000000D01*
X0000000Y-0022500D02*
Y0000000D01*
X-0067250Y0011700D02*
X-0067750Y0011200D01*
X-0067250D02*
X-0067750Y0011700D01*
X-0067250Y0014700D02*
X-0067750Y0014200D01*
X-0067250D02*
X-0067750Y0014700D01*
X-0067250Y0020450D02*
X-0067750Y0019950D01*
X-0067250D02*
X-0067750Y0020450D01*
X-0067250Y0023450D02*
X-0067750Y0022950D01*
X-0067250D02*
X-0067750Y0023450D01*
X-0100300Y0045000D02*
Y0044800D01*
X-0100050Y0044750D02*
X-0100300Y0045000D01*
X-0099800D02*
X-0100050Y0044750D01*
X-0099800Y0044800D02*
Y0045000D01*
X-0100050Y0045050D02*
X-0099800Y0044800D01*
X-0100300D02*
X-0100050Y0045050D01*
X-0099400Y0046100D02*
Y0045900D01*
X-0099150Y0045850D02*
X-0099400Y0046100D01*
X-0098900D02*
X-0099150Y0045850D01*
X-0098900Y0045900D02*
Y0046100D01*
X-0099150Y0046150D02*
X-0098900Y0045900D01*
X-0099400D02*
X-0099150Y0046150D01*
X-0100300Y0046100D02*
Y0045900D01*
X-0100050Y0045850D02*
X-0100300Y0046100D01*
X-0099800D02*
X-0100050Y0045850D01*
X-0099800Y0045900D02*
Y0046100D01*
X-0100050Y0046150D02*
X-0099800Y0045900D01*
X-0100300D02*
X-0100050Y0046150D01*
X-0099400Y0045000D02*
Y0044800D01*
X-0099150Y0044750D02*
X-0099400Y0045000D01*
X-0098900D02*
X-0099150Y0044750D01*
X-0098900Y0044800D02*
Y0045000D01*
X-0099150Y0045050D02*
X-0098900Y0044800D01*
X-0099400D02*
X-0099150Y0045050D01*
X-0101350Y0045000D02*
Y0044800D01*
X-0101100Y0044750D02*
X-0101350Y0045000D01*
X-0100850D02*
X-0101100Y0044750D01*
X-0100850Y0044800D02*
Y0045000D01*
X-0101100Y0045050D02*
X-0100850Y0044800D01*
X-0101350D02*
X-0101100Y0045050D01*
X-0102300Y0045000D02*
Y0044800D01*
X-0102050Y0044750D02*
X-0102300Y0045000D01*
X-0101800D02*
X-0102050Y0044750D01*
X-0101800Y0044800D02*
Y0045000D01*
X-0102050Y0045050D02*
X-0101800Y0044800D01*
X-0102300D02*
X-0102050Y0045050D01*
X-0103250Y0045000D02*
Y0044800D01*
X-0103000Y0044750D02*
X-0103250Y0045000D01*
X-0102750D02*
X-0103000Y0044750D01*
X-0102750Y0044800D02*
Y0045000D01*
X-0103000Y0045050D02*
X-0102750Y0044800D01*
X-0103250D02*
X-0103000Y0045050D01*
X-0099400Y0047000D02*
Y0046800D01*
X-0099150Y0046750D02*
X-0099400Y0047000D01*
X-0098900D02*
X-0099150Y0046750D01*
X-0098900Y0046800D02*
Y0047000D01*
X-0099150Y0047050D02*
X-0098900Y0046800D01*
X-0099400D02*
X-0099150Y0047050D01*
X-0100300Y0047000D02*
Y0046800D01*
X-0100050Y0046750D02*
X-0100300Y0047000D01*
X-0099800D02*
X-0100050Y0046750D01*
X-0099800Y0046800D02*
Y0047000D01*
X-0100050Y0047050D02*
X-0099800Y0046800D01*
X-0100300D02*
X-0100050Y0047050D01*
X-0099400Y0047950D02*
Y0047750D01*
X-0099150Y0047700D02*
X-0099400Y0047950D01*
X-0098900D02*
X-0099150Y0047700D01*
X-0098900Y0047750D02*
Y0047950D01*
X-0099150Y0048000D02*
X-0098900Y0047750D01*
X-0099400D02*
X-0099150Y0048000D01*
X-0100300Y0047950D02*
Y0047750D01*
X-0100050Y0047700D02*
X-0100300Y0047950D01*
X-0099800D02*
X-0100050Y0047700D01*
X-0099800Y0047750D02*
Y0047950D01*
X-0100050Y0048000D02*
X-0099800Y0047750D01*
X-0100300D02*
X-0100050Y0048000D01*
X-0103700Y0048050D02*
Y0047850D01*
X-0103450Y0047800D02*
X-0103700Y0048050D01*
X-0103200D02*
X-0103450Y0047800D01*
X-0103200Y0047850D02*
Y0048050D01*
X-0103450Y0048100D02*
X-0103200Y0047850D01*
X-0103700D02*
X-0103450Y0048100D01*
X-0097400Y0034950D02*
Y0034750D01*
X-0097150Y0034700D02*
X-0097400Y0034950D01*
X-0096900D02*
X-0097150Y0034700D01*
X-0096900Y0034750D02*
Y0034950D01*
X-0097150Y0035000D02*
X-0096900Y0034750D01*
X-0097400D02*
X-0097150Y0035000D01*
X-0097400Y0035900D02*
Y0035700D01*
X-0097150Y0035650D02*
X-0097400Y0035900D01*
X-0096900D02*
X-0097150Y0035650D01*
X-0096900Y0035700D02*
Y0035900D01*
X-0097150Y0035950D02*
X-0096900Y0035700D01*
X-0097400D02*
X-0097150Y0035950D01*
X-0085000Y0027900D02*
Y0027700D01*
X-0084850Y0028050D02*
X-0085000Y0027900D01*
X-0084650Y0028050D02*
X-0084850D01*
X-0084500Y0027900D02*
X-0084650Y0028050D01*
X-0084500Y0027700D02*
Y0027900D01*
X-0084650Y0027550D02*
X-0084500Y0027700D01*
X-0084850Y0027550D02*
X-0084650D01*
X-0085000Y0027700D02*
X-0084850Y0027550D01*
X-0092450Y0042250D02*
Y0042050D01*
X-0092300Y0042400D02*
X-0092450Y0042250D01*
X-0092100Y0042400D02*
X-0092300D01*
X-0091950Y0042250D02*
X-0092100Y0042400D01*
X-0091950Y0042050D02*
Y0042250D01*
X-0092100Y0041900D02*
X-0091950Y0042050D01*
X-0092300Y0041900D02*
X-0092100D01*
X-0092450Y0042050D02*
X-0092300Y0041900D01*
X-0068650Y0030750D02*
Y0030550D01*
X-0068400Y0030500D02*
X-0068650Y0030750D01*
X-0068150D02*
X-0068400Y0030500D01*
X-0068150Y0030550D02*
Y0030750D01*
X-0068400Y0030800D02*
X-0068150Y0030550D01*
X-0068650D02*
X-0068400Y0030800D01*
X-0067650Y0030750D02*
Y0030550D01*
X-0067400Y0030500D02*
X-0067650Y0030750D01*
X-0067150D02*
X-0067400Y0030500D01*
X-0067150Y0030550D02*
Y0030750D01*
X-0067400Y0030800D02*
X-0067150Y0030550D01*
X-0067650D02*
X-0067400Y0030800D01*
X-0069650Y0030750D02*
Y0030550D01*
X-0069400Y0030500D02*
X-0069650Y0030750D01*
X-0069150D02*
X-0069400Y0030500D01*
X-0069150Y0030550D02*
Y0030750D01*
X-0069400Y0030800D02*
X-0069150Y0030550D01*
X-0069650D02*
X-0069400Y0030800D01*
X-0070700Y0030750D02*
Y0030550D01*
X-0070450Y0030500D02*
X-0070700Y0030750D01*
X-0070200D02*
X-0070450Y0030500D01*
X-0070200Y0030550D02*
Y0030750D01*
X-0070450Y0030800D02*
X-0070200Y0030550D01*
X-0070700D02*
X-0070450Y0030800D01*
X-0071750Y0030750D02*
Y0030550D01*
X-0071500Y0030500D02*
X-0071750Y0030750D01*
X-0071250D02*
X-0071500Y0030500D01*
X-0071250Y0030550D02*
Y0030750D01*
X-0071500Y0030800D02*
X-0071250Y0030550D01*
X-0071750D02*
X-0071500Y0030800D01*
X-0073850Y0030750D02*
Y0030550D01*
X-0073600Y0030500D02*
X-0073850Y0030750D01*
X-0073350D02*
X-0073600Y0030500D01*
X-0073350Y0030550D02*
Y0030750D01*
X-0073600Y0030800D02*
X-0073350Y0030550D01*
X-0073850D02*
X-0073600Y0030800D01*
X-0074850Y0030750D02*
Y0030550D01*
X-0074600Y0030500D02*
X-0074850Y0030750D01*
X-0074350D02*
X-0074600Y0030500D01*
X-0074350Y0030550D02*
Y0030750D01*
X-0074600Y0030800D02*
X-0074350Y0030550D01*
X-0074850D02*
X-0074600Y0030800D01*
X-0072800Y0030750D02*
Y0030550D01*
X-0072550Y0030500D02*
X-0072800Y0030750D01*
X-0072300D02*
X-0072550Y0030500D01*
X-0072300Y0030550D02*
Y0030750D01*
X-0072550Y0030800D02*
X-0072300Y0030550D01*
X-0072800D02*
X-0072550Y0030800D01*
X-0075850Y0030750D02*
Y0030550D01*
X-0075600Y0030500D02*
X-0075850Y0030750D01*
X-0075350D02*
X-0075600Y0030500D01*
X-0075350Y0030550D02*
Y0030750D01*
X-0075600Y0030800D02*
X-0075350Y0030550D01*
X-0075850D02*
X-0075600Y0030800D01*
X-0085000Y0038700D02*
Y0038500D01*
X-0084850Y0038850D02*
X-0085000Y0038700D01*
X-0084650Y0038850D02*
X-0084850D01*
X-0084500Y0038700D02*
X-0084650Y0038850D01*
X-0084500Y0038500D02*
Y0038700D01*
X-0084650Y0038350D02*
X-0084500Y0038500D01*
X-0084850Y0038350D02*
X-0084650D01*
X-0085000Y0038500D02*
X-0084850Y0038350D01*
X-0101650Y0030300D02*
Y0030100D01*
X-0101500Y0030450D02*
X-0101650Y0030300D01*
X-0101300Y0030450D02*
X-0101500D01*
X-0101150Y0030300D02*
X-0101300Y0030450D01*
X-0101150Y0030100D02*
Y0030300D01*
X-0101300Y0029950D02*
X-0101150Y0030100D01*
X-0101500Y0029950D02*
X-0101300D01*
X-0101650Y0030100D02*
X-0101500Y0029950D01*
X-0093500Y0029600D02*
X-0093750Y0029350D01*
X-0093250D02*
X-0093500Y0029600D01*
X-0093750Y0029350D02*
X-0093250D01*
X-0062050Y0047200D02*
Y0047000D01*
X-0061900Y0047350D02*
X-0062050Y0047200D01*
X-0061700Y0047350D02*
X-0061900D01*
X-0061550Y0047200D02*
X-0061700Y0047350D01*
X-0061550Y0047000D02*
Y0047200D01*
X-0061700Y0046850D02*
X-0061550Y0047000D01*
X-0061900Y0046850D02*
X-0061700D01*
X-0062050Y0047000D02*
X-0061900Y0046850D01*
X-0062050Y0012400D02*
Y0012200D01*
X-0061900Y0012550D02*
X-0062050Y0012400D01*
X-0061700Y0012550D02*
X-0061900D01*
X-0061550Y0012400D02*
X-0061700Y0012550D01*
X-0061550Y0012200D02*
Y0012400D01*
X-0061700Y0012050D02*
X-0061550Y0012200D01*
X-0061900Y0012050D02*
X-0061700D01*
X-0062050Y0012200D02*
X-0061900Y0012050D01*
X-0123000Y0046750D02*
Y0046550D01*
X-0122850Y0046900D02*
X-0123000Y0046750D01*
X-0122650Y0046900D02*
X-0122850D01*
X-0122500Y0046750D02*
X-0122650Y0046900D01*
X-0122500Y0046550D02*
Y0046750D01*
X-0122650Y0046400D02*
X-0122500Y0046550D01*
X-0122850Y0046400D02*
X-0122650D01*
X-0123000Y0046550D02*
X-0122850Y0046400D01*
X-0122950Y0012300D02*
Y0012100D01*
X-0122800Y0012450D02*
X-0122950Y0012300D01*
X-0122600Y0012450D02*
X-0122800D01*
X-0122450Y0012300D02*
X-0122600Y0012450D01*
X-0122450Y0012100D02*
Y0012300D01*
X-0122600Y0011950D02*
X-0122450Y0012100D01*
X-0122800Y0011950D02*
X-0122600D01*
X-0122950Y0012100D02*
X-0122800Y0011950D01*
X-0101300Y0023500D02*
X-0101550Y0023250D01*
X-0101050D02*
X-0101300Y0023500D01*
Y0023000D02*
X-0101050Y0023250D01*
X-0101550D02*
X-0101300Y0023000D01*
X-0100300Y0023500D02*
X-0100550Y0023250D01*
X-0100050D02*
X-0100300Y0023500D01*
Y0023000D02*
X-0100050Y0023250D01*
X-0100550D02*
X-0100300Y0023000D01*
X-0099300Y0023500D02*
X-0099550Y0023250D01*
X-0099050D02*
X-0099300Y0023500D01*
Y0023000D02*
X-0099050Y0023250D01*
X-0099550D02*
X-0099300Y0023000D01*
X-0098250Y0013100D02*
X-0098750Y0012600D01*
X-0098250D02*
X-0098750Y0013100D01*
X-0098250Y0011100D02*
X-0098750Y0010600D01*
X-0098250D02*
X-0098750Y0011100D01*
X-0083400Y0011600D02*
Y0011350D01*
X-0083150Y0011600D02*
X-0083400D01*
X-0083150Y0011100D02*
Y0011600D01*
X-0082900Y0011100D02*
X-0083150D01*
X-0082900Y0011350D02*
Y0011100D01*
X-0083400Y0011350D02*
X-0082900D01*
X-0083400Y0013371D02*
Y0013121D01*
X-0083150Y0013371D02*
X-0083400D01*
X-0083150Y0012871D02*
Y0013371D01*
X-0082900Y0012871D02*
X-0083150D01*
X-0082900Y0013121D02*
Y0012871D01*
X-0083400Y0013121D02*
X-0082900D01*
X-0080841Y0013371D02*
Y0013121D01*
X-0080591Y0013371D02*
X-0080841D01*
X-0080591Y0012871D02*
Y0013371D01*
X-0080341Y0012871D02*
X-0080591D01*
X-0080341Y0013121D02*
Y0012871D01*
X-0080841Y0013121D02*
X-0080341D01*
X-0080841Y0011600D02*
Y0011350D01*
X-0080591Y0011600D02*
X-0080841D01*
X-0080591Y0011100D02*
Y0011600D01*
X-0080341Y0011100D02*
X-0080591D01*
X-0080341Y0011350D02*
Y0011100D01*
X-0080841Y0011350D02*
X-0080341D01*
X-0078750Y0011600D02*
Y0011350D01*
X-0078500Y0011600D02*
X-0078750D01*
X-0078500Y0011100D02*
Y0011600D01*
X-0078250Y0011100D02*
X-0078500D01*
X-0078250Y0011350D02*
Y0011100D01*
X-0078750Y0011350D02*
X-0078250D01*
X-0078750Y0013371D02*
Y0013121D01*
X-0078500Y0013371D02*
X-0078750D01*
X-0078500Y0012871D02*
Y0013371D01*
X-0078250Y0012871D02*
X-0078500D01*
X-0078250Y0013121D02*
Y0012871D01*
X-0078750Y0013121D02*
X-0078250D01*
X-0076191Y0013371D02*
Y0013121D01*
X-0075941Y0013371D02*
X-0076191D01*
X-0075941Y0012871D02*
Y0013371D01*
X-0075691Y0012871D02*
X-0075941D01*
X-0075691Y0013121D02*
Y0012871D01*
X-0076191Y0013121D02*
X-0075691D01*
X-0076191Y0011600D02*
Y0011350D01*
X-0075941Y0011600D02*
X-0076191D01*
X-0075941Y0011100D02*
Y0011600D01*
X-0075691Y0011100D02*
X-0075941D01*
X-0075691Y0011350D02*
Y0011100D01*
X-0076191Y0011350D02*
X-0075691D01*
X-0088500Y0027250D02*
X-0089000Y0026750D01*
X-0088500D02*
X-0089000Y0027250D01*
X-0087500D02*
X-0088000Y0026750D01*
X-0087500D02*
X-0088000Y0027250D01*
X-0089500D02*
X-0090000Y0026750D01*
X-0089500D02*
X-0090000Y0027250D01*
X-0095100Y0034000D02*
X-0095350Y0033750D01*
X-0094850D02*
X-0095100Y0034000D01*
Y0033500D02*
X-0094850Y0033750D01*
X-0095350D02*
X-0095100Y0033500D01*
X-0093600Y0035000D02*
X-0093850Y0034750D01*
X-0093350D02*
X-0093600Y0035000D01*
Y0034500D02*
X-0093350Y0034750D01*
X-0093850D02*
X-0093600Y0034500D01*
X-0095100Y0036000D02*
X-0095350Y0035750D01*
X-0094850D02*
X-0095100Y0036000D01*
Y0035500D02*
X-0094850Y0035750D01*
X-0095350D02*
X-0095100Y0035500D01*
X-0100250Y0020700D02*
X-0100750Y0020200D01*
X-0100250D02*
X-0100750Y0020700D01*
X-0098250D02*
X-0098750Y0020200D01*
X-0098250D02*
X-0098750Y0020700D01*
X-0102300Y0014700D02*
X-0102800Y0014200D01*
X-0102300D02*
X-0102800Y0014700D01*
X-0102300Y0016700D02*
X-0102800Y0016200D01*
X-0102300D02*
X-0102800Y0016700D01*
X-0102050Y0046900D02*
Y0046700D01*
X-0101900Y0047050D02*
X-0102050Y0046900D01*
X-0101700Y0047050D02*
X-0101900D01*
X-0101550Y0046900D02*
X-0101700Y0047050D01*
X-0101550Y0046700D02*
Y0046900D01*
X-0101700Y0046550D02*
X-0101550Y0046700D01*
X-0101900Y0046550D02*
X-0101700D01*
X-0102050Y0046700D02*
X-0101900Y0046550D01*
X-0096050Y0041900D02*
Y0041700D01*
X-0095900Y0042050D02*
X-0096050Y0041900D01*
X-0095700Y0042050D02*
X-0095900D01*
X-0095550Y0041900D02*
X-0095700Y0042050D01*
X-0095550Y0041700D02*
Y0041900D01*
X-0095700Y0041550D02*
X-0095550Y0041700D01*
X-0095900Y0041550D02*
X-0095700D01*
X-0096050Y0041700D02*
X-0095900Y0041550D01*
X-0085950Y0014050D02*
X-0086450D01*
X-0086200Y0014300D02*
Y0013800D01*
X-0086950Y0014050D02*
X-0087450D01*
X-0087200Y0014300D02*
Y0013800D01*
X-0087950Y0014050D02*
X-0088450D01*
X-0088200Y0014300D02*
Y0013800D01*
X-0088950Y0014050D02*
X-0089450D01*
X-0089200Y0014300D02*
Y0013800D01*
X-0089950Y0014050D02*
X-0090450D01*
X-0090200Y0014300D02*
Y0013800D01*
X-0090950Y0014050D02*
X-0091450D01*
X-0091200Y0014300D02*
Y0013800D01*
X-0096300Y0011550D02*
X-0096800D01*
X-0096550Y0011800D02*
Y0011300D01*
X-0095300Y0011550D02*
X-0095800D01*
X-0095550Y0011800D02*
Y0011300D01*
X-0094300Y0011550D02*
X-0094800D01*
X-0094550Y0011800D02*
Y0011300D01*
X-0093300Y0011550D02*
X-0093800D01*
X-0093550Y0011800D02*
Y0011300D01*
X-0092300Y0011550D02*
X-0092800D01*
X-0092550Y0011800D02*
Y0011300D01*
X-0091300Y0011550D02*
X-0091800D01*
X-0091550Y0011800D02*
Y0011300D01*
X-0123050Y0017250D02*
X-0123550D01*
X-0123300Y0017500D02*
Y0017000D01*
X-0121050Y0016000D02*
X-0121550D01*
X-0121300Y0016250D02*
Y0015750D01*
X-0072800Y0013600D02*
X-0073300Y0013100D01*
X-0072800D02*
X-0073300Y0013600D01*
X-0072800Y0011600D02*
X-0073300Y0011100D01*
X-0072800D02*
X-0073300Y0011600D01*
X-0101650Y0026250D02*
X-0102150Y0025750D01*
X-0101650D02*
X-0102150Y0026250D01*
X-0099650D02*
X-0100150Y0025750D01*
X-0099650D02*
X-0100150Y0026250D01*
X-0091500Y0036000D02*
X-0091750Y0035750D01*
X-0091250D02*
X-0091500Y0036000D01*
Y0035500D02*
X-0091250Y0035750D01*
X-0091750D02*
X-0091500Y0035500D01*
X-0090000Y0035000D02*
X-0090250Y0034750D01*
X-0089750D02*
X-0090000Y0035000D01*
Y0034500D02*
X-0089750Y0034750D01*
X-0090250D02*
X-0090000Y0034500D01*
X-0091500Y0034000D02*
X-0091750Y0033750D01*
X-0091250D02*
X-0091500Y0034000D01*
Y0033500D02*
X-0091250Y0033750D01*
X-0091750D02*
X-0091500Y0033500D01*
X-0102950Y0011450D02*
X-0103450Y0010950D01*
X-0102950D02*
X-0103450Y0011450D01*
X-0099950D02*
X-0100450Y0010950D01*
X-0099950D02*
X-0100450Y0011450D01*
X-0080750Y0043950D02*
Y0043450D01*
X-0080250Y0043950D02*
X-0080750D01*
X-0080250Y0043450D02*
Y0043950D01*
X-0080750Y0043450D02*
X-0080250D01*
Y0043700D02*
X-0080750D01*
X-0080500Y0043950D02*
Y0043450D01*
X-0080750Y0032200D02*
Y0031700D01*
X-0080250Y0032200D02*
X-0080750D01*
X-0080250Y0031700D02*
Y0032200D01*
X-0080750Y0031700D02*
X-0080250D01*
Y0031950D02*
X-0080750D01*
X-0080500Y0032200D02*
Y0031700D01*
X-0076500Y0043950D02*
Y0043450D01*
X-0076000Y0043950D02*
X-0076500D01*
X-0076000Y0043450D02*
Y0043950D01*
X-0076500Y0043450D02*
X-0076000D01*
Y0043700D02*
X-0076500D01*
X-0076250Y0043950D02*
Y0043450D01*
X-0076500Y0032200D02*
Y0031700D01*
X-0076000Y0032200D02*
X-0076500D01*
X-0076000Y0031700D02*
Y0032200D01*
X-0076500Y0031700D02*
X-0076000D01*
Y0031950D02*
X-0076500D01*
X-0076250Y0032200D02*
Y0031700D01*
X-0085000Y0043950D02*
Y0043450D01*
X-0084500Y0043950D02*
X-0085000D01*
X-0084500Y0043450D02*
Y0043950D01*
X-0085000Y0043450D02*
X-0084500D01*
Y0043700D02*
X-0085000D01*
X-0084750Y0043950D02*
Y0043450D01*
X-0085000Y0032200D02*
Y0031700D01*
X-0084500Y0032200D02*
X-0085000D01*
X-0084500Y0031700D02*
Y0032200D01*
X-0085000Y0031700D02*
X-0084500D01*
Y0031950D02*
X-0085000D01*
X-0084750Y0032200D02*
Y0031700D01*
X-0101750Y0019250D02*
X-0102250D01*
X-0102000Y0019500D02*
Y0019000D01*
X-0103000Y0019250D02*
X-0103500D01*
X-0103250Y0019500D02*
Y0019000D01*
X-0115500Y0043700D02*
Y0043200D01*
X-0115000Y0043700D02*
X-0115500D01*
X-0115000Y0043200D02*
Y0043700D01*
X-0115500Y0043200D02*
X-0115000D01*
Y0043700D02*
X-0115500Y0043200D01*
X-0115000D02*
X-0115500Y0043700D01*
Y0046700D02*
Y0046200D01*
X-0115000Y0046700D02*
X-0115500D01*
X-0115000Y0046200D02*
Y0046700D01*
X-0115500Y0046200D02*
X-0115000D01*
Y0046700D02*
X-0115500Y0046200D01*
X-0115000D02*
X-0115500Y0046700D01*
Y0036300D02*
Y0035800D01*
X-0115000Y0036300D02*
X-0115500D01*
X-0115000Y0035800D02*
Y0036300D01*
X-0115500Y0035800D02*
X-0115000D01*
Y0036300D02*
X-0115500Y0035800D01*
X-0115000D02*
X-0115500Y0036300D01*
Y0039300D02*
Y0038800D01*
X-0115000Y0039300D02*
X-0115500D01*
X-0115000Y0038800D02*
Y0039300D01*
X-0115500Y0038800D02*
X-0115000D01*
Y0039300D02*
X-0115500Y0038800D01*
X-0115000D02*
X-0115500Y0039300D01*
Y0028850D02*
Y0028350D01*
X-0115000Y0028850D02*
X-0115500D01*
X-0115000Y0028350D02*
Y0028850D01*
X-0115500Y0028350D02*
X-0115000D01*
Y0028850D02*
X-0115500Y0028350D01*
X-0115000D02*
X-0115500Y0028850D01*
Y0031850D02*
Y0031350D01*
X-0115000Y0031850D02*
X-0115500D01*
X-0115000Y0031350D02*
Y0031850D01*
X-0115500Y0031350D02*
X-0115000D01*
Y0031850D02*
X-0115500Y0031350D01*
X-0115000D02*
X-0115500Y0031850D01*
X-0108050Y0043700D02*
Y0043200D01*
X-0107550Y0043700D02*
X-0108050D01*
X-0107550Y0043200D02*
Y0043700D01*
X-0108050Y0043200D02*
X-0107550D01*
Y0043700D02*
X-0108050Y0043200D01*
X-0107550D02*
X-0108050Y0043700D01*
Y0046700D02*
Y0046200D01*
X-0107550Y0046700D02*
X-0108050D01*
X-0107550Y0046200D02*
Y0046700D01*
X-0108050Y0046200D02*
X-0107550D01*
Y0046700D02*
X-0108050Y0046200D01*
X-0107550D02*
X-0108050Y0046700D01*
X-0108100Y0036300D02*
Y0035800D01*
X-0107600Y0036300D02*
X-0108100D01*
X-0107600Y0035800D02*
Y0036300D01*
X-0108100Y0035800D02*
X-0107600D01*
Y0036300D02*
X-0108100Y0035800D01*
X-0107600D02*
X-0108100Y0036300D01*
Y0039300D02*
Y0038800D01*
X-0107600Y0039300D02*
X-0108100D01*
X-0107600Y0038800D02*
Y0039300D01*
X-0108100Y0038800D02*
X-0107600D01*
Y0039300D02*
X-0108100Y0038800D01*
X-0107600D02*
X-0108100Y0039300D01*
X-0072300Y0032200D02*
Y0031700D01*
X-0071800Y0032200D02*
X-0072300D01*
X-0071800Y0031700D02*
Y0032200D01*
X-0072300Y0031700D02*
X-0071800D01*
Y0031950D02*
X-0072300D01*
X-0072050Y0032200D02*
Y0031700D01*
X-0072300Y0043950D02*
Y0043450D01*
X-0071800Y0043950D02*
X-0072300D01*
X-0071800Y0043450D02*
Y0043950D01*
X-0072300Y0043450D02*
X-0071800D01*
Y0043700D02*
X-0072300D01*
X-0072050Y0043950D02*
Y0043450D01*
X-0068150Y0032200D02*
Y0031700D01*
X-0067650Y0032200D02*
X-0068150D01*
X-0067650Y0031700D02*
Y0032200D01*
X-0068150Y0031700D02*
X-0067650D01*
Y0031950D02*
X-0068150D01*
X-0067900Y0032200D02*
Y0031700D01*
X-0068150Y0043950D02*
Y0043450D01*
X-0067650Y0043950D02*
X-0068150D01*
X-0067650Y0043450D02*
Y0043950D01*
X-0068150Y0043450D02*
X-0067650D01*
Y0043700D02*
X-0068150D01*
X-0067900Y0043950D02*
Y0043450D01*
X-0115500Y0021450D02*
Y0020950D01*
X-0115000Y0021450D02*
X-0115500D01*
X-0115000Y0020950D02*
Y0021450D01*
X-0115500Y0020950D02*
X-0115000D01*
Y0021450D02*
X-0115500Y0020950D01*
X-0115000D02*
X-0115500Y0021450D01*
Y0024450D02*
Y0023950D01*
X-0115000Y0024450D02*
X-0115500D01*
X-0115000Y0023950D02*
Y0024450D01*
X-0115500Y0023950D02*
X-0115000D01*
Y0024450D02*
X-0115500Y0023950D01*
X-0115000D02*
X-0115500Y0024450D01*
Y0014000D02*
Y0013500D01*
X-0115000Y0014000D02*
X-0115500D01*
X-0115000Y0013500D02*
Y0014000D01*
X-0115500Y0013500D02*
X-0115000D01*
Y0014000D02*
X-0115500Y0013500D01*
X-0115000D02*
X-0115500Y0014000D01*
Y0017000D02*
Y0016500D01*
X-0115000Y0017000D02*
X-0115500D01*
X-0115000Y0016500D02*
Y0017000D01*
X-0115500Y0016500D02*
X-0115000D01*
Y0017000D02*
X-0115500Y0016500D01*
X-0115000D02*
X-0115500Y0017000D01*
X-0108100Y0014000D02*
Y0013500D01*
X-0107600Y0014000D02*
X-0108100D01*
X-0107600Y0013500D02*
Y0014000D01*
X-0108100Y0013500D02*
X-0107600D01*
Y0014000D02*
X-0108100Y0013500D01*
X-0107600D02*
X-0108100Y0014000D01*
Y0017000D02*
Y0016500D01*
X-0107600Y0017000D02*
X-0108100D01*
X-0107600Y0016500D02*
Y0017000D01*
X-0108100Y0016500D02*
X-0107600D01*
Y0017000D02*
X-0108100Y0016500D01*
X-0107600D02*
X-0108100Y0017000D01*
Y0021400D02*
Y0020900D01*
X-0107600Y0021400D02*
X-0108100D01*
X-0107600Y0020900D02*
Y0021400D01*
X-0108100Y0020900D02*
X-0107600D01*
Y0021400D02*
X-0108100Y0020900D01*
X-0107600D02*
X-0108100Y0021400D01*
Y0024400D02*
Y0023900D01*
X-0107600Y0024400D02*
X-0108100D01*
X-0107600Y0023900D02*
Y0024400D01*
X-0108100Y0023900D02*
X-0107600D01*
Y0024400D02*
X-0108100Y0023900D01*
X-0107600D02*
X-0108100Y0024400D01*
Y0028800D02*
Y0028300D01*
X-0107600Y0028800D02*
X-0108100D01*
X-0107600Y0028300D02*
Y0028800D01*
X-0108100Y0028300D02*
X-0107600D01*
Y0028800D02*
X-0108100Y0028300D01*
X-0107600D02*
X-0108100Y0028800D01*
Y0031800D02*
Y0031300D01*
X-0107600Y0031800D02*
X-0108100D01*
X-0107600Y0031300D02*
Y0031800D01*
X-0108100Y0031300D02*
X-0107600D01*
Y0031800D02*
X-0108100Y0031300D01*
X-0107600D02*
X-0108100Y0031800D01*
X-0064300Y0043950D02*
Y0043700D01*
X-0064050Y0043950D02*
X-0064300D01*
X-0064050Y0043450D02*
Y0043950D01*
X-0063800Y0043450D02*
X-0064050D01*
X-0063800Y0043700D02*
Y0043450D01*
X-0064300Y0043700D02*
X-0063800D01*
X-0064300Y0039950D02*
Y0039700D01*
X-0064050Y0039950D02*
X-0064300D01*
X-0064050Y0039450D02*
Y0039950D01*
X-0063800Y0039450D02*
X-0064050D01*
X-0063800Y0039700D02*
Y0039450D01*
X-0064300Y0039700D02*
X-0063800D01*
X-0060300Y0041950D02*
Y0041700D01*
X-0060050Y0041950D02*
X-0060300D01*
X-0060050Y0041450D02*
Y0041950D01*
X-0059800Y0041450D02*
X-0060050D01*
X-0059800Y0041700D02*
Y0041450D01*
X-0060300Y0041700D02*
X-0059800D01*
X-0060300Y0043950D02*
Y0043700D01*
X-0060050Y0043950D02*
X-0060300D01*
X-0060050Y0043450D02*
Y0043950D01*
X-0059800Y0043450D02*
X-0060050D01*
X-0059800Y0043700D02*
Y0043450D01*
X-0060300Y0043700D02*
X-0059800D01*
X-0064300Y0041950D02*
Y0041700D01*
X-0064050Y0041950D02*
X-0064300D01*
X-0064050Y0041450D02*
Y0041950D01*
X-0063800Y0041450D02*
X-0064050D01*
X-0063800Y0041700D02*
Y0041450D01*
X-0064300Y0041700D02*
X-0063800D01*
X-0060300Y0039950D02*
Y0039700D01*
X-0060050Y0039950D02*
X-0060300D01*
X-0060050Y0039450D02*
Y0039950D01*
X-0059800Y0039450D02*
X-0060050D01*
X-0059800Y0039700D02*
Y0039450D01*
X-0060300Y0039700D02*
X-0059800D01*
X-0064300Y0037950D02*
Y0037700D01*
X-0064050Y0037950D02*
X-0064300D01*
X-0064050Y0037450D02*
Y0037950D01*
X-0063800Y0037450D02*
X-0064050D01*
X-0063800Y0037700D02*
Y0037450D01*
X-0064300Y0037700D02*
X-0063800D01*
X-0060300Y0037950D02*
Y0037700D01*
X-0060050Y0037950D02*
X-0060300D01*
X-0060050Y0037450D02*
Y0037950D01*
X-0059800Y0037450D02*
X-0060050D01*
X-0059800Y0037700D02*
Y0037450D01*
X-0060300Y0037700D02*
X-0059800D01*
X-0120750Y0032250D02*
Y0032000D01*
X-0120500Y0032250D02*
X-0120750D01*
X-0120500Y0031750D02*
Y0032250D01*
X-0120250Y0031750D02*
X-0120500D01*
X-0120250Y0032000D02*
Y0031750D01*
X-0120750Y0032000D02*
X-0120250D01*
X-0120750Y0036250D02*
Y0036000D01*
X-0120500Y0036250D02*
X-0120750D01*
X-0120500Y0035750D02*
Y0036250D01*
X-0120250Y0035750D02*
X-0120500D01*
X-0120250Y0036000D02*
Y0035750D01*
X-0120750Y0036000D02*
X-0120250D01*
X-0124750Y0034250D02*
Y0034000D01*
X-0124500Y0034250D02*
X-0124750D01*
X-0124500Y0033750D02*
Y0034250D01*
X-0124250Y0033750D02*
X-0124500D01*
X-0124250Y0034000D02*
Y0033750D01*
X-0124750Y0034000D02*
X-0124250D01*
X-0124750Y0032250D02*
Y0032000D01*
X-0124500Y0032250D02*
X-0124750D01*
X-0124500Y0031750D02*
Y0032250D01*
X-0124250Y0031750D02*
X-0124500D01*
X-0124250Y0032000D02*
Y0031750D01*
X-0124750Y0032000D02*
X-0124250D01*
X-0120750Y0034250D02*
Y0034000D01*
X-0120500Y0034250D02*
X-0120750D01*
X-0120500Y0033750D02*
Y0034250D01*
X-0120250Y0033750D02*
X-0120500D01*
X-0120250Y0034000D02*
Y0033750D01*
X-0120750Y0034000D02*
X-0120250D01*
X-0124750Y0036250D02*
Y0036000D01*
X-0124500Y0036250D02*
X-0124750D01*
X-0124500Y0035750D02*
Y0036250D01*
X-0124250Y0035750D02*
X-0124500D01*
X-0124250Y0036000D02*
Y0035750D01*
X-0124750Y0036000D02*
X-0124250D01*
X-0120750Y0038250D02*
Y0038000D01*
X-0120500Y0038250D02*
X-0120750D01*
X-0120500Y0037750D02*
Y0038250D01*
X-0120250Y0037750D02*
X-0120500D01*
X-0120250Y0038000D02*
Y0037750D01*
X-0120750Y0038000D02*
X-0120250D01*
X-0124750Y0038250D02*
Y0038000D01*
X-0124500Y0038250D02*
X-0124750D01*
X-0124500Y0037750D02*
Y0038250D01*
X-0124250Y0037750D02*
X-0124500D01*
X-0124250Y0038000D02*
Y0037750D01*
X-0124750Y0038000D02*
X-0124250D01*
X-0120750Y0020250D02*
Y0020000D01*
X-0120500Y0020250D02*
X-0120750D01*
X-0120500Y0019750D02*
Y0020250D01*
X-0120250Y0019750D02*
X-0120500D01*
X-0120250Y0020000D02*
Y0019750D01*
X-0120750Y0020000D02*
X-0120250D01*
X-0120750Y0024250D02*
Y0024000D01*
X-0120500Y0024250D02*
X-0120750D01*
X-0120500Y0023750D02*
Y0024250D01*
X-0120250Y0023750D02*
X-0120500D01*
X-0120250Y0024000D02*
Y0023750D01*
X-0120750Y0024000D02*
X-0120250D01*
X-0124750Y0022250D02*
Y0022000D01*
X-0124500Y0022250D02*
X-0124750D01*
X-0124500Y0021750D02*
Y0022250D01*
X-0124250Y0021750D02*
X-0124500D01*
X-0124250Y0022000D02*
Y0021750D01*
X-0124750Y0022000D02*
X-0124250D01*
X-0124750Y0020250D02*
Y0020000D01*
X-0124500Y0020250D02*
X-0124750D01*
X-0124500Y0019750D02*
Y0020250D01*
X-0124250Y0019750D02*
X-0124500D01*
X-0124250Y0020000D02*
Y0019750D01*
X-0124750Y0020000D02*
X-0124250D01*
X-0120750Y0022250D02*
Y0022000D01*
X-0120500Y0022250D02*
X-0120750D01*
X-0120500Y0021750D02*
Y0022250D01*
X-0120250Y0021750D02*
X-0120500D01*
X-0120250Y0022000D02*
Y0021750D01*
X-0120750Y0022000D02*
X-0120250D01*
X-0124750Y0024250D02*
Y0024000D01*
X-0124500Y0024250D02*
X-0124750D01*
X-0124500Y0023750D02*
Y0024250D01*
X-0124250Y0023750D02*
X-0124500D01*
X-0124250Y0024000D02*
Y0023750D01*
X-0124750Y0024000D02*
X-0124250D01*
X-0120750Y0026250D02*
Y0026000D01*
X-0120500Y0026250D02*
X-0120750D01*
X-0120500Y0025750D02*
Y0026250D01*
X-0120250Y0025750D02*
X-0120500D01*
X-0120250Y0026000D02*
Y0025750D01*
X-0120750Y0026000D02*
X-0120250D01*
X-0124750Y0026250D02*
Y0026000D01*
X-0124500Y0026250D02*
X-0124750D01*
X-0124500Y0025750D02*
Y0026250D01*
X-0124250Y0025750D02*
X-0124500D01*
X-0124250Y0026000D02*
Y0025750D01*
X-0124750Y0026000D02*
X-0124250D01*
G54D40*
G01X-0125750Y0049250D02*
Y0010000D01*
X-0058750D01*
Y0049250D01*
X-0125750D01*
M02*
