*
G04 Mass Parameters ***
*
G04 Image ***
*
%INC:\PROJECTS\ORCAD\PV_BOOST\PV_BOOST.SMT*%
%ICAS*%
%MOIN*%
%IPPOS*%
%ASAXBY*%
G74*%FSLAN2X34Y34*%
*
G04 Aperture Definitions ***
*
%ADD10C,0.1300*%
%ADD11C,0.0800*%
%ADD12R,0.0800X0.0800*%
%ADD13C,0.0820*%
%ADD14R,0.0820X0.0820*%
%ADD15R,0.0600X0.0600*%
%ADD16C,0.0550*%
%ADD17R,0.0550X0.0550*%
%ADD18R,0.0640X0.1000*%
%ADD19R,0.1000X0.0640*%
%ADD20C,0.0520*%
%ADD21C,0.0750*%
%ADD22R,0.0750X0.0750*%
%ADD23R,0.2000X0.2000*%
%ADD24R,0.1181X0.2756*%
%ADD25C,0.0620*%
%ADD26R,0.0500X0.0340*%
%ADD27R,0.0400X0.0340*%
%ADD28O,0.0250X0.0860*%
%ADD29R,0.0250X0.0860*%
%ADD30O,0.0250X0.0940*%
%ADD31R,0.0250X0.0940*%
%ADD32C,0.1040*%
%ADD33C,0.0500*%
%ADD34C,0.0010*%
%ADD35C,0.0100*%
%ADD36C,0.0120*%
%ADD37C,0.0080*%
%ADD38C,0.0300*%
%ADD39C,0.0200*%
%ADD40C,0.0500*%
%ADD41C,0.2000*%
%ADD42C,0.1000*%
%ADD43C,0.0050*%
%ADD44C,0.1000*%
%ADD45R,0.1000X0.1000*%
%ADD46C,0.1020*%
%ADD47R,0.1020X0.1020*%
%ADD48C,0.0720*%
%ADD49C,0.0950*%
%ADD50R,0.0950X0.0950*%
%ADD51C,0.2000*%
%ADD52C,0.0700*%
%ADD53C,0.1100*%
%ADD54C,0.0650*%
%ADD55C,0.1600*%
%ADD56C,0.0670*%
%ADD57C,0.1090*%
%ADD58C,0.0600*%
%ADD59C,0.0060*%
%ADD60C,0.0098*%
%ADD61C,0.0600*%
*
G04 Plot Data ***
*
G54D10*
X-0064050Y0043700D03*
Y0039700D03*
X-0060050Y0041700D03*
Y0043700D03*
X-0064050Y0041700D03*
X-0060050Y0039700D03*
X-0064050Y0037700D03*
X-0060050D03*
X-0120500Y0032000D03*
Y0036000D03*
X-0124500Y0034000D03*
Y0032000D03*
X-0120500Y0034000D03*
X-0124500Y0036000D03*
X-0120500Y0038000D03*
X-0124500D03*
X-0120500Y0020000D03*
Y0024000D03*
X-0124500Y0022000D03*
Y0020000D03*
X-0120500Y0022000D03*
X-0124500Y0024000D03*
X-0120500Y0026000D03*
X-0124500D03*
G54D11*
X-0115250Y0046450D03*
Y0039050D03*
Y0031600D03*
X-0107800Y0046450D03*
X-0107850Y0039050D03*
X-0115250Y0024200D03*
Y0016750D03*
X-0107850D03*
Y0024150D03*
Y0031550D03*
G54D12*
X-0115250Y0043450D03*
Y0036050D03*
Y0028600D03*
X-0107800Y0043450D03*
X-0107850Y0036050D03*
X-0115250Y0021200D03*
Y0013750D03*
X-0107850D03*
Y0021150D03*
Y0028550D03*
G54D13*
X-0080500Y0031950D03*
X-0076250D03*
X-0084750D03*
X-0072050Y0043700D03*
X-0067900D03*
G54D14*
X-0080500D03*
X-0076250D03*
X-0084750D03*
X-0072050Y0031950D03*
X-0067900D03*
G54D15*
X-0070700Y0016150D03*
X-0069400D03*
Y0014950D03*
X-0070700D03*
X-0083800Y0024750D03*
X-0085100D03*
X-0083800Y0023700D03*
X-0085100D03*
X-0089950Y0020100D03*
Y0018800D03*
X-0083800Y0022400D03*
X-0085100D03*
Y0021250D03*
X-0083800D03*
X-0074300Y0016150D03*
X-0073000D03*
X-0095700Y0024500D03*
X-0094400D03*
Y0029150D03*
Y0030450D03*
X-0088200Y0011150D03*
Y0012450D03*
X-0087750Y0017150D03*
X-0086450D03*
X-0089200Y0011150D03*
Y0012450D03*
X-0074300Y0014900D03*
X-0073000D03*
X-0095250Y0012950D03*
X-0096550D03*
X-0086450Y0015150D03*
X-0087750D03*
X-0086200Y0011150D03*
Y0012450D03*
X-0087750Y0016150D03*
X-0086450D03*
X-0091750Y0022400D03*
Y0023700D03*
X-0087200Y0011150D03*
Y0012450D03*
X-0068500Y0046850D03*
X-0069800D03*
X-0088600Y0023700D03*
Y0022400D03*
X-0113450Y0010900D03*
X-0112150D03*
X-0092900Y0023700D03*
Y0022400D03*
X-0110900Y0010900D03*
X-0109600D03*
X-0115900D03*
X-0114600D03*
X-0095750Y0016150D03*
X-0094450D03*
X-0118350Y0010900D03*
X-0117050D03*
X-0077900Y0046850D03*
X-0079200D03*
X-0075550D03*
X-0076850D03*
X-0073200D03*
X-0074500D03*
X-0070850D03*
X-0072150D03*
X-0095500Y0029150D03*
Y0030450D03*
X-0089650Y0022400D03*
Y0023700D03*
X-0089950Y0017800D03*
Y0016500D03*
X-0086100Y0023700D03*
Y0022400D03*
X-0097050Y0026100D03*
Y0027400D03*
X-0083800Y0020100D03*
X-0085100D03*
X-0093400Y0026200D03*
Y0027500D03*
X-0089050Y0016500D03*
Y0017800D03*
Y0020100D03*
Y0018800D03*
X-0085200Y0011150D03*
Y0012450D03*
X-0094650Y0018750D03*
Y0020050D03*
X-0094300Y0012950D03*
X-0093000D03*
X-0088200Y0025250D03*
X-0089500D03*
X-0090700Y0022400D03*
Y0023700D03*
X-0094450Y0017150D03*
X-0095750D03*
X-0083800Y0025800D03*
X-0085100D03*
G54D16*
X-0098600Y0015800D03*
X-0092050Y0013900D03*
X-0097250Y0021150D03*
X-0081950Y0013750D03*
X-0086000Y0015150D03*
X-0094100Y0013750D03*
X-0094700Y0017950D03*
X-0089700Y0021650D03*
X-0091700Y0015650D03*
X-0091200Y0016300D03*
X-0095100Y0015450D03*
X-0096500Y0013800D03*
X-0093200Y0019400D03*
X-0086200Y0013050D03*
X-0087200Y0013150D03*
X-0092400Y0019400D03*
X-0096350Y0016100D03*
X-0107100Y0012400D03*
X-0090500Y0025150D03*
Y0028150D03*
X-0075400Y0016000D03*
X-0090700Y0017100D03*
X-0097050Y0029400D03*
X-0107900Y0010900D03*
X-0082150Y0016700D03*
X-0092210Y0021110D03*
X-0085750Y0017150D03*
X-0084350Y0017800D03*
X-0093500Y0029450D03*
X-0087750Y0027000D03*
X-0089750D03*
X-0087200Y0014050D03*
X-0088200D03*
X-0089200D03*
X-0090200D03*
X-0091200D03*
X-0095550Y0011550D03*
X-0094550D03*
X-0093550D03*
X-0092550D03*
X-0091550D03*
X-0123300Y0017250D03*
X-0121300Y0016000D03*
X-0103250Y0019250D03*
G54D17*
X-0088750Y0027000D03*
X-0086200Y0014050D03*
X-0096550Y0011550D03*
X-0102000Y0019250D03*
G54D18*
X-0099000Y0018950D03*
X-0100350D03*
G54D19*
X-0098250Y0026050D03*
Y0027400D03*
X-0092250Y0026150D03*
Y0027500D03*
X-0095850Y0020050D03*
Y0018700D03*
G54D20*
X-0067500Y0011450D03*
Y0014450D03*
Y0020200D03*
Y0023200D03*
X-0098500Y0012850D03*
Y0010850D03*
X-0100500Y0020450D03*
X-0098500D03*
X-0102550Y0014450D03*
Y0016450D03*
X-0073050Y0013350D03*
Y0011350D03*
X-0101900Y0026000D03*
X-0099900D03*
X-0103200Y0011200D03*
X-0100200D03*
G54D21*
X-0100300Y0023250D03*
X-0099300D03*
X-0093600Y0034750D03*
X-0095100Y0035750D03*
X-0090000Y0034750D03*
X-0091500Y0033750D03*
G54D22*
X-0101300Y0023250D03*
X-0095100Y0033750D03*
X-0091500Y0035750D03*
G54D24*
X-0064406Y0031553D03*
X-0060470D03*
G54D26*
X-0097260Y0019330D03*
G54D27*
X-0098050Y0019700D03*
Y0018960D03*
G54D28*
X-0087450Y0018250D03*
X-0086950D03*
X-0086450D03*
Y0020370D03*
X-0086950D03*
X-0087450D03*
X-0087950D03*
X-0095500Y0025750D03*
X-0095000D03*
X-0094500D03*
Y0027870D03*
X-0095000D03*
X-0095500D03*
X-0096000D03*
G54D29*
X-0087950Y0018250D03*
X-0096000Y0025750D03*
G54D30*
X-0093200Y0018250D03*
X-0092700D03*
X-0092200D03*
X-0091700D03*
X-0091200D03*
X-0090700D03*
X-0090690Y0020410D03*
X-0091220D03*
X-0091720D03*
X-0092210D03*
X-0092720Y0020400D03*
X-0093200D03*
X-0093690D03*
G54D31*
X-0093700Y0018250D03*
G54D55*
X-0101800Y0046800D03*
X-0095800Y0041800D03*
G54D56*
X-0083150Y0011350D03*
Y0013121D03*
X-0080591D03*
Y0011350D03*
X-0078500D03*
Y0013121D03*
X-0075941D03*
Y0011350D03*
G54D57*
X-0084750Y0027800D03*
X-0092200Y0042150D03*
X-0084750Y0038600D03*
X-0101400Y0030200D03*
X-0061800Y0047100D03*
Y0012300D03*
X-0122750Y0046650D03*
X-0122700Y0012200D03*
G54D58*
X-0100050Y0044900D03*
X-0099150Y0046000D03*
X-0100050D03*
X-0099150Y0044900D03*
X-0101100D03*
X-0102050D03*
X-0103000D03*
X-0099150Y0046900D03*
X-0100050D03*
X-0099150Y0047850D03*
X-0100050D03*
X-0103450Y0047950D03*
X-0097150Y0034850D03*
Y0035800D03*
X-0068400Y0030650D03*
X-0067400D03*
X-0069400D03*
X-0070450D03*
X-0071500D03*
X-0073600D03*
X-0074600D03*
X-0072550D03*
X-0075600D03*
M02*
