*
G04 Mass Parameters ***
*
G04 Image ***
*
%INC:\PROJECTS\ORCAD\PV_BOOST\PV_BOOST.SST*%
%ICAS*%
%MOIN*%
%IPPOS*%
%ASAXBY*%
G74*%FSLAN2X34Y34*%
*
G04 Aperture Definitions ***
*
%ADD10C,0.1300*%
%ADD11C,0.0800*%
%ADD12R,0.0800X0.0800*%
%ADD13C,0.0820*%
%ADD14R,0.0820X0.0820*%
%ADD15R,0.0600X0.0600*%
%ADD16C,0.0550*%
%ADD17R,0.0550X0.0550*%
%ADD18R,0.0640X0.1000*%
%ADD19R,0.1000X0.0640*%
%ADD20C,0.0520*%
%ADD21C,0.0750*%
%ADD22R,0.0750X0.0750*%
%ADD23R,0.2000X0.2000*%
%ADD24R,0.1181X0.2756*%
%ADD25C,0.0620*%
%ADD26R,0.0500X0.0340*%
%ADD27R,0.0400X0.0340*%
%ADD28O,0.0250X0.0860*%
%ADD29R,0.0250X0.0860*%
%ADD30O,0.0250X0.0940*%
%ADD31R,0.0250X0.0940*%
%ADD32C,0.1040*%
%ADD33C,0.0500*%
%ADD34C,0.0010*%
%ADD35C,0.0100*%
%ADD36C,0.0120*%
%ADD37C,0.0080*%
%ADD38C,0.0300*%
%ADD39C,0.0200*%
%ADD40C,0.0500*%
%ADD41C,0.2000*%
%ADD42C,0.1000*%
%ADD43C,0.0050*%
%ADD44C,0.1000*%
%ADD45R,0.1000X0.1000*%
%ADD46C,0.1020*%
%ADD47R,0.1020X0.1020*%
%ADD48C,0.0720*%
%ADD49C,0.0950*%
%ADD50R,0.0950X0.0950*%
%ADD51C,0.2000*%
%ADD52C,0.0700*%
%ADD53C,0.1100*%
%ADD54C,0.0650*%
%ADD55C,0.1600*%
%ADD56C,0.0670*%
%ADD57C,0.1090*%
%ADD58C,0.0600*%
%ADD59C,0.0060*%
%ADD60C,0.0098*%
%ADD61C,0.0600*%
*
G04 Plot Data ***
*
G54D34*
G01X-0062821Y0041404D02*
X-0063181Y0041044D01*
Y0040325D01*
X-0062821Y0039965D01*
X-0062461D01*
X-0061741Y0040684D01*
X-0061021Y0039965D01*
Y0041404D01*
X-0062101Y0042144D02*
X-0063181Y0041604D01*
X-0062101Y0043044D02*
Y0041964D01*
X-0061741Y0041604D01*
X-0061381D01*
X-0061021Y0041964D01*
Y0043044D01*
X-0063181D01*
Y0044503D02*
X-0061021D01*
X-0063181Y0044683D02*
Y0043604D01*
X-0062821Y0043244D01*
X-0062461D01*
X-0062101Y0043424D01*
Y0044503D02*
Y0043424D01*
X-0061741Y0043244D01*
X-0061381D01*
X-0061021Y0043604D01*
Y0044683D01*
X-0121619Y0038235D02*
Y0036796D01*
X-0123059Y0038235D01*
X-0123418D01*
X-0123778Y0038055D01*
Y0036976D01*
X-0123418Y0036796D01*
X-0122699Y0036056D02*
X-0121619Y0036596D01*
X-0122699Y0035156D02*
Y0036236D01*
X-0123059Y0036596D01*
X-0123418D01*
X-0123778Y0036236D01*
Y0035156D01*
X-0121619D01*
Y0033697D02*
X-0123778D01*
X-0121619Y0033517D02*
Y0034596D01*
X-0121979Y0034956D01*
X-0122339D01*
X-0122699Y0034776D01*
Y0033697D02*
Y0034776D01*
X-0123059Y0034956D01*
X-0123418D01*
X-0123778Y0034596D01*
Y0033517D01*
X-0121619Y0025875D02*
Y0025156D01*
Y0025515D02*
X-0123778D01*
X-0123418Y0025156D01*
X-0122699Y0024056D02*
X-0121619Y0024596D01*
X-0122699Y0023156D02*
Y0024236D01*
X-0123059Y0024596D01*
X-0123418D01*
X-0123778Y0024236D01*
Y0023156D01*
X-0121619D01*
Y0021697D02*
X-0123778D01*
X-0121619Y0021517D02*
Y0022596D01*
X-0121979Y0022956D01*
X-0122339D01*
X-0122699Y0022776D01*
Y0021697D02*
Y0022776D01*
X-0123059Y0022956D01*
X-0123418D01*
X-0123778Y0022596D01*
Y0021517D01*
G54D35*
G01X-0082783Y0014266D02*
X-0082700Y0014183D01*
X-0082533D01*
X-0082450Y0014266D01*
Y0014350D01*
X-0082617Y0014517D01*
X-0082450Y0014683D01*
X-0082783D01*
X-0083025Y0014600D02*
X-0083067Y0014683D01*
X-0083317D01*
X-0083358Y0014600D01*
Y0014517D01*
X-0083317Y0014433D01*
X-0083067D01*
X-0083025Y0014350D01*
Y0014266D01*
X-0083067Y0014183D01*
X-0083317D01*
X-0083358Y0014266D01*
X-0078300Y0014183D02*
X-0078633D01*
X-0078300Y0014517D01*
Y0014600D01*
X-0078342Y0014683D01*
X-0078592D01*
X-0078633Y0014600D01*
X-0078875D02*
X-0078917Y0014683D01*
X-0079167D01*
X-0079208Y0014600D01*
Y0014517D01*
X-0079167Y0014433D01*
X-0078917D01*
X-0078875Y0014350D01*
Y0014266D01*
X-0078917Y0014183D01*
X-0079167D01*
X-0079208Y0014266D01*
G54D37*
G01X-0111588Y0022192D02*
X-0111533Y0022220D01*
Y0022387D01*
X-0111588Y0022414D01*
X-0111699D01*
X-0111755Y0022359D01*
Y0022192D01*
X-0111866D01*
Y0022414D01*
X-0111588Y0022004D02*
X-0111533Y0021977D01*
Y0021810D01*
X-0111588Y0021782D01*
X-0111810D01*
X-0111866Y0021810D01*
Y0021977D01*
X-0111810Y0022004D01*
X-0103413Y0014839D02*
X-0103358Y0014895D01*
Y0015006D01*
X-0103413Y0015062D01*
X-0103469D01*
X-0103580Y0014950D01*
X-0103691Y0015062D01*
Y0014839D01*
X-0103358Y0014652D02*
Y0014457D01*
X-0103691D01*
X-0096486Y0025263D02*
X-0096458Y0025208D01*
X-0096291D01*
X-0096263Y0025263D01*
Y0025374D01*
X-0096319Y0025430D01*
X-0096486D01*
Y0025541D01*
X-0096263D01*
X-0096673D02*
Y0025263D01*
X-0096701Y0025208D01*
X-0096868D01*
X-0096896Y0025263D01*
Y0025541D01*
X-0111699Y0014820D02*
Y0014987D01*
X-0111644Y0015014D01*
X-0111588D01*
X-0111533Y0014987D01*
Y0014820D01*
X-0111588Y0014792D01*
X-0111644D01*
X-0111866Y0014903D01*
X-0111588Y0014604D02*
X-0111533Y0014577D01*
Y0014410D01*
X-0111588Y0014382D01*
X-0111810D01*
X-0111866Y0014410D01*
Y0014577D01*
X-0111810Y0014604D01*
X-0068766Y0022104D02*
X-0068655D01*
X-0068433Y0021993D01*
X-0068655Y0021881D01*
X-0068766D01*
X-0068433Y0021555D02*
X-0068488Y0021499D01*
X-0068544Y0021471D01*
X-0068655D01*
X-0068710Y0021499D01*
X-0068766Y0021555D01*
Y0021610D01*
X-0068710Y0021666D01*
X-0068655Y0021694D01*
X-0068544D01*
X-0068488Y0021666D01*
X-0068433Y0021610D01*
Y0021555D01*
X-0068544Y0021284D02*
Y0021061D01*
X-0068766Y0021173D01*
Y0021228D01*
X-0068433D01*
Y0020874D02*
Y0020763D01*
Y0020818D02*
X-0068766D01*
X-0068710Y0020763D01*
X-0095803Y0010532D02*
Y0010866D01*
X-0095859Y0010810D01*
X-0095914Y0010699D01*
X-0095970Y0010810D01*
X-0096026Y0010866D01*
Y0010532D01*
X-0096324Y0010699D02*
X-0096213D01*
Y0010588D01*
X-0096241Y0010532D01*
X-0096408D01*
X-0096436Y0010588D01*
Y0010810D01*
X-0096408Y0010866D01*
X-0096241D01*
X-0096213Y0010810D01*
X-0096846Y0010699D02*
X-0096679D01*
X-0096623Y0010755D01*
Y0010810D01*
X-0096679Y0010866D01*
X-0096846D01*
Y0010532D01*
X-0085408Y0019124D02*
X-0085241D01*
X-0085213Y0019069D01*
Y0019013D01*
X-0085241Y0018958D01*
X-0085408D01*
X-0085436Y0019013D01*
Y0019069D01*
X-0085325Y0019291D01*
X-0085623D02*
Y0019013D01*
X-0085651Y0018958D01*
X-0085818D01*
X-0085846Y0019013D01*
Y0019291D01*
X-0084493Y0014145D02*
X-0084716D01*
X-0084493Y0014367D01*
Y0014423D01*
X-0084521Y0014478D01*
X-0084688D01*
X-0084716Y0014423D01*
X-0085126Y0014312D02*
X-0084959D01*
X-0084903Y0014367D01*
Y0014423D01*
X-0084959Y0014478D01*
X-0085126D01*
Y0014145D01*
X-0085508Y0014256D02*
Y0014200D01*
X-0085480Y0014145D01*
X-0085369D01*
X-0085341Y0014200D01*
Y0014478D01*
X-0085313D02*
X-0085424D01*
X-0075934Y0044664D02*
X-0075906Y0044608D01*
X-0075739D01*
X-0075711Y0044664D01*
Y0044775D01*
X-0075767Y0044830D01*
X-0075934D01*
Y0044942D01*
X-0075711D01*
X-0076288Y0044608D02*
X-0076121Y0044942D01*
X-0076344D01*
X-0076531Y0044664D02*
X-0076559Y0044608D01*
X-0076726D01*
X-0076754Y0044664D01*
Y0044886D01*
X-0076726Y0044942D01*
X-0076559D01*
X-0076531Y0044886D01*
X-0068433Y0012534D02*
X-0068599Y0012367D01*
X-0068766Y0012534D01*
Y0012311D02*
X-0068433D01*
Y0012124D02*
Y0012013D01*
Y0012068D02*
X-0068766D01*
X-0068710Y0012013D01*
X-0089184Y0028226D02*
X-0089351D01*
X-0089407Y0028170D01*
Y0028115D01*
X-0089351Y0028059D01*
X-0089184D01*
Y0028392D01*
X-0088997D02*
Y0028059D01*
X-0088941Y0028115D01*
X-0088885Y0028226D01*
X-0088830Y0028115D01*
X-0088774Y0028059D01*
Y0028392D01*
X-0088531Y0028226D02*
X-0088364D01*
X-0088587Y0028392D02*
X-0088364D01*
Y0028059D01*
X-0088587D01*
X-0088065Y0028392D02*
Y0028059D01*
X-0088177D02*
X-0087954D01*
X-0102060Y0012133D02*
X-0102283D01*
X-0102060Y0012355D01*
Y0012410D01*
X-0102088Y0012466D01*
X-0102255D01*
X-0102283Y0012410D01*
X-0102665Y0012133D02*
Y0012466D01*
X-0102693Y0012133D02*
X-0102526D01*
X-0102470Y0012244D01*
Y0012355D01*
X-0102526Y0012466D01*
X-0102693D01*
X-0119044Y0030274D02*
Y0030052D01*
X-0119266Y0030163D01*
Y0030219D01*
X-0118933D01*
Y0029864D02*
Y0029642D01*
X-0119155Y0029864D01*
X-0119210D01*
X-0119266Y0029837D01*
Y0029670D01*
X-0119210Y0029642D01*
X-0118988Y0029454D02*
X-0118933Y0029427D01*
Y0029260D01*
X-0118988Y0029232D01*
X-0119210D01*
X-0119266Y0029260D01*
Y0029427D01*
X-0119210Y0029454D01*
X-0118988Y0037502D02*
X-0118933Y0037530D01*
Y0037697D01*
X-0118988Y0037724D01*
X-0119099D01*
X-0119155Y0037669D01*
Y0037502D01*
X-0119266D01*
Y0037724D01*
X-0118933Y0037314D02*
Y0037092D01*
X-0119155Y0037314D01*
X-0119210D01*
X-0119266Y0037287D01*
Y0037120D01*
X-0119210Y0037092D01*
X-0118988Y0036904D02*
X-0118933Y0036877D01*
Y0036710D01*
X-0118988Y0036682D01*
X-0119210D01*
X-0119266Y0036710D01*
Y0036877D01*
X-0119210Y0036904D01*
X-0122862Y0014958D02*
X-0123085D01*
X-0122862Y0015180D01*
Y0015235D01*
X-0122890Y0015291D01*
X-0123057D01*
X-0123085Y0015235D01*
X-0123272D02*
X-0123300Y0015291D01*
X-0123467D01*
X-0123495Y0015235D01*
Y0015180D01*
X-0123467Y0015124D01*
X-0123300D01*
X-0123272Y0015069D01*
Y0015013D01*
X-0123300Y0014958D01*
X-0123467D01*
X-0123495Y0015013D01*
X-0123738Y0015124D02*
X-0123905D01*
Y0014958D02*
Y0015291D01*
X-0123682D01*
X-0071723Y0012326D02*
X-0071390D01*
X-0071723Y0012353D02*
Y0012187D01*
X-0071612Y0012131D01*
X-0071501D01*
X-0071390Y0012187D01*
Y0012353D01*
X-0071557Y0012597D02*
Y0012763D01*
X-0071723Y0012541D02*
Y0012763D01*
X-0071390D01*
Y0012541D01*
X-0071723Y0012951D02*
Y0013146D01*
X-0071390D01*
X-0092241Y0017394D02*
X-0092408D01*
X-0092436Y0017450D01*
Y0017505D01*
X-0092408Y0017561D01*
X-0092241D01*
X-0092213Y0017505D01*
Y0017450D01*
X-0092325Y0017228D01*
X-0092623Y0017561D02*
Y0017283D01*
X-0092651Y0017228D01*
X-0092818D01*
X-0092846Y0017283D01*
Y0017561D01*
X-0100684Y0026974D02*
X-0100656Y0027030D01*
Y0027085D01*
X-0100684Y0027141D01*
X-0100851D01*
X-0100878Y0027085D01*
Y0027030D01*
X-0100851Y0026974D01*
X-0100684D01*
X-0100656Y0026919D01*
Y0026863D01*
X-0100684Y0026808D01*
X-0100851D01*
X-0100878Y0026863D01*
Y0026919D01*
X-0100851Y0026974D01*
X-0101066Y0026808D02*
X-0101177D01*
X-0101122D02*
Y0027141D01*
X-0101177Y0027085D01*
X-0101615Y0026808D02*
Y0027141D01*
X-0101643Y0026808D02*
X-0101476D01*
X-0101420Y0026919D01*
Y0027030D01*
X-0101476Y0027141D01*
X-0101643D01*
X-0118933Y0014848D02*
X-0119266Y0015014D01*
Y0014792D01*
X-0118988Y0014604D02*
X-0118933Y0014577D01*
Y0014410D01*
X-0118988Y0014382D01*
X-0119210D01*
X-0119266Y0014410D01*
Y0014577D01*
X-0119210Y0014604D01*
X-0102662Y0021409D02*
Y0021132D01*
X-0102690Y0021076D01*
X-0102857D01*
X-0102885Y0021132D01*
Y0021409D01*
X-0103211Y0021076D02*
X-0103267Y0021132D01*
X-0103295Y0021187D01*
Y0021298D01*
X-0103267Y0021354D01*
X-0103211Y0021409D01*
X-0103156D01*
X-0103100Y0021354D01*
X-0103072Y0021298D01*
Y0021187D01*
X-0103100Y0021132D01*
X-0103156Y0021076D01*
X-0103211D01*
X-0103482D02*
X-0103593D01*
X-0103538D02*
Y0021409D01*
X-0103593Y0021354D01*
X-0119099Y0044930D02*
Y0045097D01*
X-0119044Y0045124D01*
X-0118988D01*
X-0118933Y0045097D01*
Y0044930D01*
X-0118988Y0044902D01*
X-0119044D01*
X-0119266Y0045013D01*
X-0118933Y0044714D02*
Y0044492D01*
X-0119155Y0044714D01*
X-0119210D01*
X-0119266Y0044687D01*
Y0044520D01*
X-0119210Y0044492D01*
X-0118988Y0044304D02*
X-0118933Y0044277D01*
Y0044110D01*
X-0118988Y0044082D01*
X-0119210D01*
X-0119266Y0044110D01*
Y0044277D01*
X-0119210Y0044304D01*
X-0084267Y0044608D02*
X-0084378D01*
X-0084322D02*
Y0044942D01*
X-0084378Y0044886D01*
X-0084788Y0044608D02*
X-0084621Y0044942D01*
X-0084844D01*
X-0085031Y0044664D02*
X-0085059Y0044608D01*
X-0085226D01*
X-0085254Y0044664D01*
Y0044886D01*
X-0085226Y0044942D01*
X-0085059D01*
X-0085031Y0044886D01*
X-0111538Y0044902D02*
X-0111483Y0044958D01*
Y0045069D01*
X-0111538Y0045124D01*
X-0111594D01*
X-0111705Y0045013D01*
X-0111816Y0045124D01*
Y0044902D01*
X-0111483Y0044714D02*
Y0044492D01*
X-0111705Y0044714D01*
X-0111760D01*
X-0111816Y0044687D01*
Y0044520D01*
X-0111760Y0044492D01*
X-0111538Y0044304D02*
X-0111483Y0044277D01*
Y0044110D01*
X-0111538Y0044082D01*
X-0111760D01*
X-0111816Y0044110D01*
Y0044277D01*
X-0111760Y0044304D01*
X-0119099Y0022437D02*
X-0119155Y0022464D01*
X-0119210D01*
X-0119266Y0022437D01*
Y0022270D01*
X-0119210Y0022242D01*
X-0119155D01*
X-0119099Y0022270D01*
Y0022437D01*
X-0119044Y0022464D01*
X-0118988D01*
X-0118933Y0022437D01*
Y0022270D01*
X-0118988Y0022242D01*
X-0119044D01*
X-0119099Y0022270D01*
X-0118988Y0022054D02*
X-0118933Y0022027D01*
Y0021860D01*
X-0118988Y0021832D01*
X-0119210D01*
X-0119266Y0021860D01*
Y0022027D01*
X-0119210Y0022054D01*
X-0111533Y0037724D02*
Y0037502D01*
X-0111755Y0037724D01*
X-0111810D01*
X-0111866Y0037697D01*
Y0037530D01*
X-0111810Y0037502D01*
X-0111533Y0037314D02*
Y0037092D01*
X-0111755Y0037314D01*
X-0111810D01*
X-0111866Y0037287D01*
Y0037120D01*
X-0111810Y0037092D01*
X-0111588Y0036904D02*
X-0111533Y0036877D01*
Y0036710D01*
X-0111588Y0036682D01*
X-0111810D01*
X-0111866Y0036710D01*
Y0036877D01*
X-0111810Y0036904D01*
X-0111644Y0029814D02*
Y0029592D01*
X-0111866Y0029703D01*
Y0029759D01*
X-0111533D01*
X-0111588Y0029404D02*
X-0111533Y0029377D01*
Y0029210D01*
X-0111588Y0029182D01*
X-0111810D01*
X-0111866Y0029210D01*
Y0029377D01*
X-0111810Y0029404D01*
X-0080156Y0044775D02*
X-0079989D01*
X-0079961Y0044719D01*
Y0044664D01*
X-0079989Y0044608D01*
X-0080156D01*
X-0080184Y0044664D01*
Y0044719D01*
X-0080072Y0044942D01*
X-0080538Y0044608D02*
X-0080371Y0044942D01*
X-0080594D01*
X-0080781Y0044664D02*
X-0080809Y0044608D01*
X-0080976D01*
X-0081004Y0044664D01*
Y0044886D01*
X-0080976Y0044942D01*
X-0080809D01*
X-0080781Y0044886D01*
X-0097581Y0012460D02*
Y0012683D01*
X-0097359Y0012572D01*
Y0012516D01*
X-0097692D01*
X-0097414Y0012870D02*
X-0097359Y0012898D01*
Y0013065D01*
X-0097414Y0013093D01*
X-0097470D01*
X-0097526Y0013065D01*
Y0012898D01*
X-0097581Y0012870D01*
X-0097637D01*
X-0097692Y0012898D01*
Y0013065D01*
X-0097637Y0013093D01*
X-0100835Y0024682D02*
X-0100946D01*
X-0100891D02*
Y0025016D01*
X-0100946Y0024960D01*
X-0101189Y0025016D02*
Y0024738D01*
X-0101217Y0024682D01*
X-0101384D01*
X-0101412Y0024738D01*
Y0025016D01*
X-0067771Y0044569D02*
X-0067604Y0044903D01*
X-0067827D01*
X-0068014Y0044569D02*
X-0068125D01*
X-0068070D02*
Y0044903D01*
X-0068125Y0044847D01*
X-0068369Y0044625D02*
X-0068396Y0044569D01*
X-0068563D01*
X-0068591Y0044625D01*
Y0044847D01*
X-0068563Y0044903D01*
X-0068396D01*
X-0068369Y0044847D01*
X-0071532Y0044736D02*
X-0071504Y0044791D01*
Y0044847D01*
X-0071532Y0044903D01*
X-0071699D01*
X-0071727Y0044847D01*
Y0044791D01*
X-0071699Y0044736D01*
X-0071532D01*
X-0071504Y0044680D01*
Y0044625D01*
X-0071532Y0044569D01*
X-0071699D01*
X-0071727Y0044625D01*
Y0044680D01*
X-0071699Y0044736D01*
X-0071914Y0044569D02*
X-0072025D01*
X-0071970D02*
Y0044903D01*
X-0072025Y0044847D01*
X-0072269Y0044625D02*
X-0072296Y0044569D01*
X-0072463D01*
X-0072491Y0044625D01*
Y0044847D01*
X-0072463Y0044903D01*
X-0072296D01*
X-0072269Y0044847D01*
X-0066750Y0015200D02*
X-0068250D01*
Y0010700D01*
X-0066750D01*
Y0015200D01*
Y0023950D02*
X-0068250D01*
Y0019450D01*
X-0066750D01*
Y0023950D01*
X-0087781Y0026599D02*
X-0088008Y0026258D01*
X-0088349Y0026031D01*
X-0088750Y0025951D01*
X-0089151Y0026031D01*
X-0089492Y0026258D01*
X-0089719Y0026599D01*
X-0088450Y0018935D02*
X-0085950D01*
Y0019685D01*
X-0088450D01*
Y0018935D01*
X-0088200D02*
Y0019685D01*
X-0085700Y0014550D02*
X-0091700D01*
Y0013550D01*
X-0085700D01*
Y0014550D01*
X-0085650Y0014600D01*
X-0102400Y0024400D02*
X-0098200D01*
Y0022150D01*
X-0102400D01*
Y0024400D01*
X-0098200Y0023850D02*
X-0102400D01*
X-0074050Y0010725D02*
X-0072050D01*
Y0013975D01*
X-0074050D01*
Y0010725D01*
X-0097050Y0011050D02*
X-0091050D01*
Y0012050D01*
X-0097050D01*
Y0011050D01*
X-0097100Y0011000D01*
X-0099450Y0010450D02*
Y0011950D01*
X-0103950D01*
Y0010450D01*
X-0099450D01*
X-0120550Y0017750D02*
Y0015500D01*
X-0124050D01*
Y0017750D01*
X-0120550D01*
X-0089719Y0027401D02*
X-0089492Y0027742D01*
X-0089500Y0027750D02*
X-0088016D01*
X-0088008Y0027742D01*
X-0087781Y0027401D01*
X-0086350Y0032650D02*
Y0036850D01*
X-0089300Y0032650D02*
Y0036850D01*
X-0082850D01*
Y0032650D01*
X-0089300D01*
X-0098750Y0036850D02*
Y0032650D01*
X-0095800Y0036850D02*
Y0032650D01*
X-0102250D01*
Y0036850D01*
X-0095800D01*
X-0098250Y0020825D02*
Y0021075D01*
X-0100750D01*
Y0020825D01*
Y0020075D02*
Y0019825D01*
X-0098250D01*
Y0020075D01*
X-0102925Y0016700D02*
X-0103175D01*
Y0014200D01*
X-0102925D01*
X-0102175D02*
X-0101925D01*
Y0016700D01*
X-0102175D01*
X-0098125Y0010600D02*
X-0097875D01*
Y0013100D01*
X-0098125D01*
X-0098875D02*
X-0099125D01*
Y0010600D01*
X-0098875D01*
X-0099650Y0026375D02*
Y0026625D01*
X-0102150D01*
Y0026375D01*
Y0025625D02*
Y0025375D01*
X-0099650D01*
Y0025625D01*
X-0093825Y0018955D02*
X-0090575D01*
Y0019705D01*
X-0093825D01*
Y0018955D01*
X-0093575D02*
Y0019705D01*
X-0096500Y0026435D02*
X-0094000D01*
Y0027185D01*
X-0096500D01*
Y0026435D01*
X-0096250D02*
Y0027185D01*
X-0119292Y0025750D02*
X-0119250D01*
Y0027250D01*
X-0125428D01*
Y0018663D01*
X-0119250D01*
Y0025750D01*
X-0119292D01*
Y0037750D02*
X-0119250D01*
Y0039250D01*
X-0125428D01*
Y0030663D01*
X-0119250D01*
Y0037750D01*
X-0119292D01*
X-0065258Y0037950D02*
X-0065300D01*
Y0036450D01*
X-0059122D01*
Y0045037D01*
X-0065300D01*
Y0037950D01*
X-0065258D01*
G01X-0101125Y0019250D02*
G03X-0102625Y0020750I0001500J0000000D01*
G03X-0104125Y0019250I0000000J0001500D01*
G03X-0102625Y0017750I0001500J0000000D01*
G03X-0101125Y0019250I0000000J0001500D01*
G01X-0107850Y0026550D02*
G03X-0104350Y0030050I0000000J0003500D01*
G03X-0107850Y0033550I0003500J0000000D01*
G03X-0111350Y0030050I0000000J0003500D01*
G03X-0107850Y0026550I0003500J0000000D01*
Y0019150D02*
G03X-0104350Y0022650I0000000J0003500D01*
G03X-0107850Y0026150I0003500J0000000D01*
G03X-0111350Y0022650I0000000J0003500D01*
G03X-0107850Y0019150I0003500J0000000D01*
Y0011750D02*
G03X-0104350Y0015250I0000000J0003500D01*
G03X-0107850Y0018750I0003500J0000000D01*
G03X-0111350Y0015250I0000000J0003500D01*
G03X-0107850Y0011750I0003500J0000000D01*
G01X-0115250D02*
G03X-0111750Y0015250I0000000J0003500D01*
G03X-0115250Y0018750I0003500J0000000D01*
G03X-0118750Y0015250I0000000J0003500D01*
G03X-0115250Y0011750I0003500J0000000D01*
Y0019200D02*
G03X-0111750Y0022700I0000000J0003500D01*
G03X-0115250Y0026200I0003500J0000000D01*
G03X-0118750Y0022700I0000000J0003500D01*
G03X-0115250Y0019200I0003500J0000000D01*
G01X-0107850Y0034050D02*
G03X-0104350Y0037550I0000000J0003500D01*
G03X-0107850Y0041050I0003500J0000000D01*
G03X-0111350Y0037550I0000000J0003500D01*
G03X-0107850Y0034050I0003500J0000000D01*
G01X-0107800Y0041450D02*
G03X-0104300Y0044950I0000000J0003500D01*
G03X-0107800Y0048450I0003500J0000000D01*
G03X-0111300Y0044950I0000000J0003500D01*
G03X-0107800Y0041450I0003500J0000000D01*
G01X-0115250Y0026600D02*
G03X-0111750Y0030100I0000000J0003500D01*
G03X-0115250Y0033600I0003500J0000000D01*
G03X-0118750Y0030100I0000000J0003500D01*
G03X-0115250Y0026600I0003500J0000000D01*
Y0034050D02*
G03X-0111750Y0037550I0000000J0003500D01*
G03X-0115250Y0041050I0003500J0000000D01*
G03X-0118750Y0037550I0000000J0003500D01*
G03X-0115250Y0034050I0003500J0000000D01*
Y0041450D02*
G03X-0111750Y0044950I0000000J0003500D01*
G03X-0115250Y0048450I0003500J0000000D01*
G03X-0118750Y0044950I0000000J0003500D01*
G03X-0115250Y0041450I0003500J0000000D01*
G54D59*
G01X-0085404Y0013105D02*
X-0085570Y0013272D01*
X-0085404Y0013439D01*
X-0085626D02*
Y0013105D01*
X-0085940D02*
X-0085774Y0013439D01*
X-0085996D01*
X-0086144Y0013217D02*
X-0086366D01*
X-0086255Y0013439D01*
X-0086199D01*
Y0013105D01*
X-0071402Y0015228D02*
Y0014895D01*
X-0071458Y0014951D01*
X-0071569Y0015173D01*
X-0071625Y0015228D01*
Y0014895D01*
X-0071772D02*
X-0071883D01*
X-0071828D02*
Y0015228D01*
X-0071883Y0015173D01*
X-0094643Y0023582D02*
X-0094810Y0023749D01*
X-0094643Y0023916D01*
X-0094866D02*
Y0023582D01*
X-0095180D02*
X-0095013Y0023916D01*
X-0095236D01*
X-0095383Y0023694D02*
X-0095606D01*
X-0095494Y0023916D01*
X-0095439D01*
Y0023582D01*
X-0091400Y0027737D02*
X-0091122D01*
X-0091066Y0027709D01*
Y0027542D01*
X-0091122Y0027514D01*
X-0091400D01*
X-0091066Y0027200D02*
X-0091400Y0027367D01*
Y0027144D01*
X-0091178Y0026997D02*
Y0026774D01*
X-0091400Y0026885D01*
Y0026941D01*
X-0091066D01*
X-0099107Y0018244D02*
Y0017967D01*
X-0099134Y0017911D01*
X-0099301D01*
X-0099329Y0017967D01*
Y0018244D01*
X-0099643Y0017911D02*
X-0099477Y0018244D01*
X-0099699D01*
X-0099847Y0018022D02*
X-0100069D01*
X-0099958Y0018244D01*
X-0099902D01*
Y0017911D01*
X-0093817Y0022384D02*
X-0093651Y0022551D01*
X-0093484Y0022384D01*
Y0022607D02*
X-0093817D01*
X-0093762Y0022977D02*
X-0093817Y0022921D01*
Y0022810D01*
X-0093762Y0022754D01*
X-0093706D01*
X-0093595Y0022866D01*
X-0093484Y0022754D01*
Y0022977D01*
X-0093817Y0023180D02*
Y0023124D01*
X-0093762D01*
Y0023180D01*
X-0093817D01*
X-0093762Y0023606D02*
X-0093817Y0023550D01*
Y0023439D01*
X-0093762Y0023383D01*
X-0093706D01*
X-0093595Y0023494D01*
X-0093484Y0023383D01*
Y0023606D01*
X-0095682Y0020925D02*
Y0020648D01*
X-0095710Y0020592D01*
X-0095877D01*
X-0095905Y0020648D01*
Y0020925D01*
X-0096219Y0020592D02*
X-0096052Y0020925D01*
X-0096275D01*
X-0096422Y0020703D02*
X-0096645D01*
X-0096533Y0020925D01*
X-0096478D01*
Y0020592D01*
X-0084777Y0015095D02*
X-0084943Y0015262D01*
X-0084777Y0015428D01*
X-0084999D02*
Y0015095D01*
X-0085313D02*
X-0085147Y0015428D01*
X-0085369D01*
X-0085517Y0015206D02*
X-0085739D01*
X-0085628Y0015428D01*
X-0085572D01*
Y0015095D01*
X-0090701Y0015865D02*
Y0016031D01*
X-0090867D02*
X-0090534D01*
Y0015809D01*
Y0016179D02*
X-0090867D01*
X-0090812Y0016235D01*
X-0090590Y0016346D01*
X-0090534Y0016401D01*
X-0090867D01*
Y0016688D02*
X-0090812Y0016743D01*
X-0090756Y0016771D01*
X-0090645D01*
X-0090590Y0016743D01*
X-0090534Y0016688D01*
Y0016632D01*
X-0090590Y0016577D01*
X-0090645Y0016549D01*
X-0090756D01*
X-0090812Y0016577D01*
X-0090867Y0016632D01*
Y0016688D01*
Y0017058D02*
X-0090812Y0017113D01*
X-0090756Y0017141D01*
X-0090645D01*
X-0090590Y0017113D01*
X-0090534Y0017058D01*
Y0017002D01*
X-0090590Y0016947D01*
X-0090645Y0016919D01*
X-0090756D01*
X-0090812Y0016947D01*
X-0090867Y0017002D01*
Y0017058D01*
Y0017289D02*
Y0017400D01*
Y0017344D02*
X-0090534D01*
X-0090590Y0017400D01*
X-0073277Y0047545D02*
X-0073443Y0047712D01*
X-0073277Y0047878D01*
X-0073499D02*
Y0047545D01*
X-0073813D02*
X-0073647Y0047878D01*
X-0073869D01*
X-0074017Y0047656D02*
X-0074239D01*
X-0074128Y0047878D01*
X-0074072D01*
Y0047545D01*
X-0082266Y0023645D02*
X-0082321Y0023701D01*
X-0082349Y0023756D01*
Y0023867D01*
X-0082321Y0023923D01*
X-0082266Y0023978D01*
X-0082210D01*
X-0082154Y0023923D01*
X-0082127Y0023867D01*
Y0023756D01*
X-0082154Y0023701D01*
X-0082210Y0023645D01*
X-0082266D01*
X-0082663D02*
X-0082497Y0023978D01*
X-0082719D01*
X-0082867Y0023756D02*
X-0083089D01*
X-0082978Y0023978D01*
X-0082922D01*
Y0023645D01*
X-0117793Y0011482D02*
X-0117960Y0011649D01*
X-0117793Y0011816D01*
X-0118016D02*
Y0011482D01*
X-0118330D02*
X-0118163Y0011816D01*
X-0118386D01*
X-0118533Y0011594D02*
X-0118756D01*
X-0118644Y0011816D01*
X-0118589D01*
Y0011482D01*
X-0088551Y0019665D02*
Y0019831D01*
X-0088717D02*
X-0088384D01*
Y0019609D01*
Y0019979D02*
X-0088717D01*
X-0088662Y0020035D01*
X-0088440Y0020146D01*
X-0088384Y0020201D01*
X-0088717D01*
Y0020488D02*
X-0088662Y0020543D01*
X-0088606Y0020571D01*
X-0088495D01*
X-0088440Y0020543D01*
X-0088384Y0020488D01*
Y0020432D01*
X-0088440Y0020377D01*
X-0088495Y0020349D01*
X-0088606D01*
X-0088662Y0020377D01*
X-0088717Y0020432D01*
Y0020488D01*
Y0020858D02*
X-0088662Y0020913D01*
X-0088606Y0020941D01*
X-0088495D01*
X-0088440Y0020913D01*
X-0088384Y0020858D01*
Y0020802D01*
X-0088440Y0020747D01*
X-0088495Y0020719D01*
X-0088606D01*
X-0088662Y0020747D01*
X-0088717Y0020802D01*
Y0020858D01*
Y0021089D02*
Y0021200D01*
Y0021144D02*
X-0088384D01*
X-0088440Y0021200D01*
X-0088375Y0015872D02*
X-0088542D01*
Y0015705D02*
Y0016039D01*
X-0088319D01*
X-0088689D02*
Y0015705D01*
X-0088745Y0015761D01*
X-0088856Y0015983D01*
X-0088912Y0016039D01*
Y0015705D01*
X-0089198D02*
X-0089254Y0015761D01*
X-0089282Y0015817D01*
Y0015928D01*
X-0089254Y0015983D01*
X-0089198Y0016039D01*
X-0089143D01*
X-0089087Y0015983D01*
X-0089059Y0015928D01*
Y0015817D01*
X-0089087Y0015761D01*
X-0089143Y0015705D01*
X-0089198D01*
X-0089568D02*
X-0089624Y0015761D01*
X-0089652Y0015817D01*
Y0015928D01*
X-0089624Y0015983D01*
X-0089568Y0016039D01*
X-0089513D01*
X-0089457Y0015983D01*
X-0089429Y0015928D01*
Y0015817D01*
X-0089457Y0015761D01*
X-0089513Y0015705D01*
X-0089568D01*
X-0089799D02*
X-0089910D01*
X-0089855D02*
Y0016039D01*
X-0089910Y0015983D01*
X-0082127Y0024695D02*
X-0082293Y0024862D01*
X-0082127Y0025028D01*
X-0082349D02*
Y0024695D01*
X-0082663D02*
X-0082497Y0025028D01*
X-0082719D01*
X-0082867Y0024806D02*
X-0083089D01*
X-0082978Y0025028D01*
X-0082922D01*
Y0024695D01*
X-0115843Y0011482D02*
X-0116010Y0011649D01*
X-0115843Y0011816D01*
X-0116066D02*
Y0011482D01*
X-0116380D02*
X-0116213Y0011816D01*
X-0116436D01*
X-0116583Y0011594D02*
X-0116806D01*
X-0116694Y0011816D01*
X-0116639D01*
Y0011482D01*
X-0070927Y0047545D02*
X-0071093Y0047712D01*
X-0070927Y0047878D01*
X-0071149D02*
Y0047545D01*
X-0071463D02*
X-0071297Y0047878D01*
X-0071519D01*
X-0071667Y0047656D02*
X-0071889D01*
X-0071778Y0047878D01*
X-0071722D01*
Y0047545D01*
X-0092225Y0028322D02*
X-0092392D01*
Y0028155D02*
Y0028489D01*
X-0092169D01*
X-0092539D02*
Y0028155D01*
X-0092595Y0028211D01*
X-0092706Y0028433D01*
X-0092762Y0028489D01*
Y0028155D01*
X-0093048D02*
X-0093104Y0028211D01*
X-0093132Y0028267D01*
Y0028378D01*
X-0093104Y0028433D01*
X-0093048Y0028489D01*
X-0092993D01*
X-0092937Y0028433D01*
X-0092909Y0028378D01*
Y0028267D01*
X-0092937Y0028211D01*
X-0092993Y0028155D01*
X-0093048D01*
X-0093418D02*
X-0093474Y0028211D01*
X-0093502Y0028267D01*
Y0028378D01*
X-0093474Y0028433D01*
X-0093418Y0028489D01*
X-0093363D01*
X-0093307Y0028433D01*
X-0093279Y0028378D01*
Y0028267D01*
X-0093307Y0028211D01*
X-0093363Y0028155D01*
X-0093418D01*
X-0093649D02*
X-0093760D01*
X-0093705D02*
Y0028489D01*
X-0093760Y0028433D01*
X-0096077Y0013645D02*
X-0096243Y0013812D01*
X-0096077Y0013978D01*
X-0096299D02*
Y0013645D01*
X-0096613D02*
X-0096447Y0013978D01*
X-0096669D01*
X-0096817Y0013756D02*
X-0097039D01*
X-0096928Y0013978D01*
X-0096872D01*
Y0013645D01*
X-0097047Y0019654D02*
Y0019877D01*
X-0096825Y0019654D01*
X-0096769D01*
X-0096714Y0019682D01*
Y0019849D01*
X-0096769Y0019877D01*
X-0096714Y0020024D02*
X-0096992D01*
X-0097047Y0020052D01*
Y0020219D01*
X-0096992Y0020247D01*
X-0096714D01*
X-0084434Y0015982D02*
X-0084601Y0016149D01*
X-0084434Y0016316D01*
X-0084657D02*
Y0015982D01*
X-0085027Y0016038D02*
X-0084971Y0015982D01*
X-0084860D01*
X-0084804Y0016038D01*
Y0016094D01*
X-0084916Y0016205D01*
X-0084804Y0016316D01*
X-0085027D01*
X-0085230Y0015982D02*
X-0085174D01*
Y0016038D01*
X-0085230D01*
Y0015982D01*
X-0085656Y0016038D02*
X-0085600Y0015982D01*
X-0085489D01*
X-0085433Y0016038D01*
Y0016094D01*
X-0085544Y0016205D01*
X-0085433Y0016316D01*
X-0085656D01*
X-0093115Y0013699D02*
X-0093281D01*
Y0013532D02*
Y0013866D01*
X-0093059D01*
X-0093429D02*
Y0013532D01*
X-0093485Y0013588D01*
X-0093596Y0013810D01*
X-0093651Y0013866D01*
Y0013532D01*
X-0093938D02*
X-0093993Y0013588D01*
X-0094021Y0013644D01*
Y0013755D01*
X-0093993Y0013810D01*
X-0093938Y0013866D01*
X-0093882D01*
X-0093827Y0013810D01*
X-0093799Y0013755D01*
Y0013644D01*
X-0093827Y0013588D01*
X-0093882Y0013532D01*
X-0093938D01*
X-0094308D02*
X-0094363Y0013588D01*
X-0094391Y0013644D01*
Y0013755D01*
X-0094363Y0013810D01*
X-0094308Y0013866D01*
X-0094252D01*
X-0094197Y0013810D01*
X-0094169Y0013755D01*
Y0013644D01*
X-0094197Y0013588D01*
X-0094252Y0013532D01*
X-0094308D01*
X-0094539D02*
X-0094650D01*
X-0094594D02*
Y0013866D01*
X-0094650Y0013810D01*
X-0112893Y0011482D02*
X-0113060Y0011649D01*
X-0112893Y0011816D01*
X-0113116D02*
Y0011482D01*
X-0113430D02*
X-0113263Y0011816D01*
X-0113486D01*
X-0113633Y0011594D02*
X-0113856D01*
X-0113744Y0011816D01*
X-0113689D01*
Y0011482D01*
X-0089525Y0024522D02*
X-0089692D01*
Y0024355D02*
Y0024689D01*
X-0089469D01*
X-0089839D02*
Y0024355D01*
X-0089895Y0024411D01*
X-0090006Y0024633D01*
X-0090062Y0024689D01*
Y0024355D01*
X-0090348D02*
X-0090404Y0024411D01*
X-0090432Y0024467D01*
Y0024578D01*
X-0090404Y0024633D01*
X-0090348Y0024689D01*
X-0090293D01*
X-0090237Y0024633D01*
X-0090209Y0024578D01*
Y0024467D01*
X-0090237Y0024411D01*
X-0090293Y0024355D01*
X-0090348D01*
X-0090718D02*
X-0090774Y0024411D01*
X-0090802Y0024467D01*
Y0024578D01*
X-0090774Y0024633D01*
X-0090718Y0024689D01*
X-0090663D01*
X-0090607Y0024633D01*
X-0090579Y0024578D01*
Y0024467D01*
X-0090607Y0024411D01*
X-0090663Y0024355D01*
X-0090718D01*
X-0090949D02*
X-0091060D01*
X-0091005D02*
Y0024689D01*
X-0091060Y0024633D01*
X-0073632Y0016844D02*
X-0073688D01*
X-0073521Y0016732D02*
X-0073632Y0016844D01*
X-0073521Y0016955D01*
X-0073688Y0016732D02*
Y0017066D01*
X-0074030Y0016732D02*
X-0073863Y0017066D01*
X-0074086D01*
X-0074233Y0016844D02*
X-0074456D01*
X-0074344Y0017066D01*
X-0074289D01*
Y0016732D01*
X-0082043Y0021082D02*
X-0082210Y0021249D01*
X-0082043Y0021416D01*
X-0082266D02*
Y0021082D01*
X-0082580D02*
X-0082413Y0021416D01*
X-0082636D01*
X-0082783Y0021194D02*
X-0083006D01*
X-0082894Y0021416D01*
X-0082839D01*
Y0021082D01*
X-0069782Y0016844D02*
X-0069838D01*
X-0069671Y0016732D02*
X-0069782Y0016844D01*
X-0069671Y0016955D01*
X-0069838Y0016732D02*
Y0017066D01*
X-0070180Y0016732D02*
X-0070013Y0017066D01*
X-0070236D01*
X-0070383Y0016844D02*
X-0070606D01*
X-0070494Y0017066D01*
X-0070439D01*
Y0016732D01*
X-0086148Y0025362D02*
X-0086315D01*
Y0025195D02*
Y0025528D01*
X-0086092D01*
X-0086462D02*
Y0025195D01*
X-0086518Y0025251D01*
X-0086629Y0025473D01*
X-0086685Y0025528D01*
Y0025195D01*
X-0086971D02*
X-0087027Y0025251D01*
X-0087055Y0025306D01*
Y0025417D01*
X-0087027Y0025473D01*
X-0086971Y0025528D01*
X-0086916D01*
X-0086860Y0025473D01*
X-0086832Y0025417D01*
Y0025306D01*
X-0086860Y0025251D01*
X-0086916Y0025195D01*
X-0086971D01*
X-0087341D02*
X-0087397Y0025251D01*
X-0087425Y0025306D01*
Y0025417D01*
X-0087397Y0025473D01*
X-0087341Y0025528D01*
X-0087286D01*
X-0087230Y0025473D01*
X-0087202Y0025417D01*
Y0025306D01*
X-0087230Y0025251D01*
X-0087286Y0025195D01*
X-0087341D01*
X-0087572D02*
X-0087683D01*
X-0087628D02*
Y0025528D01*
X-0087683Y0025473D01*
X-0096082Y0029911D02*
Y0029800D01*
Y0029855D02*
X-0096416D01*
X-0096360Y0029800D01*
X-0093482Y0030957D02*
X-0093649Y0030790D01*
X-0093816Y0030957D01*
Y0030734D02*
X-0093482D01*
Y0030420D02*
X-0093816Y0030587D01*
Y0030364D01*
X-0093594Y0030217D02*
Y0029994D01*
X-0093816Y0030105D01*
Y0030161D01*
X-0093482D01*
X-0081498Y0020212D02*
X-0081665D01*
Y0020045D02*
Y0020378D01*
X-0081442D01*
X-0081812D02*
Y0020045D01*
X-0081868Y0020101D01*
X-0081979Y0020323D01*
X-0082035Y0020378D01*
Y0020045D01*
X-0082321D02*
X-0082377Y0020101D01*
X-0082405Y0020156D01*
Y0020267D01*
X-0082377Y0020323D01*
X-0082321Y0020378D01*
X-0082266D01*
X-0082210Y0020323D01*
X-0082182Y0020267D01*
Y0020156D01*
X-0082210Y0020101D01*
X-0082266Y0020045D01*
X-0082321D01*
X-0082691D02*
X-0082747Y0020101D01*
X-0082775Y0020156D01*
Y0020267D01*
X-0082747Y0020323D01*
X-0082691Y0020378D01*
X-0082636D01*
X-0082580Y0020323D01*
X-0082552Y0020267D01*
Y0020156D01*
X-0082580Y0020101D01*
X-0082636Y0020045D01*
X-0082691D01*
X-0082922D02*
X-0083033D01*
X-0082978D02*
Y0020378D01*
X-0083033Y0020323D01*
X-0087895Y0013105D02*
X-0088061Y0013272D01*
X-0088062D02*
X-0087895Y0013439D01*
X-0088117D02*
Y0013105D01*
X-0088432D02*
X-0088265Y0013439D01*
X-0088487D01*
X-0088690Y0013105D02*
X-0088635D01*
Y0013161D01*
X-0088690D01*
Y0013105D01*
X-0088894Y0013217D02*
X-0089116D01*
X-0089005Y0013439D01*
X-0088949D01*
Y0013105D01*
X-0075627Y0047545D02*
X-0075793Y0047712D01*
X-0075627Y0047878D01*
X-0075849D02*
Y0047545D01*
X-0076163D02*
X-0075997Y0047878D01*
X-0076219D01*
X-0076367Y0047656D02*
X-0076589D01*
X-0076478Y0047878D01*
X-0076422D01*
Y0047545D01*
X-0077977D02*
X-0078143Y0047712D01*
X-0077977Y0047878D01*
X-0078199D02*
Y0047545D01*
X-0078513D02*
X-0078347Y0047878D01*
X-0078569D01*
X-0078717Y0047656D02*
X-0078939D01*
X-0078828Y0047878D01*
X-0078772D01*
Y0047545D01*
X-0096398Y0017262D02*
X-0096565D01*
Y0017095D02*
Y0017428D01*
X-0096342D01*
X-0096712D02*
Y0017095D01*
X-0096768Y0017151D01*
X-0096879Y0017373D01*
X-0096935Y0017428D01*
Y0017095D01*
X-0097221D02*
X-0097277Y0017151D01*
X-0097305Y0017206D01*
Y0017317D01*
X-0097277Y0017373D01*
X-0097221Y0017428D01*
X-0097166D01*
X-0097110Y0017373D01*
X-0097082Y0017317D01*
Y0017206D01*
X-0097110Y0017151D01*
X-0097166Y0017095D01*
X-0097221D01*
X-0097591D02*
X-0097647Y0017151D01*
X-0097675Y0017206D01*
Y0017317D01*
X-0097647Y0017373D01*
X-0097591Y0017428D01*
X-0097536D01*
X-0097480Y0017373D01*
X-0097452Y0017317D01*
Y0017206D01*
X-0097480Y0017151D01*
X-0097536Y0017095D01*
X-0097591D01*
X-0097822D02*
X-0097933D01*
X-0097878D02*
Y0017428D01*
X-0097933Y0017373D01*
X-0096434Y0015982D02*
X-0096601Y0016149D01*
X-0096434Y0016316D01*
X-0096657D02*
Y0015982D01*
X-0096971D02*
X-0096804Y0016316D01*
X-0097027D01*
X-0097230Y0015982D02*
X-0097174D01*
Y0016038D01*
X-0097230D01*
Y0015982D01*
X-0097433Y0016094D02*
X-0097656D01*
X-0097544Y0016316D01*
X-0097489D01*
Y0015982D01*
X-0089007Y0020672D02*
X-0089174Y0020839D01*
X-0089007Y0021005D01*
X-0089230D02*
Y0020672D01*
X-0089544D02*
X-0089377Y0021005D01*
X-0089600D01*
X-0089803Y0020672D02*
X-0089747D01*
Y0020728D01*
X-0089803D01*
Y0020672D01*
X-0090006Y0020783D02*
X-0090229D01*
X-0090117Y0021005D01*
X-0090062D01*
Y0020672D01*
X-0082266Y0022345D02*
X-0082321Y0022401D01*
X-0082349Y0022456D01*
Y0022567D01*
X-0082321Y0022623D01*
X-0082266Y0022678D01*
X-0082210D01*
X-0082154Y0022623D01*
X-0082127Y0022567D01*
Y0022456D01*
X-0082154Y0022401D01*
X-0082210Y0022345D01*
X-0082266D01*
X-0082663D02*
X-0082497Y0022678D01*
X-0082719D01*
X-0082867Y0022456D02*
X-0083089D01*
X-0082978Y0022678D01*
X-0082922D01*
Y0022345D01*
X-0093725Y0020872D02*
X-0093892D01*
Y0020705D02*
Y0021039D01*
X-0093669D01*
X-0094039D02*
Y0020705D01*
X-0094095Y0020761D01*
X-0094206Y0020983D01*
X-0094262Y0021039D01*
Y0020705D01*
X-0094548D02*
X-0094604Y0020761D01*
X-0094632Y0020817D01*
Y0020928D01*
X-0094604Y0020983D01*
X-0094548Y0021039D01*
X-0094493D01*
X-0094437Y0020983D01*
X-0094409Y0020928D01*
Y0020817D01*
X-0094437Y0020761D01*
X-0094493Y0020705D01*
X-0094548D01*
X-0094918D02*
X-0094974Y0020761D01*
X-0095002Y0020817D01*
Y0020928D01*
X-0094974Y0020983D01*
X-0094918Y0021039D01*
X-0094863D01*
X-0094807Y0020983D01*
X-0094779Y0020928D01*
Y0020817D01*
X-0094807Y0020761D01*
X-0094863Y0020705D01*
X-0094918D01*
X-0095149D02*
X-0095260D01*
X-0095205D02*
Y0021039D01*
X-0095260Y0020983D01*
X-0110084Y0011482D02*
X-0110251Y0011649D01*
X-0110084Y0011816D01*
X-0110307D02*
Y0011482D01*
X-0110621D02*
X-0110454Y0011816D01*
X-0110677D01*
X-0110880Y0011482D02*
X-0110824D01*
Y0011538D01*
X-0110880D01*
Y0011482D01*
X-0111083Y0011594D02*
X-0111306D01*
X-0111194Y0011816D01*
X-0111139D01*
Y0011482D01*
X-0084449Y0012585D02*
Y0012419D01*
X-0084282D02*
X-0084616D01*
Y0012641D01*
Y0012271D02*
X-0084282D01*
X-0084338Y0012215D01*
X-0084560Y0012104D01*
X-0084616Y0012049D01*
X-0084282D01*
Y0011762D02*
X-0084338Y0011706D01*
X-0084394Y0011679D01*
X-0084505D01*
X-0084560Y0011706D01*
X-0084616Y0011762D01*
Y0011818D01*
Y0011817D02*
X-0084560Y0011873D01*
X-0084505Y0011901D01*
X-0084394D01*
X-0084338Y0011873D01*
X-0084282Y0011818D01*
Y0011817D02*
Y0011762D01*
Y0011392D02*
X-0084338Y0011336D01*
X-0084394Y0011309D01*
X-0084505D01*
X-0084560Y0011336D01*
X-0084616Y0011392D01*
Y0011448D01*
Y0011447D02*
X-0084560Y0011503D01*
X-0084505Y0011531D01*
X-0084394D01*
X-0084338Y0011503D01*
X-0084282Y0011448D01*
Y0011447D02*
Y0011392D01*
Y0011161D02*
Y0011050D01*
Y0011105D02*
X-0084616D01*
X-0084560Y0011050D01*
X-0086851Y0022265D02*
Y0022431D01*
X-0087017D02*
X-0086684D01*
Y0022209D01*
Y0022579D02*
X-0087017D01*
X-0086962Y0022635D01*
X-0086740Y0022746D01*
X-0086684Y0022801D01*
X-0087017D01*
Y0023088D02*
X-0086962Y0023143D01*
X-0086906Y0023171D01*
X-0086795D01*
X-0086740Y0023143D01*
X-0086684Y0023088D01*
Y0023032D01*
X-0086740Y0022977D01*
X-0086795Y0022949D01*
X-0086906D01*
X-0086962Y0022977D01*
X-0087017Y0023032D01*
Y0023088D01*
Y0023458D02*
X-0086962Y0023513D01*
X-0086906Y0023541D01*
X-0086795D01*
X-0086740Y0023513D01*
X-0086684Y0023458D01*
Y0023402D01*
X-0086740Y0023347D01*
X-0086795Y0023319D01*
X-0086906D01*
X-0086962Y0023347D01*
X-0087017Y0023402D01*
Y0023458D01*
Y0023689D02*
Y0023800D01*
Y0023744D02*
X-0086684D01*
X-0086740Y0023800D01*
X-0091582Y0025465D02*
X-0091749Y0025299D01*
X-0091916Y0025465D01*
Y0025243D02*
X-0091582D01*
Y0024929D02*
X-0091916Y0025095D01*
Y0024873D01*
X-0091582Y0024670D02*
Y0024725D01*
X-0091638D01*
Y0024670D01*
X-0091582D01*
X-0091694Y0024467D02*
Y0024244D01*
X-0091916Y0024355D01*
Y0024411D01*
X-0091582D01*
X-0075132Y0014732D02*
X-0075188Y0014788D01*
X-0075216Y0014844D01*
Y0014955D01*
X-0075188Y0015010D01*
X-0075132Y0015066D01*
X-0075077D01*
X-0075021Y0015010D01*
X-0074993Y0014955D01*
Y0014844D01*
X-0075021Y0014788D01*
X-0075077Y0014732D01*
X-0075132D01*
X-0075530D02*
X-0075363Y0015066D01*
X-0075586D01*
X-0075733Y0014844D02*
X-0075956D01*
X-0075844Y0015066D01*
X-0075789D01*
Y0014732D01*
X-0089782Y0012215D02*
X-0089949Y0012049D01*
X-0090116Y0012215D01*
Y0011993D02*
X-0089782D01*
Y0011679D02*
X-0090116Y0011845D01*
Y0011623D01*
X-0089782Y0011420D02*
Y0011475D01*
X-0089838D01*
Y0011420D01*
X-0089782D01*
X-0089894Y0011217D02*
Y0010994D01*
X-0090116Y0011105D01*
Y0011161D01*
X-0089782D01*
X-0088725Y0021772D02*
X-0088892D01*
Y0021605D02*
Y0021939D01*
X-0088669D01*
X-0089039D02*
Y0021605D01*
X-0089095Y0021661D01*
X-0089206Y0021883D01*
X-0089262Y0021939D01*
Y0021605D01*
X-0089548D02*
X-0089604Y0021661D01*
X-0089632Y0021717D01*
Y0021828D01*
X-0089604Y0021883D01*
X-0089548Y0021939D01*
X-0089493D01*
X-0089437Y0021883D01*
X-0089409Y0021828D01*
Y0021717D01*
X-0089437Y0021661D01*
X-0089493Y0021605D01*
X-0089548D01*
X-0089918D02*
X-0089974Y0021661D01*
X-0090002Y0021717D01*
Y0021828D01*
X-0089974Y0021883D01*
X-0089918Y0021939D01*
X-0089863D01*
X-0089807Y0021883D01*
X-0089779Y0021828D01*
Y0021717D01*
X-0089807Y0021661D01*
X-0089863Y0021605D01*
X-0089918D01*
X-0090149D02*
X-0090260D01*
X-0090205D02*
Y0021939D01*
X-0090260Y0021883D01*
X-0088017Y0022857D02*
X-0087851Y0023023D01*
X-0087684Y0022857D01*
Y0023079D02*
X-0088017D01*
Y0023393D02*
X-0087684Y0023227D01*
Y0023449D01*
X-0088129Y0023624D02*
X-0088073Y0023597D01*
X-0087962D01*
Y0023652D01*
X-0088017D01*
Y0023597D01*
X-0087906Y0023883D02*
Y0024106D01*
X-0087684Y0023994D01*
Y0023939D01*
X-0088017D01*
X-0096375Y0028472D02*
X-0096542D01*
Y0028305D02*
Y0028639D01*
X-0096319D01*
X-0096689D02*
Y0028305D01*
X-0096745Y0028361D01*
X-0096856Y0028583D01*
X-0096912Y0028639D01*
Y0028305D01*
X-0097198D02*
X-0097254Y0028361D01*
X-0097282Y0028417D01*
Y0028528D01*
X-0097254Y0028583D01*
X-0097198Y0028639D01*
X-0097143D01*
X-0097087Y0028583D01*
X-0097059Y0028528D01*
Y0028417D01*
X-0097087Y0028361D01*
X-0097143Y0028305D01*
X-0097198D01*
X-0097568D02*
X-0097624Y0028361D01*
X-0097652Y0028417D01*
Y0028528D01*
X-0097624Y0028583D01*
X-0097568Y0028639D01*
X-0097513D01*
X-0097457Y0028583D01*
X-0097429Y0028528D01*
Y0028417D01*
X-0097457Y0028361D01*
X-0097513Y0028305D01*
X-0097568D01*
X-0097799D02*
X-0097910D01*
X-0097855D02*
Y0028639D01*
X-0097910Y0028583D01*
X-0062157Y0033263D02*
X-0062129Y0033208D01*
X-0061962D01*
X-0061934Y0033263D01*
Y0033374D01*
X-0061990Y0033430D01*
X-0062157D01*
Y0033541D01*
X-0061934D01*
X-0062443Y0033208D02*
X-0062499Y0033263D01*
X-0062527Y0033319D01*
Y0033430D01*
X-0062499Y0033485D01*
X-0062443Y0033541D01*
X-0062388D01*
X-0062332Y0033485D01*
X-0062304Y0033430D01*
Y0033319D01*
X-0062332Y0033263D01*
X-0062388Y0033208D01*
X-0062443D01*
X-0062730D02*
X-0062674D01*
Y0033263D01*
X-0062730D01*
Y0033208D01*
X-0063072D02*
X-0063128Y0033263D01*
X-0063156Y0033319D01*
Y0033430D01*
X-0063128Y0033485D01*
X-0063072Y0033541D01*
X-0063017D01*
X-0062961Y0033485D01*
X-0062933Y0033430D01*
Y0033319D01*
X-0062961Y0033263D01*
X-0063017Y0033208D01*
X-0063072D01*
X-0085138Y0016982D02*
X-0085193Y0017038D01*
X-0085221Y0017094D01*
Y0017205D01*
X-0085193Y0017260D01*
X-0085138Y0017316D01*
X-0085082D01*
X-0085027Y0017260D01*
X-0084999Y0017205D01*
Y0017094D01*
X-0085027Y0017038D01*
X-0085082Y0016982D01*
X-0085138D01*
X-0085508D02*
X-0085563Y0017038D01*
X-0085591Y0017094D01*
Y0017205D01*
X-0085563Y0017260D01*
X-0085508Y0017316D01*
X-0085452D01*
X-0085397Y0017260D01*
X-0085369Y0017205D01*
Y0017094D01*
X-0085397Y0017038D01*
X-0085452Y0016982D01*
X-0085508D01*
X-0085739D02*
X-0085850D01*
X-0085794D02*
Y0017316D01*
X-0085850Y0017260D01*
X-0099400Y0027887D02*
X-0099122D01*
X-0099066Y0027859D01*
Y0027692D01*
X-0099122Y0027664D01*
X-0099400D01*
X-0099066Y0027350D02*
X-0099400Y0027517D01*
Y0027294D01*
X-0099178Y0027147D02*
Y0026924D01*
X-0099400Y0027035D01*
Y0027091D01*
X-0099066D01*
X-0068327Y0047545D02*
X-0068493Y0047712D01*
X-0068327Y0047878D01*
X-0068549D02*
Y0047545D01*
X-0068863D02*
X-0068697Y0047878D01*
X-0068919D01*
X-0069067Y0047656D02*
X-0069289D01*
X-0069178Y0047878D01*
X-0069122D01*
Y0047545D01*
X-0082552Y0026078D02*
Y0025745D01*
X-0082608Y0025801D01*
X-0082719Y0026023D01*
X-0082775Y0026078D01*
Y0025745D01*
X-0082922D02*
X-0083033D01*
X-0082978D02*
Y0026078D01*
X-0083033Y0026023D01*
X-0086654Y0013105D02*
X-0086820Y0013272D01*
X-0086654Y0013439D01*
X-0086876D02*
Y0013105D01*
X-0087190D02*
X-0087024Y0013439D01*
X-0087246D01*
X-0087394Y0013217D02*
X-0087616D01*
X-0087505Y0013439D01*
X-0087449D01*
Y0013105D01*
X-0068950Y0015700D02*
X-0071150D01*
Y0016600D01*
X-0068950D01*
Y0015700D01*
X-0071150Y0015400D02*
X-0068950D01*
Y0014500D01*
X-0071150D01*
Y0015400D01*
X-0100805Y0019600D02*
Y0018300D01*
X-0098555D01*
Y0019600D01*
X-0098530D01*
X-0100805D01*
X-0097350Y0019670D02*
Y0019930D01*
X-0097650D01*
Y0019980D01*
Y0018730D02*
X-0097350D01*
Y0018990D01*
X-0093950Y0030900D02*
Y0028700D01*
X-0094850D01*
Y0030900D01*
X-0093950D01*
Y0024050D02*
X-0096150D01*
Y0024950D01*
X-0093950D01*
Y0024050D01*
X-0097600Y0027855D02*
X-0098900D01*
Y0025605D01*
X-0097600D01*
Y0025580D01*
Y0027855D01*
X-0091600Y0027955D02*
X-0092900D01*
Y0025705D01*
X-0091600D01*
Y0025680D01*
Y0027955D01*
X-0096500Y0018245D02*
X-0095200D01*
Y0020495D01*
X-0096500D01*
Y0020520D01*
Y0018245D01*
X-0092550Y0012500D02*
X-0094750D01*
Y0013400D01*
X-0092550D01*
Y0012500D01*
X-0094200Y0020500D02*
Y0018300D01*
X-0095100D01*
Y0020500D01*
X-0094200D01*
X-0084750Y0012900D02*
Y0010700D01*
X-0085650D01*
Y0012900D01*
X-0084750D01*
X-0089500Y0018350D02*
Y0020550D01*
X-0088600D01*
Y0018350D01*
X-0089500D01*
X-0088600Y0018250D02*
Y0016050D01*
X-0089500D01*
Y0018250D01*
X-0088600D01*
X-0092950Y0027950D02*
Y0025750D01*
X-0093850D01*
Y0027950D01*
X-0092950D01*
X-0085550Y0020550D02*
X-0083350D01*
Y0019650D01*
X-0085550D01*
Y0020550D01*
X-0096600Y0027850D02*
Y0025650D01*
X-0097500D01*
Y0027850D01*
X-0096600D01*
X-0086550Y0021950D02*
Y0024150D01*
X-0085650D01*
Y0021950D01*
X-0086550D01*
X-0090400Y0016050D02*
Y0018250D01*
X-0089500D01*
Y0016050D01*
X-0090400D01*
X-0089200Y0024150D02*
Y0021950D01*
X-0090100D01*
Y0024150D01*
X-0089200D01*
X-0086000Y0015700D02*
X-0088200D01*
Y0016600D01*
X-0086000D01*
Y0015700D01*
X-0085750Y0012900D02*
Y0010700D01*
X-0086650D01*
Y0012900D01*
X-0085750D01*
X-0088200Y0015600D02*
X-0086000D01*
Y0014700D01*
X-0088200D01*
Y0015600D01*
X-0097000Y0013400D02*
X-0094800D01*
Y0012500D01*
X-0097000D01*
Y0013400D01*
X-0085550Y0026250D02*
X-0083350D01*
Y0025350D01*
X-0085550D01*
Y0026250D01*
X-0072550Y0014450D02*
X-0074750D01*
Y0015350D01*
X-0072550D01*
Y0014450D01*
X-0088750Y0012900D02*
Y0010700D01*
X-0089650D01*
Y0012900D01*
X-0088750D01*
X-0086000Y0016700D02*
X-0088200D01*
Y0017600D01*
X-0086000D01*
Y0016700D01*
X-0096200Y0017600D02*
X-0094000D01*
Y0016700D01*
X-0096200D01*
Y0017600D01*
X-0090250Y0024150D02*
Y0021950D01*
X-0091150D01*
Y0024150D01*
X-0090250D01*
X-0089950Y0025700D02*
X-0087750D01*
Y0024800D01*
X-0089950D01*
Y0025700D01*
X-0087750Y0012900D02*
Y0010700D01*
X-0088650D01*
Y0012900D01*
X-0087750D01*
X-0090400Y0018350D02*
Y0020550D01*
X-0089500D01*
Y0018350D01*
X-0090400D01*
X-0095050Y0030900D02*
Y0028700D01*
X-0095950D01*
Y0030900D01*
X-0095050D01*
X-0072600Y0047300D02*
X-0070400D01*
Y0046400D01*
X-0072600D01*
Y0047300D01*
X-0074950D02*
X-0072750D01*
Y0046400D01*
X-0074950D01*
Y0047300D01*
X-0116600Y0010450D02*
X-0118800D01*
Y0011350D01*
X-0116600D01*
Y0010450D01*
X-0114150D02*
X-0116350D01*
Y0011350D01*
X-0114150D01*
Y0010450D01*
X-0111700D02*
X-0113900D01*
Y0011350D01*
X-0111700D01*
Y0010450D01*
X-0089050Y0021950D02*
Y0024150D01*
X-0088150D01*
Y0021950D01*
X-0089050D01*
X-0070250Y0047300D02*
X-0068050D01*
Y0046400D01*
X-0070250D01*
Y0047300D01*
X-0086750Y0012900D02*
Y0010700D01*
X-0087650D01*
Y0012900D01*
X-0086750D01*
X-0091300Y0024150D02*
Y0021950D01*
X-0092200D01*
Y0024150D01*
X-0091300D01*
X-0085550Y0022850D02*
X-0083350D01*
Y0021950D01*
X-0085550D01*
Y0022850D01*
Y0024150D02*
X-0083350D01*
Y0023250D01*
X-0085550D01*
Y0024150D01*
Y0025200D02*
X-0083350D01*
Y0024300D01*
X-0085550D01*
Y0025200D01*
X-0077300Y0047300D02*
X-0075100D01*
Y0046400D01*
X-0077300D01*
Y0047300D01*
X-0079650D02*
X-0077450D01*
Y0046400D01*
X-0079650D01*
Y0047300D01*
X-0094000Y0015700D02*
X-0096200D01*
Y0016600D01*
X-0094000D01*
Y0015700D01*
X-0109150Y0010450D02*
X-0111350D01*
Y0011350D01*
X-0109150D01*
Y0010450D01*
X-0093350Y0021950D02*
Y0024150D01*
X-0092450D01*
Y0021950D01*
X-0093350D01*
X-0072550Y0015700D02*
X-0074750D01*
Y0016600D01*
X-0072550D01*
Y0015700D01*
X-0083350Y0020800D02*
X-0085550D01*
Y0021700D01*
X-0083350D01*
Y0020800D01*
X-0065120Y0030570D02*
Y0032930D01*
X-0059550D01*
Y0030175D01*
X-0065050D01*
Y0030500D01*
X-0065120Y0030570D01*
G54D60*
G01X-0098726Y0041893D02*
X-0099076D01*
X-0098726Y0041631D02*
Y0042156D01*
X-0099076Y0041631D02*
Y0042156D01*
X-0099316D02*
Y0041718D01*
X-0099360Y0041631D01*
X-0099622D01*
X-0099666Y0041718D01*
Y0042156D01*
X-0100169Y0041631D02*
X-0099906Y0042156D01*
X-0100256D01*
X-0100497Y0041806D02*
X-0100847D01*
X-0100672Y0042156D01*
X-0100584D01*
Y0041631D01*
G54D55*
X-0101800Y0046800D03*
X-0095800Y0041800D03*
M02*
