%
T1C0.028F200S100
X-107900Y010900
X-107100Y012400
X-098600Y015800
X-097250Y021150
X-097050Y029400
X-096500Y013800
X-096350Y016100
X-095100Y015450
X-094700Y017950
X-094100Y013750
X-093500Y029450
X-093200Y019400
X-092400Y019400
X-092210Y021110
X-092050Y013900
X-091700Y015650
X-091200Y016300
X-090700Y017100
X-090500Y025150
X-090500Y028150
X-089700Y021650
X-087200Y013150
X-086200Y013050
X-086000Y015150
X-085750Y017150
X-084350Y017800
X-082150Y016700
X-081950Y013750
X-075400Y016000
T5C0.038F200S100
X-083150Y011350
X-083150Y013121
X-080591Y011350
X-080591Y013121
X-078500Y011350
X-078500Y013121
X-075941Y011350
X-075941Y013121
T3C0.034F200S100
X-123300Y017250
X-121300Y016000
X-103250Y019250
X-102000Y019250
X-096550Y011550
X-095550Y011550
X-094550Y011550
X-093550Y011550
X-092550Y011550
X-091550Y011550
X-091200Y014050
X-090200Y014050
X-089200Y014050
X-088200Y014050
X-087200Y014050
X-086200Y014050
T2C0.031F200S100
X-103200Y011200
X-102550Y014450
X-102550Y016450
X-101900Y026000
X-100500Y020450
X-100200Y011200
X-099900Y026000
X-098500Y010850
X-098500Y012850
X-098500Y020450
X-089750Y027000
X-088750Y027000
X-087750Y027000
X-073050Y011350
X-073050Y013350
X-067500Y011450
X-067500Y014450
X-067500Y020200
X-067500Y023200
T7C0.054F200S100
X-101300Y023250
X-100300Y023250
X-099300Y023250
X-095100Y033750
X-095100Y035750
X-093600Y034750
X-091500Y033750
X-091500Y035750
X-090000Y034750
T6C0.040F200S100
X-115250Y013750
X-115250Y016750
X-115250Y021200
X-115250Y024200
X-115250Y028600
X-115250Y031600
X-115250Y036050
X-115250Y039050
X-115250Y043450
X-115250Y046450
X-107850Y013750
X-107850Y016750
X-107850Y021150
X-107850Y024150
X-107850Y028550
X-107850Y031550
X-107850Y036050
X-107850Y039050
X-107800Y043450
X-107800Y046450
T8C0.061F200S100
X-084750Y031950
X-080500Y031950
X-080500Y043700
X-084750Y043700
X-076250Y031950
X-072050Y031950
X-072050Y043700
X-076250Y043700
X-067900Y031950
X-067900Y043700
T10C0.095F200S100
X-124500Y020000
X-124500Y022000
X-124500Y024000
X-124500Y026000
X-124500Y032000
X-124500Y034000
X-124500Y036000
X-124500Y038000
X-120500Y020000
X-120500Y022000
X-120500Y024000
X-120500Y026000
X-120500Y032000
X-120500Y034000
X-120500Y036000
X-120500Y038000
X-064050Y037700
X-064050Y039700
X-064050Y041700
X-064050Y043700
X-060050Y037700
X-060050Y039700
X-060050Y041700
X-060050Y043700
T11C0.160F200S100
X-101800Y046800
X-095800Y041800
T9C0.080F200S100
X-122750Y046650
X-122700Y012200
X-101400Y030200
X-092200Y042150
X-084750Y027800
X-084750Y038600
X-061800Y012300
X-061800Y047100
T4C0.036F200S100
X-103450Y047950
X-103000Y044900
X-102050Y044900
X-101100Y044900
X-100050Y044900
X-099150Y044900
X-099150Y046000
X-100050Y046000
X-100050Y046900
X-099150Y046900
X-099150Y047850
X-100050Y047850
X-097150Y034850
X-097150Y035800
X-075600Y030650
X-074600Y030650
X-073600Y030650
X-072550Y030650
X-071500Y030650
X-070450Y030650
X-069400Y030650
X-068400Y030650
X-067400Y030650
M30
