*
G04 Mass Parameters ***
*
G04 Image ***
*
%INC:\PROJECTS\ORCAD\TERMOSTAT\TERMOSTAT.BOT*%
%ICAS*%
%MOIN*%
%IPPOS*%
%ASAXBY*%
G74*%FSLAN2X34Y34*%
*
G04 Aperture Definitions ***
*
%ADD10C,0.0520*%
%ADD11C,0.0550*%
%ADD12R,0.0550X0.0550*%
%ADD13R,0.0520X0.0520*%
%ADD14C,0.0620*%
%ADD15C,0.0500*%
%ADD16C,0.0120*%
%ADD17C,0.0200*%
%ADD18R,0.0600X0.0600*%
%ADD19R,0.0340X0.0500*%
%ADD20R,0.0340X0.0400*%
%ADD21O,0.0860X0.0240*%
%ADD22R,0.0860X0.0240*%
%ADD23R,0.0650X0.0650*%
%ADD24C,0.0100*%
%ADD25C,0.0300*%
*
G04 Plot Data ***
*
G54D16*
G01X-0086250Y0064500D02*
X-0086000Y0064250D01*
Y0064000D01*
X-0086250Y0064250D02*
Y0064500D01*
X-0085750Y0064000D02*
X-0086000Y0064125D01*
Y0064250D01*
X-0086250Y0064500D01*
X-0085750Y0064000D02*
X-0086000Y0064125D01*
Y0064250D01*
X-0086250Y0064500D01*
X-0085250Y0081750D02*
Y0080500D01*
X-0077250Y0076250D02*
X-0079750D01*
X-0087990Y0065000D02*
X-0089000D01*
X-0089750Y0060500D02*
X-0090250D01*
Y0059500D01*
X-0076750Y0060250D02*
X-0076500Y0060000D01*
Y0059500D01*
X-0084250Y0061750D02*
X-0084500Y0061500D01*
X-0076750Y0060250D02*
X-0076500D01*
Y0062750D01*
X-0077000D01*
X-0074500D02*
X-0077000D01*
X-0086250Y0064500D02*
X-0087750D01*
X-0087990Y0064740D01*
Y0065000D01*
X-0074000Y0076250D02*
X-0073750Y0076000D01*
X-0072500D01*
X-0074000Y0076250D02*
X-0077250D01*
X-0075750D02*
X-0077250D01*
X-0089000Y0065000D02*
X-0089750D01*
X-0090750Y0064000D01*
Y0060750D01*
X-0090500Y0060500D01*
X-0090250D01*
Y0059500D01*
X-0085750Y0064000D02*
X-0086000Y0064125D01*
Y0064250D01*
X-0086250Y0064500D01*
X-0079750Y0076250D02*
X-0080250D01*
X-0081500Y0077500D01*
X-0083500Y0078500D02*
Y0078750D01*
X-0085250Y0080500D01*
X-0077000Y0062750D02*
Y0063250D01*
X-0076750Y0063500D01*
X-0073750Y0069000D02*
X-0075250Y0070500D01*
X-0085750Y0066750D02*
X-0085000Y0067500D01*
X-0083000D01*
X-0080000Y0064500D01*
X-0079500D01*
X-0079530Y0064484D01*
X-0085000Y0069000D02*
X-0082000D01*
X-0079750Y0071250D01*
X-0077500D01*
X-0077250Y0071000D01*
Y0070750D01*
X-0077000Y0070500D01*
X-0075250D01*
X-0074500Y0061450D02*
Y0059500D01*
X-0079000Y0060000D02*
X-0081500Y0062500D01*
X-0083250D01*
X-0079530Y0065972D02*
X-0079500Y0066000D01*
X-0080000D01*
X-0080250Y0066250D01*
Y0066750D01*
X-0080000Y0067000D01*
X-0078750D01*
X-0078250Y0066500D01*
X-0077750D01*
X-0072500Y0074000D02*
X-0076500D01*
X-0077250Y0074750D01*
Y0074950D01*
X-0078750Y0075000D02*
X-0077250D01*
Y0074950D01*
Y0075000D01*
X-0078750D01*
X-0080750Y0064250D02*
X-0080000Y0063500D01*
X-0079538D01*
X-0079530Y0063492D01*
X-0083250Y0065500D02*
X-0084250D01*
X-0084750Y0066000D01*
X-0085000D01*
X-0073250Y0061478D02*
X-0073500Y0061728D01*
Y0062750D01*
X-0074500Y0063750D01*
Y0068000D01*
X-0075000Y0068500D01*
X-0075250D01*
X-0079530Y0064980D02*
X-0079020D01*
X-0078750Y0064710D01*
Y0064250D01*
X-0078500Y0064000D01*
X-0074500D01*
Y0068000D01*
X-0075000Y0068500D01*
X-0075250D01*
X-0083250Y0065000D02*
X-0082000D01*
X-0081750Y0064750D01*
Y0063750D01*
X-0082000Y0063500D01*
X-0083250D02*
X-0085000D01*
X-0089000Y0063700D02*
Y0063750D01*
X-0088750Y0064000D01*
X-0087000D01*
X-0086500Y0063500D01*
X-0085000D01*
X-0083250Y0064000D02*
X-0082500D01*
X-0082250Y0064250D01*
Y0069750D02*
X-0080250Y0071750D01*
X-0075500D01*
X-0075250Y0071500D01*
X-0079530Y0065476D02*
X-0080226D01*
X-0080750Y0065976D01*
Y0066000D01*
X-0082500Y0067750D01*
X-0085750D01*
X-0086500Y0067000D01*
X-0075250Y0067500D02*
X-0076000D01*
X-0076250Y0067250D01*
X-0078250D01*
X-0078500Y0067500D01*
X-0080500D01*
X-0080750Y0067250D01*
Y0065976D01*
X-0080226Y0065476D01*
X-0079530D01*
X-0072500Y0073000D02*
X-0079750D01*
Y0074950D01*
Y0074750D01*
X-0082250Y0077250D01*
Y0081750D01*
X-0072500Y0073000D02*
X-0079750D01*
X-0078500Y0063000D02*
X-0079000Y0062500D01*
X-0079530D01*
Y0066468D02*
X-0078750D01*
X-0078500Y0066218D01*
Y0066000D01*
X-0078000Y0065500D01*
Y0064500D01*
X-0074000Y0077500D02*
Y0077750D01*
X-0077250Y0081000D01*
X-0078500D01*
X-0079250Y0081750D01*
X-0078000Y0064500D02*
Y0065500D01*
X-0077250D01*
X-0076750Y0066000D01*
Y0066500D01*
X-0077250Y0072500D02*
X-0073750D01*
X-0073500Y0072250D01*
Y0071500D01*
Y0070500D02*
Y0069750D01*
X-0072750Y0069000D01*
X-0072500D01*
X-0078000Y0063500D02*
X-0078500D01*
X-0078988Y0063988D01*
X-0079530D01*
X-0072500Y0071000D02*
X-0076750D01*
X-0080250Y0081750D02*
X-0078500Y0080000D01*
X-0077750D01*
X-0075000Y0077250D01*
X-0074500Y0071500D02*
Y0071000D01*
X-0072500D01*
X-0089000Y0068000D02*
Y0066500D01*
X-0088750Y0066250D01*
X-0087620Y0065790D02*
X-0087500Y0065750D01*
X-0087750D01*
X-0088250Y0066250D01*
X-0088750D01*
X-0083250Y0063000D02*
X-0081250D01*
X-0079250Y0061000D01*
X-0076000Y0060750D02*
X-0075500Y0060250D01*
X-0075450D01*
X-0075500Y0060200D01*
Y0059500D01*
X-0075450Y0060250D02*
X-0075500D01*
Y0059500D01*
X-0079530Y0062996D02*
X-0080501D01*
X-0081250Y0061550D02*
X-0082250D01*
X-0083250Y0061750D02*
X-0082500D01*
X-0082250Y0061550D01*
X-0079500Y0063000D02*
X-0079750D01*
X-0079530Y0062996D01*
X-0083250Y0066000D02*
X-0084000D01*
X-0084250Y0066250D01*
Y0066750D01*
X-0084000Y0067000D01*
X-0083250Y0069750D02*
X-0080750Y0072250D01*
X-0078500D01*
X-0078250Y0072500D01*
X-0073500Y0073500D02*
X-0078250D01*
X-0081250Y0063500D02*
Y0065000D01*
X-0082750Y0066500D01*
X-0083250D01*
X-0078000Y0061500D02*
X-0077000D01*
Y0061450D01*
X-0082250Y0060250D02*
X-0081750D01*
X-0081500Y0060500D01*
X-0079250Y0070500D02*
X-0079750Y0070000D01*
Y0069500D01*
X-0081000Y0068250D01*
X-0082200D01*
X-0083500D02*
X-0084500D01*
X-0085500D02*
X-0086500D01*
X-0077750Y0067800D02*
Y0067750D01*
X-0078750Y0068750D01*
Y0069500D01*
X-0089950Y0077950D02*
X-0089750Y0077750D01*
Y0079700D02*
Y0079750D01*
Y0081000D02*
X-0089500D01*
X-0089750Y0076450D02*
Y0076500D01*
X-0090250Y0076000D02*
Y0075750D01*
X-0090500Y0071000D02*
Y0069750D01*
X-0075250Y0069500D02*
X-0077750D01*
X-0083250Y0060450D02*
X-0084250D01*
X-0085000Y0059500D02*
Y0060500D01*
X-0088450D02*
X-0088250Y0060250D01*
Y0059500D01*
X-0078000D02*
X-0077500Y0059000D01*
X-0073000D01*
X-0072500Y0059500D01*
X-0073250Y0063250D02*
X-0072500Y0062500D01*
Y0059500D01*
X-0088250D02*
Y0060450D01*
X-0085750D01*
X-0085700Y0060500D02*
X-0085750Y0060450D01*
X-0087500Y0063250D02*
X-0088450Y0062300D01*
Y0060500D01*
X-0087250Y0065000D02*
X-0087000Y0065250D01*
Y0065800D01*
X-0086250D01*
X-0090000Y0068000D02*
Y0066250D01*
X-0090050D01*
X-0090500Y0069750D02*
Y0068500D01*
X-0090000Y0068000D01*
X-0077950Y0070500D02*
X-0077750Y0070300D01*
Y0069500D01*
X-0073250Y0063250D02*
Y0067750D01*
X-0075000Y0069500D01*
X-0075250D01*
X-0072500Y0075000D02*
X-0074000D01*
Y0074950D01*
X-0083950Y0080500D02*
X-0084000D01*
X-0084250Y0080750D01*
Y0081750D01*
X-0078000Y0059500D02*
X-0082500D01*
X-0083000Y0060000D01*
Y0060250D01*
X-0083250Y0060450D01*
X-0086250Y0065800D02*
X-0086000Y0065500D01*
X-0084750D01*
X-0084250Y0065000D01*
Y0064750D01*
X-0084000Y0064500D01*
X-0083250D01*
X-0087750Y0067000D02*
X-0087000Y0066250D01*
Y0065800D01*
X-0086250D01*
X-0074000Y0074950D02*
X-0074050Y0075000D01*
X-0076250D01*
Y0077250D02*
X-0077000Y0078000D01*
X-0081000D01*
X-0081500Y0078500D01*
X-0082750Y0079500D02*
X-0083000D01*
X-0084000Y0080500D01*
X-0083950D01*
G54D17*
G01X-0086000Y0064000D02*
X-0085750D01*
Y0062500D02*
Y0061750D01*
Y0062500D01*
Y0061750D02*
Y0062500D01*
Y0061750D02*
Y0062500D01*
Y0061750D02*
X-0085500Y0061500D01*
X-0085750Y0061750D02*
Y0062500D01*
Y0061750D02*
Y0062500D01*
Y0061750D02*
Y0062500D01*
G54D24*
G01X-0086030Y0059950D02*
Y0059050D01*
X-0091010Y0061160D02*
X-0091200D01*
X-0082750Y0061250D02*
X-0083750D01*
Y0062180D02*
Y0061250D01*
X-0084410Y0061162D02*
Y0060950D01*
X-0082070Y0061050D02*
Y0060750D01*
X-0082250Y0061050D02*
Y0060750D01*
X-0085250Y0060950D02*
X-0086250D01*
Y0059950D01*
X-0085250D02*
X-0086250D01*
X-0083060Y0078405D02*
Y0076881D01*
X-0083960Y0059950D02*
Y0059550D01*
X-0086250Y0062250D02*
Y0061250D01*
X-0084680Y0059149D02*
Y0059050D01*
X-0085750Y0066300D02*
X-0086750D01*
Y0065300D01*
X-0085750D02*
X-0086750D01*
X-0084860Y0067240D02*
Y0066428D01*
X-0085750Y0065000D02*
X-0086750D01*
X-0072050Y0077270D02*
X-0073613D01*
X-0083750Y0060950D02*
X-0084750D01*
X-0085250D02*
Y0060903D01*
X-0078630Y0072740D02*
X-0079383D01*
X-0084590Y0059261D02*
Y0059050D01*
X-0081710Y0061290D02*
Y0060898D01*
X-0084770Y0059085D02*
Y0059050D01*
X-0090550Y0066750D02*
Y0065750D01*
X-0089550D02*
X-0090550D01*
X-0089550Y0066750D02*
Y0065750D01*
Y0066750D02*
X-0090550D01*
X-0089990Y0070475D02*
Y0068460D01*
X-0088250Y0065750D02*
X-0089250D01*
X-0086908Y0067190D02*
X-0087342D01*
X-0090550Y0066290D02*
X-0091200D01*
X-0089540Y0068460D02*
X-0090460D01*
Y0067540D01*
X-0089540D02*
X-0090460D01*
X-0089540Y0068460D02*
Y0067540D01*
X-0080928Y0075560D02*
X-0081739D01*
X-0083661Y0078080D02*
X-0084259D01*
X-0078740Y0080872D02*
Y0080608D01*
X-0077660Y0082200D02*
Y0081260D01*
X-0084750Y0081000D02*
X-0084990D01*
X-0085725Y0082200D02*
Y0081275D01*
X-0074000Y0060950D02*
X-0074240D01*
X-0074760D02*
X-0075000D01*
X-0077210D02*
Y0060750D01*
X-0089505Y0059900D02*
X-0089990D01*
X-0076975Y0059750D02*
Y0059050D01*
X-0084436Y0066068D02*
X-0084186Y0065818D01*
X-0075950Y0070240D02*
Y0067760D01*
X-0074102Y0068720D02*
X-0074829D01*
X-0074189Y0068900D02*
X-0074994D01*
X-0085670Y0069700D02*
Y0068677D01*
X-0074778Y0067910D02*
X-0075011D01*
X-0079460Y0060092D02*
Y0059550D01*
X-0081724Y0078890D02*
X-0081990D01*
X-0072050Y0068540D02*
X-0072383D01*
X-0077858Y0079740D02*
X-0078500D01*
X-0073790Y0075743D02*
Y0075450D01*
X-0072050Y0075525D02*
X-0072975D01*
X-0083420Y0059950D02*
Y0059550D01*
X-0084030Y0059540D02*
X-0084527D01*
X-0086750Y0064760D02*
X-0086880D01*
X-0083870Y0059950D02*
Y0059550D01*
X-0085400Y0059950D02*
Y0059755D01*
X-0081800Y0067750D02*
Y0067418D01*
X-0083750Y0061250D02*
X-0084255D01*
X-0078470Y0079742D02*
Y0076510D01*
X-0086189Y0062600D02*
X-0090490D01*
X-0083600Y0059950D02*
Y0059550D01*
X-0084230Y0063240D02*
Y0062250D01*
X-0086124D02*
X-0086250D01*
X-0084525Y0064975D02*
Y0064025D01*
Y0064975D02*
X-0085475D01*
X-0074760Y0064260D02*
X-0077590D01*
X-0077300Y0080682D02*
Y0079918D01*
X-0077120Y0065275D02*
Y0064260D01*
X-0079460Y0072656D02*
Y0072510D01*
X-0077500Y0061950D02*
Y0061760D01*
Y0061240D02*
Y0060950D01*
X-0080090Y0060722D02*
Y0059550D01*
X-0078475Y0059975D02*
Y0059050D01*
X-0077525Y0059975D02*
X-0078475D01*
X-0086840Y0063472D02*
Y0059050D01*
X-0090800Y0060432D02*
Y0059050D01*
X-0087775Y0059975D02*
X-0088725D01*
Y0059050D01*
X-0078548Y0068180D02*
X-0080702D01*
X-0079159Y0069260D02*
X-0079340D01*
X-0078225Y0069080D02*
X-0078490D01*
X-0077275Y0069975D02*
X-0078225D01*
Y0069025D01*
X-0077275D02*
X-0078225D01*
X-0077275Y0069975D02*
Y0069025D01*
X-0084214Y0069715D02*
Y0069714D01*
X-0081714Y0075535D02*
Y0072215D02*
Y0072214D01*
X-0086200Y0082200D02*
Y0080021D01*
X-0083451Y0081320D02*
X-0084049D01*
X-0081700Y0075500D02*
Y0072250D01*
X-0086200Y0080021D02*
X-0081714Y0075535D01*
X-0089550Y0071950D02*
X-0091200D01*
X-0079200Y0059500D02*
Y0059050D01*
X-0085453Y0059360D02*
X-0087775D01*
X-0079250Y0059550D02*
X-0084000D01*
X-0084050Y0059500D02*
Y0059050D01*
X-0089600Y0059180D02*
X-0089899D01*
X-0091200Y0071950D02*
Y0059050D01*
X-0088730Y0069351D02*
Y0068372D01*
X-0089550Y0071950D02*
Y0069750D01*
X-0081714Y0072215D02*
X-0084214Y0069715D01*
X-0076760Y0073892D02*
Y0073760D01*
X-0080821Y0072500D02*
X-0081700D01*
X-0074690Y0070740D02*
Y0070308D01*
X-0074330Y0070740D02*
Y0069948D01*
X-0073288Y0069170D02*
X-0073333D01*
X-0072050Y0063230D02*
X-0072740D01*
X-0072859Y0059810D02*
X-0073140D01*
X-0072050Y0059349D02*
Y0059050D01*
Y0062420D02*
X-0073240D01*
X-0074240Y0060950D02*
Y0059897D01*
X-0073859Y0059810D02*
X-0074140D01*
X-0073880Y0068569D02*
Y0063498D01*
X-0073070Y0059299D02*
Y0059050D01*
X-0072050Y0063050D02*
X-0072781D01*
X-0073250Y0059096D02*
Y0059050D01*
X-0072050Y0062960D02*
X-0072830D01*
X-0072050Y0062870D02*
X-0072910D01*
X-0072050Y0064220D02*
X-0074240D01*
X-0072050Y0064130D02*
X-0074240D01*
X-0072050Y0061250D02*
X-0072794D01*
X-0074780Y0062250D02*
Y0061950D01*
X-0073880Y0059215D02*
Y0059050D01*
X-0074060Y0059322D02*
Y0059050D01*
X-0074150Y0059179D02*
Y0059050D01*
X-0074240Y0059103D02*
Y0059050D01*
X-0077208Y0070340D02*
X-0077450D01*
X-0075590Y0070169D02*
Y0069831D01*
X-0073198Y0069080D02*
X-0073307D01*
X-0072050Y0067190D02*
X-0074240D01*
X-0089260Y0066740D02*
X-0089550D01*
X-0080000Y0060632D02*
Y0059550D01*
X-0073760Y0061880D02*
X-0074000D01*
X-0072050Y0062600D02*
X-0073240D01*
X-0075230Y0059109D02*
Y0059050D01*
X-0072050Y0062060D02*
X-0073240D01*
X-0076975Y0059450D02*
X-0077525D01*
X-0076975Y0059050D02*
X-0077525D01*
X-0078409Y0060260D02*
X-0078633D01*
X-0076850Y0062250D02*
Y0061950D01*
X-0077250Y0060080D02*
X-0077779D01*
X-0078380Y0069202D02*
Y0068748D01*
X-0074870Y0066215D02*
Y0064260D01*
X-0077120Y0060950D02*
Y0060750D01*
X-0077300Y0062250D02*
Y0061950D01*
X-0076975Y0059090D02*
X-0077525D01*
X-0078110Y0061038D02*
Y0060962D01*
X-0080990Y0061183D02*
Y0059550D01*
X-0077250Y0060170D02*
X-0077659D01*
X-0078475Y0059720D02*
X-0078648D01*
X-0077525Y0059975D02*
Y0059050D01*
X-0079190Y0069322D02*
Y0067760D01*
X-0078290Y0060124D02*
Y0059975D01*
X-0077300Y0065240D02*
Y0064260D01*
X-0074760Y0064490D02*
X-0077525D01*
X-0090350Y0071950D02*
Y0071525D01*
X-0081530Y0060051D02*
Y0059550D01*
X-0089665Y0059270D02*
X-0089835D01*
X-0080250Y0075830D02*
X-0080462D01*
X-0088208Y0065840D02*
X-0088250D01*
X-0078475Y0059900D02*
X-0078561D01*
X-0079010Y0060619D02*
Y0060450D01*
X-0078920Y0059557D02*
Y0059050D01*
X-0078750Y0070990D02*
Y0070000D01*
X-0081008Y0076640D02*
X-0081272D01*
X-0074950Y0060750D02*
X-0075550D01*
X-0080360Y0062569D02*
Y0062478D01*
X-0079910Y0060542D02*
Y0059550D01*
X-0081350Y0061111D02*
Y0060924D01*
X-0081080Y0060338D02*
Y0059550D01*
X-0080270Y0060902D02*
Y0059550D01*
X-0079190Y0059592D02*
Y0059050D01*
X-0082581Y0081410D02*
X-0082919D01*
X-0082750Y0060750D02*
Y0059950D01*
X-0081800Y0061050D02*
Y0060835D01*
X-0081620Y0060025D02*
Y0059550D01*
X-0081890Y0059750D02*
Y0059550D01*
X-0082250Y0059750D02*
Y0059550D01*
X-0082070Y0059750D02*
Y0059550D01*
X-0080168Y0060800D02*
X-0081164D01*
X-0081835D02*
X-0082750D01*
X-0081710Y0059993D02*
Y0059550D01*
X-0082790Y0059950D02*
Y0059550D01*
X-0082750Y0059950D02*
Y0059750D01*
X-0083240Y0061250D02*
Y0060950D01*
X-0083330Y0061250D02*
Y0060950D01*
X-0083420Y0061250D02*
Y0060950D01*
X-0084451Y0081320D02*
X-0084775D01*
X-0083880Y0062820D02*
Y0062250D01*
X-0075500Y0077382D02*
Y0076624D01*
X-0084680Y0061149D02*
Y0060950D01*
X-0084050Y0061250D02*
Y0060950D01*
X-0084140Y0061250D02*
Y0060950D01*
X-0084230Y0061250D02*
Y0060950D01*
X-0083782Y0063230D02*
X-0084609D01*
X-0081010Y0066650D02*
X-0081032D01*
X-0084500Y0061150D02*
X-0084679D01*
X-0084050Y0059050D02*
X-0084849D01*
X-0085583Y0061160D02*
X-0087102D01*
X-0085475Y0064940D02*
X-0085750D01*
X-0086193Y0062420D02*
X-0090490D01*
X-0082880Y0079069D02*
Y0076701D01*
X-0091010Y0061070D02*
X-0091200D01*
X-0083060Y0059950D02*
Y0059550D01*
X-0085760Y0059950D02*
Y0059050D01*
X-0085850Y0059950D02*
Y0059050D01*
X-0091010Y0062510D02*
X-0091200D01*
X-0076750Y0075990D02*
Y0075750D01*
X-0086480Y0063241D02*
Y0059050D01*
X-0086408Y0067460D02*
X-0088740D01*
X-0087380Y0067806D02*
Y0067256D01*
X-0083960Y0063240D02*
Y0062250D01*
X-0086250Y0061970D02*
X-0087363D01*
X-0087020Y0063077D02*
Y0061651D01*
X-0087110Y0062921D02*
Y0061807D01*
X-0087200Y0062837D02*
Y0061891D01*
X-0087290Y0062785D02*
Y0061943D01*
X-0089270Y0064500D02*
Y0064200D01*
X-0087470Y0062741D02*
Y0061988D01*
X-0089489Y0059090D02*
X-0090011D01*
X-0078475Y0059180D02*
X-0079200D01*
X-0078475Y0059270D02*
X-0079200D01*
X-0078475Y0059360D02*
X-0079200D01*
X-0078475Y0059450D02*
X-0079200D01*
X-0078475Y0059540D02*
X-0079220D01*
X-0091010Y0060890D02*
X-0091200D01*
X-0087740Y0061029D02*
Y0059050D01*
X-0089706Y0059630D02*
X-0089793D01*
X-0088725Y0059810D02*
X-0088890D01*
X-0089900Y0059179D02*
Y0059050D01*
X-0088820Y0059299D02*
Y0059050D01*
X-0088910Y0059169D02*
Y0059050D01*
X-0089000Y0059096D02*
Y0059050D01*
X-0091010Y0062780D02*
X-0091200D01*
X-0090890Y0060522D02*
Y0059050D01*
X-0089703Y0059360D02*
X-0089796D01*
X-0090722Y0059450D02*
X-0091200D01*
X-0090703Y0059360D02*
X-0091200D01*
X-0090530Y0060242D02*
Y0059883D01*
X-0090358Y0064760D02*
X-0091200D01*
X-0090620Y0060269D02*
Y0059797D01*
X-0090980Y0060629D02*
Y0059050D01*
X-0089720Y0059433D02*
Y0059050D01*
X-0091010Y0062690D02*
X-0091200D01*
X-0090510Y0059900D02*
X-0091200D01*
X-0089550Y0069980D02*
X-0090101D01*
X-0091025Y0070790D02*
X-0091200D01*
X-0091160Y0071950D02*
Y0059050D01*
X-0085725Y0081410D02*
X-0086200D01*
X-0085725Y0081320D02*
X-0086200D01*
X-0083880Y0078260D02*
X-0084439D01*
X-0085750Y0080420D02*
X-0086200D01*
X-0085750Y0080780D02*
X-0086200D01*
X-0084368Y0079250D02*
X-0085429D01*
X-0086030Y0069700D02*
Y0068510D01*
X-0076130Y0067019D02*
Y0064260D01*
X-0073630Y0063590D02*
X-0073972D01*
X-0072566Y0075470D02*
X-0080102D01*
X-0084548Y0079430D02*
X-0085609D01*
X-0077390Y0075750D02*
Y0075450D01*
X-0072050Y0068849D02*
Y0059651D01*
X-0076220Y0076801D02*
Y0076510D01*
X-0075520Y0066110D02*
X-0076490D01*
X-0081378Y0076010D02*
X-0082189D01*
X-0072080Y0068779D02*
Y0059721D01*
X-0080250Y0074660D02*
X-0081700D01*
X-0090530Y0071950D02*
Y0071525D01*
X-0072170Y0068659D02*
Y0059841D01*
X-0081468Y0076100D02*
X-0082279D01*
X-0080478Y0075110D02*
X-0081700D01*
X-0087830Y0066557D02*
Y0066240D01*
X-0084680Y0065562D02*
Y0064975D01*
X-0080748Y0075380D02*
X-0081700D01*
X-0078450Y0070990D02*
Y0070000D01*
X-0072350Y0068549D02*
Y0059950D01*
X-0084770Y0069700D02*
Y0069387D01*
X-0079730Y0069026D02*
Y0067760D01*
X-0083780Y0078148D02*
Y0077601D01*
X-0091025Y0071510D02*
X-0091200D01*
X-0091025Y0071420D02*
X-0091200D01*
X-0080010Y0074390D02*
X-0081700D01*
X-0072440Y0068529D02*
Y0059971D01*
X-0072530Y0068526D02*
Y0059974D01*
X-0089500Y0065390D02*
X-0091200D01*
X-0090350Y0070475D02*
Y0070185D01*
X-0089900Y0071950D02*
Y0068460D01*
X-0076760Y0060800D02*
X-0077632D01*
X-0089550Y0070250D02*
X-0091200D01*
X-0091025Y0070610D02*
X-0091200D01*
X-0090898Y0069980D02*
X-0091200D01*
X-0083681Y0069620D02*
X-0088059D01*
X-0083566Y0070070D02*
X-0083859D01*
X-0091025Y0070520D02*
X-0091200D01*
X-0090941Y0069620D02*
X-0091200D01*
X-0075700Y0069350D02*
X-0077275D01*
X-0079010Y0059550D02*
Y0059050D01*
X-0090904Y0069530D02*
X-0091200D01*
X-0090727Y0069350D02*
X-0091200D01*
X-0082160Y0059750D02*
Y0059550D01*
X-0082610Y0059750D02*
Y0059550D01*
X-0089423Y0068180D02*
X-0089540D01*
X-0090957Y0069800D02*
X-0091200D01*
X-0089451Y0068090D02*
X-0089540D01*
X-0090460Y0068270D02*
X-0091200D01*
X-0072050Y0060170D02*
X-0074240D01*
X-0086138Y0067730D02*
X-0088627D01*
X-0090460Y0068000D02*
X-0091200D01*
X-0089372Y0067730D02*
X-0089540D01*
X-0090460Y0067820D02*
X-0091200D01*
X-0089451Y0067910D02*
X-0089540D01*
X-0089260Y0067620D02*
Y0066500D01*
X-0088158Y0067190D02*
X-0088740D01*
X-0072050Y0060080D02*
X-0074240D01*
X-0087759Y0068630D02*
X-0091200D01*
X-0083028Y0070340D02*
X-0083589D01*
X-0089500Y0064740D02*
X-0089642D01*
X-0090460Y0067550D02*
X-0091200D01*
X-0086480Y0069700D02*
Y0068709D01*
X-0090550Y0066740D02*
X-0091200D01*
X-0089260Y0066920D02*
X-0091200D01*
X-0089250Y0066380D02*
X-0089550D01*
X-0089250Y0066200D02*
X-0089550D01*
X-0089250Y0066110D02*
X-0089550D01*
X-0089250Y0066020D02*
X-0089550D01*
X-0088100Y0065732D02*
Y0065400D01*
X-0088250Y0066750D02*
Y0066510D01*
X-0086102Y0066470D02*
X-0088111D01*
X-0086750Y0065570D02*
X-0087250D01*
X-0086570Y0067795D02*
Y0067444D01*
X-0089500Y0064740D02*
Y0064500D01*
X-0088360Y0065390D02*
X-0088500D01*
X-0088360Y0065300D02*
X-0088500D01*
X-0082750Y0061250D02*
Y0061050D01*
X-0084750Y0060950D02*
Y0060903D01*
X-0086750Y0065480D02*
X-0087250D01*
X-0089540Y0069720D02*
Y0065260D01*
X-0087380Y0062754D02*
Y0061974D01*
X-0086750Y0065930D02*
X-0087250D01*
X-0089500Y0064580D02*
X-0089802D01*
X-0088018Y0064400D02*
X-0089982D01*
X-0073108Y0068990D02*
X-0073300D01*
X-0074960Y0066124D02*
Y0064260D01*
X-0090530Y0065750D02*
Y0064588D01*
X-0089642Y0064740D02*
X-0090490Y0063892D01*
X-0089500Y0063860D02*
X-0090490D01*
X-0091010Y0061880D02*
X-0091200D01*
X-0090196Y0061970D02*
X-0090490D01*
X-0091010Y0063680D02*
X-0091200D01*
X-0091010Y0063590D02*
X-0091200D01*
X-0090710Y0060342D02*
Y0059617D01*
X-0082970Y0079107D02*
Y0076791D01*
X-0090808Y0060440D02*
X-0091200D01*
X-0091010Y0063050D02*
X-0091200D01*
X-0088950Y0060170D02*
X-0089250D01*
X-0090257Y0062780D02*
X-0090490D01*
X-0085580Y0061159D02*
Y0060950D01*
X-0078380Y0061215D02*
Y0060784D01*
X-0079352Y0059720D02*
X-0084579D01*
X-0091010Y0062330D02*
X-0091200D01*
X-0087740Y0062800D02*
Y0061929D01*
X-0090399Y0062870D02*
X-0090490D01*
X-0090268Y0064850D02*
X-0091200D01*
X-0090718Y0064400D02*
X-0091200D01*
X-0085670Y0059950D02*
Y0059050D01*
X-0089810Y0062805D02*
Y0061923D01*
X-0090448Y0064670D02*
X-0091200D01*
X-0078380Y0060215D02*
Y0059975D01*
X-0084140Y0059950D02*
Y0059050D01*
X-0083600Y0061250D02*
Y0060950D01*
X-0090463Y0061790D02*
X-0090490D01*
X-0090975Y0060620D02*
X-0091200D01*
X-0086660Y0069700D02*
Y0068681D01*
X-0088360Y0064740D02*
Y0064600D01*
X-0085450Y0068990D02*
X-0091200D01*
X-0091010Y0061610D02*
X-0091200D01*
X-0091007Y0064040D02*
X-0091200D01*
X-0089401Y0059050D02*
X-0090099D01*
X-0088500Y0064740D02*
Y0064500D01*
X-0089609Y0059810D02*
X-0089890D01*
X-0089670Y0059720D02*
X-0089829D01*
X-0089540Y0059124D02*
Y0059050D01*
X-0089722Y0059450D02*
X-0089778D01*
X-0090530Y0059117D02*
Y0059050D01*
X-0090489Y0059090D02*
X-0091200D01*
X-0082700Y0059750D02*
Y0059550D01*
X-0079808Y0060440D02*
X-0081054D01*
X-0078470Y0070990D02*
Y0069883D01*
X-0079460Y0074450D02*
Y0073344D01*
X-0086660Y0065300D02*
Y0065000D01*
X-0077120Y0059750D02*
Y0059050D01*
X-0078470Y0060433D02*
Y0059050D01*
X-0077480Y0065240D02*
Y0064260D01*
X-0078221Y0060080D02*
X-0078557D01*
X-0078689Y0073400D02*
X-0079490D01*
X-0078443Y0062330D02*
X-0078802D01*
X-0078830Y0062303D02*
Y0061161D01*
X-0079280Y0062180D02*
Y0061449D01*
X-0090080Y0071950D02*
Y0071525D01*
X-0090620Y0070475D02*
Y0070194D01*
X-0085400Y0065794D02*
Y0064975D01*
X-0085310Y0065674D02*
Y0064975D01*
X-0086943Y0066920D02*
X-0087307D01*
X-0086390Y0069700D02*
Y0068696D01*
X-0085241Y0066380D02*
X-0085494D01*
X-0084950Y0065553D02*
Y0064975D01*
X-0079010Y0072740D02*
Y0072510D01*
X-0080812Y0061445D02*
X-0079443Y0060076D01*
X-0083771Y0065240D02*
X-0084250D01*
X-0084950Y0067182D02*
Y0066447D01*
X-0089260Y0067550D02*
X-0089540D01*
X-0081028Y0070340D02*
X-0081292D01*
X-0079100Y0074717D02*
Y0073260D01*
X-0080038Y0071330D02*
X-0080302D01*
X-0083420Y0069333D02*
Y0069260D01*
X-0083510Y0070419D02*
Y0070117D01*
X-0080931Y0072436D02*
X-0083174Y0070193D01*
X-0083690Y0070239D02*
Y0069844D01*
X-0078662Y0072680D02*
X-0079433D01*
X-0080540Y0076172D02*
Y0075908D01*
X-0079370Y0072740D02*
Y0072510D01*
X-0081260Y0076892D02*
Y0076628D01*
X-0077210Y0074342D02*
Y0073760D01*
X-0078020Y0075990D02*
Y0075260D01*
X-0079194Y0074930D02*
X-0079250D01*
X-0078470Y0075990D02*
Y0075352D01*
X-0077750Y0074740D02*
X-0078383D01*
X-0082401Y0082200D02*
X-0083099D01*
X-0080010Y0074450D02*
X-0080250D01*
X-0077570Y0075750D02*
Y0075450D01*
X-0079100Y0059561D02*
Y0059050D01*
X-0081980Y0067750D02*
Y0067598D01*
X-0080900Y0061267D02*
Y0059550D01*
X-0082430Y0061050D02*
Y0060750D01*
X-0084750Y0080368D02*
X-0084450Y0080068D01*
X-0080908Y0067460D02*
X-0081842D01*
X-0084416Y0065300D02*
X-0086880D01*
X-0084510Y0066650D02*
X-0085311D01*
X-0077030Y0060950D02*
Y0060750D01*
X-0077200Y0063500D02*
X-0077525D01*
X-0077250Y0059810D02*
X-0077525D01*
X-0077500Y0061790D02*
X-0077624D01*
X-0077500Y0061070D02*
X-0077799D01*
X-0077840Y0062053D02*
Y0061947D01*
X-0078290Y0061124D02*
Y0060876D01*
X-0077500Y0062330D02*
X-0077557D01*
X-0077480Y0074450D02*
Y0073760D01*
X-0077500Y0062870D02*
X-0077702D01*
X-0072651Y0059050D02*
X-0073349D01*
X-0078740Y0059633D02*
Y0059050D01*
X-0083150Y0059950D02*
Y0059550D01*
X-0082750Y0059810D02*
X-0084640D01*
X-0077570Y0061240D02*
Y0060701D01*
X-0080540Y0061172D02*
Y0059550D01*
X-0072050Y0064940D02*
X-0074240D01*
X-0079820Y0060452D02*
Y0059550D01*
X-0082848Y0070520D02*
X-0083409D01*
X-0085283Y0069350D02*
X-0088273D01*
X-0080848Y0070520D02*
X-0081112D01*
X-0079628Y0060260D02*
X-0081119D01*
X-0078450Y0070880D02*
X-0078750D01*
X-0084140Y0069789D02*
Y0069260D01*
X-0079221Y0069440D02*
X-0079279D01*
X-0081080Y0061133D02*
Y0060661D01*
X-0081440Y0078054D02*
Y0077946D01*
X-0079280Y0059648D02*
Y0059550D01*
X-0072050Y0067280D02*
X-0074240D01*
X-0078908Y0068540D02*
X-0080342D01*
X-0079224Y0069530D02*
X-0079276D01*
X-0078560Y0070990D02*
Y0069935D01*
X-0085367Y0069260D02*
X-0091200D01*
X-0075723Y0068540D02*
X-0078172D01*
X-0080621Y0067730D02*
X-0082112D01*
X-0082790Y0069842D02*
Y0069260D01*
X-0086939Y0067100D02*
X-0087311D01*
X-0085850Y0069700D02*
Y0068548D01*
X-0085760Y0069700D02*
Y0068629D01*
X-0085879Y0068510D02*
X-0086120D01*
X-0086300Y0069700D02*
Y0068664D01*
X-0082700Y0079053D02*
Y0076521D01*
X-0082520Y0071409D02*
Y0070848D01*
X-0091025Y0071330D02*
X-0091200D01*
X-0081858Y0071510D02*
X-0082419D01*
X-0081768Y0071600D02*
X-0082329D01*
X-0081228Y0072140D02*
X-0081789D01*
X-0084950Y0079832D02*
Y0078771D01*
X-0082250Y0071679D02*
Y0071118D01*
X-0080178Y0072860D02*
X-0081700D01*
X-0082250Y0076882D02*
Y0076071D01*
X-0087470Y0066648D02*
Y0066240D01*
X-0089550Y0071870D02*
X-0091200D01*
X-0081398Y0070970D02*
X-0081662D01*
X-0080958Y0072410D02*
X-0081700D01*
X-0086750Y0069700D02*
Y0068636D01*
X-0080568Y0075200D02*
X-0081700D01*
X-0081108Y0075740D02*
X-0081919D01*
X-0082938Y0070430D02*
X-0083499D01*
X-0086950Y0067010D02*
X-0087300D01*
X-0084500Y0079382D02*
Y0078321D01*
X-0089550Y0071690D02*
X-0091200D01*
X-0091025Y0071240D02*
X-0091200D01*
X-0082430Y0077062D02*
Y0076251D01*
X-0080010Y0073400D02*
X-0081700D01*
X-0078290Y0069383D02*
Y0068658D01*
X-0077840Y0069025D02*
Y0068300D01*
X-0074760Y0067100D02*
X-0074994D01*
X-0077750Y0069025D02*
Y0068300D01*
X-0076228Y0067640D02*
X-0077250D01*
X-0079460Y0069922D02*
Y0069876D01*
X-0080681Y0067686D02*
X-0080931Y0067436D01*
X-0075703Y0068360D02*
X-0077992D01*
X-0077300Y0070432D02*
Y0069975D01*
X-0075722Y0068450D02*
X-0078082D01*
X-0077480Y0069025D02*
Y0068300D01*
X-0077390Y0069025D02*
Y0068300D01*
X-0077300Y0069025D02*
Y0068300D01*
X-0079010Y0069080D02*
X-0079529D01*
X-0078225Y0069170D02*
X-0078409D01*
X-0091010Y0062600D02*
X-0091200D01*
X-0082510Y0077630D02*
X-0083809D01*
X-0085750Y0080960D02*
X-0086200D01*
X-0082500Y0077180D02*
X-0083359D01*
X-0082340Y0076972D02*
Y0076161D01*
X-0078250Y0067820D02*
X-0081700D01*
X-0084581Y0081410D02*
X-0084775D01*
X-0081800Y0076432D02*
Y0075621D01*
X-0087380Y0066744D02*
Y0066240D01*
X-0081890Y0076522D02*
Y0075711D01*
X-0086228Y0067640D02*
X-0088713D01*
X-0085352Y0068720D02*
X-0091200D01*
X-0085750Y0080600D02*
X-0086200D01*
X-0084998Y0079880D02*
X-0086059D01*
X-0085310Y0063905D02*
Y0063859D01*
X-0082509Y0077270D02*
X-0083449D01*
X-0085088Y0079970D02*
X-0086149D01*
X-0082668Y0070700D02*
X-0083229D01*
X-0090170Y0071950D02*
Y0071525D01*
X-0084908Y0079790D02*
X-0085969D01*
X-0082510Y0077990D02*
X-0084169D01*
X-0090260Y0071950D02*
Y0071525D01*
X-0087956Y0061250D02*
X-0089603D01*
X-0091025Y0070700D02*
X-0091200D01*
X-0089550Y0071600D02*
X-0091200D01*
X-0072710Y0068574D02*
Y0059926D01*
X-0074420Y0070740D02*
Y0070038D01*
X-0083924Y0078350D02*
X-0084529D01*
X-0080658Y0075290D02*
X-0081700D01*
X-0073790Y0059124D02*
Y0059050D01*
X-0073760Y0070133D02*
Y0069750D01*
X-0089372Y0068270D02*
X-0089540D01*
X-0090620Y0069306D02*
Y0064498D01*
X-0082278Y0076910D02*
X-0083089D01*
X-0082510Y0080330D02*
X-0083450D01*
X-0082510Y0079070D02*
X-0082617D01*
X-0089975Y0071525D02*
X-0091025D01*
Y0070475D01*
X-0089975D02*
X-0091025D01*
X-0089975Y0071525D02*
Y0070475D01*
X-0086570Y0069700D02*
Y0068704D01*
X-0072050Y0060620D02*
X-0074240D01*
X-0083690Y0078092D02*
Y0077511D01*
X-0078471Y0060440D02*
X-0078905D01*
X-0079220Y0062180D02*
X-0079840D01*
X-0089550Y0069800D02*
X-0090043D01*
X-0080000Y0075750D02*
Y0075450D01*
X-0073610Y0069492D02*
Y0069428D01*
X-0075410Y0075955D02*
Y0074260D01*
X-0078290Y0074740D02*
Y0073948D01*
X-0074760Y0059900D02*
X-0074950D01*
X-0081887Y0077270D02*
X-0081902D01*
X-0074760Y0064940D02*
X-0077740D01*
X-0077318Y0074450D02*
X-0076686Y0073818D01*
X-0081700Y0067750D02*
X-0082132D01*
X-0077930Y0069025D02*
Y0068300D01*
X-0077258Y0074390D02*
X-0079490D01*
X-0079730Y0062180D02*
Y0061848D01*
X-0074760Y0060440D02*
X-0074950D01*
X-0079450Y0059990D02*
X-0081750D01*
X-0081620Y0070012D02*
Y0069748D01*
X-0074760Y0065390D02*
X-0076992D01*
X-0077840Y0075990D02*
Y0075260D01*
X-0083960Y0065240D02*
Y0063760D01*
X-0084568Y0066186D02*
X-0084142Y0065760D01*
X-0078830Y0074557D02*
Y0073260D01*
X-0088250Y0066750D02*
X-0088740D01*
X-0074810Y0068677D02*
X-0074318Y0068186D01*
X-0072050Y0065480D02*
X-0074240D01*
X-0083771Y0063760D02*
X-0084603D01*
X-0072050Y0065300D02*
X-0074240D01*
X-0086778Y0063410D02*
X-0087016D01*
X-0083831Y0064670D02*
X-0084525D01*
X-0072050Y0065570D02*
X-0074240D01*
X-0083780Y0064267D02*
Y0064232D01*
X-0081980Y0061050D02*
Y0060750D01*
X-0076940Y0065442D02*
Y0064260D01*
X-0083880Y0062250D02*
X-0084596D01*
X-0082160Y0061050D02*
Y0060750D01*
X-0081170Y0061107D02*
Y0060806D01*
X-0083780Y0059950D02*
Y0059550D01*
X-0089500Y0063770D02*
X-0090490D01*
X-0091010Y0063860D02*
X-0091200D01*
X-0088460Y0065750D02*
Y0065260D01*
X-0090260Y0064122D02*
Y0063719D01*
X-0090890Y0069506D02*
Y0064228D01*
X-0084500Y0063240D02*
Y0062250D01*
X-0087108Y0063740D02*
X-0086686Y0063318D01*
X-0075950Y0062490D02*
Y0061969D01*
X-0083170Y0079340D02*
X-0083722D01*
X-0076670Y0065712D02*
Y0064260D01*
X-0079100Y0062203D02*
Y0061424D01*
X-0075590Y0061018D02*
Y0060935D01*
X-0084408Y0067190D02*
X-0084942D01*
X-0074000Y0062882D02*
X-0073760Y0062642D01*
X-0084510Y0066290D02*
X-0084656D01*
X-0085374Y0065750D02*
X-0085750D01*
X-0072050Y0062330D02*
X-0073240D01*
X-0089900Y0065750D02*
Y0065212D01*
X-0091070Y0071950D02*
Y0059050D01*
X-0081288Y0075920D02*
X-0082099D01*
X-0078200Y0069025D02*
Y0068568D01*
X-0083806Y0078170D02*
X-0084349D01*
X-0085750Y0080150D02*
X-0086200D01*
X-0085940Y0066342D02*
Y0066300D01*
X-0079100Y0069179D02*
Y0067760D01*
X-0080180Y0075750D02*
Y0075548D01*
X-0081530Y0076162D02*
Y0071838D01*
X-0079820Y0072555D02*
Y0072510D01*
X-0079250Y0075450D02*
Y0074450D01*
Y0076750D02*
X-0080250D01*
X-0081368Y0077000D02*
X-0081632D01*
X-0079250Y0075750D02*
X-0080250D01*
X-0079010Y0075990D02*
Y0075367D01*
X-0077120Y0066990D02*
Y0066756D01*
X-0078490Y0069103D02*
Y0068858D01*
X-0074785Y0070403D02*
X-0073826Y0069443D01*
X-0078638Y0068270D02*
X-0080612D01*
X-0081350Y0067990D02*
Y0066968D01*
X-0074950Y0060750D02*
Y0059750D01*
X-0077250Y0060750D02*
Y0059750D01*
Y0060260D02*
X-0077590D01*
X-0078560Y0059905D02*
Y0059050D01*
X-0074000Y0061950D02*
X-0075000D01*
Y0060950D01*
Y0062330D02*
X-0076240D01*
X-0074000Y0061950D02*
Y0060950D01*
X-0073760Y0062642D02*
Y0061729D01*
X-0074000Y0062250D02*
X-0075000D01*
X-0089500Y0064200D02*
Y0063200D01*
X-0088500D02*
X-0089500D01*
X-0091010Y0060800D02*
X-0091200D01*
X-0088500Y0065500D02*
X-0089500D01*
X-0088500Y0064500D02*
X-0089500D01*
X-0077750Y0075990D02*
Y0075750D01*
X-0076750Y0075450D02*
X-0077750D01*
X-0078110Y0075990D02*
Y0075260D01*
X-0076750Y0076750D02*
X-0077750D01*
X-0079190Y0075990D02*
Y0075094D01*
X-0076750Y0075750D02*
X-0077750D01*
X-0076400Y0076826D02*
Y0076510D01*
X-0078200Y0060069D02*
Y0059975D01*
X-0075590Y0062490D02*
Y0061939D01*
X-0077500Y0063250D02*
Y0062250D01*
X-0076760Y0061950D02*
X-0077500D01*
X-0083199Y0079520D02*
X-0083902D01*
X-0074760Y0065030D02*
X-0077740D01*
X-0081750Y0061050D02*
X-0082750D01*
X-0082880Y0059950D02*
Y0059550D01*
X-0081750Y0059750D02*
X-0082750D01*
X-0080197Y0072950D02*
X-0081700D01*
X-0082160Y0076792D02*
Y0075981D01*
X-0084590Y0065472D02*
Y0064975D01*
X-0087560Y0069700D02*
Y0068706D01*
X-0086570Y0066555D02*
Y0066300D01*
X-0090538Y0064580D02*
X-0091200D01*
X-0089540Y0064740D02*
Y0061000D01*
X-0087850Y0064260D02*
X-0088750D01*
X-0088460Y0064740D02*
Y0064260D01*
Y0063740D02*
Y0061000D01*
X-0086750Y0066200D02*
X-0087250D01*
X-0089260Y0067280D02*
X-0091200D01*
X-0088640Y0067713D02*
Y0066750D01*
X-0088176Y0064558D02*
X-0087936Y0064318D01*
X-0088500Y0063740D02*
Y0063200D01*
X-0086930Y0069700D02*
Y0068413D01*
X-0083435Y0070160D02*
X-0083769D01*
X-0083870Y0078244D02*
Y0077691D01*
X-0073500Y0075450D02*
X-0074500D01*
Y0074450D01*
X-0073500D02*
X-0074500D01*
X-0073500Y0075450D02*
Y0074450D01*
Y0076750D02*
X-0074500D01*
X-0072975Y0076280D02*
X-0073500D01*
X-0088950Y0061000D02*
Y0060000D01*
X-0087950D02*
X-0088950D01*
X-0087950Y0061000D02*
Y0060000D01*
Y0061000D02*
X-0088950D01*
X-0086250Y0062240D02*
X-0090490D01*
X-0089250Y0061000D02*
Y0060000D01*
X-0089990Y0062745D02*
Y0061984D01*
X-0083330Y0081282D02*
Y0078947D01*
X-0083450Y0081000D02*
Y0080000D01*
Y0081000D02*
X-0084450D01*
X-0085750D02*
Y0080000D01*
X-0084450Y0081000D02*
Y0080068D01*
X-0083450Y0080000D02*
X-0084382D01*
X-0080142Y0071490D02*
X-0081806Y0069826D01*
X-0077450Y0070000D02*
X-0078450D01*
X-0080990Y0071642D02*
Y0071378D01*
X-0081620Y0061290D02*
Y0060934D01*
X-0076130Y0070240D02*
Y0067725D01*
X-0079931Y0071436D02*
X-0081898Y0069470D01*
X-0084510Y0066750D02*
Y0066250D01*
X-0084775Y0081275D02*
X-0084990D01*
X-0085400Y0066467D02*
Y0066206D01*
X-0085436Y0066110D02*
X-0085750D01*
X-0080720Y0061352D02*
Y0059550D01*
X-0084450Y0067010D02*
X-0085122D01*
X-0084508Y0065390D02*
X-0085750D01*
X-0074420Y0062250D02*
Y0061950D01*
X-0074870Y0062250D02*
Y0061950D01*
X-0073700Y0061239D02*
Y0059930D01*
X-0075320Y0059061D02*
Y0059050D01*
X-0073758Y0061700D02*
X-0074000D01*
X-0074870Y0059202D02*
Y0059050D01*
X-0073430Y0061001D02*
Y0059969D01*
X-0073760Y0061790D02*
X-0074000D01*
X-0073240Y0062740D02*
Y0061988D01*
X-0084388Y0066020D02*
X-0084402D01*
X-0075050Y0062490D02*
Y0060750D01*
X-0075950Y0067182D02*
Y0064260D01*
X-0072050Y0059900D02*
X-0072244D01*
X-0077930Y0075990D02*
Y0075260D01*
X-0073760Y0062420D02*
X-0074000D01*
X-0084298Y0065930D02*
X-0084312D01*
X-0072050Y0063500D02*
X-0072805D01*
X-0072050Y0067010D02*
X-0074240D01*
X-0074760Y0067370D02*
X-0074793D01*
X-0073760Y0062510D02*
X-0074000D01*
X-0076310Y0066405D02*
Y0064260D01*
X-0072050Y0062510D02*
X-0073240D01*
X-0076850Y0065532D02*
Y0064260D01*
X-0090460Y0068360D02*
X-0091200D01*
X-0074760Y0067280D02*
X-0074829D01*
X-0072617Y0068540D02*
X-0074672D01*
X-0074870Y0068002D02*
Y0067784D01*
X-0074780Y0067912D02*
Y0067566D01*
X-0072050Y0067550D02*
X-0074240D01*
Y0070740D02*
Y0069858D01*
X-0072935Y0068810D02*
X-0073342D01*
X-0075590Y0069169D02*
Y0068831D01*
X-0084770Y0065613D02*
Y0064975D01*
X-0072050Y0066290D02*
X-0074240D01*
X-0077390Y0066000D02*
Y0065760D01*
X-0080990Y0067990D02*
Y0067350D01*
X-0089990Y0071950D02*
Y0071525D01*
X-0077570Y0063740D02*
Y0063701D01*
X-0079100Y0060576D02*
Y0060468D01*
X-0074760Y0067892D02*
Y0064260D01*
X-0090440Y0071950D02*
Y0071525D01*
X-0074760Y0067190D02*
X-0074890D01*
X-0072800Y0068632D02*
Y0063490D01*
X-0079730Y0060362D02*
Y0059550D01*
X-0074760Y0067010D02*
X-0076150D01*
X-0074780Y0069433D02*
Y0068648D01*
X-0073760Y0062330D02*
X-0074000D01*
X-0075590Y0066169D02*
Y0064260D01*
X-0072050Y0067370D02*
X-0074240D01*
X-0075320Y0069030D02*
Y0068969D01*
X-0073874Y0070250D02*
X-0074632D01*
X-0074330Y0069212D02*
Y0068197D01*
X-0072050Y0068450D02*
X-0074582D01*
X-0074760Y0066110D02*
X-0074979D01*
X-0072050Y0066830D02*
X-0074240D01*
X-0072050Y0067820D02*
X-0074240D01*
X-0072050Y0068360D02*
X-0074492D01*
X-0075500Y0069096D02*
Y0068903D01*
X-0075410Y0069053D02*
Y0068947D01*
X-0072883Y0068720D02*
X-0073398D01*
X-0073018Y0068900D02*
X-0073311D01*
X-0074868Y0068000D02*
X-0077250D01*
X-0073250Y0069132D02*
Y0063760D01*
X-0072050Y0068270D02*
X-0074402D01*
X-0080450Y0061082D02*
Y0059550D01*
X-0074500Y0070740D02*
X-0074840D01*
X-0083870Y0064580D02*
X-0084525D01*
X-0083877Y0064040D02*
X-0084525D01*
X-0082750Y0060950D02*
X-0083750D01*
X-0077750Y0076750D02*
Y0076510D01*
X-0072050Y0060800D02*
X-0074240D01*
X-0072050Y0060890D02*
X-0074240D01*
X-0072050Y0064580D02*
X-0074240D01*
X-0075230Y0066026D02*
Y0064260D01*
X-0074760Y0066920D02*
X-0075029D01*
X-0074760Y0065930D02*
X-0076499D01*
X-0075590Y0067169D02*
Y0066831D01*
X-0074420Y0069302D02*
Y0068288D01*
X-0074600Y0070740D02*
Y0070218D01*
X-0076760Y0065622D02*
Y0064260D01*
X-0076750Y0075450D02*
Y0074618D01*
X-0084860Y0064025D02*
Y0063953D01*
X-0072050Y0064490D02*
X-0074240D01*
X-0089360Y0060000D02*
Y0059962D01*
X-0090440Y0065750D02*
Y0064678D01*
X-0088730Y0064500D02*
Y0064259D01*
X-0089090Y0063200D02*
Y0059947D01*
X-0089000Y0063200D02*
Y0059903D01*
X-0088910Y0063200D02*
Y0061000D01*
X-0088640Y0064500D02*
Y0064260D01*
X-0076400Y0066217D02*
Y0064260D01*
X-0091010Y0061520D02*
X-0091200D01*
X-0088820Y0064500D02*
Y0064250D01*
X-0084410Y0065295D02*
Y0063760D01*
X-0091010Y0061250D02*
X-0091200D01*
X-0091010Y0063950D02*
X-0091200D01*
X-0085580Y0063240D02*
Y0062916D01*
X-0082880Y0069494D02*
Y0069260D01*
X-0089180Y0063200D02*
Y0059969D01*
X-0084410Y0063240D02*
Y0062250D01*
X-0087020Y0063652D02*
Y0063422D01*
X-0082790Y0079052D02*
Y0076611D01*
X-0088916Y0064200D02*
X-0089500D01*
X-0083864Y0064400D02*
X-0084525D01*
X-0090170Y0065750D02*
Y0064948D01*
X-0072050Y0065390D02*
X-0074240D01*
X-0080938Y0070430D02*
X-0081202D01*
X-0078650Y0073294D02*
Y0073260D01*
X-0079280Y0070000D02*
Y0069566D01*
X-0082070Y0070562D02*
Y0070298D01*
X-0082250Y0070382D02*
Y0070200D01*
X-0081800Y0070832D02*
Y0070568D01*
X-0077030Y0070242D02*
Y0067510D01*
X-0081128Y0071240D02*
X-0081392D01*
X-0074690Y0059065D02*
Y0059050D01*
X-0074760Y0060350D02*
X-0074950D01*
X-0082520Y0061050D02*
Y0060750D01*
X-0074978Y0068111D02*
X-0074760Y0067892D01*
X-0080810Y0061442D02*
Y0059550D01*
X-0078630Y0073260D02*
X-0079383D01*
X-0079100Y0080232D02*
Y0076510D01*
X-0081170Y0060194D02*
Y0059550D01*
X-0079256Y0059630D02*
X-0084543D01*
X-0079448Y0060080D02*
X-0081338D01*
X-0081710Y0067750D02*
Y0067328D01*
X-0080720Y0068162D02*
Y0067648D01*
X-0078459Y0060620D02*
X-0079009D01*
X-0086210Y0069700D02*
Y0068607D01*
X-0080090Y0074450D02*
Y0073295D01*
X-0086594Y0066560D02*
X-0087655D01*
X-0086210Y0067893D02*
Y0067658D01*
X-0081010Y0066920D02*
X-0081302D01*
X-0084497Y0066830D02*
X-0085302D01*
X-0077858Y0079740D02*
X-0075443Y0077326D01*
X-0084680Y0067240D02*
Y0066316D01*
X-0076580Y0066990D02*
Y0066916D01*
X-0088102Y0067280D02*
X-0088740D01*
X-0076490Y0070240D02*
Y0067510D01*
X-0072050Y0068180D02*
X-0074312D01*
X-0074760Y0067820D02*
X-0074899D01*
X-0076358Y0067510D02*
X-0077250D01*
X-0076040Y0070240D02*
Y0067757D01*
X-0076760Y0066990D02*
Y0066950D01*
X-0076670Y0066990D02*
Y0066943D01*
X-0083600Y0078061D02*
Y0077421D01*
X-0086840Y0069700D02*
Y0068560D01*
X-0084140Y0065781D02*
Y0065760D01*
X-0078250Y0067882D02*
Y0067618D01*
X-0080180Y0068702D02*
Y0067760D01*
X-0076490Y0066133D02*
Y0066000D01*
X-0077250Y0066990D02*
Y0066000D01*
X-0076121Y0067730D02*
X-0077250D01*
X-0078318Y0067686D02*
X-0078250Y0067618D01*
X-0075680Y0066299D02*
Y0064260D01*
X-0090830Y0070070D02*
X-0091200D01*
X-0074760Y0060530D02*
X-0074950D01*
X-0075647Y0067760D02*
X-0076000D01*
X-0078500D02*
X-0080500D01*
X-0080090Y0068792D02*
Y0067760D01*
X-0080720Y0070912D02*
Y0070648D01*
X-0077120Y0070269D02*
Y0067510D01*
X-0079550Y0069069D02*
Y0067760D01*
X-0079460Y0069124D02*
Y0067760D01*
X-0081440Y0067990D02*
Y0067058D01*
X-0077570Y0062299D02*
Y0061760D01*
X-0083150Y0079294D02*
Y0078783D01*
X-0085344Y0066290D02*
X-0085750D01*
X-0074760Y0060170D02*
X-0074950D01*
X-0082132Y0067750D02*
X-0081010Y0066628D01*
Y0067190D02*
X-0081572D01*
X-0078468Y0062420D02*
X-0078712D01*
X-0073750Y0075740D02*
X-0080372D01*
X-0077750Y0075380D02*
X-0078509D01*
X-0072260Y0068590D02*
Y0059909D01*
X-0079370Y0070000D02*
Y0069784D01*
Y0075750D02*
Y0075450D01*
X-0080010Y0074450D02*
Y0073367D01*
X-0078650Y0074561D02*
Y0073706D01*
X-0078617Y0073760D02*
X-0079490D01*
X-0080180Y0074450D02*
Y0073132D01*
X-0079280Y0075750D02*
Y0075450D01*
X-0079730Y0075750D02*
Y0075450D01*
X-0079045Y0074660D02*
X-0079250D01*
X-0077750Y0075990D02*
X-0079250D01*
X-0077750Y0074660D02*
X-0078455D01*
X-0077750Y0074450D02*
Y0073760D01*
X-0082510Y0081353D02*
Y0079880D01*
Y0078620D02*
X-0083066D01*
X-0082510Y0080240D02*
X-0083450D01*
X-0078740Y0075990D02*
Y0075450D01*
X-0078830Y0072740D02*
Y0072510D01*
X-0079010Y0074633D02*
Y0073260D01*
X-0082610Y0071319D02*
Y0070758D01*
X-0081451Y0081320D02*
X-0081990D01*
X-0077548Y0079430D02*
X-0081990D01*
X-0082653Y0081500D02*
X-0082846D01*
X-0083045Y0079160D02*
X-0083542D01*
X-0079730Y0072550D02*
Y0072510D01*
X-0078533Y0073850D02*
X-0079490D01*
X-0081440Y0070192D02*
Y0069928D01*
X-0079280Y0072740D02*
Y0072510D01*
X-0079100Y0072740D02*
Y0072510D01*
X-0079190Y0072740D02*
Y0072510D01*
X-0078344Y0073940D02*
X-0079490D01*
X-0081890Y0081440D02*
Y0078724D01*
X-0078020Y0062026D02*
Y0061974D01*
X-0078700Y0073490D02*
X-0079490D01*
X-0081892Y0077720D02*
X-0081990D01*
X-0079370Y0074450D02*
Y0073260D01*
X-0080250Y0074882D02*
Y0074450D01*
X-0078474Y0062510D02*
X-0078622D01*
X-0078630Y0073260D02*
X-0079383D01*
X-0072868Y0074300D02*
X-0076432D01*
X-0078290Y0062124D02*
Y0061876D01*
X-0079010Y0062240D02*
Y0061380D01*
X-0077318Y0074450D02*
X-0077750D01*
X-0076760Y0062150D02*
X-0077679D01*
X-0077168Y0074300D02*
X-0079490D01*
X-0078110Y0069025D02*
Y0068478D01*
X-0077740Y0065240D02*
Y0064897D01*
X-0075770Y0070240D02*
Y0067760D01*
X-0075680Y0068299D02*
Y0067760D01*
X-0076310Y0074554D02*
Y0074260D01*
X-0073755Y0059900D02*
X-0074240D01*
X-0089810Y0065750D02*
Y0065253D01*
X-0076940Y0066990D02*
Y0066908D01*
X-0080010Y0073490D02*
X-0081700D01*
X-0074000Y0062882D02*
Y0062250D01*
X-0077250Y0081260D02*
X-0078392D01*
X-0078290Y0067922D02*
Y0067658D01*
X-0077660Y0069025D02*
Y0068300D01*
X-0078020Y0066000D02*
Y0065888D01*
X-0076181Y0067686D02*
X-0076358Y0067510D01*
X-0086030Y0082200D02*
Y0079851D01*
X-0074760Y0065480D02*
X-0076902D01*
X-0073700Y0077164D02*
Y0076750D01*
X-0074150Y0077076D02*
Y0076750D01*
X-0072050Y0077360D02*
X-0073572D01*
X-0072050Y0079520D02*
X-0075402D01*
X-0073610Y0077275D02*
Y0076750D01*
X-0074428Y0077360D02*
X-0074563D01*
X-0074330Y0082200D02*
Y0078448D01*
X-0074788Y0078170D02*
X-0075552D01*
X-0077480Y0080740D02*
Y0080098D01*
X-0077120Y0080502D02*
Y0079738D01*
X-0076940Y0078822D02*
Y0076750D01*
X-0076048Y0079430D02*
X-0076812D01*
X-0074185Y0077090D02*
X-0074579D01*
X-0074316Y0077180D02*
X-0074555D01*
X-0074387Y0077270D02*
X-0074550D01*
X-0074330Y0077194D02*
Y0076750D01*
X-0077120Y0079002D02*
Y0076750D01*
X-0076858Y0080240D02*
X-0077650D01*
X-0077480Y0079362D02*
Y0076750D01*
X-0072050Y0081590D02*
X-0077803D01*
X-0078470Y0080740D02*
Y0080338D01*
X-0078110Y0081296D02*
Y0081260D01*
X-0075928Y0077810D02*
X-0081174D01*
X-0077390Y0080740D02*
Y0080008D01*
X-0077660Y0065240D02*
Y0064831D01*
X-0077480Y0066000D02*
Y0065760D01*
X-0077278Y0065840D02*
X-0077972D01*
X-0072050Y0067910D02*
X-0074240D01*
X-0075600Y0068180D02*
X-0077250D01*
Y0068300D02*
Y0067510D01*
X-0072050Y0067100D02*
X-0074240D01*
X-0080630Y0076262D02*
Y0075998D01*
X-0078110Y0066000D02*
Y0065978D01*
X-0077098Y0066020D02*
X-0077250D01*
X-0083124Y0079250D02*
X-0083632D01*
X-0077030Y0065352D02*
Y0064260D01*
X-0077120Y0066244D02*
Y0065998D01*
X-0077030Y0066990D02*
Y0066852D01*
X-0075500Y0062490D02*
Y0061884D01*
X-0075709Y0066380D02*
X-0076316D01*
X-0077085Y0066200D02*
X-0077250D01*
X-0074760Y0065750D02*
X-0076632D01*
X-0077010Y0066110D02*
X-0077250D01*
X-0074760Y0066830D02*
X-0074909D01*
X-0078830Y0079962D02*
Y0076510D01*
X-0081401Y0082200D02*
X-0082099D01*
X-0077098Y0078980D02*
X-0081990D01*
X-0080918Y0076550D02*
X-0081182D01*
X-0081710Y0078102D02*
Y0077898D01*
X-0078838Y0079970D02*
X-0081990D01*
X-0081170Y0067990D02*
Y0066788D01*
X-0081685Y0077090D02*
X-0081722D01*
X-0075680Y0070240D02*
Y0069701D01*
X-0081990Y0077358D02*
X-0081852Y0077220D01*
X-0074960Y0068092D02*
Y0067876D01*
X-0072797Y0068630D02*
X-0073494D01*
X-0076988Y0074120D02*
X-0079490D01*
X-0074006Y0068630D02*
X-0074762D01*
X-0087857Y0068540D02*
X-0091200D01*
X-0072050Y0068720D02*
X-0072117D01*
X-0072050Y0068810D02*
X-0072065D01*
X-0075860Y0070240D02*
Y0067760D01*
X-0081931Y0077630D02*
X-0081990D01*
X-0072050Y0068630D02*
X-0072202D01*
X-0072050Y0065660D02*
X-0074240D01*
X-0073970Y0068607D02*
Y0063588D01*
X-0077191Y0063590D02*
X-0077534D01*
X-0079640Y0075750D02*
Y0075450D01*
Y0072563D02*
Y0072510D01*
X-0074760Y0065840D02*
X-0076545D01*
X-0075140Y0070022D02*
Y0069962D01*
X-0075770Y0067240D02*
Y0064260D01*
X-0073686Y0069568D02*
X-0073470Y0069352D01*
X-0073558Y0069440D02*
X-0073655D01*
X-0072897Y0074260D02*
X-0076392D01*
X-0073936Y0070610D02*
X-0074788D01*
X-0073725Y0069620D02*
X-0074002D01*
X-0081488Y0070880D02*
X-0081752D01*
X-0091025Y0071150D02*
X-0091200D01*
X-0077390Y0070522D02*
Y0069975D01*
X-0077210Y0080592D02*
Y0079828D01*
X-0078560Y0080747D02*
Y0080428D01*
X-0079460Y0080592D02*
Y0076750D01*
X-0072050Y0082200D02*
X-0078099D01*
X-0080581Y0081410D02*
X-0080919D01*
X-0078638Y0080780D02*
X-0078912D01*
X-0079730Y0080862D02*
Y0076750D01*
X-0077210Y0082200D02*
Y0081257D01*
X-0080090Y0081222D02*
Y0076750D01*
X-0079640Y0080772D02*
Y0076750D01*
X-0081530Y0082200D02*
Y0082133D01*
X-0073520Y0082200D02*
Y0076750D01*
X-0075295Y0076910D02*
X-0075955D01*
X-0075374Y0077000D02*
X-0075876D01*
X-0075950Y0075847D02*
Y0075335D01*
X-0078020Y0081335D02*
Y0081260D01*
X-0078200Y0079740D02*
Y0076510D01*
X-0080401Y0082200D02*
X-0081099D01*
X-0076117Y0076510D02*
X-0076750D01*
X-0074240Y0082200D02*
Y0078358D01*
X-0074447Y0077450D02*
X-0074597D01*
X-0075444Y0077180D02*
X-0075805D01*
X-0072050Y0079160D02*
X-0075042D01*
X-0081948Y0071420D02*
X-0082509D01*
X-0080250Y0075990D02*
Y0075750D01*
X-0087200Y0069700D02*
Y0068599D01*
X-0089550Y0070340D02*
X-0091200D01*
X-0088640Y0069312D02*
Y0068286D01*
X-0089260Y0066830D02*
X-0091200D01*
X-0089460Y0068000D02*
X-0089540D01*
X-0088250Y0065882D02*
Y0065750D01*
X-0090460Y0068450D02*
X-0091200D01*
X-0090600Y0059180D02*
X-0091200D01*
X-0086959Y0068270D02*
X-0087040D01*
X-0086946Y0068360D02*
X-0087053D01*
X-0089550Y0070070D02*
X-0090169D01*
X-0090088Y0065030D02*
X-0091200D01*
X-0088033Y0066650D02*
X-0088250D01*
X-0089260Y0066560D02*
X-0089550D01*
Y0070520D02*
X-0089975D01*
X-0080098Y0081230D02*
X-0081990D01*
X-0088189Y0067100D02*
X-0088740D01*
X-0086480Y0067790D02*
Y0067449D01*
X-0088250Y0065882D02*
X-0087990Y0065622D01*
X-0087290Y0067841D02*
Y0066240D01*
X-0087740Y0069700D02*
Y0068642D01*
X-0086759Y0068630D02*
X-0087241D01*
X-0089260Y0067190D02*
X-0091200D01*
X-0087110Y0068006D02*
Y0065400D01*
X-0088006Y0067370D02*
X-0088740D01*
X-0083510Y0078050D02*
Y0077331D01*
X-0087200Y0067901D02*
Y0065400D01*
X-0086750Y0065840D02*
X-0087250D01*
X-0086480Y0066550D02*
Y0066300D01*
X-0088190Y0066905D02*
Y0066503D01*
X-0088550Y0067904D02*
Y0066750D01*
X-0090550Y0066470D02*
X-0091200D01*
X-0084510Y0066380D02*
X-0084759D01*
X-0083856Y0065120D02*
X-0086880D01*
X-0087663Y0067820D02*
X-0088577D01*
X-0086783Y0066650D02*
X-0087467D01*
X-0090708Y0070160D02*
X-0091200D01*
X-0083118Y0070250D02*
X-0083679D01*
X-0088910Y0065750D02*
Y0065500D01*
X-0089090Y0065750D02*
Y0065500D01*
X-0079988Y0060620D02*
X-0081066D01*
X-0086930Y0066867D02*
Y0065400D01*
X-0091010Y0062420D02*
X-0091200D01*
X-0084208Y0065840D02*
X-0084222D01*
X-0081530Y0061198D02*
Y0060949D01*
X-0078331Y0061160D02*
X-0078829D01*
X-0078470Y0061433D02*
Y0060566D01*
X-0080528Y0061160D02*
X-0081025D01*
X-0086750Y0066290D02*
X-0087922D01*
X-0078178Y0062060D02*
X-0079942D01*
X-0074760Y0060080D02*
X-0074950D01*
X-0078430Y0061700D02*
X-0079582D01*
X-0079370Y0062180D02*
Y0061488D01*
X-0072050Y0063410D02*
X-0072766D01*
X-0072050Y0059990D02*
X-0074240D01*
X-0084500Y0059950D02*
Y0059050D01*
X-0075000Y0060980D02*
X-0075613D01*
X-0072050Y0064670D02*
X-0074240D01*
X-0072710Y0059074D02*
Y0059050D01*
X-0072050Y0060350D02*
X-0074240D01*
X-0072050Y0063770D02*
X-0074152D01*
X-0090510Y0060080D02*
X-0091200D01*
X-0072050Y0061340D02*
X-0072759D01*
X-0074760Y0060800D02*
X-0075553D01*
X-0072050Y0060440D02*
X-0074240D01*
X-0073760Y0062060D02*
X-0076240D01*
X-0081710Y0069922D02*
Y0069658D01*
X-0085439Y0068900D02*
X-0091200D01*
X-0082108Y0069260D02*
X-0084633D01*
X-0074739Y0059090D02*
X-0075261D01*
X-0074915Y0059270D02*
X-0075085D01*
X-0082970Y0070959D02*
Y0070398D01*
X-0083600Y0070329D02*
Y0070033D01*
X-0083060Y0070869D02*
Y0070308D01*
X-0082790Y0071139D02*
Y0070578D01*
X-0083600Y0069467D02*
Y0069260D01*
X-0082340Y0069309D02*
Y0069260D01*
Y0070292D02*
Y0070191D01*
X-0074972Y0059450D02*
X-0075028D01*
X-0074956Y0059630D02*
X-0075043D01*
X-0079190Y0062181D02*
Y0061446D01*
X-0081260Y0067990D02*
Y0066878D01*
X-0079000Y0062240D02*
X-0079033D01*
X-0079550Y0060182D02*
Y0059550D01*
X-0080180Y0062681D02*
Y0062298D01*
X-0084525Y0064025D02*
X-0085301D01*
X-0080090Y0062736D02*
Y0062700D01*
X-0080097Y0062690D02*
X-0080172D01*
X-0076318Y0067550D02*
X-0077250D01*
X-0075489Y0068090D02*
X-0077250D01*
X-0081260Y0061100D02*
Y0060880D01*
X-0085580Y0066333D02*
Y0064416D01*
X-0081260Y0060119D02*
Y0059550D01*
X-0078830Y0059583D02*
Y0059050D01*
X-0080360Y0060992D02*
Y0059550D01*
X-0083330Y0059950D02*
Y0059550D01*
X-0084250Y0059950D02*
Y0060450D01*
Y0060950D02*
Y0060450D01*
X-0083750D02*
X-0084250D01*
X-0090550Y0066250D02*
X-0090050D01*
X-0089550D02*
X-0090050D01*
Y0065750D02*
Y0066250D01*
Y0066750D02*
Y0066250D01*
X-0090000Y0067540D02*
Y0068000D01*
Y0068460D02*
Y0068000D01*
X-0089540D02*
X-0090000D01*
X-0090460D02*
X-0090000D01*
X-0084585Y0082085D02*
X-0084250Y0081750D01*
X-0083914Y0081414D02*
X-0084250Y0081750D01*
X-0084585Y0081414D02*
X-0084250Y0081750D01*
X-0083914Y0082085D02*
X-0084250Y0081750D01*
X-0072835Y0059835D02*
X-0072500Y0059500D01*
X-0072164Y0059164D02*
X-0072500Y0059500D01*
X-0072835Y0059164D02*
X-0072500Y0059500D01*
X-0072164Y0059835D02*
X-0072500Y0059500D01*
X-0075585Y0069164D02*
X-0075250Y0069500D01*
X-0074914Y0069164D02*
X-0075250Y0069500D01*
X-0075585Y0069835D02*
X-0075250Y0069500D01*
X-0072164Y0075335D02*
X-0072500Y0075000D01*
X-0072835Y0074664D02*
X-0072500Y0075000D01*
X-0072835Y0075335D02*
X-0072500Y0075000D01*
X-0072164Y0074664D02*
X-0072500Y0075000D01*
X-0084664Y0059835D02*
X-0085000Y0059500D01*
X-0085335Y0059164D02*
X-0085000Y0059500D01*
X-0085335Y0059835D02*
X-0085000Y0059500D01*
X-0084664Y0059164D02*
X-0085000Y0059500D01*
Y0060025D02*
Y0060500D01*
Y0060975D02*
Y0060500D01*
X-0081710Y0076342D02*
Y0075530D01*
X-0084410Y0059950D02*
Y0059050D01*
X-0078475Y0059500D02*
X-0078000D01*
X-0077525D02*
X-0078000D01*
Y0059975D02*
Y0059500D01*
X-0088250Y0059975D02*
Y0059500D01*
X-0087775D02*
X-0088250D01*
X-0088725D02*
X-0088250D01*
X-0077750Y0069025D02*
Y0069500D01*
Y0069975D02*
Y0069500D01*
X-0077275D02*
X-0077750D01*
X-0078225D02*
X-0077750D01*
X-0085850Y0063240D02*
Y0062939D01*
X-0074870Y0076819D02*
Y0076510D01*
X-0086120Y0065300D02*
Y0065000D01*
X-0086300Y0065300D02*
Y0065000D01*
X-0091010Y0063320D02*
X-0091200D01*
X-0074510Y0075990D02*
Y0074260D01*
X-0085475Y0064400D02*
X-0085544D01*
X-0085670Y0063240D02*
Y0062943D01*
X-0090550Y0066020D02*
X-0091200D01*
X-0088725Y0059090D02*
X-0089011D01*
X-0090550Y0065930D02*
X-0091200D01*
X-0084500Y0066178D02*
Y0066118D01*
X-0080900Y0068010D02*
Y0067468D01*
X-0086250Y0059990D02*
X-0089990D01*
X-0091010Y0061790D02*
X-0091200D01*
X-0086750Y0065000D02*
Y0064760D01*
X-0081010Y0066740D02*
X-0081122D01*
X-0083880Y0062420D02*
X-0084532D01*
X-0086200Y0062510D02*
X-0090490D01*
X-0088190Y0064574D02*
Y0064260D01*
X-0090440Y0059065D02*
Y0059050D01*
X-0080980Y0067370D02*
X-0081752D01*
X-0085220Y0063079D02*
Y0062920D01*
X-0080728Y0067640D02*
X-0082022D01*
X-0090665Y0059270D02*
X-0091200D01*
X-0086102Y0062780D02*
X-0087302D01*
X-0087250Y0066240D02*
X-0087872D01*
X-0078740Y0062392D02*
Y0060367D01*
X-0075974Y0076640D02*
X-0076750D01*
X-0080431Y0071936D02*
X-0082174Y0070193D01*
X-0086030Y0065300D02*
Y0065000D01*
X-0085940Y0065300D02*
Y0065000D01*
X-0085850Y0065300D02*
Y0065000D01*
X-0082750Y0061160D02*
X-0084417D01*
X-0087560Y0060972D02*
Y0059050D01*
X-0073700Y0075740D02*
Y0075450D01*
X-0085760Y0065300D02*
Y0065000D01*
X-0086189Y0066650D02*
X-0086217D01*
X-0081617Y0061290D02*
X-0081750D01*
X-0081008Y0067280D02*
X-0081662D01*
X-0085940Y0061250D02*
Y0060950D01*
X-0085850Y0061250D02*
Y0060950D01*
X-0086006Y0062870D02*
X-0087160D01*
X-0084230Y0065240D02*
Y0063760D01*
X-0086570Y0065300D02*
Y0065000D01*
X-0073610Y0075740D02*
Y0075450D01*
X-0085670Y0066307D02*
Y0064443D01*
X-0088009Y0063230D02*
X-0088500D01*
X-0087969Y0063050D02*
X-0089590D01*
X-0089500Y0064040D02*
X-0090342D01*
X-0086660Y0066579D02*
Y0066300D01*
X-0087810Y0067910D02*
X-0088549D01*
X-0084510Y0066470D02*
X-0085398D01*
X-0085490Y0066383D02*
Y0064367D01*
X-0089630Y0071950D02*
Y0068460D01*
X-0076040Y0076852D02*
Y0076594D01*
X-0086660Y0067819D02*
Y0067420D01*
X-0073520Y0074450D02*
Y0074260D01*
X-0079010Y0068990D02*
X-0079892D01*
X-0076580Y0076944D02*
Y0076510D01*
X-0082970Y0059950D02*
Y0059550D01*
X-0090980Y0070475D02*
Y0064121D01*
X-0091010Y0062240D02*
X-0091200D01*
X-0085760Y0061250D02*
Y0060950D01*
X-0085940Y0059950D02*
Y0059050D01*
X-0085400Y0059244D02*
Y0059050D01*
X-0085490Y0061150D02*
Y0060950D01*
X-0086030Y0061250D02*
Y0060950D01*
X-0085958Y0067910D02*
X-0086190D01*
X-0085490Y0063240D02*
Y0062867D01*
X-0072975Y0075740D02*
Y0075525D01*
X-0086660Y0063295D02*
Y0059050D01*
X-0089630Y0064740D02*
Y0063525D01*
X-0090898Y0064220D02*
X-0091200D01*
X-0090710Y0069341D02*
Y0064408D01*
X-0088360Y0064670D02*
X-0088500D01*
X-0084860Y0065572D02*
Y0064975D01*
X-0086300Y0067836D02*
Y0067568D01*
X-0085130Y0063043D02*
Y0062956D01*
X-0089990Y0065750D02*
Y0065128D01*
X-0075770Y0077652D02*
Y0076699D01*
X-0085400Y0061150D02*
Y0060950D01*
X-0074960Y0076802D02*
Y0076510D01*
X-0077568Y0080186D02*
X-0075076Y0077693D01*
X-0084680Y0081549D02*
Y0080298D01*
X-0078928Y0080060D02*
X-0081990D01*
X-0084697Y0081590D02*
X-0084775D01*
X-0081653Y0081500D02*
X-0081846D01*
X-0085310Y0069700D02*
Y0069326D01*
X-0080180Y0081280D02*
Y0076750D01*
X-0090710Y0071950D02*
Y0071525D01*
X-0080000Y0081132D02*
Y0076750D01*
X-0077030Y0078912D02*
Y0076750D01*
X-0083960Y0078842D02*
Y0077781D01*
X-0089000Y0064500D02*
Y0064200D01*
X-0086250Y0060620D02*
X-0087950D01*
X-0075410Y0077064D02*
Y0076545D01*
X-0087990Y0065400D02*
X-0088360D01*
X-0088725Y0059900D02*
X-0088994D01*
X-0090936Y0060568D02*
X-0090686Y0060318D01*
X-0091010Y0061970D02*
X-0091200D01*
X-0088950Y0060260D02*
X-0089250D01*
X-0089723Y0059540D02*
X-0089777D01*
X-0090609Y0059810D02*
X-0091200D01*
X-0091010Y0060980D02*
X-0091200D01*
X-0089360Y0064500D02*
Y0064200D01*
X-0089630Y0061203D02*
Y0061000D01*
X-0086250Y0060170D02*
X-0087950D01*
X-0088500Y0065500D02*
Y0065260D01*
X-0076975Y0059180D02*
X-0077525D01*
X-0075000Y0062490D02*
X-0076240D01*
X-0075706Y0068630D02*
X-0078262D01*
X-0090510Y0060170D02*
X-0091200D01*
X-0090510Y0059990D02*
X-0091200D01*
X-0083870Y0062920D02*
Y0062820D01*
X-0089900Y0060000D02*
Y0059820D01*
X-0083780Y0061250D02*
Y0060950D01*
X-0083880Y0062600D02*
X-0084536D01*
X-0082750Y0061070D02*
X-0084799D01*
X-0080056Y0062736D02*
X-0080135D01*
X-0083870Y0061250D02*
Y0060950D01*
X-0080270Y0062610D02*
Y0062388D01*
X-0086250Y0061250D02*
X-0087044D01*
X-0077390Y0062250D02*
Y0061950D01*
X-0077278Y0079160D02*
X-0081990D01*
X-0082610Y0061050D02*
Y0060750D01*
X-0077570Y0065240D02*
Y0064701D01*
X-0083771Y0063240D02*
X-0084603D01*
X-0085130Y0060043D02*
Y0059956D01*
X-0079640Y0062180D02*
Y0061758D01*
X-0072050Y0060260D02*
X-0074240D01*
X-0081710Y0070922D02*
Y0070658D01*
X-0076124Y0061880D02*
X-0076240D01*
X-0075320Y0062490D02*
Y0061622D01*
X-0074500Y0076550D02*
X-0075414D01*
X-0080090Y0072705D02*
Y0072510D01*
X-0082510Y0078260D02*
X-0083119D01*
X-0077500Y0061160D02*
X-0077669D01*
X-0078380Y0079740D02*
Y0076510D01*
X-0075410Y0062490D02*
Y0061796D01*
X-0072050Y0062690D02*
X-0073240D01*
X-0075000Y0062420D02*
X-0076240D01*
X-0086886Y0068000D02*
X-0087114D01*
X-0088010Y0063740D02*
Y0061000D01*
X-0083750Y0060950D02*
Y0059950D01*
X-0087110Y0063740D02*
Y0063578D01*
X-0090178Y0064940D02*
X-0091200D01*
X-0088108Y0064490D02*
X-0089892D01*
X-0088280Y0065750D02*
Y0065400D01*
X-0089500Y0063410D02*
X-0089575D01*
X-0087740Y0063740D02*
Y0063700D01*
X-0083960Y0069969D02*
Y0069260D01*
X-0088190Y0065822D02*
Y0065400D01*
Y0069410D02*
Y0067094D01*
X-0087650Y0067815D02*
Y0067439D01*
X-0088360Y0064740D02*
X-0088500D01*
X-0088209Y0064600D02*
X-0088360D01*
X-0081018Y0075650D02*
X-0081829D01*
X-0075000Y0062490D02*
Y0062250D01*
X-0088888Y0064220D02*
X-0090162D01*
X-0075950Y0074664D02*
Y0074260D01*
X-0073070Y0075740D02*
Y0074260D01*
X-0073160Y0075740D02*
Y0074260D01*
X-0073250Y0075740D02*
Y0074260D01*
X-0073430Y0082200D02*
Y0076260D01*
X-0072975Y0076370D02*
X-0073500D01*
X-0072975Y0075740D02*
X-0073750D01*
X-0073340D02*
Y0074260D01*
X-0074500Y0075020D02*
X-0075800D01*
X-0076310Y0076804D02*
Y0076510D01*
X-0074150Y0062250D02*
Y0061950D01*
X-0072975Y0076260D02*
X-0073500D01*
X-0072975Y0076460D02*
X-0073500D01*
X-0074500Y0075920D02*
X-0075444D01*
X-0076580Y0075990D02*
Y0075306D01*
X-0074500Y0075990D02*
X-0075383D01*
X-0076056Y0075920D02*
X-0076750D01*
X-0074500Y0076640D02*
X-0075525D01*
X-0076130Y0076816D02*
Y0076510D01*
X-0076400Y0075990D02*
Y0075424D01*
X-0076670Y0075990D02*
Y0075161D01*
X-0075230Y0076863D02*
Y0076510D01*
X-0089270Y0063200D02*
Y0061000D01*
X-0087990Y0065622D02*
Y0065400D01*
X-0091007Y0060710D02*
X-0091200D01*
X-0078920Y0080052D02*
Y0076510D01*
X-0079010Y0080142D02*
Y0076510D01*
X-0088950Y0060080D02*
X-0089250D01*
X-0090080Y0064302D02*
Y0063759D01*
X-0090439Y0063590D02*
X-0090490D01*
X-0087698Y0062780D02*
X-0089861D01*
X-0089180Y0065750D02*
Y0065500D01*
X-0088360Y0065260D02*
X-0088500D01*
X-0072050Y0077000D02*
X-0074626D01*
X-0090440Y0062910D02*
Y0061818D01*
X-0076310Y0075990D02*
Y0075446D01*
X-0091010Y0061700D02*
X-0091200D01*
X-0089500Y0063950D02*
X-0090432D01*
X-0089810Y0059322D02*
Y0059050D01*
X-0087991Y0061340D02*
X-0089568D01*
X-0089990Y0059103D02*
Y0059050D01*
X-0088370Y0063740D02*
Y0061000D01*
X-0089250Y0060000D02*
X-0089990D01*
Y0059897D01*
X-0090718Y0060350D02*
X-0091200D01*
X-0089720Y0061098D02*
Y0061000D01*
X-0089540Y0060000D02*
Y0059876D01*
X-0087993Y0061610D02*
X-0089566D01*
X-0088950Y0060440D02*
X-0089250D01*
X-0091010Y0063500D02*
X-0091200D01*
X-0090440Y0063942D02*
Y0063589D01*
X-0090706Y0059630D02*
X-0091200D01*
X-0089450Y0060000D02*
Y0059930D01*
X-0090401Y0059050D02*
X-0091200D01*
X-0089990Y0060000D02*
Y0059897D01*
X-0090510Y0060240D02*
Y0059897D01*
X-0089720Y0062869D02*
Y0061859D01*
X-0090808Y0064310D02*
X-0091200D01*
X-0081620Y0067990D02*
Y0067238D01*
X-0072050Y0066560D02*
X-0074240D01*
X-0085940Y0067990D02*
Y0067927D01*
X-0082700Y0069932D02*
Y0069260D01*
X-0085310Y0059140D02*
Y0059050D01*
X-0090260Y0065750D02*
Y0064858D01*
X-0091010Y0063140D02*
X-0091200D01*
X-0090080Y0065750D02*
Y0065038D01*
X-0086210Y0063240D02*
Y0062250D01*
X-0089258Y0066470D02*
X-0089550D01*
X-0091010Y0062870D02*
X-0091200D01*
X-0086030Y0063240D02*
Y0062852D01*
X-0083880Y0062330D02*
X-0084557D01*
X-0089450Y0063200D02*
Y0061000D01*
X-0087250Y0065678D02*
Y0065400D01*
X-0085151Y0063950D02*
X-0085303D01*
X-0084860Y0063046D02*
Y0062953D01*
X-0090460Y0068090D02*
X-0091200D01*
X-0086390Y0063240D02*
Y0059050D01*
X-0076670Y0077088D02*
Y0076510D01*
X-0075680Y0075805D02*
Y0074260D01*
X-0089720Y0065750D02*
Y0065260D01*
X-0077750Y0075920D02*
X-0079250D01*
X-0072975Y0075650D02*
X-0080282D01*
X-0072975Y0075560D02*
X-0080192D01*
X-0079910Y0081042D02*
Y0076750D01*
Y0075750D02*
Y0075450D01*
X-0077750Y0076640D02*
X-0079250D01*
X-0081188Y0076820D02*
X-0081452D01*
X-0081990Y0081353D02*
Y0077358D01*
X-0081806Y0078170D02*
X-0081990D01*
X-0081350Y0078076D02*
Y0077924D01*
X-0077120Y0074252D02*
Y0073760D01*
X-0080558Y0076190D02*
X-0080822D01*
X-0077930Y0079740D02*
Y0076510D01*
X-0078020Y0079740D02*
Y0076510D01*
X-0076130Y0075990D02*
Y0075434D01*
X-0081056Y0077424D02*
X-0080250Y0076618D01*
X-0085118Y0080000D02*
X-0083871Y0078754D01*
X-0082510Y0078800D02*
X-0083164D01*
X-0082510Y0078890D02*
X-0083275D01*
X-0078748Y0079880D02*
X-0081990D01*
X-0082510Y0080060D02*
X-0083450D01*
X-0082510Y0078710D02*
X-0083102D01*
X-0082510Y0081320D02*
X-0083049D01*
X-0083060Y0079174D02*
Y0078594D01*
X-0084450Y0080240D02*
X-0084622D01*
X-0083898Y0078710D02*
X-0084889D01*
X-0085670Y0081275D02*
Y0081000D01*
X-0084450Y0080690D02*
X-0084750D01*
X-0085510Y0081275D02*
Y0081000D01*
X-0084590Y0081419D02*
Y0080208D01*
X-0082991Y0079880D02*
X-0084262D01*
X-0082882Y0079070D02*
X-0083452D01*
X-0073760Y0062600D02*
X-0074000D01*
X-0077210Y0063740D02*
Y0063403D01*
X-0078650Y0079787D02*
Y0076510D01*
X-0075000Y0061070D02*
X-0075504D01*
X-0074780Y0066433D02*
Y0064260D01*
X-0076580Y0065802D02*
Y0064260D01*
X-0081424Y0077056D02*
X-0080436Y0076068D01*
X-0087840Y0062870D02*
X-0089719D01*
X-0077300Y0063740D02*
Y0063250D01*
X-0085118Y0080000D02*
X-0085750D01*
X-0077205Y0063410D02*
X-0077534D01*
X-0078368Y0060800D02*
X-0078847D01*
X-0073694Y0063500D02*
X-0073882D01*
X-0090260Y0069357D02*
Y0068460D01*
X-0074198Y0069080D02*
X-0075029D01*
X-0073760Y0069890D02*
X-0074272D01*
X-0073790Y0070156D02*
Y0069448D01*
X-0075659Y0069260D02*
X-0077275D01*
X-0073920Y0070340D02*
X-0074722D01*
X-0091010Y0061340D02*
X-0091200D01*
X-0084050Y0059090D02*
X-0084761D01*
X-0085221Y0060080D02*
X-0085250D01*
X-0081010Y0067010D02*
X-0081392D01*
X-0086120Y0063240D02*
Y0062756D01*
X-0085449Y0066020D02*
X-0085750D01*
X-0084860Y0069700D02*
Y0069428D01*
X-0085400Y0068794D02*
Y0068699D01*
X-0084590Y0067240D02*
Y0066205D01*
X-0086158Y0066560D02*
X-0086405D01*
X-0086210Y0065300D02*
Y0065000D01*
Y0066656D02*
Y0066300D01*
X-0085130Y0067002D02*
Y0066431D01*
X-0086300Y0066597D02*
Y0066300D01*
X-0085403Y0066200D02*
X-0085750D01*
X-0089998Y0065120D02*
X-0091200D01*
X-0078740Y0072740D02*
Y0072510D01*
X-0079370Y0059744D02*
Y0059550D01*
X-0078470Y0074648D02*
Y0073892D01*
X-0084050Y0063240D02*
Y0062250D01*
X-0074760Y0065120D02*
X-0077740D01*
X-0077660Y0066000D02*
Y0065760D01*
X-0085310Y0063140D02*
Y0062859D01*
X-0085220Y0059079D02*
Y0059050D01*
X-0088280Y0063740D02*
Y0061000D01*
X-0082610Y0069480D02*
Y0069260D01*
X-0085931Y0067936D02*
X-0086424Y0067443D01*
X-0085940Y0063240D02*
Y0062908D01*
X-0083874Y0064940D02*
X-0084525D01*
X-0085220Y0069700D02*
Y0069392D01*
X-0080000Y0071490D02*
Y0071368D01*
X-0081388Y0069980D02*
X-0081652D01*
X-0079948Y0071420D02*
X-0080212D01*
X-0083240Y0070689D02*
Y0070200D01*
X-0078450Y0070970D02*
X-0078750D01*
X-0078450Y0070790D02*
X-0078750D01*
X-0080450Y0071182D02*
Y0070918D01*
X-0091025Y0070970D02*
X-0091200D01*
X-0080668Y0070700D02*
X-0080932D01*
X-0081350Y0070282D02*
Y0070018D01*
X-0081620Y0071012D02*
Y0070748D01*
X-0080360Y0071272D02*
Y0071008D01*
X-0077750Y0070000D02*
Y0069975D01*
X-0078250Y0067640D02*
X-0078272D01*
X-0080218Y0071150D02*
X-0080482D01*
X-0080488Y0070880D02*
X-0080752D01*
X-0077298Y0070430D02*
X-0077450D01*
X-0079850Y0071490D02*
X-0080142D01*
X-0080398Y0070970D02*
X-0080662D01*
X-0077388Y0070520D02*
X-0077450D01*
X-0075153Y0070035D02*
X-0075046Y0069929D01*
X-0074648Y0069530D02*
X-0074776D01*
X-0073700Y0069584D02*
Y0069447D01*
X-0078450Y0070700D02*
X-0078750D01*
X-0072050Y0062150D02*
X-0073240D01*
X-0076940Y0070240D02*
Y0067510D01*
X-0074760Y0060890D02*
X-0075572D01*
X-0073739Y0059090D02*
X-0074261D01*
X-0072050Y0062240D02*
X-0073240D01*
X-0074060Y0068674D02*
Y0063678D01*
X-0072050Y0063860D02*
X-0074240D01*
X-0078462Y0061610D02*
X-0079492D01*
X-0080708Y0061340D02*
X-0080852D01*
X-0080348Y0060980D02*
X-0087393D01*
X-0081585Y0061250D02*
X-0081750D01*
X-0078920Y0060694D02*
Y0060443D01*
X-0078475Y0059630D02*
X-0078744D01*
X-0077250Y0059990D02*
X-0078550D01*
X-0082340Y0061050D02*
Y0060750D01*
X-0077030Y0059750D02*
Y0059050D01*
X-0085400Y0063240D02*
Y0062783D01*
X-0083060Y0061250D02*
Y0060950D01*
X-0078376Y0061790D02*
X-0079672D01*
X-0072050Y0065120D02*
X-0074240D01*
X-0079640Y0060272D02*
Y0059550D01*
X-0079460Y0062180D02*
Y0061578D01*
X-0077570Y0066000D02*
Y0065760D01*
X-0077480Y0063740D02*
Y0063250D01*
X-0078920Y0062252D02*
Y0061306D01*
X-0077358Y0065760D02*
X-0077892D01*
X-0078250Y0067730D02*
X-0078379D01*
X-0074760Y0060710D02*
X-0074950D01*
X-0078728Y0068360D02*
X-0080522D01*
X-0080810Y0068072D02*
Y0067558D01*
X-0077300Y0060950D02*
Y0059050D01*
X-0076250Y0066990D02*
X-0077250D01*
Y0065240D02*
X-0077740D01*
X-0078740Y0068372D02*
Y0067760D01*
X-0081530Y0067990D02*
Y0067148D01*
X-0078110Y0060038D02*
Y0059975D01*
X-0081440Y0060054D02*
Y0059550D01*
X-0079250Y0075450D02*
X-0080082D01*
X-0078576Y0062556D02*
X-0078814Y0062318D01*
X-0080630Y0068252D02*
Y0067725D01*
X-0076850Y0066990D02*
Y0066939D01*
X-0074760Y0059990D02*
X-0074950D01*
X-0074760Y0060260D02*
X-0074950D01*
X-0086852Y0067280D02*
X-0087398D01*
X-0077436Y0070568D02*
X-0077186Y0070318D01*
X-0074760Y0060620D02*
X-0074950D01*
X-0078380Y0068012D02*
Y0067730D01*
X-0090840Y0069440D02*
X-0091200D01*
X-0080010Y0074120D02*
X-0081700D01*
X-0077030Y0074162D02*
Y0073760D01*
X-0072980Y0082200D02*
Y0076260D01*
X-0077480Y0075750D02*
Y0075450D01*
X-0077210Y0075750D02*
Y0075450D01*
X-0077120Y0075750D02*
Y0075450D01*
X-0074500Y0074480D02*
X-0076612D01*
X-0083420Y0070509D02*
Y0070166D01*
X-0076580Y0074694D02*
Y0074448D01*
X-0074500Y0074750D02*
X-0075876D01*
X-0074500Y0074840D02*
X-0075829D01*
X-0074500Y0074930D02*
X-0075805D01*
X-0076760Y0075750D02*
Y0075450D01*
X-0074500Y0075110D02*
X-0075813D01*
X-0074500Y0075200D02*
X-0075847D01*
X-0074500Y0075290D02*
X-0075906D01*
X-0078920Y0075990D02*
Y0075416D01*
X-0078290Y0075990D02*
Y0075260D01*
X-0077840Y0074740D02*
Y0073760D01*
X-0078020Y0074740D02*
Y0073887D01*
X-0077750Y0074480D02*
X-0079250D01*
X-0074500Y0075380D02*
X-0076009D01*
X-0088100Y0064482D02*
Y0064260D01*
X-0075680Y0062490D02*
Y0061972D01*
X-0077030Y0075750D02*
Y0075450D01*
X-0076940Y0075750D02*
Y0075450D01*
X-0076850Y0075750D02*
Y0075450D01*
X-0077750Y0075260D02*
X-0078383D01*
X-0077750Y0074570D02*
X-0078617D01*
X-0079124Y0074750D02*
X-0079250D01*
X-0077750Y0075830D02*
X-0079250D01*
X-0077930Y0081399D02*
Y0081260D01*
X-0078920Y0074583D02*
Y0073260D01*
X-0086840Y0066705D02*
Y0064760D01*
X-0077300Y0075750D02*
Y0075450D01*
X-0088010Y0064392D02*
Y0064260D01*
X-0078200Y0075990D02*
Y0075260D01*
X-0075320Y0066030D02*
Y0064260D01*
X-0079100Y0075990D02*
Y0075283D01*
X-0079538Y0060170D02*
X-0081194D01*
X-0084892Y0067240D02*
X-0085306Y0066826D01*
X-0077750Y0074740D02*
X-0078383D01*
X-0090958Y0069710D02*
X-0091200D01*
X-0080990Y0076622D02*
Y0076358D01*
X-0075410Y0066053D02*
Y0064260D01*
X-0079550Y0075750D02*
Y0075450D01*
X-0084688Y0065570D02*
X-0084867D01*
X-0083878Y0065030D02*
X-0086880D01*
X-0083842Y0064850D02*
X-0084525D01*
X-0085444Y0065930D02*
X-0085750D01*
X-0084598Y0065480D02*
X-0085750D01*
X-0085420Y0065840D02*
X-0085750D01*
X-0085220Y0065607D02*
Y0064975D01*
X-0086006Y0066380D02*
X-0088012D01*
X-0075838Y0077720D02*
X-0081107D01*
X-0077480Y0062250D02*
Y0061950D01*
X-0073973Y0059540D02*
X-0074027D01*
X-0074950Y0059750D02*
X-0075096D01*
X-0074960D02*
Y0059617D01*
Y0059383D02*
Y0059050D01*
X-0074953Y0059360D02*
X-0075046D01*
X-0073850Y0059180D02*
X-0074149D01*
X-0074850D02*
X-0075149D01*
X-0077500Y0062510D02*
X-0077525D01*
X-0077210Y0065243D02*
Y0064260D01*
X-0076220Y0070240D02*
Y0067648D01*
X-0075724Y0066470D02*
X-0076301D01*
X-0074780Y0067433D02*
Y0066566D01*
X-0074870Y0067215D02*
Y0066784D01*
X-0074960Y0067124D02*
Y0066876D01*
X-0075050Y0067069D02*
Y0066930D01*
X-0075140Y0067038D02*
Y0066962D01*
X-0075230Y0067026D02*
Y0066974D01*
X-0075320Y0067030D02*
Y0066969D01*
X-0075410Y0067053D02*
Y0066947D01*
X-0086030Y0067990D02*
Y0067838D01*
X-0072050Y0066020D02*
X-0074240D01*
X-0072050Y0065750D02*
X-0074240D01*
X-0072050Y0065930D02*
X-0074240D01*
X-0072050Y0066920D02*
X-0074240D01*
X-0074690Y0069572D02*
Y0068558D01*
X-0072050Y0068000D02*
X-0074240D01*
X-0074760Y0066650D02*
X-0074799D01*
X-0072050Y0066470D02*
X-0074240D01*
X-0072050Y0066380D02*
X-0074240D01*
X-0074760Y0066290D02*
X-0074824D01*
X-0075098Y0069980D02*
X-0079402D01*
X-0075590Y0068169D02*
Y0067831D01*
X-0078650Y0068282D02*
Y0067760D01*
X-0075500Y0067096D02*
Y0066903D01*
X-0075050Y0068069D02*
Y0067930D01*
X-0075140Y0068038D02*
Y0067962D01*
X-0075230Y0068026D02*
Y0067974D01*
X-0075320Y0068030D02*
Y0067969D01*
X-0075410Y0068053D02*
Y0067947D01*
X-0074760Y0066200D02*
X-0074882D01*
X-0072050Y0066740D02*
X-0074240D01*
X-0074760Y0067730D02*
X-0074835D01*
X-0074558Y0069440D02*
X-0074779D01*
X-0072050Y0066200D02*
X-0074240D01*
X-0072050Y0066110D02*
X-0074240D01*
X-0072050Y0067730D02*
X-0074240D01*
X-0074760Y0067640D02*
X-0074796D01*
X-0072050D02*
X-0074240D01*
X-0074510Y0070740D02*
Y0070128D01*
X-0074780Y0069662D02*
Y0069566D01*
X-0075500Y0068096D02*
Y0067903D01*
X-0074870Y0069215D02*
Y0068784D01*
X-0074960Y0069124D02*
Y0068876D01*
X-0075050Y0069069D02*
Y0068930D01*
X-0075140Y0069038D02*
Y0068962D01*
X-0074760Y0064850D02*
X-0077679D01*
X-0074468Y0069350D02*
X-0074799D01*
X-0078380Y0070000D02*
Y0069797D01*
X-0075132Y0076820D02*
X-0076117D01*
X-0072050Y0066650D02*
X-0074240D01*
X-0074288Y0069170D02*
X-0074909D01*
X-0075230Y0070026D02*
Y0069974D01*
X-0075320Y0070030D02*
Y0069969D01*
X-0075410Y0070053D02*
Y0069947D01*
X-0076760Y0070240D02*
Y0067510D01*
X-0074150Y0070740D02*
Y0069768D01*
X-0073648Y0069530D02*
X-0073912D01*
X-0073795Y0070160D02*
X-0074542D01*
X-0078560Y0068192D02*
Y0067760D01*
X-0074760Y0065210D02*
X-0077740D01*
X-0073430Y0068683D02*
Y0063727D01*
X-0075471Y0069080D02*
X-0077275D01*
X-0075500Y0070096D02*
Y0069903D01*
X-0073808Y0062690D02*
X-0074000D01*
X-0075680Y0069299D02*
Y0068701D01*
X-0073903Y0070700D02*
X-0074819D01*
X-0074738Y0069620D02*
X-0074791D01*
X-0073970Y0070740D02*
Y0069588D01*
X-0085383Y0062780D02*
X-0085398D01*
X-0081946Y0078440D02*
X-0081990D01*
X-0073944Y0070430D02*
X-0074780D01*
X-0075230Y0069026D02*
Y0068974D01*
X-0072050Y0067460D02*
X-0074240D01*
X-0072050Y0074480D02*
X-0073500D01*
X-0073880Y0070740D02*
X-0074500D01*
X-0072831Y0074660D02*
X-0073500D01*
X-0072050Y0074849D02*
Y0074151D01*
X-0072080Y0074779D02*
Y0074221D01*
X-0072170Y0074659D02*
Y0074341D01*
X-0072260Y0074590D02*
Y0074409D01*
X-0072350Y0074549D02*
Y0074450D01*
X-0072440Y0074529D02*
Y0074471D01*
X-0072530Y0074526D02*
Y0074474D01*
X-0072620Y0074541D02*
Y0074459D01*
X-0072710Y0074574D02*
Y0074426D01*
X-0072890Y0074729D02*
Y0074270D01*
X-0072050Y0074390D02*
X-0072229D01*
X-0072050Y0074300D02*
X-0072132D01*
X-0072050Y0074210D02*
X-0072074D01*
X-0074330Y0075750D02*
Y0075450D01*
X-0072800Y0074632D02*
Y0074368D01*
X-0072050Y0075525D02*
Y0075151D01*
X-0072080Y0075525D02*
Y0075221D01*
X-0072170Y0075525D02*
Y0075341D01*
X-0072260Y0075525D02*
Y0075409D01*
X-0072350Y0075525D02*
Y0075450D01*
X-0072440Y0075525D02*
Y0075471D01*
X-0072530Y0075525D02*
Y0075474D01*
X-0072620Y0075525D02*
Y0075459D01*
X-0072710Y0075525D02*
Y0075426D01*
X-0072890Y0075525D02*
Y0075270D01*
X-0072050Y0075470D02*
X-0072433D01*
X-0072050Y0075380D02*
X-0072215D01*
X-0072050Y0075290D02*
X-0072124D01*
X-0072050Y0075200D02*
X-0072069D01*
X-0072050Y0074750D02*
X-0072096D01*
X-0072800Y0075525D02*
Y0075368D01*
X-0072050Y0082200D02*
Y0076475D01*
Y0074570D02*
X-0072299D01*
X-0072080Y0082200D02*
Y0076475D01*
X-0072170Y0082200D02*
Y0076475D01*
X-0072260Y0082200D02*
Y0076475D01*
X-0072350Y0082200D02*
Y0076475D01*
X-0072440Y0082200D02*
Y0076475D01*
X-0072530Y0082200D02*
Y0076475D01*
X-0072620Y0082200D02*
Y0076475D01*
X-0072710Y0082200D02*
Y0076475D01*
X-0072800Y0082200D02*
Y0076475D01*
X-0072890Y0082200D02*
Y0076475D01*
X-0082750Y0059900D02*
X-0084744D01*
X-0084590Y0059950D02*
Y0059739D01*
X-0079439Y0059900D02*
X-0081750D01*
X-0084050Y0059180D02*
X-0084649D01*
X-0078341Y0060170D02*
X-0078583D01*
X-0085220Y0060079D02*
Y0059920D01*
X-0086210Y0059950D02*
Y0059050D01*
X-0085310Y0061140D02*
Y0060950D01*
X-0084050Y0059450D02*
X-0084528D01*
X-0084050Y0059360D02*
X-0084546D01*
X-0075050Y0059750D02*
Y0059651D01*
X-0085239Y0059090D02*
X-0087775D01*
X-0085580Y0059950D02*
Y0059050D01*
X-0084750Y0059990D02*
X-0085250D01*
X-0084770Y0060085D02*
Y0059915D01*
X-0084680Y0059950D02*
Y0059850D01*
X-0084950Y0060028D02*
Y0059972D01*
X-0085040Y0060027D02*
Y0059973D01*
X-0083960Y0061250D02*
Y0060950D01*
X-0082520Y0059750D02*
Y0059550D01*
X-0079898Y0060530D02*
X-0081051D01*
X-0078474D02*
X-0079162D01*
X-0078474Y0061520D02*
X-0079402D01*
X-0078830Y0060838D02*
Y0060416D01*
X-0083240Y0059950D02*
Y0059550D01*
X-0084860Y0060046D02*
Y0059953D01*
X-0084750Y0060080D02*
X-0084779D01*
X-0085310Y0059950D02*
Y0059859D01*
X-0084770Y0061085D02*
Y0060915D01*
X-0084860Y0061046D02*
Y0060953D01*
X-0084950Y0061028D02*
Y0060972D01*
X-0085130Y0061043D02*
Y0060956D01*
X-0085250Y0060096D02*
Y0059950D01*
X-0086210Y0061250D02*
Y0060950D01*
X-0085745Y0061250D02*
X-0086250D01*
X-0091010Y0061430D02*
X-0091200D01*
X-0087898Y0061160D02*
X-0089661D01*
X-0085040Y0061027D02*
Y0060973D01*
X-0081474Y0061160D02*
X-0081750D01*
X-0081874Y0060750D02*
X-0082750D01*
X-0085320Y0061150D02*
X-0085500D01*
X-0084770Y0063085D02*
Y0062915D01*
X-0084950Y0063028D02*
Y0062972D01*
X-0085040Y0063027D02*
Y0062973D01*
X-0086300Y0063240D02*
Y0059050D01*
X-0083780Y0064767D02*
Y0064732D01*
X-0089500Y0063230D02*
X-0089550D01*
X-0083877Y0062960D02*
X-0084883D01*
X-0083880Y0062780D02*
X-0084617D01*
X-0083880Y0062690D02*
X-0084565D01*
X-0084140Y0063240D02*
Y0062250D01*
X-0082750Y0059950D02*
X-0083750D01*
X-0083690Y0061250D02*
Y0060950D01*
X-0083880Y0062510D02*
X-0084525D01*
X-0083848Y0063140D02*
X-0084690D01*
X-0084680Y0064025D02*
Y0063850D01*
Y0063149D02*
Y0062850D01*
X-0086120Y0059950D02*
Y0059050D01*
X-0084950Y0064025D02*
Y0063972D01*
X-0080438Y0061070D02*
X-0081750D01*
X-0084750Y0060096D02*
Y0059950D01*
X-0085130Y0064025D02*
Y0063956D01*
X-0086166Y0062330D02*
X-0090490D01*
X-0085309Y0063140D02*
X-0087002D01*
X-0081750Y0059990D02*
Y0059750D01*
X-0083824Y0062820D02*
X-0083880D01*
X-0079718Y0060350D02*
X-0081076D01*
X-0084590Y0062261D02*
Y0062250D01*
X-0074600Y0069482D02*
Y0068468D01*
X-0073880Y0070259D02*
Y0069498D01*
X-0083876Y0063950D02*
X-0084849D01*
X-0083852Y0062870D02*
X-0084702D01*
X-0083852Y0064130D02*
X-0084525D01*
X-0083876Y0063050D02*
X-0084849D01*
X-0084770Y0064025D02*
Y0063915D01*
X-0085040Y0064025D02*
Y0063973D01*
X-0085309Y0063860D02*
X-0085322D01*
X-0085297Y0062870D02*
X-0085494D01*
X-0083801Y0065210D02*
X-0086880D01*
X-0085040Y0065552D02*
Y0064975D01*
X-0085310Y0066655D02*
Y0066326D01*
X-0083870Y0064920D02*
Y0064579D01*
X-0083817Y0064310D02*
X-0084525D01*
X-0084590Y0063240D02*
Y0062739D01*
X-0083782Y0063770D02*
X-0084609D01*
X-0081350Y0060076D02*
Y0059550D01*
X-0083880Y0064490D02*
X-0084525D01*
X-0083848Y0063860D02*
X-0084690D01*
X-0086750Y0065750D02*
X-0087240D01*
X-0090898Y0060530D02*
X-0091200D01*
X-0083792Y0064220D02*
X-0084525D01*
X-0085759Y0068630D02*
X-0086241D01*
X-0075320Y0075990D02*
Y0074260D01*
X-0086570Y0063249D02*
Y0059050D01*
X-0085490Y0069700D02*
Y0068710D01*
X-0084510Y0066560D02*
X-0085342D01*
X-0082750Y0061490D02*
Y0061250D01*
X-0085132Y0065570D02*
X-0085750D01*
X-0080090Y0071490D02*
Y0071278D01*
X-0082700Y0071229D02*
Y0070668D01*
X-0085857Y0068540D02*
X-0086143D01*
X-0085220Y0064025D02*
Y0063920D01*
X-0074760Y0065570D02*
X-0076812D01*
X-0072050Y0065840D02*
X-0074240D01*
X-0074760Y0065660D02*
X-0076722D01*
X-0074760Y0064760D02*
X-0077603D01*
X-0074760Y0064670D02*
X-0077557D01*
X-0075140Y0062490D02*
Y0060750D01*
X-0077010Y0066133D02*
Y0066108D01*
X-0085475Y0064580D02*
X-0085750D01*
X-0077750Y0066000D02*
Y0065760D01*
X-0083870Y0063240D02*
Y0063079D01*
X-0074760Y0064580D02*
X-0077532D01*
X-0074760Y0064400D02*
X-0077536D01*
X-0072980Y0062817D02*
Y0061911D01*
X-0085510Y0081000D02*
X-0085750D01*
X-0077500Y0063140D02*
X-0077690D01*
X-0077130Y0063740D02*
X-0077590D01*
X-0076760Y0062250D02*
Y0061950D01*
X-0078020Y0063026D02*
Y0062974D01*
X-0077162Y0063680D02*
X-0077561D01*
X-0086750Y0065390D02*
X-0086880D01*
X-0076490Y0066000D02*
Y0064260D01*
X-0077390Y0065240D02*
Y0064260D01*
X-0075140Y0066038D02*
Y0064260D01*
X-0090479Y0062960D02*
X-0090490D01*
X-0075892Y0067240D02*
X-0076064Y0067068D01*
X-0077500Y0063230D02*
X-0077609D01*
X-0077930Y0063030D02*
Y0062969D01*
X-0077500Y0063050D02*
X-0077849D01*
X-0077500Y0061760D02*
X-0077603D01*
X-0077500Y0062780D02*
X-0077617D01*
X-0077500Y0062690D02*
X-0077565D01*
X-0077500Y0062600D02*
X-0077536D01*
X-0076760Y0060950D02*
X-0077500D01*
X-0087984Y0063410D02*
X-0088500D01*
X-0078320Y0062150D02*
X-0080032D01*
X-0077570Y0063299D02*
Y0062701D01*
X-0077660Y0063169D02*
Y0062831D01*
X-0077750Y0063096D02*
Y0062903D01*
X-0077840Y0063053D02*
Y0062947D01*
X-0078560Y0062554D02*
Y0060094D01*
X-0078200Y0062069D02*
Y0061930D01*
X-0073949Y0070520D02*
X-0074776D01*
X-0077390Y0063740D02*
Y0063250D01*
X-0087560Y0062743D02*
Y0061985D01*
X-0077930Y0062030D02*
Y0061969D01*
X-0077500Y0062420D02*
X-0077532D01*
X-0081010Y0067250D02*
Y0066628D01*
X-0082070Y0067750D02*
Y0067688D01*
X-0074158Y0068810D02*
X-0074890D01*
X-0077500Y0061880D02*
X-0077715D01*
X-0086158Y0062690D02*
X-0090490D01*
X-0080433Y0062551D02*
X-0079326Y0061443D01*
X-0077500Y0062960D02*
X-0077883D01*
X-0077660Y0062169D02*
Y0061831D01*
X-0077750Y0062096D02*
Y0061903D01*
X-0078200Y0061069D02*
Y0060930D01*
X-0076760Y0062240D02*
X-0077603D01*
X-0076760Y0062060D02*
X-0077822D01*
X-0077250Y0060350D02*
X-0077549D01*
X-0077750Y0061096D02*
Y0060903D01*
X-0077250Y0060710D02*
X-0077574D01*
X-0077250Y0060620D02*
X-0077541D01*
X-0077250Y0060530D02*
X-0077526D01*
X-0077930Y0060030D02*
Y0059975D01*
X-0078020Y0060026D02*
Y0059975D01*
X-0091010Y0063770D02*
X-0091200D01*
X-0084770Y0067240D02*
Y0066387D01*
X-0078426Y0060710D02*
X-0078906D01*
X-0078110Y0062038D02*
Y0061962D01*
X-0077660Y0061169D02*
Y0060831D01*
X-0077250Y0060440D02*
X-0077529D01*
X-0077840Y0061053D02*
Y0060947D01*
X-0077930Y0061030D02*
Y0060969D01*
X-0076940Y0060950D02*
Y0060750D01*
X-0076760Y0060890D02*
X-0077729D01*
X-0081800Y0059750D02*
Y0059550D01*
X-0084050Y0059270D02*
X-0084585D01*
X-0077840Y0060053D02*
Y0059975D01*
X-0072050Y0059050D02*
X-0072349D01*
X-0076975Y0059720D02*
X-0077525D01*
X-0076975Y0059630D02*
X-0077525D01*
X-0076975Y0059540D02*
X-0077525D01*
X-0076975Y0059750D02*
X-0077250D01*
X-0076975Y0059360D02*
X-0077525D01*
X-0076975Y0059270D02*
X-0077525D01*
X-0077250Y0059900D02*
X-0077525D01*
X-0078020Y0061026D02*
Y0060974D01*
X-0077570Y0060299D02*
Y0059975D01*
X-0077660Y0060169D02*
Y0059975D01*
X-0077750Y0060096D02*
Y0059975D01*
X-0078475Y0059050D02*
X-0079200D01*
X-0077480Y0060950D02*
Y0059050D01*
X-0088820Y0060000D02*
Y0059701D01*
X-0088730Y0060000D02*
Y0059050D01*
X-0090460Y0067730D02*
X-0091200D01*
X-0090670Y0059720D02*
X-0091200D01*
X-0088950Y0060350D02*
X-0089250D01*
X-0086250Y0062060D02*
X-0090490D01*
X-0089810Y0060000D02*
Y0059678D01*
X-0089931Y0065186D02*
X-0090931Y0064186D01*
X-0089250Y0061000D02*
X-0089883D01*
X-0090975Y0064130D02*
X-0091200D01*
X-0088725Y0059270D02*
X-0088835D01*
X-0090600Y0060260D02*
X-0091200D01*
X-0088725Y0059180D02*
X-0088899D01*
X-0088100Y0060000D02*
Y0059975D01*
X-0090723Y0059540D02*
X-0091200D01*
X-0088725Y0059050D02*
X-0089099D01*
X-0089630Y0060000D02*
Y0059784D01*
X-0078475Y0059090D02*
X-0079200D01*
X-0088725Y0059720D02*
X-0088829D01*
X-0088370Y0060000D02*
Y0059975D01*
X-0088460Y0060000D02*
Y0059975D01*
X-0088010Y0060000D02*
Y0059975D01*
X-0089090Y0064500D02*
Y0064200D01*
X-0088640Y0063200D02*
Y0061000D01*
X-0088730Y0063200D02*
Y0061000D01*
X-0089990Y0060000D02*
Y0059897D01*
X-0088725Y0059540D02*
X-0088777D01*
X-0089270Y0060000D02*
Y0059974D01*
X-0089423Y0067820D02*
X-0089540D01*
X-0084320Y0061200D02*
Y0060950D01*
X-0085456Y0059630D02*
X-0087775D01*
X-0089630Y0059215D02*
Y0059050D01*
X-0088725Y0059450D02*
X-0088778D01*
X-0085472D02*
X-0087775D01*
X-0085415Y0059270D02*
X-0087775D01*
X-0088370Y0064740D02*
Y0064260D01*
X-0091010Y0062150D02*
X-0091200D01*
X-0088280Y0060000D02*
Y0059975D01*
X-0088910Y0060000D02*
Y0059831D01*
X-0088640Y0060000D02*
Y0059975D01*
X-0089250Y0065840D02*
X-0089550D01*
X-0087830Y0061090D02*
Y0059975D01*
X-0089250Y0065930D02*
X-0089550D01*
X-0088820Y0063200D02*
Y0061000D01*
X-0078380Y0062215D02*
Y0061784D01*
X-0088725Y0059630D02*
X-0088793D01*
X-0087775Y0059975D02*
Y0059050D01*
X-0085151D02*
X-0087775D01*
X-0085255Y0059900D02*
X-0087775D01*
X-0085359Y0059810D02*
X-0087775D01*
X-0085420Y0059720D02*
X-0087775D01*
X-0088725Y0059360D02*
X-0088796D01*
X-0085473Y0059540D02*
X-0087775D01*
X-0090710Y0059383D02*
Y0059050D01*
X-0079176Y0069710D02*
X-0079324D01*
X-0078740Y0070990D02*
Y0069974D01*
X-0079209Y0069620D02*
X-0079291D01*
X-0079190Y0070000D02*
Y0069678D01*
X-0072800Y0061239D02*
Y0059868D01*
X-0079010Y0070000D02*
Y0069897D01*
Y0081142D02*
Y0080878D01*
X-0077750Y0076730D02*
X-0079250D01*
X-0085040Y0079922D02*
Y0078861D01*
X-0089530Y0069710D02*
X-0090042D01*
X-0079200Y0069350D02*
X-0079299D01*
X-0078920Y0070000D02*
Y0069943D01*
X-0079020Y0069890D02*
X-0079479D01*
X-0079118Y0069800D02*
X-0079382D01*
X-0077930Y0070000D02*
Y0069975D01*
X-0077570Y0070000D02*
Y0069975D01*
X-0078225Y0069260D02*
X-0078340D01*
X-0076699Y0077270D02*
X-0080902D01*
X-0090440Y0069294D02*
Y0068460D01*
X-0075609Y0068810D02*
X-0078442D01*
X-0075581Y0070160D02*
X-0077450D01*
X-0078830Y0070000D02*
Y0069968D01*
X-0078110Y0070000D02*
Y0069975D01*
X-0079100Y0070000D02*
Y0069820D01*
X-0078225Y0069890D02*
X-0078479D01*
X-0078225Y0069800D02*
X-0078382D01*
X-0078225Y0069710D02*
X-0078324D01*
X-0078225Y0069620D02*
X-0078291D01*
X-0078225Y0069530D02*
X-0078276D01*
X-0078225Y0069440D02*
X-0078279D01*
X-0089500Y0064670D02*
X-0089712D01*
X-0077188Y0065930D02*
X-0078062D01*
X-0078020Y0070000D02*
Y0069975D01*
X-0078225Y0069350D02*
X-0078299D01*
X-0078200Y0070000D02*
Y0069975D01*
X-0077480Y0070000D02*
Y0069975D01*
X-0084098Y0078980D02*
X-0085159D01*
X-0078450Y0070250D02*
X-0078750D01*
X-0077570Y0069025D02*
Y0068300D01*
X-0078450Y0070070D02*
X-0078750D01*
X-0077840Y0070000D02*
Y0069975D01*
X-0089550Y0070610D02*
X-0089975D01*
X-0075140Y0059190D02*
Y0059050D01*
X-0077660Y0070000D02*
Y0069975D01*
X-0075680Y0067240D02*
Y0066701D01*
X-0075520Y0069890D02*
X-0077275D01*
X-0075676Y0069710D02*
X-0077275D01*
X-0075709Y0069620D02*
X-0077275D01*
X-0075724Y0069530D02*
X-0077275D01*
X-0075721Y0069440D02*
X-0077275D01*
X-0080010Y0073850D02*
X-0081700D01*
X-0085725Y0081860D02*
X-0086200D01*
X-0079490Y0074450D02*
Y0073367D01*
X-0080010Y0073940D02*
X-0081700D01*
X-0080450Y0076084D02*
Y0075818D01*
X-0078490Y0068858D02*
X-0077932Y0068300D01*
X-0082308Y0071060D02*
X-0082869D01*
X-0080010Y0073760D02*
X-0081700D01*
X-0079382Y0070000D02*
X-0079487Y0069895D01*
X-0082038Y0071330D02*
X-0082599D01*
X-0078470Y0069117D02*
Y0068838D01*
X-0080010Y0074030D02*
X-0081700D01*
X-0084450Y0080150D02*
X-0084532D01*
X-0080198Y0073040D02*
X-0081700D01*
X-0082520Y0079113D02*
Y0076341D01*
X-0084590Y0079472D02*
Y0078411D01*
X-0080066Y0072680D02*
X-0081700D01*
X-0079935Y0072590D02*
X-0081700D01*
X-0084860Y0079742D02*
Y0078681D01*
X-0075618Y0069800D02*
X-0077275D01*
X-0081048Y0072320D02*
X-0081700D01*
X-0081138Y0072230D02*
X-0081704D01*
X-0081678Y0071690D02*
X-0082239D01*
X-0084680Y0079562D02*
Y0078501D01*
X-0088068Y0067318D02*
X-0087750Y0067000D01*
X-0087432Y0066682D02*
X-0087750Y0067000D01*
X-0088068Y0066682D02*
X-0087750Y0067000D01*
X-0087432Y0067318D02*
X-0087750Y0067000D01*
X-0076568Y0075318D02*
X-0076250Y0075000D01*
X-0075932Y0074682D02*
X-0076250Y0075000D01*
X-0076568Y0074682D02*
X-0076250Y0075000D01*
X-0075932Y0075318D02*
X-0076250Y0075000D01*
X-0076568Y0077568D02*
X-0076250Y0077250D01*
X-0075932Y0076932D02*
X-0076250Y0077250D01*
X-0076568Y0076932D02*
X-0076250Y0077250D01*
X-0075932Y0077568D02*
X-0076250Y0077250D01*
X-0081818Y0078818D02*
X-0081500Y0078500D01*
X-0081182Y0078182D02*
X-0081500Y0078500D01*
X-0081818Y0078182D02*
X-0081500Y0078500D01*
X-0081182Y0078818D02*
X-0081500Y0078500D01*
X-0083068Y0079818D02*
X-0082750Y0079500D01*
X-0083068Y0079182D02*
X-0082750Y0079500D01*
X-0090500Y0071525D02*
Y0071000D01*
Y0070475D02*
Y0071000D01*
X-0091025D02*
X-0090500D01*
X-0089975D02*
X-0090500D01*
X-0083880Y0064500D02*
X-0083250D01*
X-0087139Y0062889D02*
X-0087500Y0063250D01*
X-0087860Y0063610D02*
X-0087500Y0063250D01*
X-0087139Y0063610D02*
X-0087500Y0063250D01*
X-0087860Y0062889D02*
X-0087500Y0063250D01*
X-0072889Y0062889D02*
X-0073250Y0063250D01*
X-0073610Y0063610D02*
X-0073250Y0063250D01*
X-0072889Y0063610D02*
X-0073250Y0063250D01*
X-0086880Y0065000D02*
X-0087250D01*
X-0090825Y0070075D02*
X-0090500Y0069750D01*
X-0090175Y0069425D02*
X-0090500Y0069750D01*
X-0090825Y0069425D02*
X-0090500Y0069750D01*
X-0090175Y0070075D02*
X-0090500Y0069750D01*
X-0074000Y0074450D02*
Y0074950D01*
Y0075450D02*
Y0074950D01*
X-0073500D02*
X-0074000D01*
X-0074500D02*
X-0074000D01*
X-0087950Y0060500D02*
X-0088450D01*
X-0088950D02*
X-0088450D01*
Y0061000D02*
Y0060500D01*
Y0060000D02*
Y0060500D01*
X-0083450Y0080500D02*
X-0083950D01*
X-0084450D02*
X-0083950D01*
Y0081000D02*
Y0080500D01*
Y0080000D02*
Y0080500D01*
X-0077450Y0070500D02*
X-0077950D01*
X-0078450D02*
X-0077950D01*
Y0070000D02*
Y0070500D01*
X-0083250Y0059950D02*
Y0060450D01*
Y0060950D02*
Y0060450D01*
X-0083750D02*
X-0083250D01*
X-0085750Y0059950D02*
Y0060450D01*
Y0060950D02*
Y0060450D01*
X-0086250D02*
X-0085750D01*
X-0086250Y0066300D02*
Y0065800D01*
Y0065300D02*
Y0065800D01*
X-0086750D02*
X-0086250D01*
X-0085750D02*
X-0086250D01*
X-0081980Y0059750D02*
Y0059550D01*
X-0084050Y0059950D02*
Y0059500D01*
X-0084230Y0059950D02*
Y0059050D01*
X-0082340Y0059750D02*
Y0059550D01*
X-0086857Y0068540D02*
X-0087143D01*
X-0087470Y0069700D02*
Y0068709D01*
X-0090980Y0071950D02*
Y0071525D01*
X-0080388Y0075020D02*
X-0081700D01*
X-0085040Y0069700D02*
Y0069448D01*
X-0081620Y0078066D02*
Y0077934D01*
X-0085400Y0080000D02*
Y0079221D01*
X-0085490Y0080000D02*
Y0079311D01*
X-0084950Y0069700D02*
Y0069447D01*
X-0081408Y0071960D02*
X-0081969D01*
X-0080900Y0071732D02*
Y0071468D01*
X-0082488Y0070880D02*
X-0083049D01*
X-0085879Y0067990D02*
X-0086120D01*
X-0080181Y0073130D02*
X-0081700D01*
X-0085670Y0080000D02*
Y0079491D01*
X-0085130Y0080000D02*
Y0078951D01*
X-0081890Y0067750D02*
Y0067508D01*
X-0084320Y0079202D02*
Y0078141D01*
X-0080540Y0068342D02*
Y0067757D01*
X-0083330Y0069307D02*
Y0069260D01*
X-0083576Y0069440D02*
X-0084905D01*
X-0083780Y0070149D02*
Y0069260D01*
X-0084320Y0069700D02*
Y0069260D01*
X-0084410Y0069700D02*
Y0069260D01*
X-0088910Y0069541D02*
Y0068451D01*
X-0078458Y0068090D02*
X-0080792D01*
X-0080128Y0071240D02*
X-0080392D01*
X-0081668Y0070700D02*
X-0081932D01*
X-0082970Y0069398D02*
Y0069260D01*
X-0085130Y0069700D02*
Y0069431D01*
X-0082610Y0079072D02*
Y0076431D01*
X-0084500Y0069700D02*
Y0069260D01*
X-0081700Y0067990D02*
Y0067750D01*
X-0084050Y0069879D02*
Y0069260D01*
X-0085400Y0069700D02*
Y0069206D01*
X-0084680Y0069700D02*
Y0069316D01*
X-0085094Y0069440D02*
X-0088160D01*
X-0085295Y0065660D02*
X-0085750D01*
X-0085580Y0069700D02*
Y0068703D01*
X-0082108Y0069260D02*
X-0084633D01*
X-0085750Y0080330D02*
X-0086200D01*
X-0091025Y0071060D02*
X-0091200D01*
X-0083150Y0069311D02*
Y0069260D01*
X-0080642Y0071990D02*
X-0082530Y0070102D01*
X-0081000Y0067990D02*
X-0081700D01*
X-0078368Y0068000D02*
X-0080928D01*
X-0079010Y0068810D02*
X-0080072D01*
X-0079010Y0068900D02*
X-0079982D01*
X-0086390Y0067803D02*
Y0067478D01*
X-0086750Y0067864D02*
Y0067374D01*
X-0086663Y0067820D02*
X-0087336D01*
X-0075500Y0075876D02*
Y0074260D01*
X-0087650Y0066561D02*
Y0066240D01*
X-0087914Y0068450D02*
X-0088904D01*
X-0087946Y0068360D02*
X-0088713D01*
X-0087959Y0068270D02*
X-0088627D01*
X-0087954Y0068180D02*
X-0088577D01*
X-0087931Y0068090D02*
X-0088549D01*
X-0087886Y0068000D02*
X-0088540D01*
X-0088370Y0069309D02*
Y0066750D01*
X-0086750Y0065660D02*
X-0087250D01*
X-0085475Y0064850D02*
X-0085750D01*
X-0086880Y0065400D02*
X-0087250D01*
X-0089450Y0064500D02*
Y0064200D01*
X-0086480Y0065300D02*
Y0065000D01*
X-0079408Y0059810D02*
X-0081750D01*
X-0084500Y0065382D02*
Y0063760D01*
X-0086930Y0063562D02*
Y0059050D01*
X-0086916Y0066830D02*
X-0087333D01*
X-0087920Y0068062D02*
Y0067416D01*
X-0083698Y0069710D02*
X-0084220D01*
X-0089720Y0071950D02*
Y0068460D01*
X-0086930Y0068086D02*
Y0067132D01*
X-0086318Y0067550D02*
X-0088740D01*
X-0086687Y0063320D02*
X-0086995D01*
X-0087920Y0064303D02*
Y0064260D01*
X-0091025Y0070880D02*
X-0091200D01*
X-0088100Y0069523D02*
Y0067283D01*
X-0080250Y0076730D02*
X-0080362D01*
X-0082160Y0071769D02*
Y0071208D01*
X-0083678Y0069890D02*
X-0084039D01*
X-0088957Y0069700D02*
X-0089500D01*
X-0083697Y0069800D02*
X-0084129D01*
X-0088941Y0069620D02*
X-0090059D01*
X-0088904Y0069530D02*
X-0090096D01*
X-0090800Y0069401D02*
Y0064318D01*
X-0090710Y0070475D02*
Y0070159D01*
X-0090800Y0070475D02*
Y0070099D01*
X-0090890Y0070475D02*
Y0069994D01*
X-0090530Y0070475D02*
Y0070209D01*
Y0069291D02*
Y0066750D01*
X-0090080Y0069562D02*
Y0068460D01*
X-0086250Y0060440D02*
X-0087950D01*
X-0087920Y0069700D02*
Y0068437D01*
X-0089550Y0070160D02*
X-0090291D01*
X-0089550Y0070430D02*
X-0091200D01*
X-0083420Y0078057D02*
Y0077241D01*
X-0084250Y0069700D02*
X-0088043D01*
X-0090938Y0069890D02*
X-0091200D01*
X-0089550D02*
X-0090062D01*
X-0089260Y0067370D02*
X-0091200D01*
X-0083637Y0069980D02*
X-0083949D01*
X-0073250Y0082200D02*
Y0076260D01*
X-0073700Y0074450D02*
Y0074260D01*
X-0073430Y0075740D02*
Y0074260D01*
X-0073520Y0075740D02*
Y0075450D01*
X-0075911Y0075830D02*
X-0076750D01*
X-0073880Y0075750D02*
Y0075450D01*
X-0073970Y0075750D02*
Y0075450D01*
X-0074060Y0075750D02*
Y0075450D01*
X-0074150Y0075750D02*
Y0075450D01*
X-0074240Y0075750D02*
Y0075450D01*
X-0080250Y0075920D02*
X-0080552D01*
X-0074420Y0075750D02*
Y0075450D01*
X-0072784Y0075380D02*
X-0073500D01*
X-0072876Y0075290D02*
X-0073500D01*
X-0072930Y0075200D02*
X-0073500D01*
X-0072962Y0075110D02*
X-0073500D01*
X-0072974Y0075020D02*
X-0073500D01*
X-0072969Y0074930D02*
X-0073500D01*
X-0072947Y0074840D02*
X-0073500D01*
X-0072903Y0074750D02*
X-0073500D01*
X-0072701Y0074570D02*
X-0073500D01*
X-0075478Y0077360D02*
X-0075813D01*
X-0072050Y0080690D02*
X-0076572D01*
X-0072050Y0076730D02*
X-0073500D01*
X-0072050Y0076640D02*
X-0073500D01*
X-0075950Y0076914D02*
Y0076653D01*
X-0072050Y0076550D02*
X-0073500D01*
X-0077068Y0081186D02*
X-0073818Y0077936D01*
X-0076085Y0076550D02*
X-0076750D01*
X-0074392Y0077720D02*
X-0075102D01*
X-0073790Y0077102D02*
Y0076750D01*
X-0073880Y0077066D02*
Y0076750D01*
X-0073970Y0077051D02*
Y0076750D01*
X-0074150Y0082200D02*
Y0078268D01*
X-0080468Y0076100D02*
X-0080732D01*
X-0089450Y0067904D02*
Y0065500D01*
X-0086250Y0060530D02*
X-0087950D01*
X-0087990Y0065480D02*
X-0088500D01*
X-0075770Y0062490D02*
Y0061987D01*
X-0087650Y0060991D02*
Y0059050D01*
X-0088550Y0064500D02*
Y0064260D01*
X-0088360Y0065400D02*
Y0065260D01*
X-0089500Y0063590D02*
X-0089679D01*
X-0088550Y0063200D02*
Y0061000D01*
X-0076760Y0060950D02*
Y0060750D01*
X-0083510Y0059950D02*
Y0059550D01*
X-0088950Y0060980D02*
X-0089250D01*
X-0088950Y0060890D02*
X-0089250D01*
X-0088950Y0060800D02*
X-0089250D01*
X-0088950Y0060710D02*
X-0089250D01*
X-0088950Y0060620D02*
X-0089250D01*
X-0088950Y0060530D02*
X-0089250D01*
X-0089630Y0062975D02*
Y0061754D01*
X-0089000Y0065750D02*
Y0065500D01*
X-0088550Y0060000D02*
Y0059975D01*
X-0072050Y0080240D02*
X-0076122D01*
X-0089180Y0064500D02*
Y0064200D01*
X-0089720Y0060000D02*
Y0059566D01*
X-0088190Y0060000D02*
Y0059975D01*
X-0086250Y0060890D02*
X-0087950D01*
X-0086250Y0060800D02*
X-0087950D01*
X-0086250Y0060710D02*
X-0087950D01*
X-0090510Y0060240D02*
Y0059897D01*
X-0088280Y0064600D02*
Y0064260D01*
X-0088100Y0063740D02*
Y0061000D01*
X-0086250Y0060350D02*
X-0087950D01*
X-0086250Y0060260D02*
X-0087950D01*
X-0083060Y0081315D02*
Y0079826D01*
X-0079288Y0080420D02*
X-0081990D01*
X-0083510Y0081353D02*
Y0081000D01*
X-0082510Y0078980D02*
X-0083362D01*
X-0083690Y0081572D02*
Y0081000D01*
X-0083780Y0081683D02*
Y0081000D01*
X-0083870Y0081465D02*
Y0081000D01*
X-0083960Y0081374D02*
Y0081000D01*
X-0084050Y0081319D02*
Y0081000D01*
X-0084140Y0081288D02*
Y0081000D01*
X-0084230Y0081276D02*
Y0081000D01*
X-0078650Y0072740D02*
Y0072706D01*
X-0084230Y0080000D02*
Y0079848D01*
X-0079828Y0080960D02*
X-0081990D01*
X-0079738Y0080870D02*
X-0081990D01*
X-0079648Y0080780D02*
X-0081990D01*
X-0077638Y0079520D02*
X-0081990D01*
X-0079468Y0080600D02*
X-0081990D01*
X-0078380Y0074740D02*
Y0073931D01*
X-0077750Y0075290D02*
X-0078406D01*
X-0079378Y0080510D02*
X-0081990D01*
X-0084410Y0081303D02*
Y0081000D01*
X-0079018Y0080150D02*
X-0081990D01*
X-0072050Y0076475D02*
X-0072975D01*
X-0082510Y0081230D02*
X-0084990D01*
X-0082510Y0080150D02*
X-0083450D01*
X-0084860Y0081275D02*
Y0081000D01*
X-0084950Y0081275D02*
Y0081000D01*
X-0084320Y0081280D02*
Y0081000D01*
X-0079198Y0080330D02*
X-0081990D01*
X-0084450Y0080870D02*
X-0084750D01*
X-0079108Y0080240D02*
X-0081990D01*
X-0081038Y0071330D02*
X-0081302D01*
X-0080308Y0071060D02*
X-0080572D01*
X-0081260Y0070372D02*
Y0070108D01*
X-0080540Y0071092D02*
Y0070828D01*
X-0077210Y0066990D02*
Y0065908D01*
X-0075451Y0070070D02*
X-0077450D01*
X-0077210Y0070342D02*
Y0067510D01*
X-0075647Y0070240D02*
X-0077000D01*
X-0078450Y0070160D02*
X-0078750D01*
X-0080010Y0073580D02*
X-0081700D01*
X-0072050Y0078260D02*
X-0074142D01*
X-0074378Y0069260D02*
X-0074840D01*
X-0080578Y0070790D02*
X-0080842D01*
X-0074500Y0075830D02*
X-0075588D01*
X-0078882Y0074570D02*
X-0079250D01*
X-0081498Y0071870D02*
X-0082059D01*
X-0081010Y0067100D02*
X-0081482D01*
X-0084450Y0080330D02*
X-0084712D01*
X-0082510Y0078530D02*
X-0083051D01*
X-0079091Y0069170D02*
X-0079409D01*
X-0080758Y0070610D02*
X-0081022D01*
X-0078450Y0070990D02*
X-0078750D01*
X-0078450Y0070610D02*
X-0078750D01*
X-0078450Y0070520D02*
X-0078750D01*
X-0078450Y0070430D02*
X-0078750D01*
X-0078450Y0070340D02*
X-0078750D01*
X-0081350Y0071282D02*
Y0071018D01*
X-0080588Y0071780D02*
X-0080852D01*
X-0083150Y0070779D02*
Y0070218D01*
X-0083750Y0059950D02*
X-0084750D01*
X-0082700Y0061050D02*
Y0060750D01*
X-0082790Y0061250D02*
Y0060950D01*
X-0082880Y0061250D02*
Y0060950D01*
X-0082970Y0061250D02*
Y0060950D01*
X-0083150Y0061250D02*
Y0060950D01*
X-0088190Y0063740D02*
Y0061000D01*
X-0086390Y0065300D02*
Y0065000D01*
X-0086750Y0066110D02*
X-0087250D01*
X-0084380Y0067240D02*
X-0084892D01*
X-0085475Y0064975D02*
Y0064356D01*
Y0064760D02*
X-0085750D01*
X-0085475Y0064670D02*
X-0085750D01*
Y0065000D02*
Y0064450D01*
X-0082070Y0069337D02*
Y0069298D01*
X-0078650Y0062482D02*
Y0060283D01*
X-0086120Y0061250D02*
Y0060950D01*
X-0084590Y0061150D02*
Y0060950D01*
X-0083690Y0059950D02*
Y0059550D01*
X-0085490Y0059950D02*
Y0059050D01*
X-0072050Y0065210D02*
X-0074240D01*
X-0083771Y0064760D02*
X-0084525D01*
X-0080818Y0067550D02*
X-0081932D01*
X-0084469Y0066110D02*
X-0084492D01*
X-0084500Y0067240D02*
Y0066821D01*
X-0078740Y0074550D02*
Y0073260D01*
X-0079190Y0074905D02*
Y0073260D01*
X-0090350Y0069315D02*
Y0068460D01*
X-0090080Y0070475D02*
Y0069937D01*
X-0089630Y0067540D02*
Y0066750D01*
X-0089720Y0067540D02*
Y0066750D01*
X-0089810Y0067540D02*
Y0066750D01*
X-0089900Y0067540D02*
Y0066750D01*
X-0089990Y0067540D02*
Y0066750D01*
X-0090080Y0067540D02*
Y0066750D01*
X-0090170Y0067540D02*
Y0066750D01*
X-0090260Y0067540D02*
Y0066750D01*
X-0091010Y0062960D02*
X-0091200D01*
X-0088166Y0066830D02*
X-0088740D01*
X-0089250Y0066290D02*
X-0089550D01*
X-0088200Y0067010D02*
X-0088740D01*
X-0083642Y0069530D02*
X-0088096D01*
X-0088010Y0065642D02*
Y0065400D01*
X-0090550Y0066560D02*
X-0091200D01*
X-0087920Y0066583D02*
Y0066288D01*
X-0087290Y0069700D02*
Y0068659D01*
X-0090550Y0066200D02*
X-0091200D01*
X-0088118Y0065750D02*
X-0091200D01*
X-0090440Y0067540D02*
Y0066750D01*
X-0079187Y0060554D02*
X-0079076Y0060443D01*
X-0088193Y0066920D02*
X-0088740D01*
X-0087990Y0065570D02*
X-0091200D01*
X-0088010Y0066633D02*
Y0066378D01*
X-0086750Y0064940D02*
X-0086880D01*
X-0088100Y0066717D02*
Y0066462D01*
X-0089500Y0065260D02*
X-0089750D01*
X-0086867Y0066740D02*
X-0087383D01*
X-0089260Y0067010D02*
X-0091200D01*
X-0087250Y0066240D02*
Y0065821D01*
X-0088280Y0069346D02*
Y0066750D01*
X-0086810Y0067910D02*
X-0087190D01*
X-0088460Y0069292D02*
Y0066750D01*
X-0088550Y0069293D02*
Y0068095D01*
X-0088010Y0069700D02*
Y0067367D01*
X-0088820Y0069419D02*
Y0068423D01*
X-0083934Y0078620D02*
X-0084799D01*
X-0090550Y0066380D02*
X-0091200D01*
X-0089500Y0065300D02*
X-0091200D01*
X-0088068Y0066436D02*
X-0087872Y0066240D01*
X-0088028Y0065660D02*
X-0091200D01*
X-0089270Y0069700D02*
Y0068372D01*
X-0086914Y0068450D02*
X-0087086D01*
X-0086954Y0068180D02*
X-0087045D01*
X-0086931Y0068090D02*
X-0087069D01*
X-0076400Y0070240D02*
Y0067510D01*
X-0082758Y0070610D02*
X-0083319D01*
X-0089260Y0067460D02*
X-0091200D01*
X-0089180Y0069700D02*
Y0068423D01*
X-0090170Y0069429D02*
Y0068460D01*
X-0089630Y0065750D02*
Y0065260D01*
X-0089360Y0067713D02*
Y0065500D01*
X-0090170Y0070475D02*
Y0070070D01*
X-0090260Y0070475D02*
Y0070142D01*
X-0090440Y0070475D02*
Y0070206D01*
X-0090350Y0067540D02*
Y0066750D01*
X-0087110Y0069700D02*
Y0068494D01*
X-0089095Y0068450D02*
X-0089540D01*
X-0089286Y0068360D02*
X-0089540D01*
X-0089810Y0071950D02*
Y0068460D01*
X-0083330Y0078083D02*
Y0077151D01*
X-0090460Y0068180D02*
X-0091200D01*
X-0089270Y0067627D02*
Y0065500D01*
X-0087380Y0069700D02*
Y0068694D01*
X-0090460Y0067910D02*
X-0091200D01*
X-0080250Y0074750D02*
X-0081700D01*
X-0081828Y0076460D02*
X-0082639D01*
X-0075050Y0059349D02*
Y0059050D01*
X-0076940Y0062250D02*
Y0061950D01*
X-0077368Y0079250D02*
X-0081990D01*
X-0084401Y0082200D02*
X-0084775D01*
X-0085725Y0082130D02*
X-0086200D01*
X-0085725Y0082040D02*
X-0086200D01*
X-0085725Y0081950D02*
X-0086200D01*
X-0084278Y0079160D02*
X-0085339D01*
X-0085725Y0081770D02*
X-0086200D01*
X-0082510Y0077540D02*
X-0083719D01*
X-0078110Y0080740D02*
Y0080260D01*
X-0077480Y0082200D02*
Y0081260D01*
X-0077840Y0082200D02*
Y0081989D01*
X-0077930Y0082200D02*
Y0082100D01*
X-0078020Y0082200D02*
Y0082165D01*
X-0078918Y0081050D02*
X-0079182D01*
X-0080720Y0082200D02*
Y0081816D01*
X-0079550Y0080682D02*
Y0076750D01*
X-0079153Y0081285D02*
X-0078686Y0080818D01*
X-0072050Y0081860D02*
X-0077788D01*
X-0072050Y0081680D02*
X-0077780D01*
X-0083060Y0069342D02*
Y0069260D01*
X-0079280Y0080412D02*
Y0076750D01*
X-0072050Y0082130D02*
X-0077965D01*
X-0072050Y0082040D02*
X-0077874D01*
X-0072050Y0081950D02*
X-0077819D01*
X-0078200Y0080740D02*
Y0080260D01*
X-0080451Y0081320D02*
X-0081049D01*
X-0072050Y0081500D02*
X-0077846D01*
X-0080450Y0082200D02*
Y0082180D01*
X-0080540Y0082200D02*
Y0082126D01*
X-0078750Y0070000D02*
X-0079382D01*
X-0076940Y0082200D02*
Y0081058D01*
X-0072050Y0081770D02*
X-0077776D01*
X-0072050Y0081410D02*
X-0077919D01*
X-0080626Y0082040D02*
X-0080874D01*
X-0079370Y0080502D02*
Y0076750D01*
X-0072050Y0081320D02*
X-0078049D01*
X-0080810Y0082200D02*
Y0081928D01*
X-0080900Y0082200D02*
Y0082070D01*
X-0080990Y0082200D02*
Y0082147D01*
X-0081620Y0081452D02*
Y0078934D01*
X-0084770Y0082200D02*
Y0081000D01*
X-0078650Y0059717D02*
Y0059050D01*
X-0081440Y0081315D02*
Y0078946D01*
X-0080630Y0082200D02*
Y0082034D01*
X-0080534Y0082130D02*
X-0080965D01*
X-0081440Y0082200D02*
Y0082185D01*
X-0080680Y0081950D02*
X-0080819D01*
X-0080712Y0081860D02*
X-0080788D01*
X-0080724Y0081770D02*
X-0080776D01*
X-0080719Y0081680D02*
X-0080780D01*
X-0080697Y0081590D02*
X-0080803D01*
X-0080653Y0081500D02*
X-0080846D01*
X-0083150Y0081286D02*
Y0079706D01*
X-0081710Y0082200D02*
Y0081867D01*
X-0081800Y0082200D02*
Y0081901D01*
X-0081890Y0082200D02*
Y0082059D01*
X-0081980Y0082200D02*
Y0082140D01*
X-0082070Y0082200D02*
Y0082189D01*
X-0082430Y0082200D02*
Y0082189D01*
X-0082520Y0082200D02*
Y0082140D01*
X-0082610Y0082200D02*
Y0082059D01*
X-0082534Y0082130D02*
X-0082965D01*
X-0082626Y0082040D02*
X-0082874D01*
X-0082680Y0081950D02*
X-0082819D01*
X-0082712Y0081860D02*
X-0082788D01*
X-0082724Y0081770D02*
X-0082776D01*
X-0082719Y0081680D02*
X-0082780D01*
X-0082697Y0081590D02*
X-0082803D01*
X-0081680Y0081950D02*
X-0081819D01*
X-0082790Y0082200D02*
Y0081867D01*
X-0082880Y0082200D02*
Y0082047D01*
X-0082970Y0082200D02*
Y0082133D01*
X-0083060Y0082200D02*
Y0082185D01*
X-0083510Y0082200D02*
Y0082147D01*
X-0082430Y0059750D02*
Y0059550D01*
X-0083600Y0081429D02*
Y0081000D01*
X-0081620Y0082200D02*
Y0082047D01*
X-0082700Y0082200D02*
Y0081901D01*
X-0081534Y0082130D02*
X-0081965D01*
X-0081626Y0082040D02*
X-0081874D01*
X-0083690Y0082200D02*
Y0081928D01*
X-0083626Y0082040D02*
X-0083874D01*
X-0083712Y0081860D02*
X-0083788D01*
X-0083719Y0081680D02*
X-0083780D01*
X-0083653Y0081500D02*
X-0083846D01*
X-0081581Y0081410D02*
X-0081919D01*
X-0081719Y0081680D02*
X-0081780D01*
X-0083780Y0082200D02*
Y0081816D01*
X-0083870Y0082200D02*
Y0082034D01*
X-0083960Y0082200D02*
Y0082126D01*
X-0084050Y0082200D02*
Y0082180D01*
X-0084500Y0082200D02*
Y0082153D01*
X-0083510Y0061250D02*
Y0060950D01*
X-0084450Y0080510D02*
X-0084750D01*
X-0083600Y0082200D02*
Y0082070D01*
X-0081712Y0081860D02*
X-0081788D01*
X-0083534Y0082130D02*
X-0083965D01*
X-0081724Y0081770D02*
X-0081776D01*
X-0083680Y0081950D02*
X-0083819D01*
X-0084590Y0082200D02*
Y0082081D01*
X-0084626Y0082040D02*
X-0084775D01*
X-0084712Y0081860D02*
X-0084775D01*
X-0084719Y0081680D02*
X-0084775D01*
X-0084653Y0081500D02*
X-0084775D01*
X-0083697Y0081590D02*
X-0083803D01*
X-0084680Y0082200D02*
Y0081951D01*
X-0085580Y0081275D02*
Y0081000D01*
X-0083724Y0081770D02*
X-0083776D01*
X-0084534Y0082130D02*
X-0084775D01*
X-0081697Y0081590D02*
X-0081803D01*
X-0084680Y0081950D02*
X-0084775D01*
X-0084724Y0081770D02*
X-0084775D01*
X-0083581Y0081410D02*
X-0083919D01*
X-0072800Y0063010D02*
Y0061719D01*
X-0072755Y0059900D02*
X-0073244D01*
X-0072050Y0059810D02*
X-0072140D01*
X-0072080Y0059279D02*
Y0059050D01*
X-0072170Y0059159D02*
Y0059050D01*
X-0072260Y0059090D02*
Y0059050D01*
X-0072050Y0060530D02*
X-0074240D01*
X-0074760Y0060950D02*
Y0059897D01*
X-0074870Y0060950D02*
Y0059797D01*
X-0072920Y0059720D02*
X-0073079D01*
X-0072956Y0059630D02*
X-0073043D01*
X-0072973Y0059540D02*
X-0073027D01*
X-0072972Y0059450D02*
X-0073028D01*
X-0072953Y0059360D02*
X-0073046D01*
X-0072915Y0059270D02*
X-0073085D01*
X-0072850Y0059180D02*
X-0073149D01*
X-0072739Y0059090D02*
X-0073261D01*
X-0084990Y0081275D02*
Y0081000D01*
X-0073790Y0068552D02*
Y0063408D01*
X-0072050Y0060710D02*
X-0074240D01*
X-0085725Y0082200D02*
X-0086200D01*
X-0073700Y0068553D02*
Y0063490D01*
X-0073070Y0062773D02*
Y0061956D01*
X-0072050Y0062780D02*
X-0073052D01*
X-0084638Y0079520D02*
X-0085699D01*
X-0088840Y0069440D02*
X-0090160D01*
X-0073160Y0060977D02*
Y0059831D01*
X-0073250Y0060969D02*
Y0059903D01*
X-0073340Y0060977D02*
Y0059947D01*
X-0073648Y0061160D02*
X-0074000D01*
X-0072890Y0062889D02*
Y0061840D01*
X-0073610Y0061117D02*
Y0059962D01*
X-0072890Y0059229D02*
Y0059050D01*
X-0072050Y0059720D02*
X-0072079D01*
X-0072980Y0061046D02*
Y0059050D01*
X-0073956Y0059630D02*
X-0074043D01*
X-0073972Y0059450D02*
X-0074028D01*
X-0073915Y0059270D02*
X-0074085D01*
X-0073340Y0068814D02*
Y0063752D01*
X-0077390Y0060950D02*
Y0059050D01*
X-0073651D02*
X-0074349D01*
X-0074240Y0062250D02*
Y0061950D01*
X-0081170Y0070462D02*
Y0070198D01*
X-0080180Y0071452D02*
Y0071188D01*
X-0075000Y0061610D02*
X-0075316D01*
X-0074690Y0062250D02*
Y0061950D01*
X-0076240Y0062490D02*
Y0061752D01*
X-0074780Y0059117D02*
Y0059050D01*
X-0073920Y0059720D02*
X-0074079D01*
X-0073970Y0059433D02*
Y0059050D01*
X-0072050Y0059180D02*
X-0072149D01*
X-0074651Y0059050D02*
X-0075349D01*
X-0074859Y0059810D02*
X-0074950D01*
X-0082510Y0081050D02*
X-0084990D01*
X-0072050Y0064760D02*
X-0074240D01*
X-0075320Y0061335D02*
Y0060750D01*
X-0082698Y0069710D02*
X-0082802D01*
X-0074960Y0060950D02*
Y0060750D01*
X-0072050Y0059270D02*
X-0072085D01*
X-0074920Y0059720D02*
X-0075079D01*
X-0073953Y0059360D02*
X-0074046D01*
X-0072050Y0059090D02*
X-0072261D01*
X-0078560Y0079747D02*
Y0076510D01*
X-0074240Y0063858D02*
X-0073747Y0063364D01*
X-0074960Y0062250D02*
Y0061950D01*
X-0087650Y0069700D02*
Y0068685D01*
X-0077188Y0079070D02*
X-0081990D01*
X-0081980Y0076612D02*
Y0075801D01*
X-0078290Y0070000D02*
Y0069617D01*
X-0081558Y0076190D02*
X-0082369D01*
X-0085940Y0069700D02*
Y0068510D01*
X-0090620Y0071950D02*
Y0071525D01*
X-0090550Y0065840D02*
X-0091200D01*
X-0084775Y0082200D02*
Y0081275D01*
X-0085510Y0081230D02*
X-0086200D01*
X-0081980Y0071949D02*
Y0071388D01*
X-0084818Y0079700D02*
X-0085879D01*
X-0084450Y0080420D02*
X-0084750D01*
X-0082160Y0069309D02*
Y0069260D01*
X-0085725Y0081680D02*
X-0086200D01*
X-0083949Y0078530D02*
X-0084709D01*
X-0083946Y0078440D02*
X-0084619D01*
X-0085510Y0081050D02*
X-0086200D01*
X-0085750Y0080240D02*
X-0086200D01*
X-0082510Y0077810D02*
X-0083989D01*
X-0082510Y0077720D02*
X-0083899D01*
X-0082510Y0077450D02*
X-0083629D01*
X-0082098Y0076730D02*
X-0082909D01*
X-0082455Y0077090D02*
X-0083269D01*
X-0084728Y0079610D02*
X-0085789D01*
X-0084008Y0078890D02*
X-0085069D01*
X-0089550Y0071780D02*
X-0091200D01*
X-0081198Y0075830D02*
X-0082009D01*
X-0081648Y0076280D02*
X-0082459D01*
X-0080298Y0074930D02*
X-0081700D01*
X-0081738Y0076370D02*
X-0082549D01*
X-0090550Y0066110D02*
X-0091200D01*
X-0087830Y0067929D02*
Y0067443D01*
X-0089903Y0065210D02*
X-0091200D01*
X-0086750Y0064760D02*
X-0086880D01*
X-0087740Y0066550D02*
Y0066240D01*
X-0083870Y0064420D02*
Y0064079D01*
X-0084140Y0065240D02*
Y0063760D01*
X-0087880Y0063590D02*
X-0088500D01*
X-0088117Y0066740D02*
X-0088250D01*
X-0086840Y0067940D02*
Y0067295D01*
X-0087844Y0066560D02*
X-0088250D01*
X-0089260Y0066650D02*
X-0089550D01*
X-0089500Y0065480D02*
X-0091200D01*
X-0086756Y0067370D02*
X-0087494D01*
X-0087020Y0069700D02*
Y0065400D01*
X-0090460Y0067640D02*
X-0091200D01*
X-0085408Y0068810D02*
X-0091200D01*
X-0075320Y0076933D02*
Y0076510D01*
X-0076600Y0073760D02*
X-0077883D01*
X-0076670Y0074838D02*
Y0074538D01*
X-0080250Y0076750D02*
Y0076618D01*
X-0072975Y0076475D02*
Y0076260D01*
X-0075770Y0075800D02*
Y0074260D01*
X-0074500Y0075990D02*
Y0075750D01*
X-0075050Y0075990D02*
Y0074260D01*
X-0074690Y0076924D02*
Y0076510D01*
X-0074600Y0077044D02*
Y0076510D01*
X-0073821Y0075750D02*
X-0074500D01*
X-0075860Y0074775D02*
Y0074260D01*
X-0076491Y0075380D02*
X-0076750D01*
X-0076594Y0075290D02*
X-0076750D01*
X-0076653Y0075200D02*
X-0076750D01*
X-0076686Y0075110D02*
X-0076750D01*
X-0076699Y0075020D02*
X-0076750D01*
X-0076694Y0074930D02*
X-0076750D01*
X-0076670Y0074840D02*
X-0076750D01*
X-0076624Y0074750D02*
X-0076750D01*
X-0075748Y0077630D02*
X-0076009D01*
X-0075658Y0077540D02*
X-0075906D01*
X-0075568Y0077450D02*
X-0075847D01*
X-0072050Y0078710D02*
X-0074592D01*
X-0076040Y0077922D02*
Y0077648D01*
X-0072050Y0078620D02*
X-0074502D01*
X-0076220Y0078102D02*
Y0077699D01*
X-0072050Y0078530D02*
X-0074412D01*
X-0075950Y0077832D02*
Y0077585D01*
X-0072050Y0078440D02*
X-0074322D01*
X-0085750Y0080510D02*
X-0086200D01*
X-0075140Y0082200D02*
Y0079258D01*
X-0075860Y0077025D02*
Y0076686D01*
X-0072050Y0078800D02*
X-0074682D01*
X-0076490Y0078372D02*
Y0077630D01*
X-0076670Y0078552D02*
Y0077411D01*
X-0074420Y0082200D02*
Y0078538D01*
X-0075449Y0077270D02*
X-0075800D01*
X-0072050Y0080780D02*
X-0076662D01*
X-0072050Y0077180D02*
X-0073683D01*
X-0080900Y0081429D02*
Y0077268D01*
X-0076378Y0078260D02*
X-0081119D01*
X-0081080Y0081307D02*
Y0078661D01*
X-0081170Y0081282D02*
Y0078806D01*
X-0081260Y0081275D02*
Y0078880D01*
X-0081350Y0081286D02*
Y0078924D01*
X-0081928Y0077360D02*
X-0081990D01*
X-0082510Y0079119D02*
Y0077250D01*
X-0081710Y0081633D02*
Y0078898D01*
X-0082510Y0077900D02*
X-0084079D01*
X-0081440Y0077054D02*
Y0076808D01*
X-0076588Y0079970D02*
X-0077352D01*
X-0077008Y0078890D02*
X-0081275D01*
X-0076918Y0078800D02*
X-0081164D01*
X-0076828Y0078710D02*
X-0081102D01*
X-0076738Y0078620D02*
X-0081066D01*
X-0076648Y0078530D02*
X-0081051D01*
X-0076558Y0078440D02*
X-0081054D01*
X-0076468Y0078350D02*
X-0081076D01*
X-0082510Y0077360D02*
X-0083539D01*
X-0076490Y0075990D02*
Y0075380D01*
X-0081800Y0081599D02*
Y0078835D01*
X-0084320Y0080000D02*
Y0079938D01*
X-0082610Y0081440D02*
Y0079928D01*
X-0082790Y0081633D02*
Y0079948D01*
X-0082520Y0081359D02*
Y0079887D01*
X-0082880Y0081452D02*
Y0079931D01*
X-0082700Y0081599D02*
Y0079947D01*
X-0084450Y0080960D02*
X-0084750D01*
X-0084450Y0080780D02*
X-0084750D01*
X-0084450Y0080600D02*
X-0084750D01*
X-0079558Y0080690D02*
X-0081990D01*
X-0081661Y0078080D02*
X-0081990D01*
X-0082510Y0080600D02*
X-0083450D01*
X-0077818Y0079700D02*
X-0081990D01*
X-0077728Y0079610D02*
X-0081990D01*
X-0083401Y0082200D02*
X-0084099D01*
X-0082970Y0081367D02*
Y0079892D01*
X-0090890Y0071950D02*
Y0071525D01*
X-0085750Y0080690D02*
X-0086200D01*
X-0089090Y0069700D02*
Y0068451D01*
X-0080838Y0075470D02*
X-0081700D01*
X-0090800Y0071950D02*
Y0071525D01*
X-0089450Y0069700D02*
Y0068095D01*
X-0082578Y0070790D02*
X-0083139D01*
X-0089550Y0071510D02*
X-0089975D01*
X-0089550Y0071420D02*
X-0089975D01*
X-0089550Y0071330D02*
X-0089975D01*
X-0089550Y0071240D02*
X-0089975D01*
X-0089550Y0071150D02*
X-0089975D01*
X-0089550Y0071060D02*
X-0089975D01*
X-0089550Y0070970D02*
X-0089975D01*
X-0089550Y0070880D02*
X-0089975D01*
X-0089550Y0070700D02*
X-0089975D01*
X-0089550Y0070790D02*
X-0089975D01*
X-0085416Y0069170D02*
X-0091200D01*
X-0078020Y0069025D02*
Y0068388D01*
X-0080270Y0068612D02*
Y0067760D01*
X-0078830Y0068462D02*
Y0067760D01*
X-0080090Y0062300D02*
Y0062208D01*
X-0078270Y0060890D02*
X-0078813D01*
X-0080000Y0062223D02*
Y0062118D01*
X-0079910Y0062188D02*
Y0062028D01*
X-0079820Y0062180D02*
Y0061938D01*
X-0078980Y0068630D02*
X-0080252D01*
X-0086120Y0067990D02*
Y0067748D01*
X-0086750Y0066020D02*
X-0087250D01*
X-0085443Y0069080D02*
X-0091200D01*
X-0084320Y0063240D02*
Y0062250D01*
X-0074958Y0068090D02*
X-0075011D01*
X-0074760Y0067892D02*
Y0064260D01*
X-0084320Y0065249D02*
Y0063760D01*
X-0084510Y0066740D02*
X-0085300D01*
X-0084439Y0067100D02*
X-0085032D01*
X-0086030Y0066398D02*
Y0066300D01*
X-0083150Y0078217D02*
Y0076971D01*
X-0086750Y0064850D02*
X-0086880D01*
X-0084050Y0065240D02*
Y0063760D01*
X-0075230Y0075990D02*
Y0074260D01*
X-0083870Y0063920D02*
Y0063760D01*
X-0091010Y0064000D02*
Y0060750D01*
X-0089720Y0064662D02*
Y0063631D01*
X-0089810Y0064572D02*
Y0063695D01*
X-0089900Y0064482D02*
Y0063734D01*
X-0089990Y0064392D02*
Y0063755D01*
X-0090333Y0063680D02*
X-0090490D01*
Y0063892D02*
Y0063523D01*
X-0090170Y0064212D02*
Y0063748D01*
X-0089500Y0064130D02*
X-0090252D01*
X-0087998Y0063140D02*
X-0089561D01*
X-0086958Y0063590D02*
X-0087120D01*
X-0087641Y0063740D02*
X-0088500D01*
X-0089360Y0063200D02*
Y0061000D01*
X-0087200Y0063740D02*
Y0063662D01*
X-0085390Y0063230D02*
X-0086990D01*
X-0086750Y0063382D02*
Y0059050D01*
X-0085151Y0063050D02*
X-0087031D01*
X-0085117Y0062960D02*
X-0087080D01*
X-0087919D02*
X-0089640D01*
X-0087805Y0061070D02*
X-0089754D01*
X-0090350Y0062831D02*
Y0061898D01*
X-0087637Y0061970D02*
X-0089922D01*
X-0087815Y0061880D02*
X-0089744D01*
X-0090374D02*
X-0090490D01*
X-0090350Y0064032D02*
Y0063669D01*
X-0087904Y0061790D02*
X-0089655D01*
X-0089900Y0062765D02*
Y0061963D01*
X-0089810Y0061034D02*
Y0061000D01*
X-0090080Y0062740D02*
Y0061988D01*
X-0090490Y0062977D02*
Y0061752D01*
X-0090170Y0062752D02*
Y0061976D01*
X-0090260Y0062781D02*
Y0061947D01*
X-0086250Y0061880D02*
X-0087185D01*
X-0086250Y0061790D02*
X-0087096D01*
X-0088008Y0061520D02*
X-0089551D01*
X-0086250D02*
X-0086992D01*
X-0086250Y0061340D02*
X-0087009D01*
X-0089500Y0065500D02*
Y0065260D01*
X-0087959Y0061700D02*
X-0089600D01*
X-0087830Y0062861D02*
Y0061867D01*
X-0087920Y0062961D02*
Y0061768D01*
X-0091010Y0063410D02*
X-0091200D01*
X-0087020Y0061306D02*
Y0059050D01*
X-0087110Y0061150D02*
Y0059050D01*
X-0087200Y0061066D02*
Y0059050D01*
X-0087290Y0061014D02*
Y0059050D01*
X-0087470Y0060969D02*
Y0059050D01*
X-0087380Y0060983D02*
Y0059050D01*
X-0086250Y0062150D02*
X-0090490D01*
X-0087607Y0060980D02*
X-0087950D01*
X-0087920Y0061189D02*
Y0059975D01*
X-0089450Y0059069D02*
Y0059050D01*
X-0088008Y0061430D02*
X-0089551D01*
X-0086250Y0061700D02*
X-0087040D01*
X-0086250Y0061610D02*
X-0087007D01*
X-0091010Y0062060D02*
X-0091200D01*
X-0086250Y0061430D02*
X-0086992D01*
X-0084320Y0059950D02*
Y0059050D01*
X-0085220Y0061079D02*
Y0060920D01*
X-0075050Y0066069D02*
Y0064260D01*
X-0087774Y0063680D02*
X-0088500D01*
X-0085201Y0061070D02*
X-0087195D01*
X-0085760Y0063240D02*
Y0062950D01*
X-0087048Y0063680D02*
X-0087226D01*
X-0087108Y0063740D02*
X-0087358D01*
X-0087920D02*
Y0063539D01*
X-0087290Y0063740D02*
Y0063715D01*
X-0085475Y0064490D02*
X-0085750D01*
X-0091010Y0063230D02*
X-0091200D01*
X-0086868Y0063500D02*
X-0087055D01*
X-0085397Y0063240D02*
X-0086500D01*
X-0088005Y0063320D02*
X-0088500D01*
X-0073398Y0069280D02*
X-0072940Y0068822D01*
X-0074760Y0064310D02*
X-0077565D01*
X-0073700Y0059069D02*
Y0059050D01*
X-0074240Y0068000D02*
Y0063858D01*
X-0078700Y0072510D02*
X-0080750D01*
X-0087470Y0067791D02*
Y0067352D01*
X-0076040Y0062490D02*
Y0061933D01*
X-0084750Y0081000D02*
Y0080368D01*
X-0074510Y0062250D02*
Y0061950D01*
X-0076220Y0066992D02*
Y0064260D01*
X-0086750Y0066626D02*
Y0065000D01*
X-0074821Y0069703D02*
X-0074193Y0069076D01*
X-0072050Y0068090D02*
X-0074256D01*
X-0076760Y0062250D02*
X-0077500D01*
X-0078450Y0060350D02*
X-0078717D01*
X-0077210Y0059750D02*
Y0059050D01*
X-0076130Y0062490D02*
Y0061875D01*
X-0075000Y0061880D02*
X-0075494D01*
X-0075000Y0061790D02*
X-0075405D01*
X-0075000Y0061700D02*
X-0075350D01*
X-0076220Y0062490D02*
Y0061781D01*
X-0082510Y0078080D02*
X-0083338D01*
X-0075000Y0061520D02*
X-0075301D01*
X-0075000Y0061430D02*
X-0075301D01*
X-0075000Y0061340D02*
X-0075318D01*
X-0077120Y0062250D02*
Y0061950D01*
X-0075000Y0061160D02*
X-0075411D01*
X-0074240Y0060950D02*
Y0059897D01*
X-0082510Y0078350D02*
X-0083076D01*
X-0075410Y0061161D02*
Y0060750D01*
X-0075500Y0061073D02*
Y0060750D01*
X-0072050Y0064400D02*
X-0074240D01*
X-0073357Y0060980D02*
X-0074000D01*
X-0072050D02*
X-0073143D01*
X-0072050Y0061880D02*
X-0072935D01*
X-0072050Y0061790D02*
X-0072846D01*
X-0073743Y0061610D02*
X-0074000D01*
X-0073758Y0061520D02*
X-0074000D01*
X-0073758Y0061430D02*
X-0074000D01*
X-0073741Y0061340D02*
X-0074000D01*
X-0073706Y0061250D02*
X-0074000D01*
X-0073160Y0069042D02*
Y0063752D01*
X-0073610Y0068572D02*
Y0063611D01*
X-0073734Y0063410D02*
X-0073792D01*
X-0072050Y0061070D02*
X-0072945D01*
X-0073555D02*
X-0074000D01*
X-0072890Y0068729D02*
Y0063611D01*
X-0073070Y0068952D02*
Y0063727D01*
X-0072050Y0061160D02*
X-0072852D01*
X-0072050Y0063680D02*
X-0072976D01*
X-0072050Y0063590D02*
X-0072870D01*
X-0073070Y0061001D02*
Y0059701D01*
X-0072050Y0064310D02*
X-0074240D01*
X-0072050Y0063320D02*
X-0072745D01*
X-0072800Y0059132D02*
Y0059050D01*
X-0073160Y0059169D02*
Y0059050D01*
X-0072620Y0068541D02*
Y0059959D01*
X-0077660Y0074450D02*
Y0073760D01*
X-0082368Y0077000D02*
X-0083179D01*
X-0082008Y0076640D02*
X-0082819D01*
X-0080720Y0076352D02*
Y0076088D01*
X-0072890Y0061117D02*
Y0059770D01*
X-0084458Y0079340D02*
X-0085519D01*
X-0089360Y0069700D02*
Y0068286D01*
X-0085510Y0081140D02*
X-0086200D01*
X-0085310Y0080000D02*
Y0079131D01*
X-0078653Y0079790D02*
X-0081990D01*
X-0082188Y0076820D02*
X-0082999D01*
X-0082340Y0071589D02*
Y0071028D01*
X-0084188Y0079070D02*
X-0085249D01*
X-0085725Y0081590D02*
X-0086200D01*
X-0085725Y0081500D02*
X-0086200D01*
X-0085750Y0080870D02*
X-0086200D01*
X-0080076Y0073310D02*
X-0081700D01*
X-0084050Y0078932D02*
Y0077871D01*
X-0085220Y0080000D02*
Y0079041D01*
X-0085760Y0082200D02*
Y0079581D01*
X-0085850Y0082200D02*
Y0079671D01*
X-0085940Y0082200D02*
Y0079761D01*
X-0080250Y0074840D02*
X-0081700D01*
X-0083870Y0070059D02*
Y0069260D01*
X-0080250Y0074570D02*
X-0081700D01*
X-0085580Y0080000D02*
Y0079401D01*
X-0080250Y0074480D02*
X-0081700D01*
X-0084382Y0080000D02*
X-0083318Y0078936D01*
X-0080010Y0074300D02*
X-0081700D01*
X-0080010Y0074210D02*
X-0081700D01*
X-0081970Y0069398D02*
X-0082108Y0069260D01*
X-0086120Y0082200D02*
Y0079941D01*
X-0080010Y0073670D02*
X-0081700D01*
X-0084140Y0079022D02*
Y0077961D01*
X-0084230Y0079112D02*
Y0078051D01*
X-0080142Y0073220D02*
X-0081700D01*
X-0084410Y0079292D02*
Y0078231D01*
X-0080810Y0076442D02*
Y0076178D01*
X-0078650Y0075990D02*
Y0075439D01*
X-0079820Y0075750D02*
Y0075450D01*
X-0081170Y0075802D02*
Y0072198D01*
X-0076600Y0073760D02*
X-0077883D01*
X-0073790Y0074450D02*
Y0074260D01*
X-0078991Y0075380D02*
X-0079250D01*
X-0078560Y0074592D02*
Y0073826D01*
X-0080000Y0072626D02*
Y0072510D01*
X-0079460Y0075750D02*
Y0075450D01*
X-0076850Y0082200D02*
Y0080968D01*
X-0079820Y0080952D02*
Y0076750D01*
X-0077308Y0080690D02*
X-0078822D01*
X-0081530Y0077051D02*
Y0076898D01*
X-0079008Y0081140D02*
X-0079272D01*
X-0077750Y0076510D02*
X-0079250D01*
X-0080540Y0081374D02*
Y0076908D01*
X-0079170Y0074840D02*
X-0079250D01*
X-0078290Y0079740D02*
Y0076510D01*
X-0078740Y0079872D02*
Y0076510D01*
X-0078110Y0079740D02*
Y0076510D01*
X-0079280Y0081276D02*
Y0081148D01*
X-0079370Y0081291D02*
Y0081238D01*
X-0072050Y0078080D02*
X-0073962D01*
X-0075609Y0067190D02*
X-0075942D01*
X-0075670Y0068720D02*
X-0078352D01*
X-0075665Y0068270D02*
X-0077250D01*
X-0073520Y0061046D02*
Y0059974D01*
X-0075676Y0066290D02*
X-0076352D01*
X-0075500Y0066096D02*
Y0064260D01*
X-0075860Y0067240D02*
Y0064260D01*
X-0075489Y0067910D02*
X-0077250D01*
X-0079010Y0069103D02*
Y0068750D01*
X-0075600Y0067820D02*
X-0077250D01*
X-0088730Y0067627D02*
Y0066750D01*
X-0075647Y0067240D02*
X-0075892D01*
X-0077071Y0070250D02*
X-0077450D01*
X-0081208Y0070160D02*
X-0081472D01*
X-0077250Y0063320D02*
X-0077561D01*
X-0077030Y0066148D02*
Y0066088D01*
X-0076911Y0066920D02*
X-0077250D01*
X-0077056Y0066830D02*
X-0077250D01*
X-0077130Y0066740D02*
X-0077250D01*
X-0077174Y0066650D02*
X-0077250D01*
X-0077196Y0066560D02*
X-0077250D01*
X-0077199Y0066470D02*
X-0077250D01*
X-0077740Y0065240D02*
Y0064897D01*
X-0081938Y0070430D02*
X-0082202D01*
X-0083510Y0069383D02*
Y0069260D01*
X-0082681Y0069620D02*
X-0082819D01*
X-0082642Y0069530D02*
X-0082857D01*
X-0083240Y0069300D02*
Y0069260D01*
X-0080618Y0061250D02*
X-0080914D01*
X-0076760Y0060950D02*
Y0060750D01*
X-0075860Y0062490D02*
Y0061986D01*
X-0076850Y0060950D02*
Y0060750D01*
X-0077030Y0062250D02*
Y0061950D01*
X-0077210Y0062250D02*
Y0061950D01*
X-0072050Y0061430D02*
X-0072742D01*
X-0074060Y0062250D02*
Y0061950D01*
Y0060950D02*
Y0059678D01*
X-0074150Y0060950D02*
Y0059820D01*
X-0074330Y0062250D02*
Y0061950D01*
X-0075230Y0062490D02*
Y0060750D01*
X-0075000Y0061250D02*
X-0075353D01*
X-0085670Y0061194D02*
Y0060950D01*
X-0073760Y0061970D02*
X-0075672D01*
X-0072050D02*
X-0073113D01*
X-0072050Y0061700D02*
X-0072790D01*
X-0072050Y0061610D02*
X-0072757D01*
X-0072050Y0061520D02*
X-0072742D01*
X-0074600Y0062250D02*
Y0061950D01*
X-0077570Y0064299D02*
Y0064260D01*
X-0083186Y0079610D02*
X-0083992D01*
X-0073790Y0062672D02*
Y0059876D01*
X-0084500Y0061150D02*
Y0060950D01*
X-0073160Y0062748D02*
Y0061980D01*
X-0072050Y0063140D02*
X-0072752D01*
X-0073880Y0062762D02*
Y0059784D01*
X-0073970Y0062852D02*
Y0059566D01*
X-0075420Y0077090D02*
X-0075829D01*
X-0073520Y0068613D02*
Y0063682D01*
X-0073524Y0063680D02*
X-0074062D01*
X-0074780Y0060950D02*
Y0059883D01*
X-0084100Y0065760D02*
X-0084142D01*
X-0072050Y0064040D02*
X-0074240D01*
X-0073898Y0062780D02*
X-0074000D01*
X-0084505Y0066200D02*
X-0084584D01*
X-0083194Y0079430D02*
X-0083812D01*
X-0087830Y0063740D02*
Y0063639D01*
X-0087927Y0064310D02*
X-0090072D01*
X-0089500Y0063500D02*
X-0089615D01*
X-0088910Y0064500D02*
Y0064205D01*
X-0089500Y0063680D02*
X-0089785D01*
X-0087650Y0062762D02*
Y0061966D01*
X-0088195Y0064580D02*
X-0088500D01*
X-0087944Y0063500D02*
X-0088500D01*
X-0079250Y0075990D02*
Y0075750D01*
Y0076750D02*
Y0076510D01*
X-0087560Y0067794D02*
Y0067408D01*
X-0089500Y0063320D02*
X-0089554D01*
X-0079190Y0080322D02*
Y0076510D01*
X-0087740Y0067857D02*
Y0067450D01*
X-0088370Y0065750D02*
Y0065260D01*
X-0087830Y0069700D02*
Y0068570D01*
X-0088550Y0065750D02*
Y0065500D01*
X-0088640Y0065750D02*
Y0065500D01*
X-0088730Y0065750D02*
Y0065500D01*
X-0088820Y0065750D02*
Y0065500D01*
X-0088740Y0067620D02*
Y0066750D01*
X-0089250Y0066428D02*
Y0065750D01*
X-0089286Y0067640D02*
X-0089540D01*
X-0074420Y0077802D02*
Y0077661D01*
X-0075140Y0075990D02*
Y0074260D01*
X-0077570Y0074450D02*
Y0073760D01*
X-0072050Y0078350D02*
X-0074232D01*
X-0081530Y0081367D02*
Y0078949D01*
X-0085510Y0081275D02*
X-0085725D01*
X-0076198Y0078080D02*
X-0081338D01*
X-0077120Y0082200D02*
Y0081225D01*
X-0077390Y0079272D02*
Y0076750D01*
X-0077750Y0076550D02*
X-0079250D01*
X-0076940Y0080322D02*
Y0079558D01*
X-0076040Y0075906D02*
Y0075398D01*
X-0074780Y0076857D02*
Y0076510D01*
X-0074500Y0074570D02*
X-0076117D01*
X-0077210Y0079092D02*
Y0076750D01*
X-0076213Y0061790D02*
X-0076240D01*
X-0077840Y0079722D02*
Y0076510D01*
X-0076760Y0060750D02*
X-0077250D01*
X-0073760Y0062150D02*
X-0076240D01*
X-0075946Y0061970D02*
X-0076240D01*
X-0073760Y0062240D02*
X-0076240D01*
X-0076760Y0061970D02*
X-0077933D01*
X-0078475Y0059810D02*
X-0078592D01*
X-0081724Y0060890D02*
X-0082750D01*
X-0080180Y0060812D02*
Y0059550D01*
X-0080258Y0060890D02*
X-0081275D01*
X-0081890Y0061050D02*
Y0060750D01*
X-0082750Y0060950D02*
Y0060750D01*
X-0077500Y0061240D02*
X-0077603D01*
X-0080078Y0060710D02*
X-0081102D01*
X-0079453Y0081321D02*
X-0078392Y0080260D01*
X-0080720Y0081683D02*
Y0077088D01*
X-0080810Y0081572D02*
Y0077178D01*
X-0076545Y0076910D02*
X-0080542D01*
X-0080270Y0081276D02*
Y0076638D01*
X-0080360Y0081288D02*
Y0076728D01*
X-0076686Y0077360D02*
X-0080992D01*
X-0080630Y0081465D02*
Y0076998D01*
X-0073700Y0082200D02*
Y0077835D01*
X-0076594Y0077540D02*
X-0081052D01*
X-0081080Y0078338D02*
Y0077661D01*
X-0081170Y0078194D02*
Y0077806D01*
X-0081260Y0078119D02*
Y0077880D01*
X-0083918Y0078800D02*
X-0084979D01*
X-0081170Y0076802D02*
Y0076538D01*
X-0081350Y0076982D02*
Y0076718D01*
X-0081098Y0076730D02*
X-0081362D01*
X-0076018Y0077900D02*
X-0081294D01*
X-0077750Y0079632D02*
Y0076750D01*
X-0080350Y0076010D02*
X-0080642D01*
X-0076653Y0077450D02*
X-0081053D01*
X-0080990Y0081353D02*
Y0077358D01*
X-0081710Y0077102D02*
Y0077078D01*
X-0081800Y0078164D02*
Y0077835D01*
X-0082070Y0076702D02*
Y0075891D01*
X-0081890Y0078275D02*
Y0077724D01*
X-0086250Y0060080D02*
X-0087950D01*
X-0083510Y0080000D02*
Y0079128D01*
X-0081980Y0081359D02*
Y0077348D01*
X-0083690Y0080000D02*
Y0079308D01*
X-0083600Y0080000D02*
Y0079218D01*
X-0081620Y0077066D02*
Y0076988D01*
X-0083780Y0080000D02*
Y0079398D01*
X-0083870Y0080000D02*
Y0079488D01*
X-0083960Y0080000D02*
Y0079578D01*
X-0084050Y0080000D02*
Y0079668D01*
X-0084140Y0080000D02*
Y0079758D01*
X-0083420Y0081307D02*
Y0079038D01*
X-0084500Y0081346D02*
Y0080118D01*
X-0081780Y0077148D02*
X-0080082Y0075450D01*
X-0082510Y0079970D02*
X-0084352D01*
X-0082510Y0078170D02*
X-0083194D01*
X-0083240Y0081275D02*
Y0078867D01*
X-0083094Y0079790D02*
X-0084172D01*
X-0083153Y0079700D02*
X-0084082D01*
X-0072980Y0068862D02*
Y0063682D01*
X-0074780Y0070433D02*
Y0070398D01*
X-0074060Y0070740D02*
Y0069678D01*
X-0073757Y0069710D02*
X-0074092D01*
X-0073760Y0070070D02*
X-0074452D01*
X-0074240Y0069122D02*
Y0068000D01*
X-0074200Y0068990D02*
X-0078490D01*
X-0073340Y0069222D02*
Y0069185D01*
X-0081750Y0061290D02*
Y0061050D01*
X-0073880Y0070740D02*
X-0074500D01*
X-0073760Y0069980D02*
X-0074362D01*
X-0074780Y0070740D02*
Y0070566D01*
X-0074510Y0069392D02*
Y0068378D01*
X-0074978Y0068111D02*
X-0074760Y0067892D01*
X-0083870Y0065240D02*
Y0065079D01*
X-0084590Y0064025D02*
Y0063760D01*
X-0075050Y0076803D02*
Y0076510D01*
X-0072050Y0063950D02*
X-0074240D01*
X-0076670Y0070240D02*
Y0067510D01*
X-0077250Y0068300D02*
X-0077932D01*
X-0080810Y0071822D02*
Y0071558D01*
X-0081218Y0071150D02*
X-0081482D01*
X-0081308Y0071060D02*
X-0081572D01*
X-0081080Y0071552D02*
Y0071288D01*
X-0081170Y0071462D02*
Y0071198D01*
X-0081260Y0071372D02*
Y0071108D01*
X-0080900Y0075532D02*
Y0072462D01*
X-0080360Y0074992D02*
Y0072510D01*
X-0081530Y0071102D02*
Y0070838D01*
X-0081440Y0076072D02*
Y0071928D01*
X-0080630Y0071990D02*
Y0071738D01*
X-0080720Y0071912D02*
Y0071648D01*
X-0080270Y0071362D02*
Y0071098D01*
X-0081298Y0070070D02*
X-0081562D01*
X-0082128Y0071240D02*
X-0082689D01*
X-0082880Y0071049D02*
Y0070488D01*
X-0082218Y0071150D02*
X-0082779D01*
X-0080810Y0070822D02*
Y0070558D01*
X-0080900Y0070732D02*
Y0070468D01*
X-0082430Y0070202D02*
Y0070162D01*
X-0081800Y0069832D02*
Y0069568D01*
X-0082018Y0069350D02*
X-0082044D01*
X-0081568Y0069800D02*
X-0081803D01*
X-0081890Y0070742D02*
Y0070478D01*
X-0081658Y0069710D02*
X-0081802D01*
X-0084230Y0069704D02*
Y0069260D01*
X-0081758Y0070610D02*
X-0082022D01*
X-0081848Y0070520D02*
X-0082112D01*
X-0082160Y0070472D02*
Y0070208D01*
X-0080498Y0071870D02*
X-0080762D01*
X-0080540Y0075172D02*
Y0072510D01*
X-0077750Y0075260D02*
X-0078383D01*
X-0082602Y0070030D02*
X-0082806Y0069826D01*
X-0084410Y0067240D02*
Y0067185D01*
X-0081080Y0067990D02*
Y0066698D01*
Y0070552D02*
Y0070288D01*
X-0084447Y0066920D02*
X-0085212D01*
X-0085220Y0066912D02*
Y0066392D01*
X-0081010Y0066830D02*
X-0081212D01*
X-0086120Y0069700D02*
Y0068510D01*
X-0086880Y0065400D02*
Y0064760D01*
X-0086048Y0067820D02*
X-0086336D01*
X-0086120Y0066494D02*
Y0066300D01*
X-0079910Y0068972D02*
Y0067760D01*
X-0085350Y0059180D02*
X-0087775D01*
X-0079847Y0069035D02*
X-0080814Y0068068D01*
X-0079280Y0069433D02*
Y0067760D01*
X-0079370Y0069215D02*
Y0067760D01*
X-0080450Y0068432D02*
Y0067760D01*
X-0078920Y0068552D02*
Y0067760D01*
X-0078470Y0068102D02*
Y0067758D01*
X-0075505Y0068900D02*
X-0078490D01*
X-0074150Y0068794D02*
Y0063768D01*
X-0086390Y0066563D02*
Y0066300D01*
X-0076220Y0074551D02*
Y0074260D01*
X-0081350Y0075982D02*
Y0072018D01*
X-0079010Y0068750D02*
Y0067760D01*
X-0077930Y0066000D02*
Y0065798D01*
X-0074240Y0077119D02*
Y0076750D01*
X-0074420Y0077338D02*
Y0076750D01*
X-0076750D02*
Y0076510D01*
X-0072050Y0077630D02*
X-0073569D01*
X-0075770Y0079152D02*
Y0078388D01*
X-0075500Y0078882D02*
Y0078118D01*
X-0075590Y0078972D02*
Y0078208D01*
X-0075680Y0079062D02*
Y0078298D01*
X-0075140Y0078522D02*
Y0077758D01*
X-0075230Y0078612D02*
Y0077848D01*
X-0075320Y0078702D02*
Y0077938D01*
X-0075410Y0078792D02*
Y0078028D01*
X-0076310Y0079692D02*
Y0078928D01*
X-0076040Y0079422D02*
Y0078658D01*
X-0076130Y0079512D02*
Y0078748D01*
X-0076220Y0079602D02*
Y0078838D01*
X-0075860Y0079242D02*
Y0078478D01*
X-0075950Y0079332D02*
Y0078568D01*
X-0076400Y0079782D02*
Y0079018D01*
X-0076490Y0079872D02*
Y0079108D01*
X-0076580Y0079962D02*
Y0079198D01*
X-0076670Y0080052D02*
Y0079288D01*
X-0076760Y0080142D02*
Y0079378D01*
X-0074600Y0077982D02*
Y0077456D01*
X-0074690Y0078072D02*
Y0077576D01*
X-0074780Y0078162D02*
Y0077642D01*
X-0074870Y0078252D02*
Y0077681D01*
X-0074960Y0078342D02*
Y0077698D01*
X-0075050Y0078432D02*
Y0077697D01*
X-0075958Y0079340D02*
X-0076722D01*
X-0075868Y0079250D02*
X-0076632D01*
X-0078453Y0081321D02*
X-0078392Y0081260D01*
X-0075778Y0079160D02*
X-0076542D01*
X-0075688Y0079070D02*
X-0076452D01*
X-0075598Y0078980D02*
X-0076362D01*
X-0074960Y0082200D02*
Y0079078D01*
X-0074448Y0077540D02*
X-0074656D01*
X-0074428Y0077810D02*
X-0075192D01*
X-0075508Y0078890D02*
X-0076272D01*
X-0075418Y0078800D02*
X-0076182D01*
X-0075328Y0078710D02*
X-0076092D01*
X-0075238Y0078620D02*
X-0076002D01*
X-0075148Y0078530D02*
X-0075912D01*
X-0075058Y0078440D02*
X-0075822D01*
X-0074968Y0078350D02*
X-0075732D01*
X-0074878Y0078260D02*
X-0075642D01*
X-0074608Y0077990D02*
X-0075372D01*
X-0072050D02*
X-0073872D01*
X-0073790Y0082200D02*
Y0077903D01*
X-0073880Y0082200D02*
Y0077998D01*
X-0073970Y0082200D02*
Y0078088D01*
X-0074060Y0082200D02*
Y0078178D01*
X-0072050Y0077450D02*
X-0073553D01*
X-0072050Y0080870D02*
X-0076752D01*
X-0072050Y0076910D02*
X-0074705D01*
X-0072050Y0077090D02*
X-0073814D01*
X-0072050Y0080600D02*
X-0076482D01*
X-0072050Y0080510D02*
X-0076392D01*
X-0072050Y0080420D02*
X-0076302D01*
X-0072050Y0080330D02*
X-0076212D01*
X-0072050Y0080150D02*
X-0076032D01*
X-0072050Y0080060D02*
X-0075942D01*
X-0072050Y0079880D02*
X-0075762D01*
X-0072050Y0079790D02*
X-0075672D01*
X-0072050Y0079700D02*
X-0075582D01*
X-0072050Y0079610D02*
X-0075492D01*
X-0073610Y0082200D02*
Y0077724D01*
X-0077390Y0082200D02*
Y0081260D01*
X-0072050Y0079430D02*
X-0075312D01*
X-0077570Y0079452D02*
Y0076750D01*
X-0078650Y0080787D02*
Y0080518D01*
X-0078290Y0081277D02*
Y0081260D01*
X-0078020Y0080740D02*
Y0080260D01*
X-0078380Y0080740D02*
Y0080260D01*
X-0077840Y0080740D02*
Y0080260D01*
X-0077930Y0080740D02*
Y0080260D01*
X-0077660Y0080740D02*
Y0080244D01*
X-0078936Y0068568D02*
X-0078250Y0067882D01*
X-0077184Y0066380D02*
X-0077250D01*
X-0075618Y0066200D02*
X-0076414D01*
X-0077300Y0066000D02*
Y0065818D01*
X-0075505Y0067100D02*
X-0076032D01*
X-0077840Y0066000D02*
Y0065760D01*
X-0076490Y0066990D02*
Y0066867D01*
X-0072050Y0065030D02*
X-0074240D01*
X-0072050Y0064850D02*
X-0074240D01*
X-0076040Y0067092D02*
Y0064260D01*
X-0076310Y0066990D02*
Y0066594D01*
X-0076400Y0066990D02*
Y0066783D01*
X-0074760Y0065300D02*
X-0077084D01*
X-0077148Y0066290D02*
X-0077250D01*
X-0075591Y0069170D02*
X-0077275D01*
X-0076850Y0070240D02*
Y0067510D01*
X-0074760Y0066740D02*
X-0074840D01*
X-0076310Y0070240D02*
Y0067558D01*
X-0075471Y0066920D02*
X-0076588D01*
X-0075591Y0066830D02*
X-0076444D01*
X-0075659Y0066740D02*
X-0076369D01*
X-0075700Y0066650D02*
X-0076326D01*
X-0075721Y0066560D02*
X-0076304D01*
X-0082510Y0080420D02*
X-0083450D01*
X-0082510Y0080510D02*
X-0083450D01*
X-0077458Y0079340D02*
X-0081990D01*
X-0082510Y0080690D02*
X-0083450D01*
X-0082510Y0080780D02*
X-0083450D01*
X-0082510Y0080870D02*
X-0083450D01*
X-0082510Y0080960D02*
X-0083450D01*
X-0081947Y0077450D02*
X-0081990D01*
X-0080008Y0081140D02*
X-0081990D01*
X-0081620Y0076252D02*
Y0071748D01*
X-0081918Y0076550D02*
X-0082729D01*
X-0081826Y0077810D02*
X-0081990D01*
X-0081706Y0077900D02*
X-0081990D01*
X-0076108Y0077990D02*
X-0081990D01*
X-0080990Y0070642D02*
Y0070378D01*
X-0079918Y0081050D02*
X-0081990D01*
X-0081835Y0078800D02*
X-0081990D01*
X-0081880Y0078260D02*
X-0081990D01*
X-0081924Y0078350D02*
X-0081990D01*
X-0081898Y0078710D02*
X-0081990D01*
X-0080450Y0081319D02*
Y0076818D01*
X-0080648Y0076280D02*
X-0080912D01*
X-0072050Y0074660D02*
X-0072169D01*
X-0081080Y0076712D02*
Y0076448D01*
X-0080738Y0076370D02*
X-0081002D01*
X-0082510Y0078440D02*
X-0083054D01*
X-0076288Y0078170D02*
X-0081194D01*
X-0081948Y0077540D02*
X-0081990D01*
X-0075590Y0077472D02*
Y0076670D01*
X-0076808Y0073940D02*
X-0078155D01*
X-0076564Y0065818D02*
X-0077064Y0065318D01*
X-0081440Y0071192D02*
Y0070928D01*
X-0079820Y0069030D02*
Y0067760D01*
X-0081118Y0070250D02*
X-0081382D01*
X-0076580Y0070240D02*
Y0067510D01*
X-0077750Y0080740D02*
Y0080260D01*
X-0077358Y0080740D02*
X-0078500D01*
X-0072050Y0076820D02*
X-0074867D01*
X-0078830Y0080962D02*
Y0080698D01*
X-0077570Y0080740D02*
Y0080187D01*
X-0078920Y0081052D02*
Y0080788D01*
X-0079100Y0081232D02*
Y0080968D01*
X-0078828Y0080960D02*
X-0079092D01*
X-0072050Y0081230D02*
X-0077129D01*
X-0077570Y0082200D02*
Y0081260D01*
X-0072050Y0081140D02*
X-0077022D01*
X-0079098Y0081230D02*
X-0079362D01*
X-0077218Y0080600D02*
X-0078732D01*
X-0074698Y0078080D02*
X-0075462D01*
X-0079190Y0081279D02*
Y0081058D01*
X-0078738Y0080870D02*
X-0079002D01*
X-0077750Y0080260D02*
X-0078392D01*
X-0085750Y0080060D02*
X-0086200D01*
X-0077038Y0080420D02*
X-0078552D01*
X-0072050Y0080960D02*
X-0076842D01*
X-0074150Y0074450D02*
Y0074260D01*
X-0076117Y0076510D02*
X-0076750D01*
X-0074510Y0082200D02*
Y0078628D01*
X-0075770Y0082200D02*
Y0079888D01*
X-0075230Y0082200D02*
Y0079348D01*
X-0075320Y0082200D02*
Y0079438D01*
X-0075410Y0082200D02*
Y0079528D01*
X-0076310Y0082200D02*
Y0080428D01*
X-0076040Y0082200D02*
Y0080158D01*
X-0076130Y0082200D02*
Y0080248D01*
X-0076220Y0082200D02*
Y0080338D01*
X-0075860Y0082200D02*
Y0079978D01*
X-0075950Y0082200D02*
Y0080068D01*
X-0076400Y0082200D02*
Y0080518D01*
X-0076490Y0082200D02*
Y0080608D01*
X-0076760Y0078642D02*
Y0076750D01*
X-0082510Y0081140D02*
X-0084990D01*
X-0078290Y0080740D02*
Y0080260D01*
X-0077840Y0081511D02*
Y0081260D01*
X-0078380Y0081293D02*
Y0081260D01*
X-0076768Y0080150D02*
X-0077532D01*
X-0072050Y0079970D02*
X-0075852D01*
X-0077030Y0082200D02*
Y0081148D01*
X-0072050Y0081050D02*
X-0076932D01*
X-0076678Y0080060D02*
X-0077442D01*
X-0076498Y0079880D02*
X-0077262D01*
X-0076408Y0079790D02*
X-0077172D01*
X-0076318Y0079700D02*
X-0077082D01*
X-0074870Y0082200D02*
Y0078988D01*
X-0076670Y0082200D02*
Y0080788D01*
X-0075050Y0082200D02*
Y0079168D01*
X-0077358Y0080740D02*
X-0074371Y0077754D01*
X-0076228Y0079610D02*
X-0076992D01*
X-0074431Y0077630D02*
X-0074759D01*
X-0072050Y0077540D02*
X-0073552D01*
X-0072050Y0077720D02*
X-0073607D01*
X-0072050Y0078980D02*
X-0074862D01*
X-0072050Y0077810D02*
X-0073674D01*
X-0072050Y0079070D02*
X-0074952D01*
X-0074518Y0077900D02*
X-0075282D01*
X-0072050D02*
X-0073787D01*
X-0072050Y0078890D02*
X-0074772D01*
X-0076310Y0078192D02*
Y0077696D01*
X-0076130Y0078012D02*
Y0077684D01*
X-0075860Y0077742D02*
Y0077474D01*
X-0076400Y0078282D02*
Y0077674D01*
X-0076580Y0078462D02*
Y0077556D01*
X-0072050Y0078170D02*
X-0074052D01*
X-0078200Y0081278D02*
Y0081260D01*
X-0077128Y0080510D02*
X-0078642D01*
X-0077300Y0082200D02*
Y0081260D01*
Y0079182D02*
Y0076750D01*
X-0076948Y0080330D02*
X-0078462D01*
X-0076138Y0079520D02*
X-0076902D01*
X-0076850Y0078732D02*
Y0076750D01*
X-0077030Y0080412D02*
Y0079648D01*
X-0076850Y0080232D02*
Y0079468D01*
X-0076580Y0082200D02*
Y0080698D01*
X-0076760Y0082200D02*
Y0080878D01*
X-0074600Y0082200D02*
Y0078718D01*
X-0074690Y0082200D02*
Y0078808D01*
X-0074780Y0082200D02*
Y0078898D01*
X-0076117Y0075990D02*
X-0076750D01*
X-0075500Y0082200D02*
Y0079618D01*
X-0075590Y0082200D02*
Y0079708D01*
X-0075680Y0082200D02*
Y0079798D01*
X-0072050Y0079340D02*
X-0075222D01*
X-0072050Y0079250D02*
X-0075132D01*
X-0074060Y0077054D02*
Y0076750D01*
X-0074760Y0066020D02*
X-0076491D01*
X-0090628Y0064490D02*
X-0091200D01*
X-0074500Y0076730D02*
X-0076750D01*
X-0089000Y0069700D02*
Y0068460D01*
X-0080160Y0062510D02*
X-0080392D01*
X-0080150Y0062420D02*
X-0080302D01*
X-0080026Y0062240D02*
X-0080122D01*
X-0078201Y0061070D02*
X-0078805D01*
X-0078469Y0061430D02*
X-0079117D01*
X-0078447Y0061340D02*
X-0078955D01*
X-0090550Y0066650D02*
X-0091200D01*
X-0078284Y0061880D02*
X-0079762D01*
X-0079550Y0062180D02*
Y0061668D01*
X-0078470Y0062433D02*
Y0061566D01*
X-0076760Y0062250D02*
Y0061950D01*
X-0077500Y0060980D02*
X-0078800D01*
X-0078066Y0061970D02*
X-0079852D01*
X-0078403Y0061250D02*
X-0078876D01*
X-0074973Y0059540D02*
X-0075027D01*
X-0080111Y0062330D02*
X-0080212D01*
X-0077010Y0066108D02*
X-0077358Y0065760D01*
X-0077250Y0066000D02*
X-0078132D01*
X-0080630Y0061262D02*
Y0059550D01*
X-0078397Y0062240D02*
X-0079000D01*
X-0081440Y0061142D02*
Y0060946D01*
X-0089260Y0067100D02*
X-0091200D01*
X-0076490Y0076869D02*
Y0076510D01*
X-0073760Y0069800D02*
X-0074182D01*
X-0085130Y0065569D02*
Y0064975D01*
X-0084746Y0065628D02*
X-0084436Y0065318D01*
X-0078650Y0070990D02*
Y0069964D01*
X-0081588Y0071780D02*
X-0082149D01*
X-0079910Y0071490D02*
Y0071455D01*
X-0082250Y0069300D02*
Y0069260D01*
X-0080350Y0071990D02*
X-0080642D01*
X-0080403Y0071960D02*
X-0080672D01*
X-0080678Y0071690D02*
X-0080942D01*
X-0080768Y0071600D02*
X-0081032D01*
X-0080858Y0071510D02*
X-0081122D01*
X-0080948Y0071420D02*
X-0081212D01*
X-0080630Y0071002D02*
Y0070738D01*
X-0081578Y0070790D02*
X-0081842D01*
X-0080450Y0075082D02*
Y0072510D01*
Y0071990D02*
Y0071918D01*
X-0080630Y0075262D02*
Y0072510D01*
X-0081080Y0075712D02*
Y0072288D01*
X-0076624Y0077000D02*
X-0080632D01*
X-0081260Y0075892D02*
Y0072108D01*
X-0081980Y0070652D02*
Y0070388D01*
X-0082435Y0070160D02*
X-0082472D01*
X-0082678Y0069890D02*
X-0082742D01*
X-0082118Y0070250D02*
X-0082382D01*
X-0080828Y0076460D02*
X-0081092D01*
X-0081710Y0072220D02*
Y0071658D01*
X-0082576Y0069440D02*
X-0082924D01*
X-0080137Y0072770D02*
X-0081700D01*
X-0081800Y0072129D02*
Y0071568D01*
X-0081890Y0072039D02*
Y0071478D01*
X-0082436Y0077068D02*
X-0080250Y0074882D01*
X-0082398Y0070970D02*
X-0082959D01*
X-0082070Y0071859D02*
Y0071298D01*
X-0081748Y0069620D02*
X-0081819D01*
X-0082430Y0071499D02*
Y0070938D01*
X-0083330Y0070599D02*
Y0070193D01*
X-0083240Y0078133D02*
Y0077061D01*
X-0082028Y0070340D02*
X-0082292D01*
X-0083456Y0069350D02*
X-0084717D01*
X-0082456D02*
X-0083044D01*
X-0082697Y0069800D02*
X-0082803D01*
X-0083690Y0069655D02*
Y0069260D01*
X-0088727Y0069350D02*
X-0090273D01*
X-0081890Y0077275D02*
Y0077258D01*
X-0081478Y0069890D02*
X-0081742D01*
X-0082430Y0069337D02*
Y0069260D01*
X-0082520Y0069390D02*
Y0069260D01*
X-0084770Y0079652D02*
Y0078591D01*
X-0080990Y0075622D02*
Y0072378D01*
X-0080540Y0071990D02*
Y0071828D01*
X-0078658Y0073310D02*
X-0079424D01*
X-0080810Y0075442D02*
Y0072503D01*
X-0080720Y0075352D02*
Y0072508D01*
X-0078691Y0072590D02*
X-0079564D01*
X-0080270Y0074902D02*
Y0072510D01*
X-0079910Y0072579D02*
Y0072510D01*
X-0079250Y0074450D02*
X-0079490D01*
X-0076382Y0076820D02*
X-0080452D01*
X-0079153Y0075200D02*
X-0079250D01*
X-0077750Y0074740D02*
Y0074450D01*
X-0079550Y0072597D02*
Y0072510D01*
X-0081318Y0072050D02*
X-0081879D01*
X-0078560Y0075990D02*
Y0075408D01*
X-0078693Y0073580D02*
X-0079490D01*
X-0080270Y0075991D02*
Y0075638D01*
X-0080090Y0075750D02*
Y0075458D01*
X-0072980Y0075740D02*
Y0074260D01*
X-0080360Y0076014D02*
Y0075728D01*
X-0078630Y0072740D02*
X-0079383D01*
X-0081530Y0078051D02*
Y0077949D01*
X-0075590Y0075829D02*
Y0074260D01*
X-0080250Y0076640D02*
X-0080272D01*
X-0080180Y0072867D02*
Y0072510D01*
X-0076490Y0074619D02*
Y0074358D01*
X-0076382Y0074570D02*
X-0076702D01*
X-0076670Y0073803D02*
Y0073760D01*
X-0073970Y0074450D02*
Y0074260D01*
X-0074060Y0074450D02*
Y0074260D01*
X-0077660Y0079542D02*
Y0076750D01*
X-0073500D02*
Y0076260D01*
X-0074240Y0074450D02*
Y0074260D01*
X-0074500Y0076750D02*
Y0076510D01*
X-0075680Y0077562D02*
Y0076694D01*
X-0074420Y0074450D02*
Y0074260D01*
X-0080153Y0081285D02*
X-0078686Y0079818D01*
X-0074500Y0076510D02*
X-0075383D01*
X-0076130Y0074566D02*
Y0074260D01*
X-0075860Y0075813D02*
Y0075224D01*
X-0087560Y0066592D02*
Y0066240D01*
X-0076400Y0074576D02*
Y0074268D01*
X-0074330Y0074450D02*
Y0074260D01*
X-0074510Y0077892D02*
Y0076510D01*
X-0074600Y0075990D02*
Y0074260D01*
X-0074690Y0075990D02*
Y0074260D01*
X-0073610Y0074450D02*
Y0074260D01*
X-0074500Y0074660D02*
X-0075955D01*
X-0076040Y0074602D02*
Y0074260D01*
X-0075140Y0076822D02*
Y0076510D01*
X-0077078Y0074210D02*
X-0079490D01*
X-0079094Y0075290D02*
X-0079250D01*
X-0079186Y0075110D02*
X-0079250D01*
X-0077750Y0075750D02*
Y0075450D01*
X-0074780Y0075990D02*
Y0074260D01*
X-0074870Y0075990D02*
Y0074260D01*
X-0074960Y0075990D02*
Y0074260D01*
X-0073070Y0082200D02*
Y0076260D01*
X-0076750Y0074618D02*
X-0076392Y0074260D01*
X-0076545Y0074660D02*
X-0076750D01*
X-0073340Y0082200D02*
Y0076260D01*
X-0073160Y0082200D02*
Y0076260D01*
X-0078132Y0066000D02*
X-0077892Y0065760D01*
X-0076220Y0075990D02*
Y0075449D01*
X-0080900Y0076532D02*
Y0076268D01*
X-0072770Y0074390D02*
X-0076522D01*
X-0073880Y0074450D02*
Y0074260D01*
X-0081949Y0078530D02*
X-0081990D01*
X-0081934Y0078620D02*
X-0081990D01*
X-0077450Y0070584D02*
Y0070000D01*
X-0077750Y0075450D02*
Y0075260D01*
X-0079199Y0075020D02*
X-0079250D01*
X-0077300Y0074432D02*
Y0073760D01*
X-0078666Y0073670D02*
X-0079490D01*
X-0076940Y0074072D02*
Y0073760D01*
X-0076718Y0073850D02*
X-0077967D01*
X-0076850Y0073982D02*
Y0073760D01*
X-0076898Y0074030D02*
X-0079490D01*
X-0077390Y0074450D02*
Y0073760D01*
X-0078380Y0075990D02*
Y0075260D01*
X-0077930Y0074740D02*
Y0073816D01*
X-0078110Y0074740D02*
Y0073928D01*
X-0084590Y0069700D02*
Y0069260D01*
X-0078200Y0074740D02*
Y0073947D01*
X-0076117Y0075990D02*
X-0076750D01*
X-0078830D02*
Y0075443D01*
X-0074760Y0066380D02*
X-0074791D01*
X-0078920Y0072740D02*
Y0072510D01*
X-0080144Y0062600D02*
X-0080288D01*
X-0077660Y0075750D02*
Y0075450D01*
X-0077260Y0063250D02*
X-0077500D01*
X-0090620Y0059202D02*
Y0059050D01*
X-0080360Y0068522D02*
Y0067760D01*
X-0085040Y0067092D02*
Y0066448D01*
X-0085750Y0066300D02*
Y0065300D01*
X-0080000Y0068882D02*
Y0067760D01*
X-0079640Y0069038D02*
Y0067760D01*
X-0078818Y0068450D02*
X-0080432D01*
X-0081530Y0070102D02*
Y0069838D01*
X-0078278Y0067910D02*
X-0081700D01*
X-0079008Y0068720D02*
X-0080162D01*
X-0090350Y0065750D02*
Y0064768D01*
X-0079280Y0074450D02*
Y0073260D01*
X-0076694Y0077180D02*
X-0080812D01*
X-0076670Y0077090D02*
X-0080722D01*
X-0076491Y0077630D02*
X-0081069D01*
X-0081278Y0076910D02*
X-0081542D01*
X-0077750Y0082200D02*
Y0081260D01*
G01X-0088540Y0068000D02*
G03X-0089000Y0068460I0000460J0000000D01*
G03X-0089460Y0068000I0000000J0000460D01*
G01X-0078250Y0081275D02*
G03X-0077775Y0081750I0000000J0000475D01*
G03X-0078099Y0082200I0000475J0000000D01*
G01X-0078684Y0079816D02*
G03X-0078500Y0079740I0000184J0000184D01*
G01X-0080725Y0081750D02*
G03X-0080250Y0081275I0000475J0000000D01*
G01X-0081725Y0081750D02*
G03X-0081250Y0081275I0000475J0000000D01*
G03X-0080775Y0081750I0000000J0000475D01*
G01X-0080401Y0082200D02*
G03X-0080725Y0081750I0000151J0000450D01*
G01X-0082750Y0079050D02*
G03X-0082510Y0079119I0000000J0000450D01*
Y0079880D02*
G03X-0082750Y0079949I0000240J0000380D01*
G01X-0081401Y0082200D02*
G03X-0081725Y0081750I0000151J0000450D01*
G01X-0081775D02*
G03X-0082099Y0082200I0000475J0000000D01*
G01X-0083725Y0081750D02*
G03X-0083250Y0081275I0000475J0000000D01*
G03X-0082775Y0081750I0000000J0000475D01*
G01X-0082401Y0082200D02*
G03X-0082725Y0081750I0000151J0000450D01*
G01X-0082775D02*
G03X-0083099Y0082200I0000475J0000000D01*
G01X-0084725Y0081750D02*
G03X-0084250Y0081275I0000475J0000000D01*
G03X-0083775Y0081750I0000000J0000475D01*
G01X-0083401Y0082200D02*
G03X-0083725Y0081750I0000151J0000450D01*
G01X-0083775D02*
G03X-0084099Y0082200I0000475J0000000D01*
G01X-0084401D02*
G03X-0084725Y0081750I0000151J0000450D01*
G01X-0072975Y0059500D02*
G03X-0072651Y0059050I0000475J0000000D01*
G01X-0072349D02*
G03X-0072050Y0059349I0000151J0000450D01*
G01X-0072500Y0059975D02*
G03X-0072975Y0059500I0000000J0000475D01*
G01X-0072050Y0059651D02*
G03X-0072500Y0059975I0000450J0000151D01*
G01X-0073975Y0059500D02*
G03X-0073651Y0059050I0000475J0000000D01*
G01X-0073025Y0059500D02*
G03X-0073500Y0059975I0000475J0000000D01*
G03X-0073975Y0059500I0000000J0000475D01*
G01X-0073349Y0059050D02*
G03X-0073025Y0059500I0000151J0000450D01*
G01X-0074975D02*
G03X-0074651Y0059050I0000475J0000000D01*
G01X-0074349D02*
G03X-0074025Y0059500I0000151J0000450D01*
G01X-0079187Y0060554D02*
G03X-0078800Y0061000I0000063J0000446D01*
G01X-0075349Y0059050D02*
G03X-0075025Y0059500I0000151J0000450D01*
G01X-0075725Y0066500D02*
G03X-0075250Y0066025I0000475J0000000D01*
G03X-0074775Y0066500I0000000J0000475D01*
G03X-0075250Y0066975I0000475J0000000D01*
G03X-0075725Y0066500I0000000J0000475D01*
G01X-0075250Y0067025D02*
G03X-0074775Y0067500I0000000J0000475D01*
G03X-0075250Y0067975I0000475J0000000D01*
G01X-0075725Y0068500D02*
G03X-0075250Y0068025I0000475J0000000D01*
Y0068975D02*
G03X-0075725Y0068500I0000000J0000475D01*
Y0069500D02*
G03X-0075250Y0069025I0000475J0000000D01*
G03X-0074775Y0069500I0000000J0000475D01*
G01X-0075250Y0069975D02*
G03X-0075725Y0069500I0000000J0000475D01*
G01X-0075046Y0069929D02*
G03X-0075250Y0069975I0000204J0000429D01*
G01X-0079850Y0071490D02*
G03X-0079934Y0071434I0000100J0000240D01*
G01X-0073470Y0069352D02*
G03X-0073750Y0069450I0000280J0000352D01*
G01X-0072500Y0068525D02*
G03X-0072050Y0068849I0000000J0000475D01*
G01X-0072975Y0075000D02*
G03X-0072500Y0074525I0000475J0000000D01*
G01X-0072050Y0074151D02*
G03X-0072500Y0074475I0000450J0000151D01*
Y0074525D02*
G03X-0072050Y0074849I0000000J0000475D01*
G01X-0072500Y0075475D02*
G03X-0072975Y0075000I0000000J0000475D01*
G01X-0072050Y0075151D02*
G03X-0072500Y0075475I0000450J0000151D01*
G01X-0085475Y0059500D02*
G03X-0085151Y0059050I0000475J0000000D01*
G01X-0084525Y0059500D02*
G03X-0085000Y0059975I0000475J0000000D01*
G03X-0085475Y0059500I0000000J0000475D01*
G01X-0086200Y0062500D02*
G03X-0086124Y0062250I0000450J0000000D01*
G01X-0084525Y0062500D02*
G03X-0085000Y0062975I0000475J0000000D01*
G01X-0078000Y0063025D02*
G03X-0077525Y0063500I0000000J0000475D01*
G01X-0078475Y0062500D02*
G03X-0078000Y0062025I0000475J0000000D01*
G03X-0077525Y0062500I0000000J0000475D01*
G03X-0078000Y0062975I0000475J0000000D01*
G01X-0079000Y0062240D02*
G03X-0078816Y0062316I0000000J0000260D01*
G01X-0078475Y0061500D02*
G03X-0078000Y0061025I0000475J0000000D01*
Y0061975D02*
G03X-0078475Y0061500I0000000J0000475D01*
Y0060500D02*
G03X-0078000Y0060025I0000475J0000000D01*
G03X-0077525Y0060500I0000000J0000475D01*
G03X-0078000Y0060975I0000475J0000000D01*
G03X-0078475Y0060500I0000000J0000475D01*
G01X-0090725Y0059500D02*
G03X-0090401Y0059050I0000475J0000000D01*
G01X-0089725Y0059500D02*
G03X-0089401Y0059050I0000475J0000000D01*
G01X-0088775Y0059500D02*
G03X-0089250Y0059975I0000475J0000000D01*
G03X-0089725Y0059500I0000000J0000475D01*
G01X-0089099Y0059050D02*
G03X-0088775Y0059500I0000151J0000450D01*
G01X-0079750Y0069025D02*
G03X-0079275Y0069500I0000000J0000475D01*
G01X-0078275D02*
G03X-0078750Y0069975I0000475J0000000D01*
G03X-0079225Y0069500I0000000J0000475D01*
G01X-0081700Y0075500D02*
G03X-0081714Y0075535I0000050J0000000D01*
Y0072214D02*
G03X-0081699Y0072250I0000036J0000036D01*
G01X-0079200Y0059500D02*
G03X-0079250Y0059550I0000050J0000000D01*
G01X-0084000D02*
G03X-0084050Y0059500I0000000J0000050D01*
G01X-0084250Y0069700D02*
G03X-0084214Y0069714I0000000J0000050D01*
G01X-0089550Y0069750D02*
G03X-0089500Y0069700I0000050J0000000D01*
G01X-0079010Y0068750D02*
G03X-0078934Y0068566I0000260J0000000D01*
G01X-0080434Y0076066D02*
G03X-0080250Y0075990I0000184J0000184D01*
G01X-0084596Y0062250D02*
G03X-0084525Y0062500I0000404J0000250D01*
G01X-0085000Y0061025D02*
G03X-0084679Y0061150I0000000J0000475D01*
G01X-0085300Y0064000D02*
G03X-0085301Y0064025I0000450J0000000D01*
G01X-0085390Y0062770D02*
G03X-0085750Y0062950I0000360J0000270D01*
G01X-0085250Y0060096D02*
G03X-0085000Y0060025I0000250J0000404D01*
G01X-0073821Y0075750D02*
G03X-0073750Y0075740I0000071J0000250D01*
G01X-0090490Y0062977D02*
G03X-0090059Y0062740I0000431J0000273D01*
G01X-0085000Y0060975D02*
G03X-0085250Y0060903I0000000J0000475D01*
G01X-0080010Y0073367D02*
G03X-0080200Y0073000I0000260J0000367D01*
G01X-0085390Y0062770D02*
G03X-0085750Y0062950I0000360J0000270D01*
G01X-0077450Y0070584D02*
G03X-0077434Y0070566I0000200J0000166D01*
G01X-0088740Y0067620D02*
G03X-0088540Y0068000I0000260J0000380D01*
G01X-0089460D02*
G03X-0089260Y0067620I0000460J0000000D01*
Y0066500D02*
G03X-0089250Y0066428I0000260J0000000D01*
G01X-0089260Y0066500D02*
G03X-0089250Y0066428I0000260J0000000D01*
G01X-0088750Y0064260D02*
G03X-0088916Y0064200I0000000J0000260D01*
G01X-0085390Y0062770D02*
G03X-0085750Y0062950I0000360J0000270D01*
G01X-0089750Y0065260D02*
G03X-0089934Y0065184I0000000J0000260D01*
G01X-0085390Y0062770D02*
G03X-0085750Y0062950I0000360J0000270D01*
G01X-0090059Y0063760D02*
G03X-0090490Y0063523I0000000J0000510D01*
G01X-0089775Y0059500D02*
G03X-0089990Y0059897I0000475J0000000D01*
G01X-0075025Y0059500D02*
G03X-0075096Y0059750I0000475J0000000D01*
G01X-0074760Y0059897D02*
G03X-0074975Y0059500I0000260J0000397D01*
G01X-0084510Y0066250D02*
G03X-0084434Y0066066I0000260J0000000D01*
G01X-0084450Y0067000D02*
G03X-0084443Y0066924I0000450J0000000D01*
G03X-0084510Y0066750I0000193J0000174D01*
G01X-0084566Y0066184D02*
G03X-0084605Y0066216I0000184J0000184D01*
G01X-0082250Y0070200D02*
G03X-0082530Y0070102I0000000J0000450D01*
G01X-0083700Y0069750D02*
G03X-0083250Y0069300I0000450J0000000D01*
G03X-0082800Y0069750I0000000J0000450D01*
G01X-0083250Y0070200D02*
G03X-0083700Y0069750I0000000J0000450D01*
G01X-0079275Y0069500D02*
G03X-0079487Y0069895I0000475J0000000D01*
G01X-0080750Y0072510D02*
G03X-0080934Y0072434I0000000J0000260D01*
G01X-0084443Y0066924D02*
G03X-0084510Y0066750I0000193J0000174D01*
G01X-0076117Y0075990D02*
G03X-0075750Y0075800I0000367J0000260D01*
G01X-0078250Y0073950D02*
G03X-0078700Y0073500I0000000J0000450D01*
G01X-0081617Y0061290D02*
G03X-0081250Y0061100I0000367J0000260D01*
G01X-0081576Y0060056D02*
G03X-0081500Y0060050I0000076J0000444D01*
G03X-0081050Y0060500I0000000J0000450D01*
G03X-0081500Y0060950I0000450J0000000D01*
G01X-0081000Y0067990D02*
G03X-0080816Y0068066I0000000J0000260D01*
G01X-0081000Y0067990D02*
G03X-0080816Y0068066I0000000J0000260D01*
G01X-0078316Y0067684D02*
G03X-0078500Y0067760I0000184J0000184D01*
G01X-0079010Y0068750D02*
G03X-0078934Y0068566I0000260J0000000D01*
G01X-0078490Y0069103D02*
G03X-0078275Y0069500I0000260J0000397D01*
G01X-0079225D02*
G03X-0079010Y0069103I0000475J0000000D01*
G01X-0088200Y0067000D02*
G03X-0087750Y0066550I0000450J0000000D01*
G03X-0087300Y0067000I0000000J0000450D01*
G03X-0087750Y0067450I0000450J0000000D01*
G03X-0088200Y0067000I0000000J0000450D01*
G01X-0076700Y0075000D02*
G03X-0076250Y0074550I0000450J0000000D01*
G03X-0075800Y0075000I0000000J0000450D01*
G03X-0076250Y0075450I0000450J0000000D01*
G03X-0076700Y0075000I0000000J0000450D01*
Y0077250D02*
G03X-0076250Y0076800I0000450J0000000D01*
G03X-0075800Y0077250I0000000J0000450D01*
G03X-0076250Y0077700I0000450J0000000D01*
G03X-0076700Y0077250I0000000J0000450D01*
G01X-0081950Y0078500D02*
G03X-0081500Y0078050I0000450J0000000D01*
G03X-0081050Y0078500I0000000J0000450D01*
G03X-0081500Y0078950I0000450J0000000D01*
G03X-0081950Y0078500I0000000J0000450D01*
G01X-0083200Y0079500D02*
G03X-0082750Y0079050I0000450J0000000D01*
Y0079950D02*
G03X-0083200Y0079500I0000000J0000450D01*
G01X-0080160Y0062500D02*
G03X-0079840Y0062180I0000320J0000000D01*
G01X-0075809Y0061989D02*
G03X-0076240Y0061752I0000000J0000510D01*
G01X-0085000Y0062975D02*
G03X-0085390Y0062770I0000000J0000475D01*
G01X-0080350Y0071990D02*
G03X-0080434Y0071934I0000100J0000240D01*
G01X-0084510Y0066250D02*
G03X-0084434Y0066066I0000260J0000000D01*
G01X-0083771Y0063240D02*
G03X-0083880Y0063000I0000211J0000240D01*
G01X-0090059Y0062740D02*
G03X-0089549Y0063250I0000000J0000510D01*
G03X-0090059Y0063760I0000510J0000000D01*
G01X-0089549Y0061479D02*
G03X-0090059Y0061989I0000510J0000000D01*
G01X-0088010Y0061479D02*
G03X-0087500Y0060969I0000510J0000000D01*
G03X-0086990Y0061479I0000000J0000510D01*
G03X-0087500Y0061989I0000510J0000000D01*
G03X-0088010Y0061479I0000000J0000510D01*
Y0063250D02*
G03X-0087500Y0062740I0000510J0000000D01*
G03X-0086990Y0063250I0000000J0000510D01*
G01X-0075299Y0061479D02*
G03X-0075809Y0061989I0000510J0000000D01*
G01X-0073760Y0061479D02*
G03X-0073250Y0060969I0000510J0000000D01*
G03X-0072740Y0061479I0000000J0000510D01*
Y0063250D02*
G03X-0073250Y0063760I0000510J0000000D01*
G01X-0078316Y0067684D02*
G03X-0078500Y0067760I0000184J0000184D01*
G01X-0081898Y0069470D02*
G03X-0081800Y0069750I0000352J0000280D01*
G01X-0085300Y0066750D02*
G03X-0085306Y0066826I0000450J0000000D01*
G01X-0075627Y0061002D02*
G03X-0075298Y0061479I0000182J0000477D01*
G01X-0073250Y0063760D02*
G03X-0073747Y0063364I0000000J0000510D01*
G01X-0086990Y0063250D02*
G03X-0087358Y0063740I0000510J0000000D01*
G01X-0078750Y0074550D02*
G03X-0078383Y0074740I0000000J0000450D01*
G01X-0081750Y0059990D02*
G03X-0081576Y0060056I0000000J0000260D01*
G01X-0086960Y0068250D02*
G03X-0086500Y0067790I0000460J0000000D01*
G01X-0085500Y0068710D02*
G03X-0085879Y0068510I0000000J0000460D01*
G01X-0086500Y0068710D02*
G03X-0086960Y0068250I0000000J0000460D01*
G01X-0087960D02*
G03X-0087500Y0067790I0000460J0000000D01*
G03X-0087040Y0068250I0000000J0000460D01*
G03X-0087500Y0068710I0000460J0000000D01*
G03X-0087960Y0068250I0000000J0000460D01*
G01X-0088957Y0069700D02*
G03X-0088500Y0069290I0000457J0000050D01*
G01X-0090960Y0069750D02*
G03X-0090500Y0069290I0000460J0000000D01*
G03X-0090040Y0069750I0000000J0000460D01*
G03X-0090500Y0070210I0000460J0000000D01*
G03X-0090960Y0069750I0000000J0000460D01*
G01X-0075750Y0075800D02*
G03X-0075383Y0075990I0000000J0000450D01*
G01X-0091010Y0060750D02*
G03X-0090934Y0060566I0000260J0000000D01*
G01X-0083871Y0078754D02*
G03X-0083950Y0078500I0000371J0000254D01*
G01X-0077184Y0070316D02*
G03X-0077000Y0070240I0000184J0000184D01*
G01X-0085450Y0066000D02*
G03X-0085000Y0065550I0000450J0000000D01*
Y0066450D02*
G03X-0085450Y0066000I0000000J0000450D01*
G01X-0084184Y0065816D02*
G03X-0084100Y0065760I0000184J0000184D01*
G01X-0074785Y0070403D02*
G03X-0074775Y0070500I0000465J0000097D01*
G01X-0084434Y0065316D02*
G03X-0084250Y0065240I0000184J0000184D01*
G01X-0074240Y0068000D02*
G03X-0074316Y0068184I0000260J0000000D01*
G01X-0078453Y0081321D02*
G03X-0078250Y0081275I0000203J0000429D01*
G01X-0073760Y0069750D02*
G03X-0073684Y0069566I0000260J0000000D01*
G01X-0077200Y0066500D02*
G03X-0077010Y0066133I0000450J0000000D01*
G01X-0085328Y0063843D02*
G03X-0085300Y0064000I0000422J0000157D01*
G01X-0085328Y0063843D02*
G03X-0085300Y0064000I0000422J0000157D01*
G01X-0085328Y0063843D02*
G03X-0085300Y0064000I0000422J0000157D01*
G01X-0085328Y0063843D02*
G03X-0085300Y0064000I0000422J0000157D01*
G01X-0086684Y0063316D02*
G03X-0086500Y0063240I0000184J0000184D01*
G01X-0082250Y0069300D02*
G03X-0081970Y0069398I0000000J0000450D01*
G01X-0082700Y0069750D02*
G03X-0082250Y0069300I0000450J0000000D01*
G01X-0083284Y0078895D02*
G03X-0083316Y0078934I0000216J0000145D01*
G01X-0081990Y0081353D02*
G03X-0081775Y0081750I0000260J0000397D01*
G01X-0085450Y0069000D02*
G03X-0085299Y0068664I0000450J0000000D01*
G01X-0085750Y0066300D02*
G03X-0085300Y0066750I0000000J0000450D01*
G01X-0085872Y0067979D02*
G03X-0085934Y0067934I0000122J0000229D01*
G01X-0086193Y0066671D02*
G03X-0085750Y0066300I0000443J0000079D01*
G01X-0086950Y0067000D02*
G03X-0086500Y0066550I0000450J0000000D01*
Y0067450D02*
G03X-0086950Y0067000I0000000J0000450D01*
G01X-0076000Y0067760D02*
G03X-0076184Y0067684I0000000J0000260D01*
G01X-0075250Y0068025D02*
G03X-0074978Y0068111I0000000J0000475D01*
G01X-0076250Y0066990D02*
G03X-0076066Y0067066I0000000J0000260D01*
G01X-0076250Y0066990D02*
G03X-0076066Y0067066I0000000J0000260D01*
G01X-0080500Y0067760D02*
G03X-0080684Y0067684I0000000J0000260D01*
G01X-0080934Y0067434D02*
G03X-0081010Y0067250I0000184J0000184D01*
G01X-0080350Y0071990D02*
G03X-0080434Y0071934I0000100J0000240D01*
G01X-0082510Y0077250D02*
G03X-0082434Y0077066I0000260J0000000D01*
G01X-0080200Y0073000D02*
G03X-0079750Y0072550I0000450J0000000D01*
G01X-0078051Y0063028D02*
G03X-0078000Y0063025I0000051J0000472D01*
G01X-0079000Y0062240D02*
G03X-0078816Y0062316I0000000J0000260D01*
G01X-0081056Y0077424D02*
G03X-0081050Y0077500I0000444J0000076D01*
G01X-0079750Y0072550D02*
G03X-0079383Y0072740I0000000J0000450D01*
G01X-0074450Y0077500D02*
G03X-0074000Y0077050I0000450J0000000D01*
G03X-0073550Y0077500I0000000J0000450D01*
G01X-0078684Y0080816D02*
G03X-0078500Y0080740I0000184J0000184D01*
G01X-0077066Y0081184D02*
G03X-0077250Y0081260I0000184J0000184D01*
Y0065240D02*
G03X-0077066Y0065316I0000000J0000260D01*
G01X-0075443Y0077326D02*
G03X-0075449Y0077250I0000443J0000076D01*
G01X-0077066Y0081184D02*
G03X-0077250Y0081260I0000184J0000184D01*
G01X-0076566Y0065816D02*
G03X-0076490Y0066000I0000184J0000184D01*
G01X-0076300Y0066500D02*
G03X-0076750Y0066950I0000450J0000000D01*
G03X-0077200Y0066500I0000000J0000450D01*
G01X-0073760Y0069750D02*
G03X-0073684Y0069566I0000260J0000000D01*
G01X-0076000Y0067760D02*
G03X-0076184Y0067684I0000000J0000260D01*
G01X-0073950Y0070500D02*
G03X-0073760Y0070133I0000450J0000000D01*
G01X-0074193Y0069076D02*
G03X-0074199Y0069000I0000443J0000076D01*
G01X-0073300D02*
G03X-0073398Y0069280I0000450J0000000D01*
G01X-0073760Y0061729D02*
G03X-0073738Y0061625I0000260J0000000D01*
G01X-0078000Y0062975D02*
G03X-0078051Y0062972I0000000J0000475D01*
G01X-0076684Y0073816D02*
G03X-0076600Y0073760I0000184J0000184D01*
G01X-0082725Y0081750D02*
G03X-0082510Y0081353I0000475J0000000D01*
G01X-0077566Y0080184D02*
G03X-0077750Y0080260I0000184J0000184D01*
G01X-0078684Y0079816D02*
G03X-0078500Y0079740I0000184J0000184D01*
G01X-0077566Y0080184D02*
G03X-0077750Y0080260I0000184J0000184D01*
G01X-0075450Y0077250D02*
G03X-0075000Y0076800I0000450J0000000D01*
G03X-0074550Y0077250I0000000J0000450D01*
G03X-0075000Y0077700I0000450J0000000D01*
G01X-0087240Y0065750D02*
G03X-0087250Y0065821I0000260J0000000D01*
Y0065678D02*
G03X-0087240Y0065750I0000250J0000072D01*
G01X-0088066Y0066434D02*
G03X-0088250Y0066510I0000184J0000184D01*
G01X-0079250Y0061450D02*
G03X-0079326Y0061443I0000000J0000450D01*
G01X-0078800Y0061000D02*
G03X-0079250Y0061450I0000450J0000000D01*
G01X-0079220Y0062180D02*
G03X-0079033Y0062240I0000000J0000320D01*
G01X-0076566Y0065816D02*
G03X-0076490Y0066000I0000184J0000184D01*
G01X-0087934Y0064316D02*
G03X-0087850Y0064260I0000184J0000184D01*
G01X-0085750Y0062950D02*
G03X-0086200Y0062500I0000000J0000450D01*
G01X-0084849Y0059050D02*
G03X-0084525Y0059500I0000151J0000450D01*
G01X-0085320Y0061150D02*
G03X-0085000Y0061026I0000320J0000350D01*
G01X-0085300Y0064000D02*
G03X-0085301Y0064025I0000450J0000000D01*
G01X-0085475Y0064356D02*
G03X-0085750Y0064450I0000275J0000356D01*
G01X-0087641Y0063740D02*
G03X-0088010Y0063250I0000141J0000490D01*
G01X-0090684Y0060316D02*
G03X-0090510Y0060240I0000184J0000184D01*
G01X-0086500Y0066550D02*
G03X-0086193Y0066671I0000000J0000450D01*
G01X-0085397Y0063240D02*
G03X-0085000Y0063025I0000397J0000260D01*
G01X-0085750Y0062950D02*
G03X-0086200Y0062500I0000000J0000450D01*
G01X-0085300Y0064000D02*
G03X-0085301Y0064025I0000450J0000000D01*
G01X-0073784Y0077895D02*
G03X-0073816Y0077934I0000216J0000145D01*
G01X-0083771Y0065240D02*
G03X-0083880Y0065000I0000211J0000240D01*
G01X-0084750Y0060903D02*
G03X-0085000Y0060974I0000250J0000403D01*
G01X-0086200Y0062500D02*
G03X-0086124Y0062250I0000450J0000000D01*
G01X-0090510Y0059897D02*
G03X-0090725Y0059500I0000260J0000397D01*
G01X-0085000Y0060025D02*
G03X-0084750Y0060096I0000000J0000475D01*
G01X-0078000Y0061025D02*
G03X-0077603Y0061240I0000000J0000475D01*
G01X-0087240Y0065750D02*
G03X-0087250Y0065821I0000260J0000000D01*
G01X-0075750Y0076700D02*
G03X-0076117Y0076510I0000000J0000450D01*
G01X-0089750Y0065260D02*
G03X-0089934Y0065184I0000000J0000260D01*
G01X-0091010Y0060750D02*
G03X-0090934Y0060566I0000260J0000000D01*
Y0064184D02*
G03X-0091010Y0064000I0000184J0000184D01*
G01X-0085390Y0062770D02*
G03X-0085750Y0062950I0000360J0000270D01*
G01X-0086200Y0062500D02*
G03X-0086124Y0062250I0000450J0000000D01*
G01X-0086200Y0062500D02*
G03X-0086124Y0062250I0000450J0000000D01*
G01X-0085750Y0062950D02*
G03X-0086200Y0062500I0000000J0000450D01*
G01X-0085300Y0064000D02*
G03X-0085301Y0064025I0000450J0000000D01*
G01X-0081050Y0077500D02*
G03X-0081500Y0077950I0000450J0000000D01*
G03X-0081950Y0077500I0000000J0000450D01*
G01X-0083950Y0078500D02*
G03X-0083500Y0078050I0000450J0000000D01*
G03X-0083050Y0078500I0000000J0000450D01*
G01X-0074200Y0069000D02*
G03X-0073750Y0068550I0000450J0000000D01*
G03X-0073300Y0069000I0000000J0000450D01*
G01X-0085750Y0062950D02*
G03X-0086200Y0062500I0000000J0000450D01*
G01X-0077200Y0063500D02*
G03X-0077193Y0063424I0000450J0000000D01*
G01X-0078684Y0080816D02*
G03X-0078500Y0080740I0000184J0000184D01*
G01X-0085745Y0061250D02*
G03X-0085500Y0061150I0000245J0000250D01*
G01X-0085750Y0062950D02*
G03X-0086200Y0062500I0000000J0000450D01*
G01X-0082602Y0070030D02*
G03X-0082700Y0069750I0000352J0000280D01*
G01X-0085000Y0069450D02*
G03X-0085450Y0069000I0000000J0000450D01*
G01X-0079850Y0071490D02*
G03X-0079934Y0071434I0000100J0000240D01*
G01X-0077450Y0070584D02*
G03X-0077434Y0070566I0000200J0000166D01*
G01X-0086120Y0068510D02*
G03X-0086500Y0068710I0000380J0000260D01*
G01X-0077184Y0070316D02*
G03X-0077000Y0070240I0000184J0000184D01*
G01X-0079450Y0060000D02*
G03X-0079000Y0059550I0000450J0000000D01*
G03X-0078550Y0060000I0000000J0000450D01*
G03X-0079000Y0060450I0000450J0000000D01*
G03X-0079076Y0060443I0000000J0000450D01*
G01X-0085475Y0064356D02*
G03X-0085750Y0064450I0000275J0000356D01*
G01X-0078576Y0062556D02*
G03X-0078500Y0062550I0000076J0000444D01*
G01X-0076684Y0073816D02*
G03X-0076600Y0073760I0000184J0000184D01*
G01X-0079200Y0075000D02*
G03X-0078750Y0074550I0000450J0000000D01*
Y0075450D02*
G03X-0079200Y0075000I0000000J0000450D01*
G01X-0078383Y0075260D02*
G03X-0078750Y0075450I0000367J0000260D01*
G01X-0088209Y0064600D02*
G03X-0088174Y0064556I0000219J0000140D01*
G01X-0079200Y0075000D02*
G03X-0078750Y0074550I0000450J0000000D01*
G03X-0078383Y0074740I0000000J0000450D01*
G01X-0078750Y0075450D02*
G03X-0079200Y0075000I0000000J0000450D01*
G01X-0075250Y0067975D02*
G03X-0075647Y0067760I0000000J0000475D01*
G01X-0084434Y0065316D02*
G03X-0084250Y0065240I0000184J0000184D01*
G01X-0085000Y0065550D02*
G03X-0084746Y0065628I0000000J0000450D01*
G01X-0073738Y0061625D02*
G03X-0073759Y0061479I0000488J0000146D01*
G01X-0075250Y0070025D02*
G03X-0075153Y0070035I0000000J0000475D01*
G01X-0073880Y0070740D02*
G03X-0073949Y0070500I0000380J0000240D01*
G01X-0073750Y0069450D02*
G03X-0073826Y0069443I0000000J0000450D01*
G01X-0080775Y0081750D02*
G03X-0081099Y0082200I0000475J0000000D01*
G01X-0090684Y0060316D02*
G03X-0090510Y0060240I0000184J0000184D01*
G01X-0081500Y0060950D02*
G03X-0081874Y0060750I0000000J0000450D01*
G01X-0074025Y0059500D02*
G03X-0074240Y0059897I0000475J0000000D01*
G01X-0086200Y0062500D02*
G03X-0086124Y0062250I0000450J0000000D01*
G01X-0077525Y0063500D02*
G03X-0077590Y0063740I0000475J0000000D01*
G01X-0085475Y0064356D02*
G03X-0085750Y0064450I0000275J0000356D01*
G01X-0084184Y0065816D02*
G03X-0084100Y0065760I0000184J0000184D01*
G01X-0085000Y0063975D02*
G03X-0085328Y0063843I0000000J0000475D01*
G01X-0086500Y0067790D02*
G03X-0086120Y0067990I0000000J0000460D01*
G01X-0076490Y0066133D02*
G03X-0076300Y0066500I0000260J0000367D01*
G01X-0084566Y0066184D02*
G03X-0084605Y0066216I0000184J0000184D01*
G01X-0086684Y0063316D02*
G03X-0086500Y0063240I0000184J0000184D01*
G01X-0077130Y0063740D02*
G03X-0077199Y0063500I0000380J0000240D01*
G01X-0077250Y0065240D02*
G03X-0077066Y0065316I0000000J0000260D01*
G01X-0077525Y0064500D02*
G03X-0077740Y0064897I0000475J0000000D01*
G01X-0078500Y0062550D02*
G03X-0078472Y0062551I0000000J0000450D01*
G01X-0072740Y0061479D02*
G03X-0073240Y0061988I0000510J0000000D01*
G01X-0078472Y0062551D02*
G03X-0078475Y0062500I0000472J0000051D01*
G01X-0078051Y0062972D02*
G03X-0078050Y0063000I0000449J0000028D01*
G01X-0081250Y0061100D02*
G03X-0080812Y0061445I0000000J0000450D01*
G01X-0077193Y0063424D02*
G03X-0077260Y0063250I0000193J0000174D01*
G01X-0080500Y0067760D02*
G03X-0080684Y0067684I0000000J0000260D01*
G01X-0080750Y0072510D02*
G03X-0080934Y0072434I0000000J0000260D01*
G01X-0084500Y0061150D02*
G03X-0084255Y0061250I0000000J0000350D01*
G01X-0083880Y0063000D02*
G03X-0083824Y0062820I0000320J0000000D01*
G01X-0088209Y0064600D02*
G03X-0088174Y0064556I0000219J0000140D01*
G01X-0087250Y0065678D02*
G03X-0087240Y0065750I0000250J0000072D01*
G01X-0083174Y0070193D02*
G03X-0083250Y0070199I0000076J0000443D01*
G01X-0082800Y0069750D02*
G03X-0082806Y0069826I0000450J0000000D01*
G01X-0080434Y0076066D02*
G03X-0080250Y0075990I0000184J0000184D01*
G01X-0090099Y0059050D02*
G03X-0089775Y0059500I0000151J0000450D01*
G01X-0075000Y0077700D02*
G03X-0075076Y0077693I0000000J0000450D01*
G01X-0073821Y0075750D02*
G03X-0073750Y0075740I0000071J0000250D01*
G01X-0082174Y0070193D02*
G03X-0082250Y0070199I0000076J0000443D01*
G01X-0075647Y0070240D02*
G03X-0075250Y0070025I0000397J0000260D01*
G01X-0084633Y0069260D02*
G03X-0085000Y0069450I0000367J0000260D01*
G01X-0085475Y0064356D02*
G03X-0085750Y0064450I0000275J0000356D01*
G01X-0088066Y0066434D02*
G03X-0088250Y0066510I0000184J0000184D01*
G01X-0089883Y0061000D02*
G03X-0089549Y0061479I0000176J0000479D01*
G01X-0072940Y0068822D02*
G03X-0072500Y0068525I0000440J0000178D01*
G01X-0082510Y0077250D02*
G03X-0082434Y0077066I0000260J0000000D01*
G01X-0081780Y0077148D02*
G03X-0081500Y0077050I0000280J0000352D01*
G01X-0080250Y0081275D02*
G03X-0080153Y0081285I0000000J0000475D01*
G01X-0081950Y0077500D02*
G03X-0081852Y0077220I0000450J0000000D01*
G01X-0084380Y0067240D02*
G03X-0084449Y0067000I0000380J0000240D01*
G01X-0078383Y0075260D02*
G03X-0078750Y0075450I0000367J0000260D01*
G01X-0083880Y0064500D02*
G03X-0083760Y0064250I0000320J0000000D01*
Y0064750D02*
G03X-0083880Y0064500I0000200J0000250D01*
Y0064000D02*
G03X-0083771Y0063760I0000320J0000000D01*
G01X-0085000Y0063025D02*
G03X-0084603Y0063240I0000000J0000475D01*
G01X-0083880Y0065000D02*
G03X-0083760Y0064750I0000320J0000000D01*
G01X-0090934Y0064184D02*
G03X-0091010Y0064000I0000184J0000184D01*
G01X-0075647Y0067240D02*
G03X-0075250Y0067025I0000397J0000260D01*
G01X-0074775Y0070500D02*
G03X-0074840Y0070740I0000475J0000000D01*
G01X-0078700Y0073500D02*
G03X-0078630Y0073260I0000450J0000000D01*
G01X-0083050Y0078500D02*
G03X-0083284Y0078895I0000450J0000000D01*
G01X-0078630Y0072740D02*
G03X-0078700Y0072510I0000380J0000240D01*
G01X-0073240Y0062740D02*
G03X-0072740Y0063250I0000010J0000510D01*
G01X-0081800Y0069750D02*
G03X-0081806Y0069826I0000450J0000000D01*
G01X-0073760Y0061729D02*
G03X-0073738Y0061625I0000260J0000000D01*
G01X-0088750Y0064260D02*
G03X-0088916Y0064200I0000000J0000260D01*
G01X-0075550Y0060750D02*
G03X-0075627Y0061002I0000450J0000000D01*
G01X-0087934Y0064316D02*
G03X-0087850Y0064260I0000184J0000184D01*
G01X-0077603Y0061760D02*
G03X-0078000Y0061975I0000397J0000260D01*
G01X-0081500Y0077050D02*
G03X-0081424Y0077056I0000000J0000450D01*
G01X-0074775Y0069500D02*
G03X-0074821Y0069703I0000475J0000000D01*
G01X-0090059Y0061989D02*
G03X-0090490Y0061752I0000000J0000510D01*
G01X-0084605Y0066216D02*
G03X-0085000Y0066450I0000395J0000216D01*
G01X-0083760Y0064250D02*
G03X-0083880Y0064000I0000200J0000250D01*
G01X-0085299Y0068664D02*
G03X-0085500Y0068710I0000201J0000414D01*
G01X-0079847Y0069035D02*
G03X-0079750Y0069025I0000097J0000465D01*
G01X-0085872Y0067979D02*
G03X-0085934Y0067934I0000122J0000229D01*
G01X-0080433Y0062551D02*
G03X-0080135Y0062736I0000069J0000445D01*
G01X-0075383Y0076510D02*
G03X-0075750Y0076700I0000367J0000260D01*
G01X-0073550Y0077500D02*
G03X-0073784Y0077895I0000450J0000000D01*
G01X-0074371Y0077754D02*
G03X-0074450Y0077500I0000371J0000254D01*
G01X-0074810Y0068677D02*
G03X-0075250Y0068974I0000440J0000177D01*
G01X-0078050Y0063000D02*
G03X-0078051Y0063028I0000450J0000000D01*
G01X-0079453Y0081321D02*
G03X-0079250Y0081275I0000203J0000429D01*
G01X-0084603Y0063760D02*
G03X-0085000Y0063975I0000397J0000260D01*
G01X-0077193Y0063424D02*
G03X-0077260Y0063250I0000193J0000174D01*
G01X-0079250Y0081275D02*
G03X-0079153Y0081285I0000000J0000475D01*
G01X-0079443Y0060076D02*
G03X-0079449Y0060000I0000443J0000076D01*
G01X-0086424Y0067443D02*
G03X-0086500Y0067449I0000076J0000443D01*
G01X-0088500Y0069290D02*
G03X-0088043Y0069700I0000000J0000460D01*
G01X-0083284Y0078895D02*
G03X-0083316Y0078934I0000216J0000145D01*
G01X-0077590Y0064260D02*
G03X-0077525Y0064500I0000410J0000240D01*
G01X-0079383Y0073260D02*
G03X-0079490Y0073367I0000367J0000260D01*
G01X-0073784Y0077895D02*
G03X-0073816Y0077934I0000216J0000145D01*
G01X-0072500Y0074475D02*
G03X-0072897Y0074260I0000000J0000475D01*
G01X-0077883Y0073760D02*
G03X-0078250Y0073950I0000367J0000260D01*
G01X-0080056Y0062736D02*
G03X-0080160Y0062500I0000216J0000236D01*
G01X-0080934Y0067434D02*
G03X-0081010Y0067250I0000184J0000184D01*
G01X-0081750Y0059990D02*
G03X-0081576Y0060056I0000000J0000260D01*
G54D25*
G01X-0085750Y0064000D02*
X-0086000D01*
X-0086250Y0064250D01*
X-0084500Y0061500D02*
X-0085000D01*
X-0085500D02*
X-0085000D01*
X-0088500Y0069750D02*
Y0071000D01*
X-0084500Y0071250D02*
X-0085750Y0072500D01*
Y0073250D01*
X-0087250Y0071250D02*
Y0072500D01*
X-0088500Y0073750D01*
Y0074750D01*
X-0085750Y0071250D02*
X-0087250D01*
X-0090750Y0077950D02*
X-0089950D01*
X-0089750Y0079750D02*
X-0090250Y0079250D01*
X-0090750D01*
X-0084500Y0074250D02*
Y0073250D01*
X-0085800Y0074250D02*
X-0087250D01*
X-0089750Y0081000D02*
X-0090250Y0081500D01*
Y0081750D01*
X-0089500Y0081000D02*
X-0088250Y0079750D01*
Y0076500D01*
X-0087250Y0075500D01*
Y0074250D01*
X-0090250Y0075750D02*
X-0090500Y0075500D01*
Y0074750D01*
X-0089750Y0076500D02*
X-0090250Y0076000D01*
X-0085000Y0060500D02*
X-0085700D01*
X-0084250Y0060450D02*
X-0085000D01*
Y0060500D01*
G54D10*
X-0085750Y0073250D03*
Y0071250D03*
X-0085500Y0068250D03*
X-0084500D03*
X-0087500D03*
X-0086500D03*
X-0090500Y0069750D03*
X-0088500D03*
X-0089000Y0068000D03*
X-0084500Y0071250D03*
Y0073250D03*
G54D11*
X-0087250Y0074250D03*
Y0071250D03*
X-0090250Y0081750D03*
Y0075750D03*
X-0084250Y0081750D03*
X-0083250D03*
X-0082250D03*
X-0081250D03*
X-0080250D03*
X-0079250D03*
X-0078250D03*
X-0075500Y0059500D03*
X-0074500D03*
X-0073500D03*
X-0072500D03*
X-0075250Y0070500D03*
Y0069500D03*
Y0068500D03*
Y0067500D03*
Y0066500D03*
X-0072500Y0075000D03*
Y0074000D03*
Y0073000D03*
Y0072000D03*
Y0071000D03*
Y0070000D03*
Y0069000D03*
X-0085000Y0063500D03*
Y0062500D03*
Y0061500D03*
Y0060500D03*
Y0059500D03*
X-0078000Y0060500D03*
Y0061500D03*
Y0062500D03*
Y0063500D03*
Y0064500D03*
X-0089250Y0059500D03*
X-0090250D03*
X-0078750Y0069500D03*
X-0079750D03*
G54D12*
X-0085250Y0081750D03*
X-0076500Y0059500D03*
X-0075250Y0071500D03*
X-0072500Y0076000D03*
X-0085000Y0064500D03*
X-0078000Y0059500D03*
X-0088250D03*
X-0077750Y0069500D03*
G54D13*
X-0090000Y0068000D03*
G54D14*
X-0087500Y0063250D03*
Y0061478D03*
X-0090059D03*
Y0063250D03*
X-0073250D03*
Y0061478D03*
X-0075809D03*
Y0063250D03*
G54D15*
X-0075750Y0076250D03*
X-0085750Y0064000D03*
X-0081500Y0077500D03*
X-0083500Y0078500D03*
X-0076750Y0063500D03*
X-0073750Y0069000D03*
X-0085750Y0066750D03*
Y0062500D03*
X-0085000Y0069000D03*
X-0079000Y0060000D03*
X-0078750Y0075000D03*
X-0080750Y0064250D03*
X-0085000Y0066000D03*
X-0082000Y0063500D03*
X-0082250Y0064250D03*
Y0069750D03*
X-0086500Y0067000D03*
X-0079750Y0073000D03*
X-0078500Y0063000D03*
X-0074000Y0077500D03*
X-0076750Y0066500D03*
X-0077250Y0072500D03*
X-0073500Y0071500D03*
Y0070500D03*
X-0076750Y0071000D03*
X-0075000Y0077250D03*
X-0074500Y0071500D03*
X-0079250Y0061000D03*
X-0076000Y0060750D03*
X-0080501Y0062996D03*
X-0081250Y0061550D03*
X-0084000Y0067000D03*
X-0083250Y0069750D03*
X-0078250Y0072500D03*
X-0073500Y0073500D03*
X-0078250D03*
X-0081250Y0063500D03*
X-0081500Y0060500D03*
X-0087750Y0067000D03*
X-0076250Y0075000D03*
Y0077250D03*
X-0081500Y0078500D03*
X-0082750Y0079500D03*
G54D18*
X-0089750Y0077750D03*
Y0076450D03*
X-0090750Y0079250D03*
Y0077950D03*
X-0089750Y0081000D03*
Y0079700D03*
X-0084500Y0074250D03*
X-0085800D03*
X-0079750Y0076250D03*
Y0074950D03*
X-0077750Y0066500D03*
Y0067800D03*
X-0083500Y0068250D03*
X-0082200D03*
X-0076750Y0060250D03*
X-0075450D03*
X-0074500Y0062750D03*
Y0061450D03*
X-0089000Y0065000D03*
Y0063700D03*
X-0077250Y0076250D03*
Y0074950D03*
X-0077000Y0062750D03*
Y0061450D03*
X-0082250Y0060250D03*
Y0061550D03*
X-0074000Y0076250D03*
Y0074950D03*
X-0089750Y0060500D03*
X-0088450D03*
X-0085250Y0080500D03*
X-0083950D03*
X-0079250Y0070500D03*
X-0077950D03*
X-0083250Y0061750D03*
Y0060450D03*
X-0085750Y0061750D03*
Y0060450D03*
X-0086250Y0064500D03*
Y0065800D03*
X-0084250Y0061750D03*
Y0060450D03*
X-0088750Y0066250D03*
X-0090050D03*
G54D19*
X-0087620Y0065790D03*
G54D20*
X-0087250Y0065000D03*
X-0087990D03*
G54D21*
X-0083250Y0063000D03*
Y0063500D03*
Y0064000D03*
Y0064500D03*
Y0065000D03*
Y0065500D03*
Y0066000D03*
Y0066500D03*
X-0079530Y0066468D03*
Y0065972D03*
Y0065476D03*
Y0064980D03*
Y0064484D03*
Y0063988D03*
Y0063492D03*
Y0062996D03*
Y0062500D03*
G54D22*
X-0083250D03*
G54D23*
X-0088500Y0071000D03*
X-0090500D03*
Y0074750D03*
X-0088500D03*
M02*
