*
G04 Mass Parameters ***
*
G04 Image ***
*
%INC:\PROJECTS\ORCAD\TERMOSTAT\TERMOSTAT.PWR*%
%ICAS*%
%MOIN*%
%IPPOS*%
%ASAXBY*%
G74*%FSLAN2X34Y34*%
*
G04 Aperture Definitions ***
*
%ADD10C,0.0520*%
%ADD11C,0.0550*%
%ADD12R,0.0550X0.0550*%
%ADD13R,0.0520X0.0520*%
%ADD14C,0.0620*%
%ADD15C,0.0500*%
%ADD16C,0.0120*%
%ADD17C,0.0200*%
%ADD18R,0.0600X0.0600*%
%ADD19R,0.0340X0.0500*%
%ADD20R,0.0340X0.0400*%
%ADD21O,0.0860X0.0240*%
%ADD22R,0.0860X0.0240*%
%ADD23R,0.0650X0.0650*%
%ADD24C,0.0100*%
%ADD25C,0.0300*%
%ADD26C,0.0720*%
%ADD27C,0.0750*%
%ADD28R,0.0750X0.0750*%
%ADD29R,0.0720X0.0720*%
%ADD30C,0.0700*%
%ADD31C,0.0500*%
*
G04 Plot Data ***
*
G54D31*
G01X-0091500Y0082250D02*
Y0058750D01*
X-0071750D01*
Y0082500D01*
X-0091500D01*
Y0082250D01*
G54D26*
X-0085750Y0073250D03*
Y0071250D03*
X-0085500Y0068250D03*
X-0084500D03*
X-0087500D03*
X-0086500D03*
X-0090500Y0069750D03*
X-0088500D03*
X-0089000Y0068000D03*
X-0084500Y0071250D03*
Y0073250D03*
G54D27*
X-0075750Y0076250D03*
X-0085750Y0064000D03*
X-0081500Y0077500D03*
X-0083500Y0078500D03*
X-0076750Y0063500D03*
X-0073750Y0069000D03*
X-0085750Y0066750D03*
Y0062500D03*
X-0085000Y0069000D03*
X-0079000Y0060000D03*
X-0078750Y0075000D03*
X-0080750Y0064250D03*
X-0085000Y0066000D03*
X-0082000Y0063500D03*
X-0082250Y0064250D03*
Y0069750D03*
X-0086500Y0067000D03*
X-0079750Y0073000D03*
X-0078500Y0063000D03*
X-0074000Y0077500D03*
X-0076750Y0066500D03*
X-0077250Y0072500D03*
X-0073500Y0071500D03*
Y0070500D03*
X-0076750Y0071000D03*
X-0075000Y0077250D03*
X-0074500Y0071500D03*
X-0079250Y0061000D03*
X-0076000Y0060750D03*
X-0080501Y0062996D03*
X-0081250Y0061550D03*
X-0084000Y0067000D03*
X-0083250Y0069750D03*
X-0078250Y0072500D03*
X-0073500Y0073500D03*
X-0078250D03*
X-0081250Y0063500D03*
X-0081500Y0060500D03*
X-0087750Y0067000D03*
X-0076250Y0075000D03*
Y0077250D03*
X-0081500Y0078500D03*
X-0082750Y0079500D03*
X-0087250Y0074250D03*
Y0071250D03*
X-0090250Y0081750D03*
Y0075750D03*
X-0084250Y0081750D03*
X-0083250D03*
X-0082250D03*
X-0081250D03*
X-0080250D03*
X-0079250D03*
X-0078250D03*
X-0075500Y0059500D03*
X-0074500D03*
X-0073500D03*
X-0072500D03*
X-0075250Y0070500D03*
Y0069500D03*
Y0068500D03*
Y0067500D03*
Y0066500D03*
X-0072500Y0075000D03*
Y0074000D03*
Y0073000D03*
Y0072000D03*
Y0071000D03*
Y0070000D03*
Y0069000D03*
X-0085000Y0063500D03*
Y0062500D03*
Y0061500D03*
Y0060500D03*
Y0059500D03*
X-0078000Y0060500D03*
Y0061500D03*
Y0062500D03*
Y0063500D03*
Y0064500D03*
X-0089250Y0059500D03*
X-0090250D03*
X-0078750Y0069500D03*
X-0079750D03*
G54D28*
X-0085250Y0081750D03*
X-0076500Y0059500D03*
X-0075250Y0071500D03*
X-0072500Y0076000D03*
X-0085000Y0064500D03*
X-0078000Y0059500D03*
X-0088250D03*
X-0077750Y0069500D03*
G54D29*
X-0090000Y0068000D03*
G54D30*
X-0087500Y0063250D03*
Y0061478D03*
X-0090059D03*
Y0063250D03*
X-0073250D03*
Y0061478D03*
X-0075809D03*
Y0063250D03*
M02*
