*
G04 Mass Parameters ***
*
G04 Image ***
*
%INC:\PROJECTS\ORCAD\TERMOSTAT\TERMOSTAT.AST*%
%ICAS*%
%MOIN*%
%IPPOS*%
%ASAXBY*%
G74*%FSLAN2X34Y34*%
*
G04 Aperture Definitions ***
*
%ADD10C,0.0520*%
%ADD11C,0.0550*%
%ADD12R,0.0550X0.0550*%
%ADD13R,0.0520X0.0520*%
%ADD14C,0.0620*%
%ADD15C,0.0500*%
%ADD16C,0.0120*%
%ADD17C,0.0200*%
%ADD18R,0.0600X0.0600*%
%ADD19R,0.0340X0.0500*%
%ADD20R,0.0340X0.0400*%
%ADD21O,0.0860X0.0240*%
%ADD22R,0.0860X0.0240*%
%ADD23R,0.0650X0.0650*%
%ADD24C,0.0100*%
%ADD25C,0.0300*%
%ADD26C,0.0720*%
%ADD27C,0.0750*%
%ADD28R,0.0750X0.0750*%
%ADD29R,0.0720X0.0720*%
%ADD30C,0.0700*%
%ADD31C,0.0500*%
%ADD32C,0.0670*%
%ADD33C,0.0080*%
%ADD34C,0.0060*%
*
G04 Plot Data ***
*
G54D24*
G01X-0074116Y0062417D02*
X-0073950D01*
X-0074033D02*
Y0061917D01*
X-0073950Y0062000D01*
X-0073625D02*
X-0073583Y0061917D01*
X-0073333D01*
X-0073292Y0062000D01*
X-0073291D02*
X-0073292Y0062083D01*
X-0073291D02*
X-0073333Y0062167D01*
X-0073583D01*
X-0073625Y0062250D01*
Y0062333D01*
X-0073583Y0062417D01*
X-0073333D01*
X-0073292Y0062333D01*
X-0088450Y0062417D02*
X-0088117D01*
X-0088116D02*
X-0088450Y0062083D01*
Y0062000D01*
X-0088408Y0061917D01*
X-0088158D01*
X-0088117Y0062000D01*
X-0087875D02*
X-0087833Y0061917D01*
X-0087583D01*
X-0087542Y0062000D01*
X-0087541D02*
X-0087542Y0062083D01*
X-0087541D02*
X-0087583Y0062167D01*
X-0087833D01*
X-0087875Y0062250D01*
Y0062333D01*
X-0087833Y0062417D01*
X-0087583D01*
X-0087542Y0062333D01*
G54D31*
G01X-0091500Y0082250D02*
Y0058750D01*
X-0071750D01*
Y0082500D01*
X-0091500D01*
Y0082250D01*
G54D33*
G01X-0089483Y0058762D02*
X-0089539Y0058817D01*
X-0089650D01*
X-0089705Y0058762D01*
Y0058706D01*
X-0089594Y0058595D01*
X-0089705Y0058484D01*
X-0089483D01*
X-0089212Y0058651D02*
X-0089295Y0058817D01*
X-0089073Y0058651D02*
X-0089240D01*
X-0089295Y0058595D01*
Y0058539D01*
X-0089240Y0058484D01*
X-0089073D01*
Y0058817D01*
X-0088691D02*
Y0058484D01*
X-0088663Y0058817D02*
X-0088830D01*
X-0088885Y0058762D01*
Y0058706D01*
X-0088858Y0058651D01*
X-0088691D02*
X-0088858D01*
X-0088885Y0058595D01*
Y0058539D01*
X-0088830Y0058484D01*
X-0088663D01*
X-0089684Y0060351D02*
X-0089851D01*
X-0089907Y0060295D01*
Y0060240D01*
X-0089851Y0060184D01*
X-0089684D01*
Y0060517D01*
X-0089497D02*
Y0060184D01*
X-0089441Y0060240D01*
X-0089385Y0060351D01*
X-0089330Y0060240D01*
X-0089274Y0060184D01*
Y0060517D01*
X-0089031Y0060351D02*
X-0088864D01*
X-0089087Y0060517D02*
X-0088864D01*
Y0060184D01*
X-0089087D01*
X-0088565Y0060517D02*
Y0060184D01*
X-0088677D02*
X-0088454D01*
X-0076982Y0062191D02*
Y0062080D01*
Y0062135D02*
X-0077316D01*
X-0077260Y0062080D01*
X-0077149Y0061781D02*
Y0061614D01*
X-0076982D02*
X-0077316D01*
Y0061837D01*
X-0077149Y0061427D02*
Y0061204D01*
X-0076982Y0061427D02*
X-0077316D01*
X-0076982Y0061204D02*
X-0077316D01*
X-0074122Y0060349D02*
X-0074094Y0060405D01*
Y0060460D01*
X-0074122Y0060516D01*
X-0074289D01*
X-0074317Y0060460D01*
Y0060405D01*
X-0074289Y0060349D01*
X-0074122D01*
X-0074094Y0060294D01*
Y0060238D01*
X-0074122Y0060183D01*
X-0074289D01*
X-0074317Y0060238D01*
Y0060294D01*
X-0074289Y0060349D01*
X-0074588D02*
X-0074504Y0060183D01*
X-0074727Y0060349D02*
X-0074560D01*
X-0074504Y0060405D01*
Y0060460D01*
X-0074560Y0060516D01*
X-0074727D01*
Y0060183D01*
X-0075109D02*
Y0060516D01*
X-0075137Y0060183D02*
X-0074970D01*
X-0074914Y0060238D01*
Y0060294D01*
X-0074942Y0060349D01*
X-0075109D02*
X-0074942D01*
X-0074914Y0060405D01*
Y0060460D01*
X-0074970Y0060516D01*
X-0075137D01*
X-0074253Y0058538D02*
X-0074281Y0058482D01*
X-0074448D01*
X-0074476Y0058538D01*
Y0058760D01*
X-0074448Y0058816D01*
X-0074281D01*
X-0074253Y0058760D01*
X-0074774Y0058482D02*
Y0058816D01*
X-0074663D02*
X-0074886D01*
X-0075157Y0058649D02*
X-0075073Y0058482D01*
X-0075296Y0058649D02*
X-0075129D01*
X-0075073Y0058705D01*
Y0058760D01*
X-0075129Y0058816D01*
X-0075296D01*
Y0058482D01*
X-0071651Y0072239D02*
Y0072072D01*
X-0071706Y0072044D01*
X-0071762D01*
X-0071817Y0072072D01*
Y0072239D01*
X-0071762Y0072267D01*
X-0071706D01*
X-0071484Y0072156D01*
X-0071651Y0072538D02*
X-0071817Y0072454D01*
X-0071651Y0072677D02*
Y0072510D01*
X-0071595Y0072454D01*
X-0071539D01*
X-0071484Y0072510D01*
Y0072677D01*
X-0071817D01*
Y0073059D02*
X-0071484D01*
X-0071817Y0073087D02*
Y0072920D01*
X-0071762Y0072864D01*
X-0071706D01*
X-0071651Y0072892D01*
Y0073059D02*
Y0072892D01*
X-0071595Y0072864D01*
X-0071539D01*
X-0071484Y0072920D01*
Y0073087D01*
X-0073517Y0072476D02*
X-0073184D01*
X-0073517Y0072503D02*
Y0072337D01*
X-0073406Y0072281D01*
X-0073295D01*
X-0073184Y0072337D01*
Y0072503D01*
X-0073462Y0072691D02*
X-0073517Y0072719D01*
Y0072886D01*
X-0073462Y0072913D01*
X-0073240D01*
X-0073184Y0072886D01*
Y0072719D01*
X-0073240Y0072691D01*
X-0073517Y0073101D02*
Y0073296D01*
X-0073184D01*
X-0078794Y0062405D02*
Y0062183D01*
X-0079016Y0062294D01*
Y0062350D01*
X-0078683D01*
X-0078849Y0061912D02*
X-0078683Y0061995D01*
X-0078849Y0061773D02*
Y0061940D01*
X-0078905Y0061995D01*
X-0078960D01*
X-0079016Y0061940D01*
Y0061773D01*
X-0078683D01*
Y0061391D02*
X-0079016D01*
X-0078683Y0061363D02*
Y0061530D01*
X-0078738Y0061585D01*
X-0078794D01*
X-0078849Y0061558D01*
Y0061391D02*
Y0061558D01*
X-0078905Y0061585D01*
X-0078960D01*
X-0079016Y0061530D01*
Y0061363D01*
X-0078857Y0070351D02*
X-0078941Y0070517D01*
X-0078719Y0070351D02*
X-0078885D01*
X-0078941Y0070295D01*
Y0070240D01*
X-0078885Y0070184D01*
X-0078719D01*
Y0070517D01*
X-0078531D02*
X-0078420D01*
X-0078475D02*
Y0070184D01*
X-0078531D02*
X-0078420D01*
X-0077954Y0070351D02*
X-0078121D01*
X-0078177Y0070295D01*
Y0070240D01*
X-0078121Y0070184D01*
X-0077954D01*
Y0070517D01*
X-0086017Y0061753D02*
Y0061976D01*
X-0085795Y0061753D01*
X-0085740D01*
X-0085684Y0061781D01*
Y0061948D01*
X-0085740Y0061976D01*
X-0085851Y0062219D02*
Y0062386D01*
X-0086017D02*
X-0085684D01*
Y0062163D01*
X-0085851Y0062573D02*
Y0062796D01*
X-0086017Y0062573D02*
X-0085684D01*
X-0086017Y0062796D02*
X-0085684D01*
X-0084262Y0061817D02*
X-0084317Y0061789D01*
Y0061622D01*
X-0084262Y0061594D01*
X-0084151D01*
X-0084095Y0061650D01*
Y0061817D01*
X-0083984D01*
Y0061594D01*
X-0084151Y0062088D02*
X-0084317Y0062004D01*
X-0084151Y0062227D02*
Y0062060D01*
X-0084095Y0062004D01*
X-0084039D01*
X-0083984Y0062060D01*
Y0062227D01*
X-0084317D01*
Y0062609D02*
X-0083984D01*
X-0084317Y0062637D02*
Y0062470D01*
X-0084262Y0062414D01*
X-0084206D01*
X-0084151Y0062442D01*
Y0062609D02*
Y0062442D01*
X-0084095Y0062414D01*
X-0084039D01*
X-0083984Y0062470D01*
Y0062637D01*
X-0080940Y0082433D02*
X-0081051D01*
X-0080996D02*
Y0082766D01*
X-0081051Y0082710D01*
X-0081489Y0082599D02*
X-0081322D01*
X-0081294Y0082544D01*
Y0082488D01*
X-0081322Y0082433D01*
X-0081489D01*
X-0081517Y0082488D01*
Y0082544D01*
X-0081406Y0082766D01*
X-0081788Y0082599D02*
X-0081704Y0082433D01*
X-0081927Y0082599D02*
X-0081760D01*
X-0081704Y0082655D01*
Y0082710D01*
X-0081760Y0082766D01*
X-0081927D01*
Y0082433D01*
X-0082309D02*
Y0082766D01*
X-0082337Y0082433D02*
X-0082170D01*
X-0082114Y0082488D01*
Y0082544D01*
X-0082142Y0082599D01*
X-0082309D02*
X-0082142D01*
X-0082114Y0082655D01*
Y0082710D01*
X-0082170Y0082766D01*
X-0082337D01*
X-0081121Y0080732D02*
X-0081343D01*
X-0081121Y0080955D01*
Y0081010D01*
X-0081149Y0081066D01*
X-0081316D01*
X-0081343Y0081010D01*
X-0081726Y0080732D02*
Y0081066D01*
X-0081753Y0080732D02*
X-0081587D01*
X-0081531Y0080844D01*
Y0080955D01*
X-0081587Y0081066D01*
X-0081753D01*
X-0081941Y0080788D02*
X-0081969Y0080732D01*
X-0082136D01*
X-0082163Y0080788D01*
Y0081010D01*
X-0082136Y0081066D01*
X-0081969D01*
X-0081941Y0081010D01*
X-0082351Y0080732D02*
X-0082546D01*
Y0081066D01*
X-0089416Y0070058D02*
X-0089527D01*
X-0089472D02*
Y0070391D01*
X-0089527Y0070335D01*
X-0089965Y0070058D02*
Y0070391D01*
X-0089993Y0070058D02*
X-0089826D01*
X-0089770Y0070169D01*
Y0070280D01*
X-0089826Y0070391D01*
X-0089993D01*
X-0089309Y0069535D02*
Y0069424D01*
X-0089420Y0069201D01*
X-0089531Y0069424D01*
Y0069535D01*
X-0089941Y0069257D02*
X-0089886Y0069201D01*
X-0089775D01*
X-0089719Y0069257D01*
Y0069313D01*
X-0089830Y0069424D01*
X-0089719Y0069535D01*
X-0089941D01*
X-0090129Y0069201D02*
X-0090240D01*
X-0090184D02*
Y0069535D01*
X-0090240Y0069479D01*
X-0079205Y0068817D02*
X-0078983D01*
X-0079205Y0068595D01*
Y0068539D01*
X-0079178Y0068484D01*
X-0079011D01*
X-0078983Y0068539D01*
X-0078712Y0068651D02*
X-0078795Y0068817D01*
X-0078573Y0068651D02*
X-0078740D01*
X-0078795Y0068595D01*
Y0068539D01*
X-0078740Y0068484D01*
X-0078573D01*
Y0068817D01*
X-0078191D02*
Y0068484D01*
X-0078163Y0068817D02*
X-0078330D01*
X-0078385Y0068762D01*
Y0068706D01*
X-0078358Y0068651D01*
X-0078191D02*
X-0078358D01*
X-0078385Y0068595D01*
Y0068539D01*
X-0078330Y0068484D01*
X-0078163D01*
X-0072050Y0059000D02*
Y0060000D01*
X-0077050D01*
Y0059000D01*
X-0072050D01*
X-0077050D02*
X-0077100Y0058950D01*
X-0073000Y0068500D02*
X-0072000D01*
Y0076500D01*
X-0073000D01*
Y0068500D01*
Y0076500D02*
X-0073050Y0076550D01*
X-0077250Y0070000D02*
X-0080250D01*
Y0069000D01*
X-0077250D01*
Y0070000D01*
X-0077200Y0070050D01*
X-0077750Y0081250D02*
Y0082250D01*
X-0085750D01*
Y0081250D01*
X-0077750D01*
X-0085750D02*
X-0085800Y0081200D01*
X-0085500Y0065000D02*
Y0059000D01*
X-0084500D01*
Y0065000D01*
X-0085500D01*
X-0085550Y0065050D01*
X-0088250Y0070125D02*
Y0070375D01*
X-0090750D01*
Y0070125D01*
Y0069375D02*
Y0069125D01*
X-0088250D01*
Y0069375D01*
X-0077500Y0059000D02*
Y0065000D01*
X-0078500D01*
Y0059000D01*
X-0077500D01*
X-0077450Y0058950D01*
X-0087750Y0060000D02*
X-0090750D01*
Y0059000D01*
X-0087750D01*
Y0060000D01*
X-0087700Y0060050D01*
G54D10*
X-0085750Y0073250D03*
Y0071250D03*
X-0085500Y0068250D03*
X-0084500D03*
X-0087500D03*
X-0086500D03*
X-0090500Y0069750D03*
X-0088500D03*
X-0089000Y0068000D03*
X-0084500Y0071250D03*
Y0073250D03*
G54D11*
X-0087250Y0074250D03*
Y0071250D03*
X-0090250Y0081750D03*
Y0075750D03*
X-0084250Y0081750D03*
X-0083250D03*
X-0082250D03*
X-0081250D03*
X-0080250D03*
X-0079250D03*
X-0078250D03*
X-0075500Y0059500D03*
X-0074500D03*
X-0073500D03*
X-0072500D03*
X-0075250Y0070500D03*
Y0069500D03*
Y0068500D03*
Y0067500D03*
Y0066500D03*
X-0072500Y0075000D03*
Y0074000D03*
Y0073000D03*
Y0072000D03*
Y0071000D03*
Y0070000D03*
Y0069000D03*
X-0085000Y0063500D03*
Y0062500D03*
Y0061500D03*
Y0060500D03*
Y0059500D03*
X-0078000Y0060500D03*
Y0061500D03*
Y0062500D03*
Y0063500D03*
Y0064500D03*
X-0089250Y0059500D03*
X-0090250D03*
X-0078750Y0069500D03*
X-0079750D03*
G54D12*
X-0085250Y0081750D03*
X-0076500Y0059500D03*
X-0075250Y0071500D03*
X-0072500Y0076000D03*
X-0085000Y0064500D03*
X-0078000Y0059500D03*
X-0088250D03*
X-0077750Y0069500D03*
G54D13*
X-0090000Y0068000D03*
M02*
