%
T1C0.028F200S100
X-087750Y067000
X-086500Y067000
X-085750Y062500
X-085750Y064000
X-085000Y066000
X-085750Y066750
X-085000Y069000
X-084000Y067000
X-083500Y078500
X-083250Y069750
X-082750Y079500
X-082250Y064250
X-082000Y063500
X-082250Y069750
X-081500Y060500
X-081250Y061550
X-081250Y063500
X-081500Y077500
X-081500Y078500
X-080750Y064250
X-080501Y062996
X-079750Y073000
X-079250Y061000
X-079000Y060000
X-078750Y075000
X-078500Y063000
X-078250Y072500
X-078250Y073500
X-077250Y072500
X-076750Y063500
X-076750Y066500
X-076750Y071000
X-076250Y075000
X-076250Y077250
X-076000Y060750
X-075750Y076250
X-075000Y077250
X-074500Y071500
X-074000Y077500
X-073750Y069000
X-073500Y070500
X-073500Y071500
X-073500Y073500
T4C0.038F200S100
X-090059Y061478
X-090059Y063250
X-087500Y061478
X-087500Y063250
X-075809Y061478
X-075809Y063250
X-073250Y061478
X-073250Y063250
T2C0.031F200S100
X-090500Y069750
X-090000Y068000
X-089000Y068000
X-088500Y069750
X-087500Y068250
X-086500Y068250
X-085750Y071250
X-085750Y073250
X-085500Y068250
X-084500Y068250
X-084500Y071250
X-084500Y073250
T3C0.034F200S100
X-090250Y059500
X-089250Y059500
X-090250Y075750
X-090250Y081750
X-088250Y059500
X-087250Y071250
X-087250Y074250
X-085250Y081750
X-085000Y059500
X-085000Y060500
X-085000Y061500
X-085000Y062500
X-085000Y063500
X-085000Y064500
X-084250Y081750
X-083250Y081750
X-082250Y081750
X-081250Y081750
X-080250Y081750
X-079750Y069500
X-079250Y081750
X-078750Y069500
X-078250Y081750
X-078000Y059500
X-078000Y060500
X-078000Y061500
X-078000Y062500
X-078000Y063500
X-078000Y064500
X-077750Y069500
X-076500Y059500
X-075500Y059500
X-075250Y066500
X-075250Y067500
X-075250Y068500
X-075250Y069500
X-075250Y070500
X-075250Y071500
X-074500Y059500
X-073500Y059500
X-072500Y059500
X-072500Y069000
X-072500Y070000
X-072500Y071000
X-072500Y072000
X-072500Y073000
X-072500Y074000
X-072500Y075000
X-072500Y076000
M30
