*
G04 Mass Parameters ***
*
G04 Image ***
*
%INC:\PROJECTS\ORCAD\ACTUATOR\ACTUATOR.BOT*%
%ICAS*%
%MOIN*%
%IPPOS*%
%ASAXBY*%
G74*%FSLAN2X34Y34*%
*
G04 Aperture Definitions ***
*
%ADD10C,0.0550*%
%ADD11R,0.0550X0.0550*%
%ADD12C,0.0520*%
%ADD13R,0.0520X0.0520*%
%ADD14R,0.0600X0.0600*%
%ADD15R,0.0500X0.0340*%
%ADD16R,0.0400X0.0340*%
%ADD17C,0.1040*%
%ADD18C,0.0710*%
%ADD19R,0.0710X0.0710*%
%ADD20R,0.0400X0.0560*%
%ADD21C,0.0580*%
%ADD22R,0.0580X0.0580*%
%ADD23C,0.0120*%
%ADD24C,0.0200*%
%ADD25C,0.0500*%
%ADD26C,0.0300*%
%ADD27C,0.0400*%
%ADD28O,0.0240X0.0860*%
%ADD29R,0.0240X0.0860*%
%ADD30R,0.0650X0.0650*%
%ADD31C,0.0150*%
%ADD32C,0.0100*%
%ADD33C,0.0010*%
%ADD34C,0.0250*%
%ADD35C,0.1000*%
*
G04 Plot Data ***
*
G54D23*
G01X-0203250Y0080700D02*
Y0081500D01*
X-0207500Y0082250D02*
Y0081500D01*
X-0208700Y0080300D01*
Y0080250D01*
X-0203250Y0084000D02*
X-0203750D01*
X-0204250Y0083000D02*
X-0203250D01*
X-0202750Y0083500D01*
Y0084000D01*
X-0199250D02*
Y0082500D01*
X-0201750Y0084000D02*
Y0083500D01*
X-0202250Y0083000D01*
X-0198500Y0080000D02*
X-0198250D01*
X-0196750Y0078500D01*
X-0196500D01*
Y0081500D02*
X-0196250D01*
X-0195750Y0082000D01*
Y0082750D01*
X-0196000Y0083000D01*
X-0197000D01*
X-0198000Y0082000D01*
X-0199750D01*
X-0200750Y0081000D01*
Y0080700D01*
X-0200250D02*
Y0081000D01*
X-0199750Y0081500D01*
X-0197500D01*
X-0196500Y0082500D01*
X-0202250Y0084000D02*
Y0084250D01*
X-0203000Y0085000D01*
Y0086250D01*
X-0202750Y0086500D01*
X-0199750D01*
X-0199500Y0086250D01*
Y0085750D01*
X-0198500Y0078750D02*
X-0198750Y0079000D01*
Y0079500D01*
X-0199250Y0080000D01*
Y0080700D01*
X-0201750D02*
Y0080000D01*
X-0201250Y0079500D01*
X-0199750D01*
X-0199500Y0079250D01*
Y0078750D01*
X-0195750Y0080800D02*
X-0196000Y0080500D01*
X-0204500Y0082250D02*
X-0204750Y0082000D01*
X-0204500Y0082250D02*
X-0204750Y0082000D01*
G54D24*
G01X-0210500Y0074500D02*
X-0211000D01*
X-0212250Y0075750D01*
Y0076250D01*
X-0202750Y0073750D02*
X-0202500Y0074000D01*
Y0076500D01*
X-0202750Y0076750D01*
X-0204250Y0076250D02*
X-0204000D01*
X-0203250Y0075500D01*
X-0207000Y0079500D02*
X-0206000D01*
X-0205500Y0079000D01*
Y0078000D01*
X-0207250Y0076250D01*
X-0211000Y0079800D02*
X-0210700D01*
X-0210250Y0080250D01*
X-0210000D01*
X-0200750Y0084000D02*
Y0085000D01*
X-0200500Y0085250D01*
Y0085750D01*
X-0198500D02*
Y0085500D01*
X-0199000Y0085000D01*
X-0199750D01*
X-0200250Y0084500D01*
Y0084000D01*
X-0208750Y0075250D02*
X-0208000Y0076000D01*
Y0078500D01*
X-0208250D01*
X-0208000D01*
X-0207750D01*
X-0207250D01*
X-0204750Y0084000D02*
X-0205750Y0083000D01*
Y0082000D01*
X-0207750Y0080000D01*
Y0078500D01*
X-0207250D01*
X-0195750Y0079500D02*
X-0196500D01*
X-0201250Y0080700D02*
Y0081250D01*
X-0200750Y0081750D01*
X-0211000Y0076250D02*
X-0210750Y0076000D01*
Y0075500D01*
X-0212250Y0078250D02*
Y0077500D01*
X-0211000Y0076250D01*
X-0196000Y0080500D02*
X-0196500D01*
X-0202500Y0085750D02*
Y0085500D01*
X-0202000Y0085000D01*
X-0201500D01*
X-0201250Y0084750D01*
Y0084000D01*
X-0204250Y0078750D02*
Y0078250D01*
X-0206250Y0076250D01*
Y0075750D01*
X-0206750Y0075250D01*
X-0207250D01*
G54D26*
G01X-0211000Y0078500D02*
Y0077550D01*
X-0208500Y0084000D02*
X-0208750D01*
X-0209750Y0083000D01*
X-0204000Y0086750D02*
X-0204750D01*
Y0084000D01*
X-0204000Y0086750D02*
X-0204750D01*
Y0084000D01*
X-0206000Y0086750D02*
X-0204750D01*
Y0084000D01*
X-0212250Y0079500D02*
Y0078250D01*
X-0210750Y0081500D02*
X-0209250D01*
X-0208750Y0082000D01*
X-0208500D01*
X-0201500Y0082500D02*
X-0201250Y0082750D01*
X-0204250Y0082250D02*
X-0204500D01*
X-0204750Y0082000D02*
X-0205000D01*
X-0206250Y0080750D01*
X-0201250Y0082750D02*
X-0201500Y0082500D01*
X-0201750Y0082250D01*
X-0204250D01*
X-0204500D01*
G54D27*
G01X-0203500Y0078750D02*
X-0204250D01*
Y0082250D01*
X-0203500Y0078750D02*
X-0204250D01*
G54D31*
G01X-0199869Y0085270D02*
X-0200206D01*
X-0200360Y0084973D02*
Y0084807D01*
X-0200900Y0088000D02*
Y0086755D01*
X-0201440Y0088000D02*
Y0086755D01*
X-0200630Y0088000D02*
Y0086755D01*
X-0199280Y0084705D02*
Y0084623D01*
X-0200032Y0085135D02*
X-0200228D01*
X-0196715Y0084715D02*
Y0083917D01*
X-0199855Y0079245D02*
X-0199755Y0079144D01*
X-0202745Y0085105D02*
X-0202264Y0084625D01*
X-0201012Y0085135D02*
X-0202745D01*
X-0196325Y0084325D02*
X-0198935D01*
X-0201306Y0083380D02*
X-0201525D01*
X-0202250Y0085352D02*
Y0084625D01*
X-0203195Y0084836D02*
Y0084625D01*
X-0200437Y0084730D02*
X-0200455D01*
X-0200495Y0079245D02*
Y0079219D01*
X-0201575Y0085286D02*
Y0084572D01*
X-0202385Y0085294D02*
Y0084745D01*
X-0202520Y0085281D02*
Y0084880D01*
X-0198200Y0078388D02*
Y0078250D01*
X-0203090Y0084730D02*
X-0204405D01*
X-0202481Y0083380D02*
X-0202525D01*
X-0204140Y0083786D02*
Y0083431D01*
X-0198335Y0085248D02*
Y0082255D01*
X-0203970Y0078790D02*
X-0204250D01*
X-0203060Y0078280D02*
Y0078250D01*
X-0204680Y0083480D02*
Y0083114D01*
X-0203671Y0081355D02*
X-0205855D01*
X-0203970Y0078655D02*
X-0204250D01*
X-0205652Y0083515D02*
X-0206000D01*
X-0205085Y0088000D02*
Y0087095D01*
X-0204230Y0084520D02*
X-0204405D01*
X-0203545Y0087295D02*
X-0204455D01*
Y0088000D02*
Y0087295D01*
X-0196445Y0081033D02*
Y0080966D01*
X-0196310Y0080070D02*
Y0079929D01*
Y0081070D02*
Y0080929D01*
X-0197255Y0078644D02*
Y0078250D01*
X-0195255Y0079995D02*
X-0196245D01*
X-0195255Y0079005D02*
X-0196245D01*
X-0196970Y0078359D02*
Y0078250D01*
X-0205490Y0088000D02*
Y0087095D01*
X-0205545Y0087295D02*
X-0206455D01*
Y0088000D02*
Y0087295D01*
X-0201980Y0079890D02*
Y0078250D01*
X-0196947Y0081355D02*
X-0197284D01*
X-0195500Y0080305D02*
Y0079995D01*
X-0195770Y0081619D02*
Y0081295D01*
X-0197265Y0078655D02*
X-0198040D01*
X-0195500Y0079005D02*
Y0078250D01*
X-0203255Y0085270D02*
X-0204405D01*
X-0198065Y0085280D02*
Y0082295D01*
X-0200795Y0085372D02*
X-0200956Y0085211D01*
X-0201710Y0088000D02*
Y0086755D01*
X-0199567Y0086677D02*
X-0199322Y0086433D01*
X-0196055Y0084055D02*
X-0198935D01*
X-0196865Y0084865D02*
X-0198718D01*
X-0198220Y0086220D02*
X-0198970D01*
X-0203235Y0083375D02*
X-0203355Y0083255D01*
X-0198075Y0079465D02*
X-0198495D01*
X-0203030Y0079220D02*
X-0203970D01*
Y0078280D01*
X-0203030D02*
X-0203970D01*
X-0203030Y0079220D02*
Y0078280D01*
X-0207500Y0088000D02*
X-0209000Y0086500D01*
X-0208119Y0085540D02*
X-0208880D01*
X-0205270Y0082165D02*
X-0205455D01*
X-0204250Y0081250D02*
X-0205750D01*
X-0204250D02*
Y0078250D01*
X-0196850Y0079187D02*
Y0078970D01*
X-0195250Y0083250D02*
Y0078250D01*
X-0201035Y0088000D02*
Y0086755D01*
X-0203735Y0086380D02*
Y0086156D01*
X-0197795Y0079184D02*
Y0078250D01*
X-0199415Y0078288D02*
Y0078250D01*
X-0197390Y0085390D02*
Y0082970D01*
X-0195635Y0079005D02*
Y0078250D01*
X-0196906Y0079735D02*
X-0197624D01*
X-0196245Y0079105D02*
Y0079005D01*
X-0195817Y0083177D02*
X-0195572Y0082933D01*
X-0196040Y0079005D02*
Y0078970D01*
X-0196310Y0079070D02*
Y0078970D01*
X-0196445Y0079033D02*
Y0078970D01*
X-0196580Y0079037D02*
Y0078970D01*
X-0196995Y0078385D02*
X-0198204D01*
X-0199010Y0079399D02*
Y0078250D01*
X-0197660Y0085660D02*
Y0082700D01*
X-0197940Y0079330D02*
X-0198495D01*
X-0198335Y0078310D02*
Y0078250D01*
X-0196030Y0078970D02*
X-0196859D01*
X-0199005Y0079394D02*
Y0079000D01*
X-0197390Y0078779D02*
Y0078250D01*
X-0198065Y0078573D02*
Y0078250D01*
X-0197795Y0085795D02*
Y0082565D01*
X-0197930Y0079319D02*
Y0078250D01*
X-0198470Y0078281D02*
Y0078250D01*
X-0198605Y0078292D02*
Y0078250D01*
X-0199537Y0082840D02*
X-0201213D01*
X-0199245Y0079250D02*
Y0079144D01*
X-0197660Y0079049D02*
Y0078250D01*
X-0199145Y0078442D02*
Y0078250D01*
X-0199280Y0078335D02*
Y0078250D01*
X-0198875Y0078467D02*
Y0078250D01*
X-0199550Y0078283D02*
Y0078250D01*
X-0199685Y0078318D02*
Y0078250D01*
X-0200909Y0078520D02*
X-0201090D01*
X-0195250Y0081355D02*
X-0196034D01*
X-0195250Y0082435D02*
X-0195495D01*
X-0200225Y0078369D02*
Y0078250D01*
X-0199955Y0078633D02*
Y0078250D01*
X-0200495Y0078280D02*
Y0078250D01*
X-0200630Y0078299D02*
Y0078250D01*
X-0201909Y0078520D02*
X-0202090D01*
X-0200360Y0078302D02*
Y0078250D01*
X-0195250Y0082300D02*
X-0195495D01*
X-0201170Y0078416D02*
Y0078250D01*
X-0200900Y0078504D02*
Y0078250D01*
X-0201440Y0078284D02*
Y0078250D01*
X-0201575Y0078286D02*
Y0078250D01*
X-0201305Y0085323D02*
Y0084620D01*
X-0201710Y0078330D02*
Y0078250D01*
X-0205625Y0081708D02*
Y0081250D01*
X-0202250Y0078352D02*
Y0078250D01*
X-0202385Y0078294D02*
Y0078250D01*
X-0202520Y0078281D02*
Y0078250D01*
X-0206705Y0088000D02*
Y0085000D01*
X-0202795Y0078385D02*
X-0203030D01*
X-0203970Y0079195D02*
X-0204250D01*
X-0203195Y0078280D02*
Y0078250D01*
X-0203330Y0078280D02*
Y0078250D01*
X-0204405Y0086405D02*
Y0084520D01*
X-0208205Y0085135D02*
X-0208794D01*
X-0204364Y0082570D02*
X-0205455D01*
X-0206030Y0086296D02*
Y0085000D01*
X-0204545Y0081480D02*
Y0081250D01*
X-0204680Y0081480D02*
Y0081250D01*
X-0204815Y0081480D02*
Y0081250D01*
X-0206370Y0086485D02*
X-0209000D01*
X-0195770Y0079005D02*
Y0078250D01*
X-0204621Y0083245D02*
X-0205088D01*
X-0206435Y0086616D02*
Y0085000D01*
X-0201845Y0082219D02*
Y0081310D01*
X-0206165Y0086326D02*
Y0085000D01*
X-0201710Y0079600D02*
X-0204250D01*
X-0199685Y0084648D02*
Y0084618D01*
X-0204545Y0083480D02*
Y0083333D01*
X-0204852Y0083480D02*
X-0205455Y0082878D01*
X-0195250Y0082975D02*
X-0195614D01*
X-0203565Y0080950D02*
X-0204250D01*
X-0199700Y0087700D02*
X-0203545D01*
X-0206455Y0088000D02*
X-0207500D01*
X-0206197Y0087160D02*
X-0208340D01*
X-0205545Y0088000D02*
Y0087295D01*
X-0199565Y0087565D02*
X-0203545D01*
X-0199430Y0087430D02*
X-0203545D01*
X-0206455D02*
X-0208070D01*
X-0205095Y0085540D02*
X-0207380D01*
X-0199025Y0087025D02*
X-0203637D01*
X-0198755Y0086755D02*
X-0203545D01*
X-0206362Y0087025D02*
X-0208475D01*
X-0199295Y0087295D02*
X-0208205D01*
X-0206455Y0086755D02*
X-0208745D01*
X-0206436Y0086620D02*
X-0208880D01*
X-0196945Y0083650D02*
X-0198937D01*
X-0198994Y0078925D02*
X-0199064D01*
X-0197930Y0085930D02*
Y0082430D01*
X-0198245Y0079635D02*
X-0196970Y0078359D01*
X-0203565Y0084595D02*
X-0204405D01*
X-0209000Y0086500D02*
Y0085647D01*
X-0208193Y0085405D02*
X-0208806D01*
X-0208219Y0085270D02*
X-0208781D01*
X-0205095Y0085135D02*
X-0207294D01*
X-0202790Y0083099D02*
Y0081322D01*
X-0204950Y0081480D02*
Y0081250D01*
X-0206455Y0087565D02*
X-0207935D01*
X-0204815Y0088000D02*
Y0087095D01*
X-0205382Y0083785D02*
X-0206000D01*
X-0205270Y0084190D02*
X-0206000D01*
X-0205270Y0084055D02*
X-0206000D01*
X-0204230Y0083480D02*
X-0204852D01*
X-0196901Y0083255D02*
X-0197000D01*
X-0195635Y0081754D02*
Y0081295D01*
X-0203060Y0082830D02*
Y0081902D01*
X-0205270Y0083920D02*
X-0206000D01*
X-0206300Y0086408D02*
Y0085000D01*
X-0202005Y0080005D02*
X-0204250D01*
X-0203600Y0082745D02*
Y0081775D01*
X-0201440Y0082059D02*
Y0081475D01*
X-0196850Y0081187D02*
Y0080813D01*
X-0200765Y0079245D02*
Y0079138D01*
X-0201710Y0079599D02*
Y0079170D01*
X-0199280Y0079669D02*
Y0079379D01*
X-0197925Y0082435D02*
X-0198810D01*
X-0196850Y0080187D02*
Y0079813D01*
X-0207110Y0088000D02*
Y0085000D01*
X-0201440Y0079330D02*
X-0204250D01*
X-0203735Y0078280D02*
Y0078250D01*
X-0206840Y0088000D02*
Y0085000D01*
X-0203543Y0080275D02*
X-0204250D01*
X-0205270Y0081760D02*
X-0205573D01*
X-0199825Y0086215D02*
X-0200434D01*
X-0198030Y0086030D02*
Y0085280D01*
X-0198200Y0081245D02*
Y0080329D01*
X-0199806Y0083380D02*
X-0200194D01*
X-0200455Y0084878D02*
Y0084712D01*
X-0200900Y0085504D02*
Y0085267D01*
X-0200090Y0088000D02*
Y0086755D01*
X-0199819Y0085405D02*
X-0200181D01*
X-0200495Y0088000D02*
Y0086755D01*
X-0200360Y0088000D02*
Y0086755D01*
X-0199145Y0087145D02*
Y0086057D01*
X-0200167Y0085000D02*
X-0200333D01*
X-0201035Y0085684D02*
Y0085076D01*
X-0199920Y0085540D02*
X-0200080D01*
X-0199963Y0085675D02*
X-0200036D01*
X-0200795Y0085384D02*
Y0085372D01*
X-0201045Y0084595D02*
X-0201116D01*
X-0205095Y0086405D02*
X-0205703D01*
X-0199122Y0085295D02*
X-0199383D01*
X-0197135Y0085135D02*
X-0198448D01*
X-0197540Y0085540D02*
X-0198030D01*
X-0197675Y0085675D02*
X-0198030D01*
X-0197810Y0085810D02*
X-0198030D01*
X-0199685Y0085318D02*
Y0085295D01*
X-0199145Y0085442D02*
Y0085295D01*
X-0198620Y0086620D02*
X-0199509D01*
X-0197945Y0085945D02*
X-0198030D01*
X-0201045Y0085000D02*
Y0084549D01*
X-0198215Y0086215D02*
X-0199247D01*
X-0198875Y0086875D02*
Y0086220D01*
X-0198740Y0086740D02*
Y0086220D01*
X-0199955Y0085633D02*
Y0085212D01*
X-0199550Y0084705D02*
Y0084553D01*
X-0198302Y0085280D02*
X-0198789Y0084794D01*
X-0199245Y0086250D02*
Y0086144D01*
X-0199505Y0083245D02*
X-0201644D01*
X-0201845Y0088000D02*
Y0086755D01*
X-0199956Y0085211D02*
X-0200455Y0084712D01*
X-0199628Y0084705D02*
X-0199710Y0084622D01*
X-0195250Y0083245D02*
X-0195929D01*
X-0196030Y0078970D02*
Y0078250D01*
X-0197405Y0085405D02*
X-0198030D01*
X-0200205Y0085384D02*
Y0085250D01*
X-0197270Y0085270D02*
X-0198315D01*
X-0196954Y0083380D02*
X-0198995D01*
X-0199000Y0084705D02*
X-0199628D01*
X-0201305Y0088000D02*
Y0086755D01*
X-0198909Y0078520D02*
X-0199090D01*
X-0199505Y0080192D02*
Y0080000D01*
X-0197400Y0078790D02*
X-0198032D01*
X-0196985Y0081654D02*
Y0079095D01*
X-0197525Y0085525D02*
Y0082835D01*
X-0198495Y0079500D02*
Y0079219D01*
X-0198850Y0080275D02*
X-0198957D01*
X-0196970Y0078250D02*
X-0204250D01*
X-0197130Y0078520D02*
X-0198090D01*
X-0200090Y0083418D02*
Y0082020D01*
X-0197500Y0081245D02*
X-0199040D01*
X-0199005Y0079330D02*
X-0199258D01*
X-0200302Y0084865D02*
X-0200455D01*
X-0199685Y0083382D02*
Y0082594D01*
X-0204275Y0083480D02*
Y0083444D01*
X-0203565Y0083380D02*
X-0204018D01*
X-0199505Y0080005D02*
X-0201394D01*
X-0203565Y0080545D02*
X-0204250D01*
X-0199505Y0080140D02*
X-0199558D01*
X-0199415Y0079804D02*
Y0079525D01*
X-0198470Y0079556D02*
Y0079219D01*
X-0201305Y0079251D02*
Y0079177D01*
X-0198995Y0080205D02*
Y0080105D01*
X-0201440Y0080139D02*
Y0080050D01*
Y0079329D02*
Y0079216D01*
X-0201927Y0079817D02*
X-0201433Y0079322D01*
X-0201575Y0083314D02*
Y0082938D01*
X-0201305Y0080080D02*
Y0079915D01*
X-0202005Y0080192D02*
Y0080000D01*
X-0200360Y0080095D02*
Y0079755D01*
X-0202655Y0078306D02*
Y0078250D01*
X-0199820Y0080083D02*
Y0079755D01*
X-0201895Y0082705D02*
X-0201917D01*
X-0200225Y0080076D02*
Y0079755D01*
X-0199469Y0079870D02*
X-0201259D01*
X-0199750Y0079755D02*
X-0201144D01*
X-0200360Y0079245D02*
Y0079198D01*
X-0199909Y0078520D02*
X-0200090D01*
X-0198960Y0078655D02*
X-0199040D01*
X-0200900Y0080113D02*
Y0079755D01*
X-0200630Y0079245D02*
Y0079201D01*
X-0199550Y0080146D02*
Y0079658D01*
X-0200090Y0080118D02*
Y0079755D01*
X-0197525Y0078914D02*
Y0078250D01*
X-0198968Y0078790D02*
X-0199032D01*
X-0199005Y0079060D02*
X-0199147D01*
X-0199805Y0079195D02*
X-0200350D01*
X-0203927Y0085945D02*
X-0204405D01*
X-0203870Y0086314D02*
Y0086039D01*
X-0204410Y0087295D02*
Y0087095D01*
X-0203870Y0087295D02*
Y0087186D01*
X-0203735Y0087295D02*
Y0087120D01*
X-0205220Y0086405D02*
Y0084520D01*
X-0203600Y0087295D02*
Y0086967D01*
X-0199835Y0087835D02*
X-0203545D01*
X-0207950Y0085675D02*
X-0209000D01*
X-0200765Y0080075D02*
Y0079755D01*
X-0203735Y0083555D02*
Y0083255D01*
X-0204750Y0087095D02*
X-0205703D01*
X-0205095Y0085810D02*
X-0209000D01*
X-0204410Y0086405D02*
Y0084520D01*
X-0205220Y0088000D02*
Y0087095D01*
X-0198605Y0081245D02*
Y0080432D01*
X-0206975Y0088000D02*
Y0085000D01*
X-0207245Y0088000D02*
Y0085000D01*
X-0199955Y0080151D02*
Y0079755D01*
X-0201845Y0079734D02*
Y0079069D01*
X-0205220Y0083113D02*
Y0082520D01*
X-0200900Y0079245D02*
Y0078996D01*
X-0205270Y0081490D02*
X-0205843D01*
X-0205085Y0081480D02*
Y0081250D01*
X-0203177Y0084817D02*
X-0202985Y0084625D01*
X-0201045Y0084730D02*
X-0202369D01*
X-0204410Y0081480D02*
Y0081250D01*
X-0198970Y0086220D02*
Y0085447D01*
X-0203834Y0086080D02*
X-0204405D01*
X-0201575Y0088000D02*
Y0086755D01*
X-0203966Y0085810D02*
X-0204405D01*
X-0204275Y0087295D02*
Y0087112D01*
X-0204140Y0087295D02*
Y0087183D01*
X-0205095Y0085405D02*
X-0207306D01*
X-0204950Y0088000D02*
Y0087095D01*
X-0204405Y0086405D02*
Y0084520D01*
X-0203565Y0084460D02*
X-0204230D01*
X-0201035Y0080160D02*
Y0079755D01*
X-0205270Y0084460D02*
X-0206000D01*
X-0203234Y0086350D02*
X-0203783D01*
X-0203566Y0086215D02*
X-0204405D01*
X-0201035Y0079245D02*
Y0078816D01*
X-0206435Y0087295D02*
Y0086883D01*
X-0206300Y0087295D02*
Y0087092D01*
X-0204296Y0087095D02*
X-0204750D01*
X-0202925Y0088000D02*
Y0086685D01*
X-0203963Y0085675D02*
X-0204405D01*
X-0204296Y0086405D02*
X-0204405D01*
X-0203556Y0081085D02*
X-0204250D01*
X-0205270Y0082030D02*
X-0205455D01*
X-0206217Y0086350D02*
X-0209000D01*
X-0204140Y0082569D02*
Y0078250D01*
X-0203695Y0081490D02*
X-0204230D01*
X-0205625Y0086405D02*
Y0083542D01*
X-0205095Y0086080D02*
X-0209000D01*
X-0205220Y0081480D02*
Y0081250D01*
X-0202115Y0088000D02*
Y0086755D01*
X-0206000Y0085000D02*
Y0083156D01*
X-0205490Y0081860D02*
Y0081250D01*
X-0208190Y0087310D02*
Y0085414D01*
X-0202115Y0078481D02*
Y0078250D01*
X-0205270Y0081625D02*
X-0205708D01*
X-0203600Y0078280D02*
Y0078250D01*
X-0201575Y0079465D02*
X-0204250D01*
X-0199010Y0081245D02*
Y0081214D01*
X-0197805Y0079195D02*
X-0198350D01*
X-0196175Y0079005D02*
Y0078970D01*
X-0195495Y0082750D02*
Y0082000D01*
X-0196245Y0079060D02*
X-0196336D01*
X-0198060Y0082300D02*
X-0198852D01*
X-0201495Y0080105D02*
X-0201144Y0079755D01*
X-0198200Y0079589D02*
Y0079111D01*
X-0202485Y0081220D02*
X-0202515D01*
X-0203465Y0078280D02*
Y0078250D01*
X-0201035Y0083460D02*
Y0082092D01*
X-0200360Y0083395D02*
Y0081964D01*
X-0201194Y0081723D02*
X-0201456Y0081461D01*
X-0201793Y0082165D02*
X-0204230D01*
X-0203250Y0082745D02*
X-0203885D01*
X-0200910Y0082165D02*
X-0201207D01*
X-0202790Y0078380D02*
Y0078250D01*
X-0203970Y0078520D02*
X-0204250D01*
X-0205760Y0086363D02*
Y0083407D01*
X-0204005Y0082628D02*
Y0078250D01*
X-0203970Y0078385D02*
X-0204250D01*
X-0200900Y0083413D02*
Y0082169D01*
X-0205270Y0082520D02*
Y0081480D01*
X-0204230D02*
X-0205270D01*
X-0204230Y0082520D02*
Y0081480D01*
Y0082520D02*
X-0205270D01*
X-0205625Y0087295D02*
Y0087095D01*
X-0205270Y0084520D02*
Y0083897D01*
X-0204230Y0084520D02*
Y0083480D01*
X-0204545Y0088000D02*
Y0087095D01*
X-0202621Y0083245D02*
X-0202644D01*
X-0203565Y0081010D02*
Y0080390D01*
X-0203195Y0082751D02*
Y0081941D01*
X-0202385Y0080105D02*
Y0079205D01*
X-0203465Y0080160D02*
Y0079220D01*
X-0204140Y0086317D02*
Y0084214D01*
X-0202115Y0082576D02*
Y0081294D01*
X-0203465Y0082745D02*
Y0081889D01*
X-0201985Y0081220D02*
X-0202015D01*
X-0201170Y0080085D02*
Y0079780D01*
X-0202441Y0080140D02*
X-0202558D01*
X-0204665Y0082840D02*
X-0205455D01*
X-0201575Y0079464D02*
Y0079213D01*
X-0197120Y0085120D02*
Y0083225D01*
X-0202655Y0082815D02*
Y0081310D01*
X-0205916Y0081416D02*
X-0205750Y0081250D01*
X-0202941Y0080140D02*
X-0203058D01*
X-0200941D02*
X-0201058D01*
X-0201170Y0082201D02*
Y0081897D01*
X-0199855Y0079245D02*
X-0201250D01*
X-0205895Y0081438D02*
Y0081395D01*
X-0199685Y0080082D02*
Y0079746D01*
X-0202925Y0082964D02*
Y0081804D01*
X-0199145Y0079534D02*
Y0079057D01*
X-0198335Y0081245D02*
Y0080413D01*
X-0198935Y0081010D02*
Y0080390D01*
X-0196595Y0084595D02*
X-0199116D01*
X-0199384D02*
X-0199616D01*
X-0199505Y0083380D02*
X-0199694D01*
X-0198935Y0084310D02*
Y0083690D01*
X-0196460Y0084460D02*
X-0198973D01*
X-0200090Y0085521D02*
Y0085077D01*
X-0199415Y0084705D02*
Y0084578D01*
X-0197071Y0083245D02*
X-0198995D01*
X-0199145Y0084705D02*
Y0084607D01*
X-0200289Y0085044D02*
X-0200455Y0084878D01*
X-0199820Y0085406D02*
Y0085286D01*
X-0202520Y0083390D02*
Y0083354D01*
X-0202655Y0080090D02*
Y0079193D01*
X-0203060Y0080139D02*
Y0079220D01*
X-0203195Y0080080D02*
Y0079220D01*
X-0203330Y0082745D02*
Y0081938D01*
X-0203565Y0080815D02*
X-0204250D01*
X-0202650Y0079195D02*
X-0203030D01*
X-0202853Y0079060D02*
X-0203030D01*
X-0202936Y0078925D02*
X-0203030D01*
X-0202968Y0078790D02*
X-0203030D01*
X-0202960Y0078655D02*
X-0203030D01*
X-0202909Y0078520D02*
X-0203030D01*
X-0203870Y0078280D02*
Y0078250D01*
X-0202655Y0088000D02*
Y0086755D01*
X-0205095Y0084865D02*
X-0206000D01*
X-0201305Y0078323D02*
Y0078250D01*
X-0203255Y0085000D02*
X-0204405D01*
X-0203565Y0083595D02*
Y0083375D01*
X-0201845Y0082815D02*
Y0082781D01*
X-0206433Y0086890D02*
X-0208610D01*
X-0204188Y0083920D02*
X-0204230D01*
X-0201292Y0081625D02*
X-0202823D01*
X-0205517Y0083650D02*
X-0206000D01*
X-0201572Y0083317D02*
X-0201812Y0083077D01*
X-0201195Y0081760D02*
X-0202889D01*
X-0201171Y0081895D02*
X-0203045D01*
X-0203596Y0081220D02*
X-0204250D01*
X-0196730Y0084730D02*
X-0198881D01*
X-0203355Y0083255D02*
X-0203885D01*
X-0203735Y0085343D02*
Y0084445D01*
X-0202745Y0085349D02*
Y0085105D01*
X-0203600Y0083581D02*
Y0083255D01*
Y0085291D02*
Y0084419D01*
X-0203330Y0080085D02*
Y0079220D01*
X-0203465Y0085281D02*
Y0084625D01*
X-0203330Y0085312D02*
Y0084625D01*
X-0203465Y0083375D02*
Y0083255D01*
X-0203735Y0082745D02*
Y0079220D01*
X-0202572Y0083317D02*
X-0203067Y0082822D01*
X-0204681Y0083110D02*
X-0205223D01*
X-0203870Y0082745D02*
Y0079220D01*
X-0203565Y0084625D02*
Y0084405D01*
X-0202665Y0082840D02*
X-0203051D01*
X-0202250Y0080075D02*
Y0079147D01*
X-0203060Y0084699D02*
Y0084625D01*
X-0203870Y0083571D02*
Y0083255D01*
X-0204005Y0086295D02*
Y0084365D01*
X-0202935Y0084574D02*
Y0084565D01*
X-0204025Y0083650D02*
X-0204230D01*
X-0202790Y0080077D02*
Y0079119D01*
X-0202655Y0085306D02*
Y0085015D01*
X-0201384Y0084595D02*
X-0201616D01*
X-0202655Y0083234D02*
Y0083184D01*
X-0203970Y0079060D02*
X-0204250D01*
X-0206570Y0088000D02*
Y0085000D01*
X-0203565Y0080410D02*
X-0204250D01*
X-0205760Y0081573D02*
Y0081260D01*
X-0202583Y0082705D02*
X-0203917D01*
X-0201845Y0079735D02*
X-0204250D01*
X-0208730Y0086770D02*
Y0085000D01*
X-0208190Y0085086D02*
Y0085000D01*
X-0205095D02*
X-0206000D01*
X-0208595Y0086905D02*
Y0085000D01*
X-0208460Y0087040D02*
Y0085000D01*
X-0208325Y0087175D02*
Y0085000D01*
X-0205095Y0084595D02*
X-0206000D01*
X-0195635Y0083635D02*
Y0082995D01*
X-0199621Y0082255D02*
X-0199750D01*
X-0199820Y0079209D02*
Y0079094D01*
X-0199550Y0083446D02*
Y0082829D01*
X-0198970Y0085447D02*
X-0199122Y0085295D01*
X-0196969Y0083515D02*
X-0198988D01*
X-0198105Y0082255D02*
X-0198878D01*
X-0199505Y0083110D02*
X-0201779D01*
X-0196190Y0084190D02*
X-0198935D01*
X-0201440Y0085284D02*
Y0084561D01*
X-0197520Y0082840D02*
X-0198963D01*
X-0197790Y0082570D02*
X-0198810D01*
X-0200900Y0086245D02*
Y0085996D01*
X-0202250Y0082555D02*
Y0081325D01*
X-0203235Y0083375D02*
X-0203565D01*
X-0202681Y0083110D02*
X-0202779D01*
X-0203870Y0085461D02*
Y0084428D01*
X-0197385Y0082975D02*
X-0198995D01*
X-0200306Y0083380D02*
X-0200694D01*
X-0201710Y0085330D02*
Y0084622D01*
X-0201845Y0085431D02*
Y0084610D01*
X-0197655Y0082705D02*
X-0198855D01*
X-0201710Y0083179D02*
Y0082892D01*
X-0197535Y0078925D02*
X-0198064D01*
X-0196664Y0079060D02*
X-0196949D01*
X-0198470Y0081245D02*
Y0080444D01*
X-0198065Y0081245D02*
Y0080175D01*
X-0196857Y0079195D02*
X-0197084D01*
X-0196912Y0080275D02*
X-0198150D01*
X-0198875Y0081245D02*
Y0080239D01*
X-0195250Y0078655D02*
X-0196030D01*
X-0195250Y0078790D02*
X-0196030D01*
X-0195250Y0080005D02*
X-0197894D01*
X-0201787Y0082840D02*
X-0201835D01*
X-0198922Y0080140D02*
X-0198995D01*
X-0195250Y0081625D02*
X-0195764D01*
X-0195250Y0078250D02*
X-0196030D01*
X-0195365Y0083365D02*
Y0081295D01*
X-0196245Y0081105D02*
Y0080894D01*
X-0201939Y0082570D02*
X-0202135D01*
X-0195572Y0081817D02*
X-0196064Y0081325D01*
X-0197670Y0079060D02*
X-0198147D01*
X-0205355Y0088000D02*
Y0087095D01*
X-0195250Y0081895D02*
X-0195517D01*
X-0196040Y0080305D02*
Y0079995D01*
X-0195250Y0078925D02*
X-0196030D01*
X-0195250Y0078385D02*
X-0196030D01*
X-0196938Y0079330D02*
X-0197219D01*
X-0195250Y0083110D02*
X-0195749D01*
X-0196968Y0079465D02*
X-0197354D01*
X-0197930Y0081245D02*
Y0080040D01*
X-0195905Y0081484D02*
Y0081295D01*
X-0197255Y0081384D02*
Y0079365D01*
X-0197660Y0081245D02*
Y0079770D01*
X-0195250Y0082570D02*
X-0195495D01*
X-0201035Y0078684D02*
Y0078250D01*
X-0200090Y0078521D02*
Y0078250D01*
X-0196959Y0079600D02*
X-0197489D01*
X-0199690Y0082435D02*
X-0201060D01*
X-0205270Y0083897D02*
X-0205956Y0083211D01*
X-0196961Y0080410D02*
X-0198327D01*
X-0196909Y0081730D02*
X-0197317Y0081322D01*
X-0195905Y0079005D02*
Y0078250D01*
X-0197120Y0078509D02*
Y0078250D01*
X-0195250Y0078520D02*
X-0196030D01*
X-0197120Y0081519D02*
Y0079230D01*
X-0199944Y0082165D02*
X-0200589D01*
X-0199567Y0079677D02*
X-0199322Y0079433D01*
X-0200441Y0080140D02*
X-0200558D01*
X-0200225Y0079245D02*
Y0079131D01*
X-0199647Y0082300D02*
X-0201102D01*
X-0196985Y0084985D02*
Y0083255D01*
X-0198605Y0084978D02*
Y0082255D01*
X-0204005Y0083635D02*
Y0083371D01*
X-0201305Y0082100D02*
Y0081612D01*
X-0203677Y0081625D02*
X-0204230D01*
X-0201710Y0082108D02*
Y0081322D01*
X-0201575Y0082061D02*
Y0081272D01*
X-0205355Y0082978D02*
Y0081250D01*
X-0199941Y0080140D02*
X-0200058D01*
X-0202520Y0082646D02*
Y0081225D01*
X-0202925Y0078550D02*
Y0078250D01*
X-0203970Y0078925D02*
X-0204250D01*
X-0202364Y0082570D02*
X-0204135D01*
X-0204139Y0083785D02*
X-0204230D01*
X-0203600Y0081225D02*
Y0079220D01*
X-0198210Y0079600D02*
X-0198305D01*
X-0200225Y0083376D02*
Y0081885D01*
X-0199689Y0082570D02*
X-0201060D01*
X-0196969Y0081490D02*
X-0197149D01*
X-0196953Y0081625D02*
X-0197014D01*
X-0195500Y0083500D02*
Y0082800D01*
Y0081950D02*
Y0081295D01*
X-0196040Y0083405D02*
Y0083255D01*
X-0197795Y0081245D02*
Y0079905D01*
X-0201884Y0084595D02*
X-0202116D01*
X-0202694Y0082975D02*
X-0202914D01*
X-0198350Y0086350D02*
X-0199265D01*
X-0200806Y0083380D02*
X-0201194D01*
X-0201045Y0085000D02*
X-0202639D01*
X-0198740Y0084843D02*
Y0082255D01*
X-0204694Y0082975D02*
X-0205358D01*
X-0202115Y0085481D02*
Y0084594D01*
X-0199280Y0085335D02*
Y0085295D01*
X-0201170Y0085416D02*
Y0084615D01*
X-0200897Y0085270D02*
X-0202745D01*
X-0202644Y0086245D02*
X-0202730Y0086159D01*
X-0206455Y0087970D02*
X-0207530D01*
X-0204680Y0082885D02*
Y0082520D01*
X-0203216Y0084865D02*
X-0204405D01*
X-0199933Y0082177D02*
X-0200308Y0081802D01*
X-0202655Y0086234D02*
Y0086193D01*
X-0202520Y0088000D02*
Y0086755D01*
X-0202385Y0088000D02*
Y0086755D01*
X-0202933Y0086677D02*
X-0203177Y0086433D01*
X-0195365Y0079005D02*
Y0078250D01*
X-0203255Y0085349D02*
Y0085000D01*
Y0086215D02*
X-0203434D01*
X-0199415Y0087415D02*
Y0086525D01*
X-0199955Y0087955D02*
Y0086755D01*
X-0199750D02*
X-0202750D01*
X-0202990Y0086620D02*
X-0203564D01*
X-0205270Y0084325D02*
X-0206000D01*
X-0199010Y0084705D02*
Y0084514D01*
X-0199685Y0087685D02*
Y0086746D01*
X-0199820Y0087820D02*
Y0086755D01*
X-0201980Y0088000D02*
Y0086755D01*
X-0197000Y0085000D02*
X-0198583D01*
X-0199550Y0087550D02*
Y0086658D01*
X-0205095Y0086215D02*
X-0209000D01*
X-0198970Y0085540D02*
X-0199080D01*
X-0198970Y0085675D02*
X-0199036D01*
X-0199010Y0087010D02*
Y0085407D01*
X-0203545Y0088000D02*
Y0087295D01*
X-0205787Y0083380D02*
X-0206000D01*
X-0204296Y0086405D02*
X-0204405D01*
X-0200630Y0080099D02*
Y0079755D01*
X-0205095Y0086405D02*
Y0084520D01*
X-0204217Y0086350D02*
X-0204405D01*
X-0205270Y0082435D02*
X-0205455D01*
X-0205270Y0082300D02*
X-0205455D01*
X-0203330Y0083375D02*
Y0083280D01*
X-0199685Y0082406D02*
Y0082255D01*
X-0199955Y0083451D02*
Y0082155D01*
X-0198470Y0085113D02*
Y0082255D01*
X-0200080Y0082030D02*
X-0200404D01*
X-0200215Y0081895D02*
X-0200329D01*
X-0199820Y0083383D02*
Y0082245D01*
X-0195770Y0083770D02*
Y0083130D01*
X-0200630Y0083399D02*
Y0082178D01*
X-0200495Y0083492D02*
Y0082115D01*
X-0204583Y0082705D02*
X-0205455D01*
X-0199505Y0083492D02*
Y0082865D01*
X-0198995Y0083505D02*
Y0082865D01*
X-0199645Y0082705D02*
X-0201105D01*
X-0203441Y0080140D02*
X-0204250D01*
X-0203611Y0081760D02*
X-0204230D01*
X-0201170Y0083385D02*
Y0082798D01*
X-0201305Y0083380D02*
Y0082900D01*
X-0201440Y0083439D02*
Y0082941D01*
X-0198875Y0084733D02*
Y0082739D01*
X-0201980Y0082646D02*
Y0081225D01*
X-0202385Y0082576D02*
Y0081294D01*
X-0205095Y0084730D02*
X-0206000D01*
X-0204481Y0083380D02*
X-0204953D01*
X-0204275Y0082556D02*
Y0082520D01*
X-0204410Y0082585D02*
Y0082520D01*
X-0204545Y0082667D02*
Y0082520D01*
X-0204815Y0083480D02*
Y0082520D01*
X-0205455Y0082878D02*
Y0082000D01*
X-0204950Y0083383D02*
Y0082520D01*
X-0205085Y0083248D02*
Y0082520D01*
X-0201940Y0082435D02*
X-0204230D01*
X-0201897Y0082300D02*
X-0204230D01*
X-0201096Y0082030D02*
X-0204230D01*
X-0201526Y0081355D02*
X-0202829D01*
X-0203455Y0081895D02*
X-0204230D01*
X-0205895Y0086307D02*
Y0083272D01*
X-0204275Y0086387D02*
Y0084520D01*
X-0204054Y0084325D02*
X-0204230D01*
X-0204152Y0084190D02*
X-0204230D01*
X-0204191Y0084055D02*
X-0204230D01*
X-0205539Y0081794D02*
X-0205916Y0081416D01*
X-0200765Y0083375D02*
Y0082195D01*
X-0198995Y0080105D02*
X-0198942Y0080052D01*
X-0196877Y0081220D02*
X-0199015D01*
X-0196720Y0081085D02*
X-0198944D01*
X-0196634Y0080950D02*
X-0198935D01*
X-0196848Y0080815D02*
X-0198935D01*
X-0196934Y0080680D02*
X-0198935D01*
X-0196967Y0080545D02*
X-0198935D01*
X-0198067Y0080177D02*
X-0196859Y0078970D01*
X-0198673Y0080410D02*
X-0198935D01*
X-0197390Y0081270D02*
Y0079500D01*
X-0203565Y0080680D02*
X-0204250D01*
X-0205922Y0083245D02*
X-0206000D01*
X-0208865Y0086635D02*
Y0085519D01*
X-0207380Y0088000D02*
Y0085539D01*
X-0207515Y0087985D02*
Y0085656D01*
X-0207650Y0087850D02*
Y0085709D01*
X-0207785Y0087715D02*
Y0085718D01*
X-0207920Y0087580D02*
Y0085688D01*
X-0208055Y0087445D02*
Y0085607D01*
X-0206000Y0085000D02*
X-0207352D01*
X-0205355Y0086405D02*
Y0083812D01*
X-0204405Y0086405D02*
Y0084520D01*
X-0205095Y0085675D02*
X-0207550D01*
X-0205095Y0084520D02*
X-0205270D01*
X-0205095Y0086350D02*
X-0205783D01*
X-0205095Y0085270D02*
X-0207281D01*
X-0204005Y0087295D02*
Y0087205D01*
X-0204680Y0088000D02*
Y0087095D01*
X-0198890Y0086890D02*
X-0203567D01*
X-0199855Y0086245D02*
X-0202644D01*
X-0197250Y0083110D02*
X-0198995D01*
X-0203125Y0086485D02*
X-0203630D01*
X-0199160Y0087160D02*
X-0203803D01*
X-0199970Y0087970D02*
X-0203545D01*
X-0203465Y0088000D02*
Y0086218D01*
X-0206455Y0087835D02*
X-0207665D01*
X-0206455Y0087700D02*
X-0207800D01*
X-0195250Y0082705D02*
X-0195495D01*
X-0196040Y0081349D02*
Y0081295D01*
X-0195365Y0080305D02*
Y0079995D01*
X-0195635Y0080305D02*
Y0079995D01*
X-0195770Y0080305D02*
Y0079995D01*
X-0201441Y0080140D02*
X-0201495D01*
X-0205760Y0087295D02*
Y0087136D01*
X-0205895Y0087295D02*
Y0087193D01*
X-0206030Y0087295D02*
Y0087204D01*
X-0206165Y0087295D02*
Y0087174D01*
X-0201969Y0079870D02*
X-0204250D01*
X-0204197Y0087160D02*
X-0205803D01*
X-0200495Y0080192D02*
Y0079755D01*
X-0203920Y0085540D02*
X-0204405D01*
X-0205095Y0086405D02*
Y0084520D01*
X-0201427Y0081490D02*
X-0202805D01*
X-0205490Y0086405D02*
Y0083677D01*
X-0204455Y0088000D02*
X-0205545D01*
X-0204455Y0087970D02*
X-0205545D01*
X-0200000Y0088000D02*
X-0203545D01*
X-0204455Y0087700D02*
X-0205545D01*
X-0204455Y0087565D02*
X-0205545D01*
X-0201170Y0088000D02*
Y0086755D01*
X-0195920Y0083920D02*
X-0196290D01*
X-0195785Y0083785D02*
X-0196127D01*
X-0195650Y0083650D02*
X-0196055D01*
X-0195515Y0083515D02*
X-0196030D01*
X-0196000Y0083255D02*
X-0196099D01*
X-0195380Y0083380D02*
X-0196046D01*
X-0196040Y0084040D02*
Y0083595D01*
X-0196175Y0084175D02*
Y0083839D01*
X-0196310Y0084310D02*
Y0083929D01*
X-0197255Y0085255D02*
Y0083105D01*
X-0196445Y0084445D02*
Y0083966D01*
X-0196580Y0084580D02*
Y0083963D01*
X-0195905Y0083905D02*
Y0083236D01*
X-0195250Y0081760D02*
X-0195629D01*
X-0195250Y0082165D02*
X-0195495D01*
X-0205270Y0081895D02*
X-0205474D01*
X-0195250Y0082840D02*
X-0195511D01*
X-0196801Y0080140D02*
X-0198029D01*
X-0197183Y0083177D02*
X-0198105Y0082255D01*
X-0195250Y0082030D02*
X-0195497D01*
X-0197525Y0081245D02*
Y0079635D01*
X-0196245Y0081085D02*
X-0196280D01*
X-0196245Y0080950D02*
X-0196365D01*
X-0196985Y0078374D02*
Y0078250D01*
X-0195250Y0080275D02*
X-0196088D01*
X-0199955Y0079245D02*
Y0078866D01*
X-0195250Y0081490D02*
X-0195899D01*
X-0195255Y0081295D02*
X-0196077D01*
X-0196580Y0081037D02*
Y0080963D01*
X-0196715Y0081082D02*
Y0080917D01*
X-0196175Y0080161D02*
Y0079995D01*
X-0195250Y0080140D02*
X-0196198D01*
X-0196245Y0079995D02*
Y0079894D01*
X-0202925Y0080128D02*
Y0078950D01*
X-0195905Y0080305D02*
Y0079995D01*
X-0204455Y0087430D02*
X-0205545D01*
X-0195255Y0080305D02*
X-0196073D01*
X-0196445Y0080033D02*
Y0079966D01*
X-0196580Y0080037D02*
Y0079963D01*
X-0196715Y0080082D02*
Y0079917D01*
X-0198200Y0085280D02*
Y0082255D01*
X-0203060Y0088000D02*
Y0086550D01*
X-0203330Y0088000D02*
Y0086188D01*
X-0204455Y0087835D02*
X-0205545D01*
X-0203819Y0085405D02*
X-0204405D01*
X-0203600Y0086533D02*
Y0086209D01*
X-0203255Y0086250D02*
Y0086151D01*
X-0205095Y0085945D02*
X-0209000D01*
X-0203255Y0085135D02*
X-0204405D01*
X-0201045Y0084865D02*
X-0202504D01*
X-0202985Y0084625D02*
X-0203565D01*
X-0199855Y0086245D02*
X-0199755Y0086144D01*
X-0202115Y0086245D02*
Y0086019D01*
X-0202250Y0086245D02*
Y0086147D01*
X-0202385Y0086245D02*
Y0086205D01*
X-0202520Y0086245D02*
Y0086219D01*
X-0202566Y0086215D02*
X-0202674D01*
X-0203195Y0088000D02*
Y0086414D01*
X-0202790Y0088000D02*
Y0086752D01*
X-0201566Y0086215D02*
X-0202434D01*
X-0201834Y0086080D02*
X-0202166D01*
X-0201927Y0085945D02*
X-0202073D01*
X-0201966Y0085810D02*
X-0202034D01*
X-0201963Y0085675D02*
X-0202036D01*
X-0201920Y0085540D02*
X-0202080D01*
X-0201819Y0085405D02*
X-0202181D01*
X-0201035Y0086245D02*
Y0085816D01*
X-0201170Y0086245D02*
Y0086084D01*
X-0201305Y0086245D02*
Y0086177D01*
X-0201440Y0086245D02*
Y0086216D01*
X-0201575Y0086245D02*
Y0086213D01*
X-0201710Y0086245D02*
Y0086170D01*
X-0200566Y0086215D02*
X-0201434D01*
X-0200834Y0086080D02*
X-0201166D01*
X-0200927Y0085945D02*
X-0201073D01*
X-0200966Y0085810D02*
X-0201034D01*
X-0200963Y0085675D02*
X-0201036D01*
X-0200920Y0085540D02*
X-0201080D01*
X-0200819Y0085405D02*
X-0201181D01*
X-0201845Y0086245D02*
Y0086069D01*
X-0200090Y0086245D02*
Y0085979D01*
X-0200225Y0086245D02*
Y0086131D01*
X-0200360Y0086245D02*
Y0086198D01*
X-0200495Y0086245D02*
Y0086219D01*
X-0200630Y0086245D02*
Y0086201D01*
X-0200765Y0086245D02*
Y0086138D01*
X-0196789Y0079870D02*
X-0197759D01*
X-0199834Y0086080D02*
X-0200166D01*
X-0199927Y0085945D02*
X-0200073D01*
X-0199966Y0085810D02*
X-0200034D01*
X-0200225Y0088000D02*
Y0086755D01*
X-0198485Y0086485D02*
X-0199374D01*
X-0196850Y0084850D02*
Y0083813D01*
X-0201980Y0086245D02*
Y0084525D01*
X-0199280Y0087280D02*
Y0086379D01*
X-0204410Y0083480D02*
Y0083415D01*
X-0199820Y0086209D02*
Y0086094D01*
X-0199955Y0086245D02*
Y0085866D01*
X-0198970Y0086080D02*
X-0199166D01*
X-0198970Y0085945D02*
X-0199073D01*
X-0198970Y0085810D02*
X-0199034D01*
X-0199012Y0085405D02*
X-0199181D01*
X-0200765Y0088000D02*
Y0086755D01*
X-0198335Y0086335D02*
Y0086220D01*
X-0198470Y0086470D02*
Y0086220D01*
X-0198605Y0086605D02*
Y0086220D01*
X-0200000Y0088000D02*
X-0198220Y0086220D01*
X-0199616Y0085295D02*
X-0199750D01*
X-0198030Y0085280D02*
X-0198303D01*
X-0198065Y0079454D02*
Y0078927D01*
X-0199005Y0079195D02*
X-0199245D01*
X-0198030Y0086030D02*
X-0195250Y0083250D01*
X-0199075Y0079465D02*
X-0199354D01*
X-0198795Y0078385D02*
X-0199204D01*
X-0200225Y0085143D02*
Y0084942D01*
X-0198335Y0079587D02*
Y0079190D01*
X-0198740Y0081245D02*
Y0080375D01*
X-0199210Y0079600D02*
X-0199489D01*
X-0199505Y0082975D02*
X-0201806D01*
X-0199345Y0079735D02*
X-0199651D01*
X-0198740Y0078346D02*
Y0078250D01*
X-0199427Y0079817D02*
X-0199005Y0079394D01*
X-0199853Y0079060D02*
X-0200147D01*
X-0199795Y0078385D02*
X-0200204D01*
X-0199936Y0078925D02*
X-0200064D01*
X-0199968Y0078790D02*
X-0200032D01*
X-0199960Y0078655D02*
X-0200040D01*
X-0201170Y0079245D02*
Y0079084D01*
X-0196873Y0083785D02*
X-0198935D01*
X-0200090Y0079245D02*
Y0078979D01*
X-0199820Y0078406D02*
Y0078250D01*
X-0200650Y0079195D02*
X-0201350D01*
X-0200853Y0079060D02*
X-0201147D01*
X-0200795Y0078385D02*
X-0201204D01*
X-0200936Y0078925D02*
X-0201064D01*
X-0200968Y0078790D02*
X-0201032D01*
X-0200960Y0078655D02*
X-0201040D01*
X-0202250Y0088000D02*
Y0086755D01*
X-0196710Y0083920D02*
X-0198935D01*
X-0202005Y0080140D02*
X-0202058D01*
X-0208147Y0085000D02*
X-0208852D01*
X-0201495Y0080192D02*
Y0080105D01*
X-0203565Y0083515D02*
X-0204230D01*
X-0202115Y0080105D02*
Y0079019D01*
X-0202520Y0080175D02*
Y0079219D01*
X-0200765Y0078362D02*
Y0078250D01*
X-0201650Y0079195D02*
X-0202350D01*
X-0201795Y0078385D02*
X-0202204D01*
X-0201936Y0078925D02*
X-0202064D01*
X-0201968Y0078790D02*
X-0202032D01*
X-0201960Y0078655D02*
X-0202040D01*
X-0201853Y0079060D02*
X-0202147D01*
X-0196715Y0079082D02*
Y0078970D01*
X-0201845Y0078431D02*
Y0078250D01*
X-0204275Y0081480D02*
Y0081250D01*
G01X-0200250Y0083375D02*
G03X-0200000Y0083498I0000000J0000315D01*
G01X-0200500D02*
G03X-0200250Y0083375I0000250J0000192D01*
G01X-0200750D02*
G03X-0200500Y0083498I0000000J0000315D01*
G01X-0201250Y0084625D02*
G03X-0201500Y0084501I0000000J0000315D01*
G01X-0198500Y0080445D02*
G03X-0198942Y0080052I0000000J0000445D01*
G01X-0201250Y0083375D02*
G03X-0201000Y0083498I0000000J0000315D01*
G01X-0201750Y0084625D02*
G03X-0202000Y0084501I0000000J0000315D01*
G01X-0200000Y0080198D02*
G03X-0199750Y0080075I0000250J0000192D01*
G01X-0201430Y0079320D02*
G03X-0201250Y0079245I0000180J0000180D01*
G01X-0202000Y0084501D02*
G03X-0202250Y0084625I0000250J0000191D01*
G01X-0202495Y0083492D02*
G03X-0202406Y0083416I0000245J0000198D01*
G01X-0208852Y0085000D02*
G03X-0208780Y0085250I0000398J0000250D01*
G03X-0209000Y0085647I0000470J0000000D01*
G01X-0208220Y0085250D02*
G03X-0208147Y0085000I0000470J0000000D01*
G01X-0207280Y0085250D02*
G03X-0207750Y0085720I0000470J0000000D01*
G03X-0208220Y0085250I0000000J0000470D01*
G01X-0204000Y0086295D02*
G03X-0203545Y0086750I0000000J0000455D01*
G03X-0204000Y0087205I0000455J0000000D01*
G01X-0207352Y0085000D02*
G03X-0207280Y0085250I0000398J0000250D01*
G01X-0206455Y0086750D02*
G03X-0206000Y0086295I0000455J0000000D01*
G03X-0205703Y0086405I0000000J0000455D01*
G01X-0206000Y0087205D02*
G03X-0206455Y0086750I0000000J0000455D01*
G01X-0198109Y0080212D02*
G03X-0198500Y0080445I0000391J0000212D01*
G01X-0196030Y0083500D02*
G03X-0196500Y0083970I0000470J0000000D01*
G03X-0196970Y0083500I0000000J0000470D01*
G01X-0196099Y0083255D02*
G03X-0196030Y0083500I0000401J0000245D01*
G01X-0196970Y0081500D02*
G03X-0196500Y0081030I0000470J0000000D01*
G01X-0196970Y0080500D02*
G03X-0196500Y0080030I0000470J0000000D01*
Y0081030D02*
G03X-0196245Y0081105I0000000J0000470D01*
G01X-0196500Y0080030D02*
G03X-0196073Y0080305I0000000J0000470D01*
G01X-0196500Y0080970D02*
G03X-0196970Y0080500I0000000J0000470D01*
Y0079500D02*
G03X-0196500Y0079030I0000470J0000000D01*
G03X-0196245Y0079105I0000000J0000470D01*
G01X-0196500Y0079970D02*
G03X-0196970Y0079500I0000000J0000470D01*
G01X-0203970Y0085750D02*
G03X-0203500Y0085280I0000470J0000000D01*
Y0086220D02*
G03X-0203970Y0085750I0000000J0000470D01*
G01X-0203500Y0085280D02*
G03X-0203255Y0085349I0000000J0000470D01*
G01X-0202500Y0085280D02*
G03X-0202030Y0085750I0000000J0000470D01*
G03X-0202500Y0086220I0000470J0000000D01*
G01X-0203255Y0086151D02*
G03X-0203500Y0086220I0000245J0000401D01*
G01X-0201970Y0085750D02*
G03X-0201500Y0085280I0000470J0000000D01*
G03X-0201030Y0085750I0000000J0000470D01*
G03X-0201500Y0086220I0000470J0000000D01*
G03X-0201970Y0085750I0000000J0000470D01*
G01X-0200970D02*
G03X-0200795Y0085384I0000470J0000000D01*
G01X-0200030Y0085750D02*
G03X-0200500Y0086220I0000470J0000000D01*
G03X-0200970Y0085750I0000000J0000470D01*
G01X-0199970D02*
G03X-0199616Y0085295I0000470J0000000D01*
G01X-0199030Y0085750D02*
G03X-0199245Y0086144I0000470J0000000D01*
G01X-0199383Y0085295D02*
G03X-0199030Y0085750I0000117J0000455D01*
G01X-0198970Y0078750D02*
G03X-0198500Y0078280I0000470J0000000D01*
G03X-0198030Y0078750I0000000J0000470D01*
G03X-0198495Y0079219I0000470J0000000D01*
G01X-0199970Y0078750D02*
G03X-0199500Y0078280I0000470J0000000D01*
G03X-0199030Y0078750I0000000J0000470D01*
G03X-0199245Y0079144I0000470J0000000D01*
G01X-0200970Y0078750D02*
G03X-0200500Y0078280I0000470J0000000D01*
G03X-0200030Y0078750I0000000J0000470D01*
G03X-0200500Y0079220I0000470J0000000D01*
G03X-0200970Y0078750I0000000J0000470D01*
G01X-0201970D02*
G03X-0201500Y0078280I0000470J0000000D01*
G03X-0201030Y0078750I0000000J0000470D01*
G03X-0201500Y0079220I0000470J0000000D01*
G03X-0201970Y0078750I0000000J0000470D01*
G01X-0202970D02*
G03X-0202500Y0078280I0000470J0000000D01*
G03X-0202030Y0078750I0000000J0000470D01*
G03X-0202500Y0079220I0000470J0000000D01*
G03X-0202970Y0078750I0000000J0000470D01*
G01X-0196245Y0079894D02*
G03X-0196500Y0079969I0000255J0000394D01*
G01X-0196909Y0081730D02*
G03X-0196969Y0081500I0000409J0000230D01*
G01X-0198495Y0079500D02*
G03X-0198500Y0079555I0000255J0000000D01*
G01X-0195570Y0081820D02*
G03X-0195495Y0082000I0000180J0000180D01*
G01X-0199245Y0079250D02*
G03X-0199320Y0079430I0000255J0000000D01*
G01X-0201000Y0080198D02*
G03X-0200750Y0080075I0000250J0000192D01*
G01X-0203000Y0080198D02*
G03X-0202750Y0080075I0000250J0000192D01*
G01X-0198995Y0083505D02*
G03X-0198935Y0083690I0000255J0000185D01*
G01X-0200958Y0085208D02*
G03X-0201044Y0085000I0000208J0000208D01*
G01X-0200291Y0085041D02*
G03X-0200204Y0085250I0000209J0000209D01*
G01X-0199750Y0085295D02*
G03X-0199958Y0085208I0000000J0000295D01*
G01X-0199000Y0084705D02*
G03X-0198791Y0084791I0000000J0000295D01*
G01X-0200000Y0083498D02*
G03X-0199750Y0083375I0000250J0000192D01*
G01X-0202500Y0086220D02*
G03X-0202730Y0086159I0000000J0000470D01*
G01X-0201045Y0084549D02*
G03X-0201250Y0084625I0000205J0000239D01*
G01X-0203530Y0081154D02*
G03X-0203565Y0081010I0000280J0000144D01*
G01X-0199005Y0079000D02*
G03X-0198958Y0078853I0000255J0000000D01*
G01X-0199000Y0084705D02*
G03X-0198791Y0084791I0000000J0000295D01*
G01X-0202005Y0080000D02*
G03X-0201930Y0079820I0000255J0000000D01*
G01X-0201495Y0080192D02*
G03X-0201250Y0080075I0000245J0000198D01*
G01X-0199570Y0079680D02*
G03X-0199750Y0079755I0000180J0000180D01*
G01X-0198995Y0080205D02*
G03X-0198935Y0080390I0000255J0000185D01*
G01X-0202250Y0080075D02*
G03X-0202005Y0080192I0000000J0000315D01*
G01X-0199755Y0079144D02*
G03X-0199969Y0078750I0000255J0000394D01*
G01X-0205541Y0081791D02*
G03X-0205454Y0082000I0000209J0000209D01*
G01X-0205958Y0083208D02*
G03X-0206000Y0083156I0000208J0000208D01*
G01X-0201458Y0081458D02*
G03X-0201544Y0081250I0000208J0000208D01*
G01X-0200750Y0082195D02*
G03X-0201195Y0081750I0000000J0000445D01*
G01X-0205958Y0083208D02*
G03X-0206000Y0083156I0000208J0000208D01*
G01X-0201945Y0082500D02*
G03X-0201500Y0082055I0000445J0000000D01*
G03X-0201055Y0082500I0000000J0000445D01*
G03X-0201500Y0082945I0000445J0000000D01*
G03X-0201945Y0082500I0000000J0000445D01*
G01X-0203565Y0080390D02*
G03X-0203250Y0080075I0000315J0000000D01*
G03X-0203000Y0080198I0000000J0000315D01*
G01X-0202500Y0081201D02*
G03X-0202750Y0081325I0000250J0000191D01*
Y0080075D02*
G03X-0202500Y0080198I0000000J0000315D01*
G01X-0203695Y0081500D02*
G03X-0203530Y0081154I0000445J0000000D01*
G01X-0202250Y0081325D02*
G03X-0202500Y0081201I0000000J0000315D01*
G01X-0202000D02*
G03X-0202250Y0081325I0000250J0000191D01*
G01X-0201750D02*
G03X-0202000Y0081201I0000000J0000315D01*
G01X-0205703Y0087095D02*
G03X-0206000Y0087205I0000297J0000345D01*
G01X-0201195Y0081750D02*
G03X-0201194Y0081723I0000445J0000000D01*
G01X-0201250Y0080075D02*
G03X-0201000Y0080198I0000000J0000315D01*
G01X-0200750Y0080075D02*
G03X-0200500Y0080198I0000000J0000315D01*
G01X-0203250Y0082745D02*
G03X-0203070Y0082820I0000000J0000255D01*
G01X-0202848Y0081309D02*
G03X-0202805Y0081500I0000402J0000191D01*
G01X-0200250Y0080075D02*
G03X-0200000Y0080198I0000000J0000315D01*
G01X-0199505Y0082865D02*
G03X-0199695Y0082500I0000255J0000365D01*
G01X-0198935Y0084310D02*
G03X-0199250Y0084625I0000315J0000000D01*
G03X-0199500Y0084501I0000000J0000315D01*
G03X-0199710Y0084622I0000250J0000191D01*
G01X-0200205Y0085384D02*
G03X-0200030Y0085750I0000295J0000366D01*
G01X-0202750Y0081325D02*
G03X-0202848Y0081309I0000000J0000315D01*
G01X-0202805Y0081500D02*
G03X-0203250Y0081945I0000445J0000000D01*
G03X-0203695Y0081500I0000000J0000445D01*
G01X-0201500Y0084501D02*
G03X-0201750Y0084625I0000250J0000191D01*
G01X-0201000Y0083498D02*
G03X-0200750Y0083375I0000250J0000192D01*
G01X-0202250Y0084625D02*
G03X-0202264Y0084625I0000000J0000315D01*
G01X-0204195Y0084000D02*
G03X-0203750Y0083555I0000445J0000000D01*
G03X-0203565Y0083595I0000000J0000445D01*
G01X-0203750Y0084445D02*
G03X-0204195Y0084000I0000000J0000445D01*
G01X-0204695Y0083000D02*
G03X-0204250Y0082555I0000445J0000000D01*
G03X-0203885Y0082745I0000000J0000445D01*
G01X-0204250Y0083445D02*
G03X-0204695Y0083000I0000000J0000445D01*
G01X-0202570Y0083320D02*
G03X-0202495Y0083492I0000180J0000180D01*
G01X-0203565Y0084405D02*
G03X-0203750Y0084445I0000185J0000405D01*
G01X-0203885Y0083255D02*
G03X-0204250Y0083445I0000365J0000255D01*
G01X-0199695Y0082500D02*
G03X-0199621Y0082255I0000445J0000000D01*
G01X-0198805Y0082500D02*
G03X-0198995Y0082865I0000445J0000000D01*
G01X-0201570Y0083320D02*
G03X-0201495Y0083492I0000180J0000180D01*
G01X-0202695Y0083000D02*
G03X-0202250Y0082555I0000445J0000000D01*
G03X-0201805Y0083000I0000000J0000445D01*
G01X-0199005Y0079000D02*
G03X-0198958Y0078853I0000255J0000000D01*
G01X-0198500Y0079555D02*
G03X-0198245Y0079635I0000000J0000445D01*
G01X-0198070Y0080180D02*
G03X-0198109Y0080212I0000180J0000180D01*
G01X-0198070Y0080180D02*
G03X-0198109Y0080212I0000180J0000180D01*
G01X-0196077Y0081295D02*
G03X-0196064Y0081326I0000423J0000205D01*
G01X-0200291Y0085041D02*
G03X-0200204Y0085250I0000209J0000209D01*
G01X-0195495Y0082750D02*
G03X-0195570Y0082930I0000255J0000000D01*
G01X-0200308Y0081802D02*
G03X-0200750Y0082195I0000442J0000052D01*
G01X-0201805Y0083000D02*
G03X-0201812Y0083077I0000445J0000000D01*
G01X-0198878Y0082255D02*
G03X-0198805Y0082500I0000372J0000245D01*
G01X-0201570Y0083320D02*
G03X-0201495Y0083492I0000180J0000180D01*
G01X-0202500Y0080198D02*
G03X-0202250Y0080075I0000250J0000192D01*
G01X-0202745Y0085349D02*
G03X-0202500Y0085280I0000245J0000401D01*
G01X-0199245Y0086250D02*
G03X-0199320Y0086430I0000255J0000000D01*
G01X-0199570Y0086680D02*
G03X-0199750Y0086755I0000180J0000180D01*
G01X-0199755Y0086144D02*
G03X-0199969Y0085750I0000255J0000394D01*
G01X-0204000Y0087205D02*
G03X-0204296Y0087095I0000000J0000455D01*
G01X-0199750Y0083375D02*
G03X-0199505Y0083492I0000000J0000315D01*
G01X-0201545Y0081249D02*
G03X-0201750Y0081325I0000205J0000239D01*
G01X-0198935Y0081010D02*
G03X-0199040Y0081245I0000315J0000000D01*
G01X-0196245Y0080894D02*
G03X-0196500Y0080969I0000255J0000394D01*
G01X-0204296Y0086405D02*
G03X-0204000Y0086295I0000296J0000345D01*
G01X-0196970Y0083500D02*
G03X-0196901Y0083255I0000470J0000000D01*
G01X-0197000D02*
G03X-0197180Y0083180I0000000J0000255D01*
G01X-0195820D02*
G03X-0196000Y0083255I0000180J0000180D01*
G01X-0199750Y0082255D02*
G03X-0199930Y0082180I0000000J0000255D01*
G01X-0203180Y0086430D02*
G03X-0203255Y0086250I0000180J0000180D01*
G01X-0202750Y0086755D02*
G03X-0202930Y0086680I0000000J0000255D01*
G01X-0203255Y0085000D02*
G03X-0203180Y0084820I0000255J0000000D01*
G01X-0197500Y0081245D02*
G03X-0197320Y0081320I0000000J0000255D01*
G01X-0199505Y0080000D02*
G03X-0199430Y0079820I0000255J0000000D01*
G01X-0198958Y0078853D02*
G03X-0198969Y0078750I0000458J0000103D01*
G01X-0199750Y0080075D02*
G03X-0199505Y0080192I0000000J0000315D01*
G01X-0200500Y0080198D02*
G03X-0200250Y0080075I0000250J0000192D01*
G01X-0202406Y0083416D02*
G03X-0202694Y0083000I0000156J0000416D01*
G01X-0201495Y0083492D02*
G03X-0201250Y0083375I0000245J0000198D01*
G54D32*
G01X-0203995Y0078750D02*
X-0203500D01*
X-0201168Y0082168D02*
X-0201500Y0082500D01*
X-0201832Y0082168D02*
X-0201500Y0082500D01*
X-0201168Y0082832D02*
X-0201500Y0082500D01*
X-0205295Y0082000D02*
X-0204750D01*
X-0204205D02*
X-0204750D01*
Y0081455D02*
Y0082000D01*
Y0082545D02*
Y0082000D01*
X-0201250Y0084650D02*
Y0084000D01*
Y0083350D02*
Y0084000D01*
X-0208100Y0085600D02*
X-0207750Y0085250D01*
X-0207400Y0085600D02*
X-0207750Y0085250D01*
X-0203520Y0087750D02*
X-0204000D01*
X-0204480D02*
X-0204000D01*
Y0087270D02*
Y0087750D01*
X-0195750Y0081320D02*
Y0080800D01*
Y0080280D02*
Y0080800D01*
X-0196270D02*
X-0195750D01*
X-0205520Y0087750D02*
X-0206000D01*
X-0206480D02*
X-0206000D01*
Y0087270D02*
Y0087750D01*
X-0196850Y0080150D02*
X-0196500Y0080500D01*
X-0196150Y0080150D02*
X-0196500Y0080500D01*
X-0196850Y0080850D02*
X-0196500Y0080500D01*
X-0203850Y0086100D02*
X-0203500Y0085750D01*
X-0203850Y0085400D02*
X-0203500Y0085750D01*
X-0202150Y0085400D02*
X-0202500Y0085750D01*
X-0202150Y0086100D02*
X-0202500Y0085750D01*
X-0203500Y0079245D02*
Y0078750D01*
G54D33*
G01X-0200261Y0077250D02*
Y0076239D01*
X-0200270Y0077250D02*
Y0076230D01*
X-0200279Y0077250D02*
Y0076221D01*
X-0200288Y0077250D02*
Y0076212D01*
X-0200297Y0077250D02*
Y0076203D01*
X-0200306Y0077250D02*
Y0076194D01*
X-0200315Y0077250D02*
Y0076185D01*
X-0200324Y0077250D02*
Y0076176D01*
X-0200333Y0077250D02*
Y0076167D01*
X-0200342Y0077250D02*
Y0076158D01*
X-0200351Y0077250D02*
Y0076149D01*
X-0200360Y0077250D02*
Y0076140D01*
X-0200369Y0077250D02*
Y0076131D01*
X-0200378Y0077250D02*
Y0076122D01*
X-0200387Y0077250D02*
Y0076113D01*
X-0200396Y0077250D02*
Y0076104D01*
X-0200405Y0077250D02*
Y0076095D01*
X-0200414Y0077250D02*
Y0076086D01*
X-0200423Y0077250D02*
Y0076077D01*
X-0200432Y0077250D02*
Y0076068D01*
X-0200441Y0077250D02*
Y0076059D01*
X-0200450Y0077250D02*
Y0076050D01*
X-0200459Y0077250D02*
Y0076041D01*
X-0200468Y0077250D02*
Y0076032D01*
X-0200477Y0077250D02*
Y0076023D01*
X-0200486Y0077250D02*
Y0076014D01*
X-0200495Y0077250D02*
Y0076005D01*
X-0200504Y0077250D02*
Y0075996D01*
X-0200513Y0077250D02*
Y0075987D01*
X-0200522Y0077250D02*
Y0075978D01*
X-0200531Y0077250D02*
Y0075969D01*
X-0200540Y0077250D02*
Y0075960D01*
X-0200549Y0077250D02*
Y0075951D01*
X-0200558Y0077250D02*
Y0075942D01*
X-0200567Y0077250D02*
Y0075933D01*
X-0200576Y0077250D02*
Y0075924D01*
X-0200585Y0077250D02*
Y0075915D01*
X-0200594Y0077250D02*
Y0075906D01*
X-0200603Y0077250D02*
Y0075897D01*
X-0200612Y0077250D02*
Y0075888D01*
X-0200621Y0077250D02*
Y0075879D01*
X-0200630Y0077250D02*
Y0075870D01*
X-0200639Y0077250D02*
Y0075861D01*
X-0200648Y0077250D02*
Y0075852D01*
X-0200657Y0077250D02*
Y0075843D01*
X-0200666Y0077250D02*
Y0075834D01*
X-0200675Y0077250D02*
Y0075825D01*
X-0200684Y0077250D02*
Y0075816D01*
X-0200693Y0077250D02*
Y0075807D01*
X-0200702Y0077250D02*
Y0075798D01*
X-0200711Y0077250D02*
Y0075789D01*
X-0200720Y0077250D02*
Y0075780D01*
X-0200250Y0077250D02*
X-0201750D01*
X-0200250D02*
Y0076250D01*
X-0200750Y0075750D01*
Y0074500D01*
X-0200250Y0074000D01*
Y0072750D01*
X-0201750D01*
Y0077250D02*
Y0072750D01*
X-0200261Y0074011D02*
Y0072750D01*
X-0200270Y0074020D02*
Y0072750D01*
X-0200279Y0074029D02*
Y0072750D01*
X-0200288Y0074038D02*
Y0072750D01*
X-0200297Y0074047D02*
Y0072750D01*
X-0200306Y0074056D02*
Y0072750D01*
X-0200315Y0074065D02*
Y0072750D01*
X-0200324Y0074074D02*
Y0072750D01*
X-0200333Y0074083D02*
Y0072750D01*
X-0200342Y0074092D02*
Y0072750D01*
X-0200351Y0074101D02*
Y0072750D01*
X-0200360Y0074110D02*
Y0072750D01*
X-0200369Y0074119D02*
Y0072750D01*
X-0200378Y0074128D02*
Y0072750D01*
X-0200387Y0074137D02*
Y0072750D01*
X-0200396Y0074146D02*
Y0072750D01*
X-0200405Y0074155D02*
Y0072750D01*
X-0200414Y0074164D02*
Y0072750D01*
X-0200423Y0074173D02*
Y0072750D01*
X-0200432Y0074182D02*
Y0072750D01*
X-0200441Y0074191D02*
Y0072750D01*
X-0200450Y0074200D02*
Y0072750D01*
X-0200459Y0074209D02*
Y0072750D01*
X-0200468Y0074218D02*
Y0072750D01*
X-0200477Y0074227D02*
Y0072750D01*
X-0200486Y0074236D02*
Y0072750D01*
X-0200495Y0074245D02*
Y0072750D01*
X-0200504Y0074254D02*
Y0072750D01*
X-0200513Y0074263D02*
Y0072750D01*
X-0200522Y0074272D02*
Y0072750D01*
X-0200531Y0074281D02*
Y0072750D01*
X-0200540Y0074290D02*
Y0072750D01*
X-0200549Y0074299D02*
Y0072750D01*
X-0200558Y0074308D02*
Y0072750D01*
X-0200567Y0074317D02*
Y0072750D01*
X-0200576Y0074326D02*
Y0072750D01*
X-0200585Y0074335D02*
Y0072750D01*
X-0200594Y0074344D02*
Y0072750D01*
X-0200603Y0074353D02*
Y0072750D01*
X-0200612Y0074362D02*
Y0072750D01*
X-0200621Y0074371D02*
Y0072750D01*
X-0200630Y0074380D02*
Y0072750D01*
X-0200639Y0074389D02*
Y0072750D01*
X-0200648Y0074398D02*
Y0072750D01*
X-0200657Y0074407D02*
Y0072750D01*
X-0200666Y0074416D02*
Y0072750D01*
X-0200675Y0074425D02*
Y0072750D01*
X-0200684Y0074434D02*
Y0072750D01*
X-0200693Y0074443D02*
Y0072750D01*
X-0200702Y0074452D02*
Y0072750D01*
X-0200711Y0074461D02*
Y0072750D01*
X-0200720Y0074470D02*
Y0072750D01*
X-0200729Y0074479D02*
Y0072750D01*
X-0200738Y0074488D02*
Y0072750D01*
X-0200747Y0077250D02*
Y0072750D01*
X-0200756Y0077250D02*
Y0072750D01*
X-0200765Y0077250D02*
Y0072750D01*
X-0200774Y0077250D02*
Y0072750D01*
X-0200783Y0077250D02*
Y0072750D01*
X-0200792Y0077250D02*
Y0072750D01*
X-0200801Y0077250D02*
Y0072750D01*
X-0200810Y0077250D02*
Y0072750D01*
X-0200819Y0077250D02*
Y0072750D01*
X-0200828Y0077250D02*
Y0072750D01*
X-0200837Y0077250D02*
Y0072750D01*
X-0200846Y0077250D02*
Y0072750D01*
X-0200855Y0077250D02*
Y0072750D01*
X-0200864Y0077250D02*
Y0072750D01*
X-0200873Y0077250D02*
Y0072750D01*
X-0200882Y0077250D02*
Y0072750D01*
X-0200891Y0077250D02*
Y0072750D01*
X-0200900Y0077250D02*
Y0072750D01*
X-0200909Y0077250D02*
Y0072750D01*
X-0200918Y0077250D02*
Y0072750D01*
X-0200927Y0077250D02*
Y0072750D01*
X-0200936Y0077250D02*
Y0072750D01*
X-0200945Y0077250D02*
Y0072750D01*
X-0200954Y0077250D02*
Y0072750D01*
X-0200963Y0077250D02*
Y0072750D01*
X-0200972Y0077250D02*
Y0072750D01*
X-0200981Y0077250D02*
Y0072750D01*
X-0200990Y0077250D02*
Y0072750D01*
X-0200999Y0077250D02*
Y0072750D01*
X-0201008Y0077250D02*
Y0072750D01*
X-0201017Y0077250D02*
Y0072750D01*
X-0201026Y0077250D02*
Y0072750D01*
X-0201035Y0077250D02*
Y0072750D01*
X-0201044Y0077250D02*
Y0072750D01*
X-0201053Y0077250D02*
Y0072750D01*
X-0201062Y0077250D02*
Y0072750D01*
X-0201071Y0077250D02*
Y0072750D01*
X-0201080Y0077250D02*
Y0072750D01*
X-0201089Y0077250D02*
Y0072750D01*
X-0201098Y0077250D02*
Y0072750D01*
X-0201107Y0077250D02*
Y0072750D01*
X-0201116Y0077250D02*
Y0072750D01*
X-0201125Y0077250D02*
Y0072750D01*
X-0201134Y0077250D02*
Y0072750D01*
X-0201143Y0077250D02*
Y0072750D01*
X-0201152Y0077250D02*
Y0072750D01*
X-0201161Y0077250D02*
Y0072750D01*
X-0201170Y0077250D02*
Y0072750D01*
X-0201179Y0077250D02*
Y0072750D01*
X-0201188Y0077250D02*
Y0072750D01*
X-0201197Y0077250D02*
Y0072750D01*
X-0201206Y0077250D02*
Y0072750D01*
X-0201215Y0077250D02*
Y0072750D01*
X-0201224Y0077250D02*
Y0072750D01*
X-0201233Y0077250D02*
Y0072750D01*
X-0201242Y0077250D02*
Y0072750D01*
X-0201251Y0077250D02*
Y0072750D01*
X-0201260Y0077250D02*
Y0072750D01*
X-0201269Y0077250D02*
Y0072750D01*
X-0201278Y0077250D02*
Y0072750D01*
X-0201287Y0077250D02*
Y0072750D01*
X-0201296Y0077250D02*
Y0072750D01*
X-0201305Y0077250D02*
Y0072750D01*
X-0201314Y0077250D02*
Y0072750D01*
X-0201323Y0077250D02*
Y0072750D01*
X-0201332Y0077250D02*
Y0072750D01*
X-0201341Y0077250D02*
Y0072750D01*
X-0201350Y0077250D02*
Y0072750D01*
X-0201359Y0077250D02*
Y0072750D01*
X-0201368Y0077250D02*
Y0072750D01*
X-0201377Y0077250D02*
Y0072750D01*
X-0201386Y0077250D02*
Y0072750D01*
X-0201395Y0077250D02*
Y0072750D01*
X-0201404Y0077250D02*
Y0072750D01*
X-0201413Y0077250D02*
Y0072750D01*
X-0201422Y0077250D02*
Y0072750D01*
X-0201431Y0077250D02*
Y0072750D01*
X-0201440Y0077250D02*
Y0072750D01*
X-0201449Y0077250D02*
Y0072750D01*
X-0201458Y0077250D02*
Y0072750D01*
X-0201467Y0077250D02*
Y0072750D01*
X-0201476Y0077250D02*
Y0072750D01*
X-0201485Y0077250D02*
Y0072750D01*
X-0201494Y0077250D02*
Y0072750D01*
X-0201503Y0077250D02*
Y0072750D01*
X-0201512Y0077250D02*
Y0072750D01*
X-0201521Y0077250D02*
Y0072750D01*
X-0201530Y0077250D02*
Y0072750D01*
X-0201539Y0077250D02*
Y0072750D01*
X-0201548Y0077250D02*
Y0072750D01*
X-0201557Y0077250D02*
Y0072750D01*
X-0201566Y0077250D02*
Y0072750D01*
X-0201575Y0077250D02*
Y0072750D01*
X-0201584Y0077250D02*
Y0072750D01*
X-0201593Y0077250D02*
Y0072750D01*
X-0201602Y0077250D02*
Y0072750D01*
X-0201611Y0077250D02*
Y0072750D01*
X-0201620Y0077250D02*
Y0072750D01*
X-0201629Y0077250D02*
Y0072750D01*
X-0201638Y0077250D02*
Y0072750D01*
X-0201647Y0077250D02*
Y0072750D01*
X-0201656Y0077250D02*
Y0072750D01*
X-0201665Y0077250D02*
Y0072750D01*
X-0201674Y0077250D02*
Y0072750D01*
X-0201683Y0077250D02*
Y0072750D01*
X-0201692Y0077250D02*
Y0072750D01*
X-0201701Y0077250D02*
Y0072750D01*
X-0201710Y0077250D02*
Y0072750D01*
X-0201719Y0077250D02*
Y0072750D01*
X-0201728Y0077250D02*
Y0072750D01*
X-0201737Y0077250D02*
Y0072750D01*
X-0200738Y0077250D02*
Y0075762D01*
X-0200729Y0077250D02*
Y0075771D01*
X-0200250Y0077236D02*
X-0201750D01*
X-0200250Y0077227D02*
X-0201750D01*
X-0200250Y0077218D02*
X-0201750D01*
X-0200250Y0077209D02*
X-0201750D01*
X-0200250Y0077200D02*
X-0201750D01*
X-0200250Y0077191D02*
X-0201750D01*
X-0200250Y0077182D02*
X-0201750D01*
X-0200250Y0077173D02*
X-0201750D01*
X-0200250Y0077164D02*
X-0201750D01*
X-0200250Y0077155D02*
X-0201750D01*
X-0200250Y0077146D02*
X-0201750D01*
X-0200250Y0077137D02*
X-0201750D01*
X-0200250Y0077128D02*
X-0201750D01*
X-0200250Y0077119D02*
X-0201750D01*
X-0200250Y0077110D02*
X-0201750D01*
X-0200250Y0077101D02*
X-0201750D01*
X-0200250Y0077092D02*
X-0201750D01*
X-0200250Y0077083D02*
X-0201750D01*
X-0200250Y0077074D02*
X-0201750D01*
X-0200250Y0077065D02*
X-0201750D01*
X-0200250Y0077056D02*
X-0201750D01*
X-0200250Y0077047D02*
X-0201750D01*
X-0200250Y0077038D02*
X-0201750D01*
X-0200250Y0077029D02*
X-0201750D01*
X-0200250Y0077020D02*
X-0201750D01*
X-0200250Y0077011D02*
X-0201750D01*
X-0200250Y0077002D02*
X-0201750D01*
X-0200250Y0076993D02*
X-0201750D01*
X-0200250Y0076984D02*
X-0201750D01*
X-0200250Y0076975D02*
X-0201750D01*
X-0200250Y0076966D02*
X-0201750D01*
X-0200250Y0076957D02*
X-0201750D01*
X-0200250Y0076948D02*
X-0201750D01*
X-0200250Y0076939D02*
X-0201750D01*
X-0200250Y0076930D02*
X-0201750D01*
X-0200250Y0076921D02*
X-0201750D01*
X-0200250Y0076912D02*
X-0201750D01*
X-0200250Y0076903D02*
X-0201750D01*
X-0200250Y0076894D02*
X-0201750D01*
X-0200250Y0076885D02*
X-0201750D01*
X-0200250Y0076876D02*
X-0201750D01*
X-0200250Y0076867D02*
X-0201750D01*
X-0200250Y0076858D02*
X-0201750D01*
X-0200250Y0076849D02*
X-0201750D01*
X-0200250Y0076840D02*
X-0201750D01*
X-0200250Y0076831D02*
X-0201750D01*
X-0200250Y0076822D02*
X-0201750D01*
X-0200250Y0076813D02*
X-0201750D01*
X-0200250Y0076804D02*
X-0201750D01*
X-0200250Y0076795D02*
X-0201750D01*
X-0200250Y0076786D02*
X-0201750D01*
X-0200250Y0076777D02*
X-0201750D01*
X-0200250Y0076768D02*
X-0201750D01*
X-0200250Y0076759D02*
X-0201750D01*
X-0200250Y0076750D02*
X-0201750D01*
X-0200250Y0076741D02*
X-0201750D01*
X-0200250Y0076732D02*
X-0201750D01*
X-0200250Y0076723D02*
X-0201750D01*
X-0200250Y0076714D02*
X-0201750D01*
X-0200250Y0076705D02*
X-0201750D01*
X-0200250Y0076696D02*
X-0201750D01*
X-0200250Y0076687D02*
X-0201750D01*
X-0200250Y0076678D02*
X-0201750D01*
X-0200250Y0076669D02*
X-0201750D01*
X-0200250Y0076660D02*
X-0201750D01*
X-0200250Y0076651D02*
X-0201750D01*
X-0200250Y0076642D02*
X-0201750D01*
X-0200250Y0076633D02*
X-0201750D01*
X-0200250Y0076624D02*
X-0201750D01*
X-0200250Y0076615D02*
X-0201750D01*
X-0200250Y0076606D02*
X-0201750D01*
X-0200250Y0076597D02*
X-0201750D01*
X-0200250Y0076588D02*
X-0201750D01*
X-0200250Y0076579D02*
X-0201750D01*
X-0200250Y0076570D02*
X-0201750D01*
X-0200250Y0076561D02*
X-0201750D01*
X-0200250Y0076552D02*
X-0201750D01*
X-0200250Y0076543D02*
X-0201750D01*
X-0200250Y0076534D02*
X-0201750D01*
X-0200250Y0076525D02*
X-0201750D01*
X-0200250Y0076516D02*
X-0201750D01*
X-0200250Y0076507D02*
X-0201750D01*
X-0200250Y0076498D02*
X-0201750D01*
X-0200250Y0076489D02*
X-0201750D01*
X-0200250Y0076480D02*
X-0201750D01*
X-0200250Y0076471D02*
X-0201750D01*
X-0200250Y0076462D02*
X-0201750D01*
X-0200250Y0076453D02*
X-0201750D01*
X-0200250Y0076444D02*
X-0201750D01*
X-0200250Y0076435D02*
X-0201750D01*
X-0200250Y0076426D02*
X-0201750D01*
X-0200250Y0076417D02*
X-0201750D01*
X-0200250Y0076408D02*
X-0201750D01*
X-0200250Y0076399D02*
X-0201750D01*
X-0200250Y0076390D02*
X-0201750D01*
X-0200250Y0076381D02*
X-0201750D01*
X-0200250Y0076372D02*
X-0201750D01*
X-0200250Y0076363D02*
X-0201750D01*
X-0200250Y0076354D02*
X-0201750D01*
X-0200250Y0076345D02*
X-0201750D01*
X-0200250Y0076336D02*
X-0201750D01*
X-0200250Y0076327D02*
X-0201750D01*
X-0200250Y0076318D02*
X-0201750D01*
X-0200250Y0076309D02*
X-0201750D01*
X-0200250Y0076300D02*
X-0201750D01*
X-0200250Y0076291D02*
X-0201750D01*
X-0200250Y0076282D02*
X-0201750D01*
X-0200250Y0076273D02*
X-0201750D01*
X-0200250Y0076264D02*
X-0201750D01*
X-0200250Y0076255D02*
X-0201750D01*
X-0200247Y0076246D02*
X-0201750D01*
X-0200263Y0076237D02*
X-0201750D01*
X-0200272Y0076228D02*
X-0201750D01*
X-0200281Y0076219D02*
X-0201750D01*
X-0200290Y0076210D02*
X-0201750D01*
X-0200299Y0076201D02*
X-0201750D01*
X-0200308Y0076192D02*
X-0201750D01*
X-0200317Y0076183D02*
X-0201750D01*
X-0200326Y0076174D02*
X-0201750D01*
X-0200335Y0076165D02*
X-0201750D01*
X-0200344Y0076156D02*
X-0201750D01*
X-0200353Y0076147D02*
X-0201750D01*
X-0200362Y0076138D02*
X-0201750D01*
X-0200371Y0076129D02*
X-0201750D01*
X-0200380Y0076120D02*
X-0201750D01*
X-0200389Y0076111D02*
X-0201750D01*
X-0200398Y0076102D02*
X-0201750D01*
X-0200407Y0076093D02*
X-0201750D01*
X-0200416Y0076084D02*
X-0201750D01*
X-0200425Y0076075D02*
X-0201750D01*
X-0200434Y0076066D02*
X-0201750D01*
X-0200443Y0076057D02*
X-0201750D01*
X-0200452Y0076048D02*
X-0201750D01*
X-0200461Y0076039D02*
X-0201750D01*
X-0200470Y0076030D02*
X-0201750D01*
X-0200479Y0076021D02*
X-0201750D01*
X-0200488Y0076012D02*
X-0201750D01*
X-0200497Y0076003D02*
X-0201750D01*
X-0200506Y0075994D02*
X-0201750D01*
X-0200515Y0075985D02*
X-0201750D01*
X-0200524Y0075976D02*
X-0201750D01*
X-0200533Y0075967D02*
X-0201750D01*
X-0200542Y0075958D02*
X-0201750D01*
X-0200551Y0075949D02*
X-0201750D01*
X-0200560Y0075940D02*
X-0201750D01*
X-0200569Y0075931D02*
X-0201750D01*
X-0200578Y0075922D02*
X-0201750D01*
X-0200587Y0075913D02*
X-0201750D01*
X-0200596Y0075904D02*
X-0201750D01*
X-0200605Y0075895D02*
X-0201750D01*
X-0200614Y0075886D02*
X-0201750D01*
X-0200623Y0075877D02*
X-0201750D01*
X-0200632Y0075868D02*
X-0201750D01*
X-0200641Y0075859D02*
X-0201750D01*
X-0200650Y0075850D02*
X-0201750D01*
X-0200659Y0075841D02*
X-0201750D01*
X-0200668Y0075832D02*
X-0201750D01*
X-0200677Y0075823D02*
X-0201750D01*
X-0200686Y0075814D02*
X-0201750D01*
X-0200695Y0075805D02*
X-0201750D01*
X-0200704Y0075796D02*
X-0201750D01*
X-0200713Y0075787D02*
X-0201750D01*
X-0200722Y0075778D02*
X-0201750D01*
X-0200731Y0075769D02*
X-0201750D01*
X-0200740Y0075760D02*
X-0201750D01*
X-0200749Y0075751D02*
X-0201750D01*
X-0200750Y0075742D02*
X-0201750D01*
X-0200750Y0075733D02*
X-0201750D01*
X-0200750Y0075724D02*
X-0201750D01*
X-0200750Y0075715D02*
X-0201750D01*
X-0200750Y0075706D02*
X-0201750D01*
X-0200750Y0075697D02*
X-0201750D01*
X-0200750Y0075688D02*
X-0201750D01*
X-0200750Y0075679D02*
X-0201750D01*
X-0200750Y0075670D02*
X-0201750D01*
X-0200750Y0075661D02*
X-0201750D01*
X-0200750Y0075652D02*
X-0201750D01*
X-0200750Y0075643D02*
X-0201750D01*
X-0200750Y0075634D02*
X-0201750D01*
X-0200750Y0075625D02*
X-0201750D01*
X-0200750Y0075616D02*
X-0201750D01*
X-0200750Y0075607D02*
X-0201750D01*
X-0200750Y0075598D02*
X-0201750D01*
X-0200750Y0075589D02*
X-0201750D01*
X-0200750Y0075580D02*
X-0201750D01*
X-0200750Y0075571D02*
X-0201750D01*
X-0200750Y0075562D02*
X-0201750D01*
X-0200750Y0075553D02*
X-0201750D01*
X-0200750Y0075544D02*
X-0201750D01*
X-0200750Y0075535D02*
X-0201750D01*
X-0200750Y0075526D02*
X-0201750D01*
X-0200750Y0075517D02*
X-0201750D01*
X-0200750Y0075508D02*
X-0201750D01*
X-0200750Y0075499D02*
X-0201750D01*
X-0200750Y0075490D02*
X-0201750D01*
X-0200750Y0075481D02*
X-0201750D01*
X-0200750Y0075472D02*
X-0201750D01*
X-0200750Y0075463D02*
X-0201750D01*
X-0200750Y0075454D02*
X-0201750D01*
X-0200750Y0075445D02*
X-0201750D01*
X-0200750Y0075436D02*
X-0201750D01*
X-0200750Y0075427D02*
X-0201750D01*
X-0200750Y0075418D02*
X-0201750D01*
X-0200750Y0075409D02*
X-0201750D01*
X-0200750Y0075400D02*
X-0201750D01*
X-0200750Y0075391D02*
X-0201750D01*
X-0200750Y0075382D02*
X-0201750D01*
X-0200750Y0075373D02*
X-0201750D01*
X-0200750Y0075364D02*
X-0201750D01*
X-0200750Y0075355D02*
X-0201750D01*
X-0200750Y0075346D02*
X-0201750D01*
X-0200750Y0075337D02*
X-0201750D01*
X-0200750Y0075328D02*
X-0201750D01*
X-0200750Y0075319D02*
X-0201750D01*
X-0200750Y0075310D02*
X-0201750D01*
X-0200750Y0075301D02*
X-0201750D01*
X-0200750Y0075292D02*
X-0201750D01*
X-0200750Y0075283D02*
X-0201750D01*
X-0200750Y0075274D02*
X-0201750D01*
X-0200750Y0075265D02*
X-0201750D01*
X-0200750Y0075256D02*
X-0201750D01*
X-0200750Y0075247D02*
X-0201750D01*
X-0200750Y0075238D02*
X-0201750D01*
X-0200750Y0075229D02*
X-0201750D01*
X-0200750Y0075220D02*
X-0201750D01*
X-0200750Y0075211D02*
X-0201750D01*
X-0200750Y0075202D02*
X-0201750D01*
X-0200750Y0075193D02*
X-0201750D01*
X-0200750Y0075184D02*
X-0201750D01*
X-0200750Y0075175D02*
X-0201750D01*
X-0200750Y0075166D02*
X-0201750D01*
X-0200750Y0075157D02*
X-0201750D01*
X-0200750Y0075148D02*
X-0201750D01*
X-0200750Y0075139D02*
X-0201750D01*
X-0200750Y0075130D02*
X-0201750D01*
X-0200750Y0075121D02*
X-0201750D01*
X-0200750Y0075112D02*
X-0201750D01*
X-0200750Y0075103D02*
X-0201750D01*
X-0200750Y0075094D02*
X-0201750D01*
X-0200750Y0075085D02*
X-0201750D01*
X-0200750Y0075076D02*
X-0201750D01*
X-0200750Y0075067D02*
X-0201750D01*
X-0200750Y0075058D02*
X-0201750D01*
X-0200750Y0075049D02*
X-0201750D01*
X-0200750Y0075040D02*
X-0201750D01*
X-0200750Y0075031D02*
X-0201750D01*
X-0200750Y0075022D02*
X-0201750D01*
X-0200750Y0075013D02*
X-0201750D01*
X-0200750Y0075004D02*
X-0201750D01*
X-0200750Y0074995D02*
X-0201750D01*
X-0200750Y0074986D02*
X-0201750D01*
X-0200750Y0074977D02*
X-0201750D01*
X-0200750Y0074968D02*
X-0201750D01*
X-0200750Y0074959D02*
X-0201750D01*
X-0200750Y0074950D02*
X-0201750D01*
X-0200750Y0074941D02*
X-0201750D01*
X-0200750Y0074932D02*
X-0201750D01*
X-0200750Y0074923D02*
X-0201750D01*
X-0200750Y0074914D02*
X-0201750D01*
X-0200750Y0074905D02*
X-0201750D01*
X-0200750Y0074896D02*
X-0201750D01*
X-0200750Y0074887D02*
X-0201750D01*
X-0200750Y0074878D02*
X-0201750D01*
X-0200750Y0074869D02*
X-0201750D01*
X-0200750Y0074860D02*
X-0201750D01*
X-0200750Y0074851D02*
X-0201750D01*
X-0200750Y0074842D02*
X-0201750D01*
X-0200750Y0074833D02*
X-0201750D01*
X-0200750Y0074824D02*
X-0201750D01*
X-0200750Y0074815D02*
X-0201750D01*
X-0200750Y0074806D02*
X-0201750D01*
X-0200750Y0074797D02*
X-0201750D01*
X-0200750Y0074788D02*
X-0201750D01*
X-0200750Y0074779D02*
X-0201750D01*
X-0200750Y0074770D02*
X-0201750D01*
X-0200750Y0074761D02*
X-0201750D01*
X-0200750Y0074752D02*
X-0201750D01*
X-0200750Y0074743D02*
X-0201750D01*
X-0200750Y0074734D02*
X-0201750D01*
X-0200750Y0074725D02*
X-0201750D01*
X-0200750Y0074716D02*
X-0201750D01*
X-0200750Y0074707D02*
X-0201750D01*
X-0200750Y0074698D02*
X-0201750D01*
X-0200750Y0074689D02*
X-0201750D01*
X-0200750Y0074680D02*
X-0201750D01*
X-0200750Y0074671D02*
X-0201750D01*
X-0200750Y0074662D02*
X-0201750D01*
X-0200750Y0074653D02*
X-0201750D01*
X-0200750Y0074644D02*
X-0201750D01*
X-0200750Y0074635D02*
X-0201750D01*
X-0200750Y0074626D02*
X-0201750D01*
X-0200750Y0074617D02*
X-0201750D01*
X-0200750Y0074608D02*
X-0201750D01*
X-0200750Y0074599D02*
X-0201750D01*
X-0200750Y0074590D02*
X-0201750D01*
X-0200750Y0074581D02*
X-0201750D01*
X-0200750Y0074572D02*
X-0201750D01*
X-0200750Y0074563D02*
X-0201750D01*
X-0200750Y0074554D02*
X-0201750D01*
X-0200750Y0074545D02*
X-0201750D01*
X-0200750Y0074536D02*
X-0201750D01*
X-0200750Y0074527D02*
X-0201750D01*
X-0200750Y0074518D02*
X-0201750D01*
X-0200750Y0074509D02*
X-0201750D01*
X-0200750Y0074500D02*
X-0201750D01*
X-0200741Y0074491D02*
X-0201750D01*
X-0200732Y0074482D02*
X-0201750D01*
X-0200723Y0074473D02*
X-0201750D01*
X-0200714Y0074464D02*
X-0201750D01*
X-0200705Y0074455D02*
X-0201750D01*
X-0200696Y0074446D02*
X-0201750D01*
X-0200687Y0074437D02*
X-0201750D01*
X-0200678Y0074428D02*
X-0201750D01*
X-0200669Y0074419D02*
X-0201750D01*
X-0200660Y0074410D02*
X-0201750D01*
X-0200651Y0074401D02*
X-0201750D01*
X-0200642Y0074392D02*
X-0201750D01*
X-0200633Y0074383D02*
X-0201750D01*
X-0200624Y0074374D02*
X-0201750D01*
X-0200615Y0074365D02*
X-0201750D01*
X-0200606Y0074356D02*
X-0201750D01*
X-0200597Y0074347D02*
X-0201750D01*
X-0200588Y0074338D02*
X-0201750D01*
X-0200579Y0074329D02*
X-0201750D01*
X-0200570Y0074320D02*
X-0201750D01*
X-0200561Y0074311D02*
X-0201750D01*
X-0200552Y0074302D02*
X-0201750D01*
X-0200543Y0074293D02*
X-0201750D01*
X-0200534Y0074284D02*
X-0201750D01*
X-0200525Y0074275D02*
X-0201750D01*
X-0200516Y0074266D02*
X-0201750D01*
X-0200507Y0074257D02*
X-0201750D01*
X-0200498Y0074248D02*
X-0201750D01*
X-0200489Y0074239D02*
X-0201750D01*
X-0200480Y0074230D02*
X-0201750D01*
X-0200471Y0074221D02*
X-0201750D01*
X-0200462Y0074212D02*
X-0201750D01*
X-0200453Y0074203D02*
X-0201750D01*
X-0200444Y0074194D02*
X-0201750D01*
X-0200435Y0074185D02*
X-0201750D01*
X-0200426Y0074176D02*
X-0201750D01*
X-0200417Y0074167D02*
X-0201750D01*
X-0200408Y0074158D02*
X-0201750D01*
X-0200399Y0074149D02*
X-0201750D01*
X-0200390Y0074140D02*
X-0201750D01*
X-0200381Y0074131D02*
X-0201750D01*
X-0200372Y0074122D02*
X-0201750D01*
X-0200363Y0074113D02*
X-0201750D01*
X-0200354Y0074104D02*
X-0201750D01*
X-0200345Y0074095D02*
X-0201750D01*
X-0200336Y0074086D02*
X-0201750D01*
X-0200327Y0074077D02*
X-0201750D01*
X-0200318Y0074068D02*
X-0201750D01*
X-0200309Y0074059D02*
X-0201750D01*
X-0200300Y0074050D02*
X-0201750D01*
X-0200291Y0074041D02*
X-0201750D01*
X-0200282Y0074032D02*
X-0201750D01*
X-0200273Y0074023D02*
X-0201750D01*
X-0200264Y0074014D02*
X-0201750D01*
X-0200255Y0074005D02*
X-0201750D01*
X-0200247Y0073996D02*
X-0201750D01*
X-0200250Y0073987D02*
X-0201750D01*
X-0200250Y0073978D02*
X-0201750D01*
X-0200250Y0073969D02*
X-0201750D01*
X-0200250Y0073960D02*
X-0201750D01*
X-0200250Y0073951D02*
X-0201750D01*
X-0200250Y0073942D02*
X-0201750D01*
X-0200250Y0073933D02*
X-0201750D01*
X-0200250Y0073924D02*
X-0201750D01*
X-0200250Y0073915D02*
X-0201750D01*
X-0200250Y0073906D02*
X-0201750D01*
X-0200250Y0073897D02*
X-0201750D01*
X-0200250Y0073888D02*
X-0201750D01*
X-0200250Y0073879D02*
X-0201750D01*
X-0200250Y0073870D02*
X-0201750D01*
X-0200250Y0073861D02*
X-0201750D01*
X-0200250Y0073852D02*
X-0201750D01*
X-0200250Y0073843D02*
X-0201750D01*
X-0200250Y0073834D02*
X-0201750D01*
X-0200250Y0073825D02*
X-0201750D01*
X-0200250Y0073816D02*
X-0201750D01*
X-0200250Y0073807D02*
X-0201750D01*
X-0200250Y0073798D02*
X-0201750D01*
X-0200250Y0073789D02*
X-0201750D01*
X-0200250Y0073780D02*
X-0201750D01*
X-0200250Y0073771D02*
X-0201750D01*
X-0200250Y0073762D02*
X-0201750D01*
X-0200250Y0073753D02*
X-0201750D01*
X-0200250Y0073744D02*
X-0201750D01*
X-0200250Y0073735D02*
X-0201750D01*
X-0200250Y0073726D02*
X-0201750D01*
X-0200250Y0073717D02*
X-0201750D01*
X-0200250Y0073708D02*
X-0201750D01*
X-0200250Y0073699D02*
X-0201750D01*
X-0200250Y0073690D02*
X-0201750D01*
X-0200250Y0073681D02*
X-0201750D01*
X-0200250Y0073672D02*
X-0201750D01*
X-0200250Y0073663D02*
X-0201750D01*
X-0200250Y0073654D02*
X-0201750D01*
X-0200250Y0073645D02*
X-0201750D01*
X-0200250Y0073636D02*
X-0201750D01*
X-0200250Y0073627D02*
X-0201750D01*
X-0200250Y0073618D02*
X-0201750D01*
X-0200250Y0073609D02*
X-0201750D01*
X-0200250Y0073600D02*
X-0201750D01*
X-0200250Y0073591D02*
X-0201750D01*
X-0200250Y0073582D02*
X-0201750D01*
X-0200250Y0073573D02*
X-0201750D01*
X-0200250Y0073564D02*
X-0201750D01*
X-0200250Y0073555D02*
X-0201750D01*
X-0200250Y0073546D02*
X-0201750D01*
X-0200250Y0073537D02*
X-0201750D01*
X-0200250Y0073528D02*
X-0201750D01*
X-0200250Y0073519D02*
X-0201750D01*
X-0200250Y0073510D02*
X-0201750D01*
X-0200250Y0073501D02*
X-0201750D01*
X-0200250Y0073492D02*
X-0201750D01*
X-0200250Y0073483D02*
X-0201750D01*
X-0200250Y0073474D02*
X-0201750D01*
X-0200250Y0073465D02*
X-0201750D01*
X-0200250Y0073456D02*
X-0201750D01*
X-0200250Y0073447D02*
X-0201750D01*
X-0200250Y0073438D02*
X-0201750D01*
X-0200250Y0073429D02*
X-0201750D01*
X-0200250Y0073420D02*
X-0201750D01*
X-0200250Y0073411D02*
X-0201750D01*
X-0200250Y0073402D02*
X-0201750D01*
X-0200250Y0073393D02*
X-0201750D01*
X-0200250Y0073384D02*
X-0201750D01*
X-0200250Y0073375D02*
X-0201750D01*
X-0200250Y0073366D02*
X-0201750D01*
X-0200250Y0073357D02*
X-0201750D01*
X-0200250Y0073348D02*
X-0201750D01*
X-0200250Y0073339D02*
X-0201750D01*
X-0200250Y0073330D02*
X-0201750D01*
X-0200250Y0073321D02*
X-0201750D01*
X-0200250Y0073312D02*
X-0201750D01*
X-0200250Y0073303D02*
X-0201750D01*
X-0200250Y0073294D02*
X-0201750D01*
X-0200250Y0073285D02*
X-0201750D01*
X-0200250Y0073276D02*
X-0201750D01*
X-0200250Y0073267D02*
X-0201750D01*
X-0200250Y0073258D02*
X-0201750D01*
X-0200250Y0073249D02*
X-0201750D01*
X-0200250Y0073240D02*
X-0201750D01*
X-0200250Y0073231D02*
X-0201750D01*
X-0200250Y0073222D02*
X-0201750D01*
X-0200250Y0073213D02*
X-0201750D01*
X-0200250Y0073204D02*
X-0201750D01*
X-0200250Y0073195D02*
X-0201750D01*
X-0200250Y0073186D02*
X-0201750D01*
X-0200250Y0073177D02*
X-0201750D01*
X-0200250Y0073168D02*
X-0201750D01*
X-0200250Y0073159D02*
X-0201750D01*
X-0200250Y0073150D02*
X-0201750D01*
X-0200250Y0073141D02*
X-0201750D01*
X-0200250Y0073132D02*
X-0201750D01*
X-0200250Y0073123D02*
X-0201750D01*
X-0200250Y0073114D02*
X-0201750D01*
X-0200250Y0073105D02*
X-0201750D01*
X-0200250Y0073096D02*
X-0201750D01*
X-0200250Y0073087D02*
X-0201750D01*
X-0200250Y0073078D02*
X-0201750D01*
X-0200250Y0073069D02*
X-0201750D01*
X-0200250Y0073060D02*
X-0201750D01*
X-0200250Y0073051D02*
X-0201750D01*
X-0200250Y0073042D02*
X-0201750D01*
X-0200250Y0073033D02*
X-0201750D01*
X-0200250Y0073024D02*
X-0201750D01*
X-0200250Y0073015D02*
X-0201750D01*
X-0200250Y0073006D02*
X-0201750D01*
X-0200250Y0072997D02*
X-0201750D01*
X-0200250Y0072988D02*
X-0201750D01*
X-0200250Y0072979D02*
X-0201750D01*
X-0200250Y0072970D02*
X-0201750D01*
X-0200250Y0072961D02*
X-0201750D01*
X-0200250Y0072952D02*
X-0201750D01*
X-0200250Y0072943D02*
X-0201750D01*
X-0200250Y0072934D02*
X-0201750D01*
X-0200250Y0072925D02*
X-0201750D01*
X-0200250Y0072916D02*
X-0201750D01*
X-0200250Y0072907D02*
X-0201750D01*
X-0200250Y0072898D02*
X-0201750D01*
X-0200250Y0072889D02*
X-0201750D01*
X-0200250Y0072880D02*
X-0201750D01*
X-0200250Y0072871D02*
X-0201750D01*
X-0200250Y0072862D02*
X-0201750D01*
X-0200250Y0072853D02*
X-0201750D01*
X-0200250Y0072844D02*
X-0201750D01*
X-0200250Y0072835D02*
X-0201750D01*
X-0200250Y0072826D02*
X-0201750D01*
X-0200250Y0072817D02*
X-0201750D01*
X-0200250Y0072808D02*
X-0201750D01*
X-0200250Y0072799D02*
X-0201750D01*
X-0200250Y0072790D02*
X-0201750D01*
X-0200250Y0072781D02*
X-0201750D01*
X-0200250Y0072772D02*
X-0201750D01*
X-0200250Y0072763D02*
X-0201750D01*
X-0197050Y0077250D02*
Y0073950D01*
X-0197059Y0077250D02*
Y0073941D01*
X-0197068Y0077250D02*
Y0073932D01*
X-0197077Y0077250D02*
Y0073923D01*
X-0197086Y0077250D02*
Y0073914D01*
X-0197095Y0077250D02*
Y0073905D01*
X-0197104Y0077250D02*
Y0073896D01*
X-0197113Y0077250D02*
Y0073887D01*
X-0197122Y0077250D02*
Y0073878D01*
X-0197131Y0077250D02*
Y0073869D01*
X-0197140Y0077250D02*
Y0073860D01*
X-0197149Y0077250D02*
Y0073851D01*
X-0197158Y0077250D02*
Y0073842D01*
X-0197167Y0077250D02*
Y0073833D01*
X-0197176Y0077250D02*
Y0073824D01*
X-0197185Y0077250D02*
Y0073815D01*
X-0197194Y0077250D02*
Y0073806D01*
X-0197203Y0077250D02*
Y0073797D01*
X-0197212Y0077250D02*
Y0073788D01*
X-0197221Y0077250D02*
Y0073779D01*
X-0197230Y0077250D02*
Y0073770D01*
X-0197239Y0077250D02*
Y0073761D01*
X-0197248Y0077250D02*
Y0073752D01*
X-0197257Y0077250D02*
Y0073743D01*
X-0197266Y0077250D02*
Y0073734D01*
X-0197275Y0077250D02*
Y0073725D01*
X-0197284Y0077250D02*
Y0073716D01*
X-0197293Y0077250D02*
Y0073707D01*
X-0197302Y0077250D02*
Y0073698D01*
X-0197311Y0077250D02*
Y0073689D01*
X-0197320Y0077250D02*
Y0073680D01*
X-0197329Y0077250D02*
Y0073671D01*
X-0197338Y0077250D02*
Y0073662D01*
X-0197347Y0077250D02*
Y0073653D01*
X-0197356Y0077250D02*
Y0073644D01*
X-0197365Y0077250D02*
Y0073635D01*
X-0197374Y0077250D02*
Y0073626D01*
X-0197383Y0077250D02*
Y0073617D01*
X-0197392Y0077250D02*
Y0073608D01*
X-0197401Y0077250D02*
Y0073599D01*
X-0197410Y0077250D02*
Y0073590D01*
X-0197419Y0077250D02*
Y0073581D01*
X-0197428Y0077250D02*
Y0073572D01*
X-0197437Y0077250D02*
Y0073563D01*
X-0197446Y0077250D02*
Y0073554D01*
X-0197455Y0077250D02*
Y0073545D01*
X-0197464Y0077250D02*
Y0073536D01*
X-0197473Y0077250D02*
Y0073527D01*
X-0197482Y0077250D02*
Y0073518D01*
X-0197491Y0077250D02*
Y0073509D01*
X-0197500Y0077250D02*
Y0073500D01*
X-0197509Y0077250D02*
Y0073491D01*
X-0197518Y0077250D02*
Y0073482D01*
X-0197527Y0077250D02*
Y0073473D01*
X-0197536Y0077250D02*
Y0073464D01*
X-0197545Y0077250D02*
Y0073455D01*
X-0197554Y0077250D02*
Y0073446D01*
X-0197563Y0077250D02*
Y0073437D01*
X-0197572Y0077250D02*
Y0073428D01*
X-0197581Y0077250D02*
Y0073419D01*
X-0197590Y0077250D02*
Y0073410D01*
X-0197599Y0077250D02*
Y0073401D01*
X-0197608Y0077250D02*
Y0073392D01*
X-0197617Y0077250D02*
Y0073383D01*
X-0197626Y0077250D02*
Y0073374D01*
X-0197635Y0077250D02*
Y0073365D01*
X-0197644Y0077250D02*
Y0073356D01*
X-0197653Y0077250D02*
Y0073347D01*
X-0197662Y0077250D02*
Y0073338D01*
X-0197671Y0077250D02*
Y0073329D01*
X-0197680Y0077250D02*
Y0073320D01*
X-0197689Y0077250D02*
Y0073311D01*
X-0197698Y0077250D02*
Y0073302D01*
X-0197707Y0077250D02*
Y0073293D01*
X-0197716Y0077250D02*
Y0073284D01*
X-0197725Y0077250D02*
Y0073275D01*
X-0197734Y0077250D02*
Y0073266D01*
X-0197743Y0077250D02*
Y0073257D01*
X-0197752Y0077250D02*
Y0073248D01*
X-0197761Y0077250D02*
Y0073239D01*
X-0197770Y0077250D02*
Y0073230D01*
X-0197779Y0077250D02*
Y0073221D01*
X-0197788Y0077250D02*
Y0073212D01*
X-0197797Y0077250D02*
Y0073203D01*
X-0197806Y0077250D02*
Y0073194D01*
X-0197815Y0077250D02*
Y0073185D01*
X-0197824Y0077250D02*
Y0073176D01*
X-0197833Y0077250D02*
Y0073167D01*
X-0197842Y0077250D02*
Y0073158D01*
X-0197851Y0077250D02*
Y0073149D01*
X-0197860Y0077250D02*
Y0073140D01*
X-0197869Y0077250D02*
Y0073131D01*
X-0197878Y0077250D02*
Y0073122D01*
X-0197887Y0077250D02*
Y0073113D01*
X-0197896Y0077250D02*
Y0073104D01*
X-0197905Y0077250D02*
Y0073095D01*
X-0197914Y0077250D02*
Y0073086D01*
X-0197923Y0077250D02*
Y0073077D01*
X-0197932Y0077250D02*
Y0073068D01*
X-0197941Y0077250D02*
Y0073059D01*
X-0197950Y0077250D02*
Y0073050D01*
X-0197959Y0077250D02*
Y0073041D01*
X-0197968Y0077250D02*
Y0073032D01*
X-0197977Y0077250D02*
Y0073023D01*
X-0197986Y0077250D02*
Y0073014D01*
X-0197995Y0077250D02*
Y0073005D01*
X-0198004Y0077250D02*
Y0072996D01*
X-0198013Y0077250D02*
Y0072987D01*
X-0198022Y0077250D02*
Y0072978D01*
X-0198031Y0077250D02*
Y0072969D01*
X-0198040Y0077250D02*
Y0072960D01*
X-0198049Y0077250D02*
Y0072951D01*
X-0198058Y0077250D02*
Y0072942D01*
X-0198067Y0077250D02*
Y0072933D01*
X-0198076Y0077250D02*
Y0072924D01*
X-0198085Y0077250D02*
Y0072915D01*
X-0198094Y0077250D02*
Y0072906D01*
X-0198103Y0077250D02*
Y0072897D01*
X-0198112Y0077250D02*
Y0072888D01*
X-0198121Y0077250D02*
Y0072879D01*
X-0198130Y0077250D02*
Y0072870D01*
X-0198139Y0077250D02*
Y0072861D01*
X-0198148Y0077250D02*
Y0072852D01*
X-0198157Y0077250D02*
Y0072843D01*
X-0198166Y0077250D02*
Y0072834D01*
X-0198175Y0077250D02*
Y0072825D01*
X-0198184Y0077250D02*
Y0072816D01*
X-0198193Y0077250D02*
Y0072807D01*
X-0198202Y0077250D02*
Y0072798D01*
X-0198211Y0077250D02*
Y0072789D01*
X-0198220Y0077250D02*
Y0072780D01*
X-0198229Y0077250D02*
Y0072771D01*
X-0198238Y0077250D02*
Y0072762D01*
X-0198247Y0077250D02*
Y0072750D01*
X-0198256Y0074994D02*
Y0072750D01*
X-0198265Y0074985D02*
Y0072750D01*
X-0198274Y0074976D02*
Y0072750D01*
X-0198283Y0074967D02*
Y0072750D01*
X-0198292Y0074958D02*
Y0072750D01*
X-0198301Y0074949D02*
Y0072750D01*
X-0198310Y0074940D02*
Y0072750D01*
X-0198319Y0074931D02*
Y0072750D01*
X-0198328Y0074922D02*
Y0072750D01*
X-0198337Y0074913D02*
Y0072750D01*
X-0198346Y0074904D02*
Y0072750D01*
X-0198355Y0074895D02*
Y0072750D01*
X-0198364Y0074886D02*
Y0072750D01*
X-0198373Y0074877D02*
Y0072750D01*
X-0198382Y0074868D02*
Y0072750D01*
X-0198391Y0074859D02*
Y0072750D01*
X-0198400Y0074850D02*
Y0072750D01*
X-0198409Y0074841D02*
Y0072750D01*
X-0198418Y0074832D02*
Y0072750D01*
X-0198427Y0074823D02*
Y0072750D01*
X-0198436Y0074814D02*
Y0072750D01*
X-0198445Y0074805D02*
Y0072750D01*
X-0198454Y0074796D02*
Y0072750D01*
X-0198463Y0074787D02*
Y0072750D01*
X-0198472Y0074778D02*
Y0072750D01*
X-0198481Y0074769D02*
Y0072750D01*
X-0198490Y0074760D02*
Y0072750D01*
X-0198499Y0074751D02*
Y0072750D01*
X-0198508Y0074742D02*
Y0072750D01*
X-0198517Y0074733D02*
Y0072750D01*
X-0198526Y0074724D02*
Y0072750D01*
X-0198535Y0074715D02*
Y0072750D01*
X-0198544Y0074706D02*
Y0072750D01*
X-0198553Y0074697D02*
Y0072750D01*
X-0198562Y0074688D02*
Y0072750D01*
X-0198571Y0074679D02*
Y0072750D01*
X-0198580Y0074670D02*
Y0072750D01*
X-0198589Y0074661D02*
Y0072750D01*
X-0198598Y0074652D02*
Y0072750D01*
X-0198607Y0074643D02*
Y0072750D01*
X-0198616Y0074634D02*
Y0072750D01*
X-0198625Y0074625D02*
Y0072750D01*
X-0198634Y0074616D02*
Y0072750D01*
X-0198643Y0074607D02*
Y0072750D01*
X-0198652Y0074598D02*
Y0072750D01*
X-0198661Y0074589D02*
Y0072750D01*
X-0198670Y0074580D02*
Y0072750D01*
X-0198679Y0074571D02*
Y0072750D01*
X-0198688Y0074562D02*
Y0072750D01*
X-0198697Y0074553D02*
Y0072750D01*
X-0198706Y0074544D02*
Y0072750D01*
X-0198715Y0074535D02*
Y0072750D01*
X-0198724Y0074526D02*
Y0072750D01*
X-0198733Y0074517D02*
Y0072750D01*
X-0198742Y0074508D02*
Y0072750D01*
X-0198751Y0074499D02*
Y0072750D01*
X-0198760Y0074490D02*
Y0072750D01*
X-0198769Y0074481D02*
Y0072750D01*
X-0198778Y0074472D02*
Y0072750D01*
X-0198787Y0074463D02*
Y0072750D01*
X-0198796Y0074454D02*
Y0072750D01*
X-0198805Y0074445D02*
Y0072750D01*
X-0198814Y0074436D02*
Y0072750D01*
X-0198823Y0074427D02*
Y0072750D01*
X-0198832Y0074418D02*
Y0072750D01*
X-0198841Y0074409D02*
Y0072750D01*
X-0198850Y0074400D02*
Y0072750D01*
X-0198859Y0074391D02*
Y0072750D01*
X-0198868Y0074382D02*
Y0072750D01*
X-0198877Y0074373D02*
Y0072750D01*
X-0198886Y0074364D02*
Y0072750D01*
X-0198895Y0074355D02*
Y0072750D01*
X-0198904Y0074346D02*
Y0072750D01*
X-0198913Y0074337D02*
Y0072750D01*
X-0198922Y0074328D02*
Y0072750D01*
X-0198931Y0074319D02*
Y0072750D01*
X-0198940Y0074310D02*
Y0072750D01*
X-0198949Y0074301D02*
Y0072750D01*
X-0198958Y0074292D02*
Y0072750D01*
X-0198967Y0074283D02*
Y0072750D01*
X-0198976Y0074274D02*
Y0072750D01*
X-0198985Y0074265D02*
Y0072750D01*
X-0198994Y0074256D02*
Y0072750D01*
X-0199003Y0074247D02*
Y0072750D01*
X-0199012Y0074238D02*
Y0072750D01*
X-0199021Y0074229D02*
Y0072750D01*
X-0199030Y0074220D02*
Y0072750D01*
X-0199039Y0074211D02*
Y0072750D01*
X-0199048Y0074202D02*
Y0072750D01*
X-0199057Y0074193D02*
Y0072750D01*
X-0199066Y0074184D02*
Y0072750D01*
X-0199075Y0074175D02*
Y0072750D01*
X-0199084Y0074166D02*
Y0072750D01*
X-0199093Y0074157D02*
Y0072750D01*
X-0199102Y0074148D02*
Y0072750D01*
X-0199111Y0074139D02*
Y0072750D01*
X-0199120Y0074130D02*
Y0072750D01*
X-0199129Y0074121D02*
Y0072750D01*
X-0199138Y0074112D02*
Y0072750D01*
X-0199147Y0074103D02*
Y0072750D01*
X-0199156Y0074094D02*
Y0072750D01*
X-0199165Y0074085D02*
Y0072750D01*
X-0199174Y0074076D02*
Y0072750D01*
X-0199183Y0074067D02*
Y0072750D01*
X-0199192Y0074058D02*
Y0072750D01*
X-0199201Y0074049D02*
Y0072750D01*
X-0199210Y0074040D02*
Y0072750D01*
X-0199219Y0074031D02*
Y0072750D01*
X-0199228Y0074022D02*
Y0072750D01*
X-0199237Y0074013D02*
Y0072750D01*
X-0199246Y0074004D02*
Y0072750D01*
X-0199237Y0077250D02*
Y0076250D01*
X-0195500Y0077236D02*
X-0199250D01*
X-0195500Y0077227D02*
X-0199250D01*
X-0195500Y0077218D02*
X-0199250D01*
X-0195500Y0077209D02*
X-0199250D01*
X-0195500Y0077200D02*
X-0199250D01*
X-0195500Y0077191D02*
X-0199250D01*
X-0195500Y0077182D02*
X-0199250D01*
X-0195500Y0077173D02*
X-0199250D01*
X-0195500Y0077164D02*
X-0199250D01*
X-0195500Y0077155D02*
X-0199250D01*
X-0195500Y0077146D02*
X-0199250D01*
X-0195500Y0077137D02*
X-0199250D01*
X-0195500Y0077128D02*
X-0199250D01*
X-0195500Y0077119D02*
X-0199250D01*
X-0195500Y0077110D02*
X-0199250D01*
X-0195500Y0077101D02*
X-0199250D01*
X-0195500Y0077092D02*
X-0199250D01*
X-0195500Y0077083D02*
X-0199250D01*
X-0195500Y0077074D02*
X-0199250D01*
X-0195500Y0077065D02*
X-0199250D01*
X-0195500Y0077056D02*
X-0199250D01*
X-0195500Y0077047D02*
X-0199250D01*
X-0195500Y0077038D02*
X-0199250D01*
X-0195500Y0077029D02*
X-0199250D01*
X-0195500Y0077020D02*
X-0199250D01*
X-0195500Y0077011D02*
X-0199250D01*
X-0195500Y0077002D02*
X-0199250D01*
X-0195500Y0076993D02*
X-0199250D01*
X-0195500Y0076984D02*
X-0199250D01*
X-0195500Y0076975D02*
X-0199250D01*
X-0195500Y0076966D02*
X-0199250D01*
X-0195500Y0076957D02*
X-0199250D01*
X-0195500Y0076948D02*
X-0199250D01*
X-0195500Y0076939D02*
X-0199250D01*
X-0195500Y0076930D02*
X-0199250D01*
X-0195500Y0076921D02*
X-0199250D01*
X-0195500Y0076912D02*
X-0199250D01*
X-0195500Y0076903D02*
X-0199250D01*
X-0195500Y0076894D02*
X-0199250D01*
X-0195500Y0076885D02*
X-0199250D01*
X-0195500Y0076876D02*
X-0199250D01*
X-0195500Y0076867D02*
X-0199250D01*
X-0195500Y0076858D02*
X-0199250D01*
X-0195500Y0076849D02*
X-0199250D01*
X-0195500Y0076840D02*
X-0199250D01*
X-0195500Y0076831D02*
X-0199250D01*
X-0195500Y0076822D02*
X-0199250D01*
X-0195500Y0076813D02*
X-0199250D01*
X-0195500Y0076804D02*
X-0199250D01*
X-0195500Y0076795D02*
X-0199250D01*
X-0195500Y0076786D02*
X-0199250D01*
X-0195500Y0076777D02*
X-0199250D01*
X-0195500Y0076768D02*
X-0199250D01*
X-0195500Y0076759D02*
X-0199250D01*
X-0195500Y0076750D02*
X-0199250D01*
X-0195500Y0076741D02*
X-0199250D01*
X-0195500Y0076732D02*
X-0199250D01*
X-0195500Y0076723D02*
X-0199250D01*
X-0195500Y0076714D02*
X-0199250D01*
X-0195500Y0076705D02*
X-0199250D01*
X-0195500Y0076696D02*
X-0199250D01*
X-0195500Y0076687D02*
X-0199250D01*
X-0195500Y0076678D02*
X-0199250D01*
X-0195500Y0076669D02*
X-0199250D01*
X-0195500Y0076660D02*
X-0199250D01*
X-0195500Y0076651D02*
X-0199250D01*
X-0195500Y0076642D02*
X-0199250D01*
X-0195500Y0076633D02*
X-0199250D01*
X-0195500Y0076624D02*
X-0199250D01*
X-0195500Y0076615D02*
X-0199250D01*
X-0195500Y0076606D02*
X-0199250D01*
X-0195500Y0076597D02*
X-0199250D01*
X-0195500Y0076588D02*
X-0199250D01*
X-0195500Y0076579D02*
X-0199250D01*
X-0195500Y0076570D02*
X-0199250D01*
X-0195500Y0076561D02*
X-0199250D01*
X-0195500Y0076552D02*
X-0199250D01*
X-0195500Y0076543D02*
X-0199250D01*
X-0195500Y0076534D02*
X-0199250D01*
X-0195500Y0076525D02*
X-0199250D01*
X-0195500Y0076516D02*
X-0199250D01*
X-0195500Y0076507D02*
X-0199250D01*
X-0195500Y0076498D02*
X-0199250D01*
X-0195500Y0076489D02*
X-0199250D01*
X-0195500Y0076480D02*
X-0199250D01*
X-0195500Y0076471D02*
X-0199250D01*
X-0195500Y0076462D02*
X-0199250D01*
X-0195500Y0076453D02*
X-0199250D01*
X-0195500Y0076444D02*
X-0199250D01*
X-0195500Y0076435D02*
X-0199250D01*
X-0195500Y0076426D02*
X-0199250D01*
X-0195500Y0076417D02*
X-0199250D01*
X-0195500Y0076408D02*
X-0199250D01*
X-0195500Y0076399D02*
X-0199250D01*
X-0195500Y0076390D02*
X-0199250D01*
X-0195500Y0076381D02*
X-0199250D01*
X-0195500Y0076372D02*
X-0199250D01*
X-0195500Y0076363D02*
X-0199250D01*
X-0195500Y0076354D02*
X-0199250D01*
X-0195500Y0076345D02*
X-0199250D01*
X-0195500Y0076336D02*
X-0199250D01*
X-0195500Y0076327D02*
X-0199250D01*
X-0195500Y0076318D02*
X-0199250D01*
X-0195500Y0076309D02*
X-0199250D01*
X-0195500Y0076300D02*
X-0199250D01*
X-0195500Y0076291D02*
X-0199250D01*
X-0195500Y0076282D02*
X-0199250D01*
X-0195500Y0076273D02*
X-0199250D01*
X-0195500Y0076264D02*
X-0199250D01*
X-0195500Y0076255D02*
X-0199250D01*
X-0195500Y0076246D02*
X-0198746D01*
X-0195500Y0076237D02*
X-0198737D01*
X-0195500Y0076228D02*
X-0198728D01*
X-0195500Y0076219D02*
X-0198719D01*
X-0195500Y0076210D02*
X-0198710D01*
X-0195500Y0076201D02*
X-0198701D01*
X-0195500Y0076192D02*
X-0198692D01*
X-0195500Y0076183D02*
X-0198683D01*
X-0195500Y0076174D02*
X-0198674D01*
X-0195500Y0076165D02*
X-0198665D01*
X-0195500Y0076156D02*
X-0198656D01*
X-0195500Y0076147D02*
X-0198647D01*
X-0195500Y0076138D02*
X-0198638D01*
X-0195500Y0076129D02*
X-0198629D01*
X-0195500Y0076120D02*
X-0198620D01*
X-0195500Y0076111D02*
X-0198611D01*
X-0195500Y0076102D02*
X-0198602D01*
X-0195500Y0076093D02*
X-0198593D01*
X-0195500Y0076084D02*
X-0198584D01*
X-0195500Y0076075D02*
X-0198575D01*
X-0195500Y0076066D02*
X-0198566D01*
X-0195500Y0076057D02*
X-0198557D01*
X-0195500Y0076048D02*
X-0198548D01*
X-0195500Y0076039D02*
X-0198539D01*
X-0195500Y0076030D02*
X-0198530D01*
X-0195500Y0076021D02*
X-0198521D01*
X-0195500Y0076012D02*
X-0198512D01*
X-0195500Y0076003D02*
X-0198503D01*
X-0195500Y0075994D02*
X-0198494D01*
X-0195500Y0075985D02*
X-0198485D01*
X-0195500Y0075976D02*
X-0198476D01*
X-0195500Y0075967D02*
X-0198467D01*
X-0195500Y0075958D02*
X-0198458D01*
X-0195500Y0075949D02*
X-0198449D01*
X-0195500Y0075940D02*
X-0198440D01*
X-0195500Y0075931D02*
X-0198431D01*
X-0195500Y0075922D02*
X-0198422D01*
X-0195500Y0075913D02*
X-0198413D01*
X-0195500Y0075904D02*
X-0198404D01*
X-0195500Y0075895D02*
X-0198395D01*
X-0195500Y0075886D02*
X-0198386D01*
X-0195500Y0075877D02*
X-0198377D01*
X-0195500Y0075868D02*
X-0198368D01*
X-0195500Y0075859D02*
X-0198359D01*
X-0195500Y0075850D02*
X-0198350D01*
X-0195500Y0075841D02*
X-0198341D01*
X-0195500Y0075832D02*
X-0198332D01*
X-0195500Y0075823D02*
X-0198323D01*
X-0195500Y0075814D02*
X-0198314D01*
X-0195500Y0075805D02*
X-0198305D01*
X-0195500Y0075796D02*
X-0198296D01*
X-0195500Y0075787D02*
X-0198287D01*
X-0195500Y0075778D02*
X-0198278D01*
X-0195500Y0075769D02*
X-0198269D01*
X-0195500Y0075760D02*
X-0198260D01*
X-0195500Y0075751D02*
X-0198251D01*
X-0195500Y0075742D02*
X-0198250D01*
X-0195500Y0075733D02*
X-0198250D01*
X-0195500Y0075724D02*
X-0198250D01*
X-0195500Y0075715D02*
X-0198250D01*
X-0195500Y0075706D02*
X-0198250D01*
X-0195500Y0075697D02*
X-0198250D01*
X-0195500Y0075688D02*
X-0198250D01*
X-0195500Y0075679D02*
X-0198250D01*
X-0195500Y0075670D02*
X-0198250D01*
X-0195500Y0075661D02*
X-0198250D01*
X-0195500Y0075652D02*
X-0198250D01*
X-0195500Y0075643D02*
X-0198250D01*
X-0195500Y0075634D02*
X-0198250D01*
X-0195500Y0075625D02*
X-0198250D01*
X-0195500Y0075616D02*
X-0198250D01*
X-0195500Y0075607D02*
X-0198250D01*
X-0195500Y0075598D02*
X-0198250D01*
X-0195500Y0075589D02*
X-0198250D01*
X-0195500Y0075580D02*
X-0198250D01*
X-0195500Y0075571D02*
X-0198250D01*
X-0195500Y0075562D02*
X-0198250D01*
X-0195500Y0075553D02*
X-0198250D01*
X-0195500Y0075544D02*
X-0198250D01*
X-0195500Y0075535D02*
X-0198250D01*
X-0195500Y0075526D02*
X-0198250D01*
X-0195500Y0075517D02*
X-0198250D01*
X-0195500Y0075508D02*
X-0198250D01*
X-0195497Y0075499D02*
X-0198250D01*
X-0195510Y0075490D02*
X-0198250D01*
X-0195519Y0075481D02*
X-0198250D01*
X-0195528Y0075472D02*
X-0198250D01*
X-0195537Y0075463D02*
X-0198250D01*
X-0195546Y0075454D02*
X-0198250D01*
X-0195555Y0075445D02*
X-0198250D01*
X-0195564Y0075436D02*
X-0198250D01*
X-0195573Y0075427D02*
X-0198250D01*
X-0195582Y0075418D02*
X-0198250D01*
X-0195591Y0075409D02*
X-0198250D01*
X-0195600Y0075400D02*
X-0198250D01*
X-0195609Y0075391D02*
X-0198250D01*
X-0195618Y0075382D02*
X-0198250D01*
X-0195627Y0075373D02*
X-0198250D01*
X-0195636Y0075364D02*
X-0198250D01*
X-0195645Y0075355D02*
X-0198250D01*
X-0195654Y0075346D02*
X-0198250D01*
X-0195663Y0075337D02*
X-0198250D01*
X-0195672Y0075328D02*
X-0198250D01*
X-0195681Y0075319D02*
X-0198250D01*
X-0195690Y0075310D02*
X-0198250D01*
X-0195699Y0075301D02*
X-0198250D01*
X-0195708Y0075292D02*
X-0198250D01*
X-0195717Y0075283D02*
X-0198250D01*
X-0195726Y0075274D02*
X-0198250D01*
X-0195735Y0075265D02*
X-0198250D01*
X-0195744Y0075256D02*
X-0198250D01*
X-0195753Y0075247D02*
X-0198250D01*
X-0195762Y0075238D02*
X-0198250D01*
X-0195771Y0075229D02*
X-0198250D01*
X-0195780Y0075220D02*
X-0198250D01*
X-0195789Y0075211D02*
X-0198250D01*
X-0195798Y0075202D02*
X-0198250D01*
X-0195807Y0075193D02*
X-0198250D01*
X-0195816Y0075184D02*
X-0198250D01*
X-0195825Y0075175D02*
X-0198250D01*
X-0195834Y0075166D02*
X-0198250D01*
X-0195843Y0075157D02*
X-0198250D01*
X-0195852Y0075148D02*
X-0198250D01*
X-0195861Y0075139D02*
X-0198250D01*
X-0195870Y0075130D02*
X-0198250D01*
X-0195879Y0075121D02*
X-0198250D01*
X-0195888Y0075112D02*
X-0198250D01*
X-0195897Y0075103D02*
X-0198250D01*
X-0195906Y0075094D02*
X-0198250D01*
X-0195915Y0075085D02*
X-0198250D01*
X-0195924Y0075076D02*
X-0198250D01*
X-0195933Y0075067D02*
X-0198250D01*
X-0195942Y0075058D02*
X-0198250D01*
X-0195951Y0075049D02*
X-0198250D01*
X-0195960Y0075040D02*
X-0198250D01*
X-0195969Y0075031D02*
X-0198250D01*
X-0195978Y0075022D02*
X-0198250D01*
X-0195987Y0075013D02*
X-0198250D01*
X-0195996Y0075004D02*
X-0198250D01*
X-0196005Y0074995D02*
X-0198255D01*
X-0196014Y0074986D02*
X-0198264D01*
X-0196023Y0074977D02*
X-0198273D01*
X-0196032Y0074968D02*
X-0198282D01*
X-0196041Y0074959D02*
X-0198291D01*
X-0196050Y0074950D02*
X-0198300D01*
X-0196059Y0074941D02*
X-0198309D01*
X-0196068Y0074932D02*
X-0198318D01*
X-0196077Y0074923D02*
X-0198327D01*
X-0196086Y0074914D02*
X-0198336D01*
X-0196095Y0074905D02*
X-0198345D01*
X-0196104Y0074896D02*
X-0198354D01*
X-0196113Y0074887D02*
X-0198363D01*
X-0196122Y0074878D02*
X-0198372D01*
X-0196131Y0074869D02*
X-0198381D01*
X-0196140Y0074860D02*
X-0198390D01*
X-0196149Y0074851D02*
X-0198399D01*
X-0196158Y0074842D02*
X-0198408D01*
X-0196167Y0074833D02*
X-0198417D01*
X-0196176Y0074824D02*
X-0198426D01*
X-0196185Y0074815D02*
X-0198435D01*
X-0196194Y0074806D02*
X-0198444D01*
X-0196203Y0074797D02*
X-0198453D01*
X-0196212Y0074788D02*
X-0198462D01*
X-0196221Y0074779D02*
X-0198471D01*
X-0196230Y0074770D02*
X-0198480D01*
X-0196239Y0074761D02*
X-0198489D01*
X-0196248Y0074752D02*
X-0198498D01*
X-0196257Y0074743D02*
X-0198507D01*
X-0196266Y0074734D02*
X-0198516D01*
X-0196275Y0074725D02*
X-0198525D01*
X-0196284Y0074716D02*
X-0198534D01*
X-0196293Y0074707D02*
X-0198543D01*
X-0196302Y0074698D02*
X-0198552D01*
X-0196311Y0074689D02*
X-0198561D01*
X-0196320Y0074680D02*
X-0198570D01*
X-0196329Y0074671D02*
X-0198579D01*
X-0196338Y0074662D02*
X-0198588D01*
X-0196347Y0074653D02*
X-0198597D01*
X-0196356Y0074644D02*
X-0198606D01*
X-0196365Y0074635D02*
X-0198615D01*
X-0196374Y0074626D02*
X-0198624D01*
X-0196383Y0074617D02*
X-0198633D01*
X-0196392Y0074608D02*
X-0198642D01*
X-0196401Y0074599D02*
X-0198651D01*
X-0196410Y0074590D02*
X-0198660D01*
X-0196419Y0074581D02*
X-0198669D01*
X-0196428Y0074572D02*
X-0198678D01*
X-0196437Y0074563D02*
X-0198687D01*
X-0196446Y0074554D02*
X-0198696D01*
X-0196455Y0074545D02*
X-0198705D01*
X-0196464Y0074536D02*
X-0198714D01*
X-0196473Y0074527D02*
X-0198723D01*
X-0196482Y0074518D02*
X-0198732D01*
X-0196491Y0074509D02*
X-0198741D01*
X-0196500Y0074500D02*
X-0198750D01*
X-0196509Y0074491D02*
X-0198759D01*
X-0196518Y0074482D02*
X-0198768D01*
X-0196527Y0074473D02*
X-0198777D01*
X-0196536Y0074464D02*
X-0198786D01*
X-0196545Y0074455D02*
X-0198795D01*
X-0196554Y0074446D02*
X-0198804D01*
X-0196563Y0074437D02*
X-0198813D01*
X-0196572Y0074428D02*
X-0198822D01*
X-0196581Y0074419D02*
X-0198831D01*
X-0196590Y0074410D02*
X-0198840D01*
X-0196599Y0074401D02*
X-0198849D01*
X-0196608Y0074392D02*
X-0198858D01*
X-0196617Y0074383D02*
X-0198867D01*
X-0196626Y0074374D02*
X-0198876D01*
X-0196635Y0074365D02*
X-0198885D01*
X-0196644Y0074356D02*
X-0198894D01*
X-0196653Y0074347D02*
X-0198903D01*
X-0196662Y0074338D02*
X-0198912D01*
X-0196671Y0074329D02*
X-0198921D01*
X-0196680Y0074320D02*
X-0198930D01*
X-0196689Y0074311D02*
X-0198939D01*
X-0196698Y0074302D02*
X-0198948D01*
X-0196707Y0074293D02*
X-0198957D01*
X-0196716Y0074284D02*
X-0198966D01*
X-0196725Y0074275D02*
X-0198975D01*
X-0196734Y0074266D02*
X-0198984D01*
X-0196743Y0074257D02*
X-0198993D01*
X-0196752Y0074248D02*
X-0199002D01*
X-0196761Y0074239D02*
X-0199011D01*
X-0196770Y0074230D02*
X-0199020D01*
X-0196779Y0074221D02*
X-0199029D01*
X-0196788Y0074212D02*
X-0199038D01*
X-0196797Y0074203D02*
X-0199047D01*
X-0196806Y0074194D02*
X-0199056D01*
X-0196815Y0074185D02*
X-0199065D01*
X-0196824Y0074176D02*
X-0199074D01*
X-0196833Y0074167D02*
X-0199083D01*
X-0196842Y0074158D02*
X-0199092D01*
X-0196851Y0074149D02*
X-0199101D01*
X-0196860Y0074140D02*
X-0199110D01*
X-0196869Y0074131D02*
X-0199119D01*
X-0196878Y0074122D02*
X-0199128D01*
X-0196887Y0074113D02*
X-0199137D01*
X-0196896Y0074104D02*
X-0199146D01*
X-0196905Y0074095D02*
X-0199155D01*
X-0196914Y0074086D02*
X-0199164D01*
X-0196923Y0074077D02*
X-0199173D01*
X-0196932Y0074068D02*
X-0199182D01*
X-0196941Y0074059D02*
X-0199191D01*
X-0196950Y0074050D02*
X-0199200D01*
X-0196959Y0074041D02*
X-0199209D01*
X-0196968Y0074032D02*
X-0199218D01*
X-0196977Y0074023D02*
X-0199227D01*
X-0196986Y0074014D02*
X-0199236D01*
X-0196995Y0074005D02*
X-0199245D01*
X-0197004Y0073996D02*
X-0199250D01*
X-0197013Y0073987D02*
X-0199250D01*
X-0197022Y0073978D02*
X-0199250D01*
X-0197031Y0073969D02*
X-0199250D01*
X-0197040Y0073960D02*
X-0199250D01*
X-0197049Y0073951D02*
X-0199250D01*
X-0197058Y0073942D02*
X-0199250D01*
X-0197067Y0073933D02*
X-0199250D01*
X-0197076Y0073924D02*
X-0199250D01*
X-0197085Y0073915D02*
X-0199250D01*
X-0197094Y0073906D02*
X-0199250D01*
X-0197103Y0073897D02*
X-0199250D01*
X-0197112Y0073888D02*
X-0199250D01*
X-0197121Y0073879D02*
X-0199250D01*
X-0197130Y0073870D02*
X-0199250D01*
X-0197139Y0073861D02*
X-0199250D01*
X-0197148Y0073852D02*
X-0199250D01*
X-0197157Y0073843D02*
X-0199250D01*
X-0197166Y0073834D02*
X-0199250D01*
X-0197175Y0073825D02*
X-0199250D01*
X-0197184Y0073816D02*
X-0199250D01*
X-0197193Y0073807D02*
X-0199250D01*
X-0197202Y0073798D02*
X-0199250D01*
X-0197211Y0073789D02*
X-0199250D01*
X-0197220Y0073780D02*
X-0199250D01*
X-0197229Y0073771D02*
X-0199250D01*
X-0197238Y0073762D02*
X-0199250D01*
X-0197247Y0073753D02*
X-0199250D01*
X-0197256Y0073744D02*
X-0199250D01*
X-0197265Y0073735D02*
X-0199250D01*
X-0197274Y0073726D02*
X-0199250D01*
X-0197283Y0073717D02*
X-0199250D01*
X-0197292Y0073708D02*
X-0199250D01*
X-0197301Y0073699D02*
X-0199250D01*
X-0197310Y0073690D02*
X-0199250D01*
X-0197319Y0073681D02*
X-0199250D01*
X-0197328Y0073672D02*
X-0199250D01*
X-0197337Y0073663D02*
X-0199250D01*
X-0197346Y0073654D02*
X-0199250D01*
X-0197355Y0073645D02*
X-0199250D01*
X-0197364Y0073636D02*
X-0199250D01*
X-0197373Y0073627D02*
X-0199250D01*
X-0197382Y0073618D02*
X-0199250D01*
X-0197391Y0073609D02*
X-0199250D01*
X-0197400Y0073600D02*
X-0199250D01*
X-0197409Y0073591D02*
X-0199250D01*
X-0197418Y0073582D02*
X-0199250D01*
X-0197427Y0073573D02*
X-0199250D01*
X-0197436Y0073564D02*
X-0199250D01*
X-0197445Y0073555D02*
X-0199250D01*
X-0197454Y0073546D02*
X-0199250D01*
X-0197463Y0073537D02*
X-0199250D01*
X-0197472Y0073528D02*
X-0199250D01*
X-0197481Y0073519D02*
X-0199250D01*
X-0197490Y0073510D02*
X-0199250D01*
X-0197499Y0073501D02*
X-0199250D01*
X-0197508Y0073492D02*
X-0199250D01*
X-0197517Y0073483D02*
X-0199250D01*
X-0197526Y0073474D02*
X-0199250D01*
X-0197535Y0073465D02*
X-0199250D01*
X-0197544Y0073456D02*
X-0199250D01*
X-0197553Y0073447D02*
X-0199250D01*
X-0197562Y0073438D02*
X-0199250D01*
X-0197571Y0073429D02*
X-0199250D01*
X-0197580Y0073420D02*
X-0199250D01*
X-0197589Y0073411D02*
X-0199250D01*
X-0197598Y0073402D02*
X-0199250D01*
X-0197607Y0073393D02*
X-0199250D01*
X-0197616Y0073384D02*
X-0199250D01*
X-0197625Y0073375D02*
X-0199250D01*
X-0197634Y0073366D02*
X-0199250D01*
X-0197643Y0073357D02*
X-0199250D01*
X-0197652Y0073348D02*
X-0199250D01*
X-0197661Y0073339D02*
X-0199250D01*
X-0197670Y0073330D02*
X-0199250D01*
X-0197679Y0073321D02*
X-0199250D01*
X-0197688Y0073312D02*
X-0199250D01*
X-0197697Y0073303D02*
X-0199250D01*
X-0197706Y0073294D02*
X-0199250D01*
X-0197715Y0073285D02*
X-0199250D01*
X-0197724Y0073276D02*
X-0199250D01*
X-0197733Y0073267D02*
X-0199250D01*
X-0197742Y0073258D02*
X-0199250D01*
X-0197751Y0073249D02*
X-0199250D01*
X-0197760Y0073240D02*
X-0199250D01*
X-0197769Y0073231D02*
X-0199250D01*
X-0197778Y0073222D02*
X-0199250D01*
X-0197787Y0073213D02*
X-0199250D01*
X-0197796Y0073204D02*
X-0199250D01*
X-0197805Y0073195D02*
X-0199250D01*
X-0197814Y0073186D02*
X-0199250D01*
X-0197823Y0073177D02*
X-0199250D01*
X-0197832Y0073168D02*
X-0199250D01*
X-0197841Y0073159D02*
X-0199250D01*
X-0197850Y0073150D02*
X-0199250D01*
X-0197859Y0073141D02*
X-0199250D01*
X-0197868Y0073132D02*
X-0199250D01*
X-0197877Y0073123D02*
X-0199250D01*
X-0197886Y0073114D02*
X-0199250D01*
X-0197895Y0073105D02*
X-0199250D01*
X-0197904Y0073096D02*
X-0199250D01*
X-0197913Y0073087D02*
X-0199250D01*
X-0197922Y0073078D02*
X-0199250D01*
X-0197931Y0073069D02*
X-0199250D01*
X-0197940Y0073060D02*
X-0199250D01*
X-0197949Y0073051D02*
X-0199250D01*
X-0197958Y0073042D02*
X-0199250D01*
X-0197967Y0073033D02*
X-0199250D01*
X-0197976Y0073024D02*
X-0199250D01*
X-0197985Y0073015D02*
X-0199250D01*
X-0197994Y0073006D02*
X-0199250D01*
X-0198003Y0072997D02*
X-0199250D01*
X-0198012Y0072988D02*
X-0199250D01*
X-0198021Y0072979D02*
X-0199250D01*
X-0198030Y0072970D02*
X-0199250D01*
X-0198039Y0072961D02*
X-0199250D01*
X-0198048Y0072952D02*
X-0199250D01*
X-0198057Y0072943D02*
X-0199250D01*
X-0198066Y0072934D02*
X-0199250D01*
X-0198075Y0072925D02*
X-0199250D01*
X-0198084Y0072916D02*
X-0199250D01*
X-0198093Y0072907D02*
X-0199250D01*
X-0198102Y0072898D02*
X-0199250D01*
X-0198111Y0072889D02*
X-0199250D01*
X-0198120Y0072880D02*
X-0199250D01*
X-0198129Y0072871D02*
X-0199250D01*
X-0198138Y0072862D02*
X-0199250D01*
X-0198147Y0072853D02*
X-0199250D01*
X-0198156Y0072844D02*
X-0199250D01*
X-0198165Y0072835D02*
X-0199250D01*
X-0198174Y0072826D02*
X-0199250D01*
X-0198183Y0072817D02*
X-0199250D01*
X-0198192Y0072808D02*
X-0199250D01*
X-0198201Y0072799D02*
X-0199250D01*
X-0198210Y0072790D02*
X-0199250D01*
X-0198219Y0072781D02*
X-0199250D01*
X-0198228Y0072772D02*
X-0199250D01*
X-0198237Y0072763D02*
X-0199250D01*
X-0198256Y0077250D02*
Y0075756D01*
X-0198265Y0077250D02*
Y0075765D01*
X-0198274Y0077250D02*
Y0075774D01*
X-0198283Y0077250D02*
Y0075783D01*
X-0198292Y0077250D02*
Y0075792D01*
X-0198301Y0077250D02*
Y0075801D01*
X-0198310Y0077250D02*
Y0075810D01*
X-0198319Y0077250D02*
Y0075819D01*
X-0198328Y0077250D02*
Y0075828D01*
X-0198337Y0077250D02*
Y0075837D01*
X-0198346Y0077250D02*
Y0075846D01*
X-0198355Y0077250D02*
Y0075855D01*
X-0198364Y0077250D02*
Y0075864D01*
X-0198373Y0077250D02*
Y0075873D01*
X-0198382Y0077250D02*
Y0075882D01*
X-0198391Y0077250D02*
Y0075891D01*
X-0198400Y0077250D02*
Y0075900D01*
X-0198409Y0077250D02*
Y0075909D01*
X-0198418Y0077250D02*
Y0075918D01*
X-0198427Y0077250D02*
Y0075927D01*
X-0198436Y0077250D02*
Y0075936D01*
X-0198445Y0077250D02*
Y0075945D01*
X-0198454Y0077250D02*
Y0075954D01*
X-0198463Y0077250D02*
Y0075963D01*
X-0198472Y0077250D02*
Y0075972D01*
X-0198481Y0077250D02*
Y0075981D01*
X-0198490Y0077250D02*
Y0075990D01*
X-0198499Y0077250D02*
Y0075999D01*
X-0198508Y0077250D02*
Y0076008D01*
X-0198517Y0077250D02*
Y0076017D01*
X-0198526Y0077250D02*
Y0076026D01*
X-0198535Y0077250D02*
Y0076035D01*
X-0198544Y0077250D02*
Y0076044D01*
X-0198553Y0077250D02*
Y0076053D01*
X-0198562Y0077250D02*
Y0076062D01*
X-0198571Y0077250D02*
Y0076071D01*
X-0198580Y0077250D02*
Y0076080D01*
X-0198589Y0077250D02*
Y0076089D01*
X-0198598Y0077250D02*
Y0076098D01*
X-0198607Y0077250D02*
Y0076107D01*
X-0198616Y0077250D02*
Y0076116D01*
X-0198625Y0077250D02*
Y0076125D01*
X-0198634Y0077250D02*
Y0076134D01*
X-0198643Y0077250D02*
Y0076143D01*
X-0198652Y0077250D02*
Y0076152D01*
X-0198661Y0077250D02*
Y0076161D01*
X-0198670Y0077250D02*
Y0076170D01*
X-0198679Y0077250D02*
Y0076179D01*
X-0198688Y0077250D02*
Y0076188D01*
X-0198697Y0077250D02*
Y0076197D01*
X-0198706Y0077250D02*
Y0076206D01*
X-0198715Y0077250D02*
Y0076215D01*
X-0198724Y0077250D02*
Y0076224D01*
X-0198733Y0077250D02*
Y0076233D01*
X-0198742Y0077250D02*
Y0076242D01*
X-0198751Y0077250D02*
Y0076250D01*
X-0198760Y0077250D02*
Y0076250D01*
X-0198769Y0077250D02*
Y0076250D01*
X-0198778Y0077250D02*
Y0076250D01*
X-0198787Y0077250D02*
Y0076250D01*
X-0198796Y0077250D02*
Y0076250D01*
X-0198805Y0077250D02*
Y0076250D01*
X-0198814Y0077250D02*
Y0076250D01*
X-0198823Y0077250D02*
Y0076250D01*
X-0198832Y0077250D02*
Y0076250D01*
X-0198841Y0077250D02*
Y0076250D01*
X-0198850Y0077250D02*
Y0076250D01*
X-0198859Y0077250D02*
Y0076250D01*
X-0198868Y0077250D02*
Y0076250D01*
X-0198877Y0077250D02*
Y0076250D01*
X-0198886Y0077250D02*
Y0076250D01*
X-0198895Y0077250D02*
Y0076250D01*
X-0198904Y0077250D02*
Y0076250D01*
X-0198913Y0077250D02*
Y0076250D01*
X-0198922Y0077250D02*
Y0076250D01*
X-0198931Y0077250D02*
Y0076250D01*
X-0198940Y0077250D02*
Y0076250D01*
X-0198949Y0077250D02*
Y0076250D01*
X-0198958Y0077250D02*
Y0076250D01*
X-0198967Y0077250D02*
Y0076250D01*
X-0198976Y0077250D02*
Y0076250D01*
X-0198985Y0077250D02*
Y0076250D01*
X-0198994Y0077250D02*
Y0076250D01*
X-0199003Y0077250D02*
Y0076250D01*
X-0199012Y0077250D02*
Y0076250D01*
X-0199021Y0077250D02*
Y0076250D01*
X-0199030Y0077250D02*
Y0076250D01*
X-0199039Y0077250D02*
Y0076250D01*
X-0199048Y0077250D02*
Y0076250D01*
X-0199057Y0077250D02*
Y0076250D01*
X-0199066Y0077250D02*
Y0076250D01*
X-0199075Y0077250D02*
Y0076250D01*
X-0199084Y0077250D02*
Y0076250D01*
X-0199093Y0077250D02*
Y0076250D01*
X-0199102Y0077250D02*
Y0076250D01*
X-0199111Y0077250D02*
Y0076250D01*
X-0199120Y0077250D02*
Y0076250D01*
X-0199129Y0077250D02*
Y0076250D01*
X-0199138Y0077250D02*
Y0076250D01*
X-0199147Y0077250D02*
Y0076250D01*
X-0199156Y0077250D02*
Y0076250D01*
X-0199165Y0077250D02*
Y0076250D01*
X-0199174Y0077250D02*
Y0076250D01*
X-0199183Y0077250D02*
Y0076250D01*
X-0199192Y0077250D02*
Y0076250D01*
X-0199201Y0077250D02*
Y0076250D01*
X-0199210Y0077250D02*
Y0076250D01*
X-0199219Y0077250D02*
Y0076250D01*
X-0199228Y0077250D02*
Y0076250D01*
X-0198246Y0072754D02*
X-0199250D01*
X-0195500Y0077250D02*
X-0199000D01*
X-0195500D02*
Y0075500D01*
X-0198250Y0072750D01*
X-0199250D01*
Y0074000D02*
Y0072750D01*
X-0198250Y0075000D02*
X-0199250Y0074000D01*
X-0198250Y0075750D02*
Y0075000D01*
X-0198750Y0076250D02*
X-0198250Y0075750D01*
X-0198750Y0076250D02*
X-0199250D01*
Y0077250D02*
Y0076250D01*
X-0199000Y0077250D02*
X-0199250D01*
X-0195511D02*
Y0075489D01*
X-0195520Y0077250D02*
Y0075480D01*
X-0195529Y0077250D02*
Y0075471D01*
X-0195538Y0077250D02*
Y0075462D01*
X-0195547Y0077250D02*
Y0075453D01*
X-0195556Y0077250D02*
Y0075444D01*
X-0195565Y0077250D02*
Y0075435D01*
X-0195574Y0077250D02*
Y0075426D01*
X-0195583Y0077250D02*
Y0075417D01*
X-0195592Y0077250D02*
Y0075408D01*
X-0195601Y0077250D02*
Y0075399D01*
X-0195610Y0077250D02*
Y0075390D01*
X-0195619Y0077250D02*
Y0075381D01*
X-0195628Y0077250D02*
Y0075372D01*
X-0195637Y0077250D02*
Y0075363D01*
X-0195646Y0077250D02*
Y0075354D01*
X-0195655Y0077250D02*
Y0075345D01*
X-0195664Y0077250D02*
Y0075336D01*
X-0195673Y0077250D02*
Y0075327D01*
X-0195682Y0077250D02*
Y0075318D01*
X-0195691Y0077250D02*
Y0075309D01*
X-0195700Y0077250D02*
Y0075300D01*
X-0195709Y0077250D02*
Y0075291D01*
X-0195718Y0077250D02*
Y0075282D01*
X-0195727Y0077250D02*
Y0075273D01*
X-0195736Y0077250D02*
Y0075264D01*
X-0195745Y0077250D02*
Y0075255D01*
X-0195754Y0077250D02*
Y0075246D01*
X-0195763Y0077250D02*
Y0075237D01*
X-0195772Y0077250D02*
Y0075228D01*
X-0195781Y0077250D02*
Y0075219D01*
X-0195790Y0077250D02*
Y0075210D01*
X-0195799Y0077250D02*
Y0075201D01*
X-0195808Y0077250D02*
Y0075192D01*
X-0195817Y0077250D02*
Y0075183D01*
X-0195826Y0077250D02*
Y0075174D01*
X-0195835Y0077250D02*
Y0075165D01*
X-0195844Y0077250D02*
Y0075156D01*
X-0195853Y0077250D02*
Y0075147D01*
X-0195862Y0077250D02*
Y0075138D01*
X-0195871Y0077250D02*
Y0075129D01*
X-0195880Y0077250D02*
Y0075120D01*
X-0195889Y0077250D02*
Y0075111D01*
X-0195898Y0077250D02*
Y0075102D01*
X-0195907Y0077250D02*
Y0075093D01*
X-0195916Y0077250D02*
Y0075084D01*
X-0195925Y0077250D02*
Y0075075D01*
X-0195934Y0077250D02*
Y0075066D01*
X-0195943Y0077250D02*
Y0075057D01*
X-0195952Y0077250D02*
Y0075048D01*
X-0195961Y0077250D02*
Y0075039D01*
X-0195970Y0077250D02*
Y0075030D01*
X-0195979Y0077250D02*
Y0075021D01*
X-0195988Y0077250D02*
Y0075012D01*
X-0195997Y0077250D02*
Y0075003D01*
X-0196006Y0077250D02*
Y0074994D01*
X-0196015Y0077250D02*
Y0074985D01*
X-0196024Y0077250D02*
Y0074976D01*
X-0196033Y0077250D02*
Y0074967D01*
X-0196042Y0077250D02*
Y0074958D01*
X-0196051Y0077250D02*
Y0074949D01*
X-0196060Y0077250D02*
Y0074940D01*
X-0196069Y0077250D02*
Y0074931D01*
X-0196078Y0077250D02*
Y0074922D01*
X-0196087Y0077250D02*
Y0074913D01*
X-0196096Y0077250D02*
Y0074904D01*
X-0196105Y0077250D02*
Y0074895D01*
X-0196114Y0077250D02*
Y0074886D01*
X-0196123Y0077250D02*
Y0074877D01*
X-0196132Y0077250D02*
Y0074868D01*
X-0196141Y0077250D02*
Y0074859D01*
X-0196150Y0077250D02*
Y0074850D01*
X-0196159Y0077250D02*
Y0074841D01*
X-0196168Y0077250D02*
Y0074832D01*
X-0196177Y0077250D02*
Y0074823D01*
X-0196186Y0077250D02*
Y0074814D01*
X-0196195Y0077250D02*
Y0074805D01*
X-0196204Y0077250D02*
Y0074796D01*
X-0196213Y0077250D02*
Y0074787D01*
X-0196222Y0077250D02*
Y0074778D01*
X-0196231Y0077250D02*
Y0074769D01*
X-0196240Y0077250D02*
Y0074760D01*
X-0196249Y0077250D02*
Y0074751D01*
X-0196258Y0077250D02*
Y0074742D01*
X-0196267Y0077250D02*
Y0074733D01*
X-0196276Y0077250D02*
Y0074724D01*
X-0196285Y0077250D02*
Y0074715D01*
X-0196294Y0077250D02*
Y0074706D01*
X-0196303Y0077250D02*
Y0074697D01*
X-0196312Y0077250D02*
Y0074688D01*
X-0196321Y0077250D02*
Y0074679D01*
X-0196330Y0077250D02*
Y0074670D01*
X-0196339Y0077250D02*
Y0074661D01*
X-0196348Y0077250D02*
Y0074652D01*
X-0196357Y0077250D02*
Y0074643D01*
X-0196366Y0077250D02*
Y0074634D01*
X-0196375Y0077250D02*
Y0074625D01*
X-0196384Y0077250D02*
Y0074616D01*
X-0196393Y0077250D02*
Y0074607D01*
X-0196402Y0077250D02*
Y0074598D01*
X-0196411Y0077250D02*
Y0074589D01*
X-0196420Y0077250D02*
Y0074580D01*
X-0196429Y0077250D02*
Y0074571D01*
X-0196438Y0077250D02*
Y0074562D01*
X-0196447Y0077250D02*
Y0074553D01*
X-0196456Y0077250D02*
Y0074544D01*
X-0196465Y0077250D02*
Y0074535D01*
X-0196474Y0077250D02*
Y0074526D01*
X-0196483Y0077250D02*
Y0074517D01*
X-0196492Y0077250D02*
Y0074508D01*
X-0196501Y0077250D02*
Y0074499D01*
X-0196510Y0077250D02*
Y0074490D01*
X-0196519Y0077250D02*
Y0074481D01*
X-0196528Y0077250D02*
Y0074472D01*
X-0196537Y0077250D02*
Y0074463D01*
X-0196546Y0077250D02*
Y0074454D01*
X-0196555Y0077250D02*
Y0074445D01*
X-0196564Y0077250D02*
Y0074436D01*
X-0196573Y0077250D02*
Y0074427D01*
X-0196582Y0077250D02*
Y0074418D01*
X-0196591Y0077250D02*
Y0074409D01*
X-0196600Y0077250D02*
Y0074400D01*
X-0196609Y0077250D02*
Y0074391D01*
X-0196618Y0077250D02*
Y0074382D01*
X-0196627Y0077250D02*
Y0074373D01*
X-0196636Y0077250D02*
Y0074364D01*
X-0196645Y0077250D02*
Y0074355D01*
X-0196654Y0077250D02*
Y0074346D01*
X-0196663Y0077250D02*
Y0074337D01*
X-0196672Y0077250D02*
Y0074328D01*
X-0196681Y0077250D02*
Y0074319D01*
X-0196690Y0077250D02*
Y0074310D01*
X-0196699Y0077250D02*
Y0074301D01*
X-0196708Y0077250D02*
Y0074292D01*
X-0196717Y0077250D02*
Y0074283D01*
X-0196726Y0077250D02*
Y0074274D01*
X-0196735Y0077250D02*
Y0074265D01*
X-0196744Y0077250D02*
Y0074256D01*
X-0196753Y0077250D02*
Y0074247D01*
X-0196762Y0077250D02*
Y0074238D01*
X-0196771Y0077250D02*
Y0074229D01*
X-0196780Y0077250D02*
Y0074220D01*
X-0196789Y0077250D02*
Y0074211D01*
X-0196798Y0077250D02*
Y0074202D01*
X-0196807Y0077250D02*
Y0074193D01*
X-0196816Y0077250D02*
Y0074184D01*
X-0196825Y0077250D02*
Y0074175D01*
X-0196834Y0077250D02*
Y0074166D01*
X-0196843Y0077250D02*
Y0074157D01*
X-0196852Y0077250D02*
Y0074148D01*
X-0196861Y0077250D02*
Y0074139D01*
X-0196870Y0077250D02*
Y0074130D01*
X-0196879Y0077250D02*
Y0074121D01*
X-0196888Y0077250D02*
Y0074112D01*
X-0196897Y0077250D02*
Y0074103D01*
X-0196906Y0077250D02*
Y0074094D01*
X-0196915Y0077250D02*
Y0074085D01*
X-0196924Y0077250D02*
Y0074076D01*
X-0196933Y0077250D02*
Y0074067D01*
X-0196942Y0077250D02*
Y0074058D01*
X-0196951Y0077250D02*
Y0074049D01*
X-0196960Y0077250D02*
Y0074040D01*
X-0196969Y0077250D02*
Y0074031D01*
X-0196978Y0077250D02*
Y0074022D01*
X-0196987Y0077250D02*
Y0074013D01*
X-0196996Y0077250D02*
Y0074004D01*
X-0197005Y0077250D02*
Y0073995D01*
X-0197014Y0077250D02*
Y0073986D01*
X-0197023Y0077250D02*
Y0073977D01*
X-0197032Y0077250D02*
Y0073968D01*
X-0197041Y0077250D02*
Y0073959D01*
G54D34*
G01X-0201250Y0082750D02*
Y0084000D01*
Y0082750D01*
G54D35*
G01Y0075500D02*
Y0074250D01*
X-0200750Y0073750D01*
Y0076750D02*
X-0201250Y0076250D01*
Y0075500D01*
X-0197000Y0074750D02*
X-0197750D01*
X-0198750Y0073750D01*
X-0197000Y0074750D02*
X-0197500Y0075250D01*
Y0075500D01*
X-0196750Y0076250D01*
X-0198000D01*
X-0198500Y0076750D01*
X-0198750D01*
G54D10*
X-0203250Y0075500D03*
X-0201250D03*
X-0212250Y0076250D03*
Y0078250D03*
Y0079500D03*
Y0081500D03*
X-0211750Y0083000D03*
X-0209750D03*
X-0197000Y0074750D03*
X-0210500Y0074500D03*
X-0210750Y0084000D03*
X-0207750Y0085250D03*
X-0209250D03*
X-0210750Y0075500D03*
Y0081500D03*
X-0196500Y0079500D03*
Y0080500D03*
Y0081500D03*
Y0082500D03*
Y0083500D03*
X-0199500Y0085750D03*
X-0200500D03*
X-0201500D03*
X-0202500D03*
X-0203500D03*
X-0202500Y0078750D03*
X-0201500D03*
X-0200500D03*
X-0199500D03*
X-0198500D03*
G54D11*
X-0196500Y0078500D03*
X-0198500Y0085750D03*
X-0203500Y0078750D03*
G54D12*
X-0209250Y0078500D03*
X-0208250D03*
X-0206250D03*
X-0207250D03*
X-0204000Y0086750D03*
X-0206000D03*
G54D13*
X-0204000Y0087750D03*
X-0206000D03*
G54D14*
X-0210000Y0080250D03*
X-0208700D03*
X-0211000Y0078500D03*
Y0079800D03*
Y0076250D03*
Y0077550D03*
X-0195750Y0079500D03*
Y0080800D03*
G54D17*
X-0196750Y0076250D03*
G54D18*
X-0208750Y0075250D03*
Y0076750D03*
X-0202750Y0073750D03*
X-0200750D03*
X-0198750D03*
X-0202750Y0076750D03*
X-0198750D03*
X-0200750D03*
X-0199750Y0075250D03*
G54D19*
X-0208750Y0073750D03*
G54D21*
X-0207250Y0075250D03*
Y0074250D03*
X-0204250D03*
Y0075250D03*
Y0076250D03*
G54D22*
X-0207250D03*
G54D25*
X-0203250Y0081500D03*
X-0207500Y0082250D03*
X-0203750Y0084000D03*
X-0204250Y0083000D03*
X-0207000Y0079500D03*
X-0199250Y0082500D03*
X-0202250Y0083000D03*
X-0198500Y0080000D03*
X-0204000Y0086750D03*
X-0200750Y0081750D03*
X-0201500Y0082500D03*
X-0206250Y0080750D03*
G54D28*
X-0202750Y0084000D03*
X-0202250D03*
X-0201750D03*
X-0201250D03*
X-0200750D03*
X-0200250D03*
X-0199750D03*
X-0199250D03*
Y0080700D03*
X-0199750D03*
X-0200250D03*
X-0200750D03*
X-0201250D03*
X-0201750D03*
X-0202250D03*
X-0202750D03*
X-0203250D03*
G54D29*
Y0084000D03*
G54D30*
X-0204750D03*
Y0082000D03*
X-0208500D03*
Y0084000D03*
M02*
