*
G04 Mass Parameters ***
*
G04 Image ***
*
%INC:\PROJECTS\ORCAD\ACTUATOR\ACTUATOR.TOP*%
%ICAS*%
%MOIN*%
%IPPOS*%
%ASAXBY*%
G74*%FSLAN2X34Y34*%
*
G04 Aperture Definitions ***
*
%ADD10C,0.0550*%
%ADD11R,0.0550X0.0550*%
%ADD12C,0.0520*%
%ADD13R,0.0520X0.0520*%
%ADD14R,0.0600X0.0600*%
%ADD15R,0.0500X0.0340*%
%ADD16R,0.0400X0.0340*%
%ADD17C,0.1040*%
%ADD18C,0.0710*%
%ADD19R,0.0710X0.0710*%
%ADD20R,0.0400X0.0560*%
%ADD21C,0.0580*%
%ADD22R,0.0580X0.0580*%
%ADD23C,0.0120*%
%ADD24C,0.0200*%
%ADD25C,0.0500*%
%ADD26C,0.0300*%
%ADD27C,0.0400*%
*
G04 Plot Data ***
*
G54D23*
G01X-0203250Y0081500D02*
Y0081750D01*
X-0203750Y0082250D01*
X-0207500D01*
X-0203750Y0084000D02*
X-0205000D01*
X-0205750Y0083250D01*
Y0083000D01*
X-0206750D02*
X-0206250Y0082500D01*
X-0204750D01*
X-0204250Y0083000D01*
X-0207750Y0080250D02*
Y0080500D01*
X-0206750Y0081500D02*
Y0081700D01*
X-0199250Y0082500D02*
Y0081750D01*
X-0197750Y0080250D01*
Y0080200D01*
Y0079750D01*
X-0198000Y0079500D01*
X-0201000D01*
X-0201500Y0079000D01*
Y0078750D01*
X-0202250Y0083000D02*
Y0081000D01*
X-0201250Y0080000D01*
X-0198500D01*
X-0199500Y0085750D02*
Y0085000D01*
X-0199250Y0084750D01*
X-0198250D01*
X-0197750Y0084250D01*
Y0084050D01*
X-0204710Y0085130D02*
X-0204750Y0085250D01*
X-0196500Y0079500D02*
X-0197250Y0080250D01*
Y0081250D01*
X-0197500Y0081500D01*
X-0197750D01*
X-0201500Y0083050D02*
Y0082500D01*
X-0202550Y0086500D02*
X-0202500D01*
X-0202000Y0087000D01*
X-0199750D01*
X-0199000Y0086250D01*
Y0085250D01*
X-0198750Y0085000D01*
X-0197500D01*
X-0197000Y0084500D01*
X-0196500D01*
X-0195750Y0083750D01*
Y0081000D01*
X-0196250Y0080500D01*
X-0196500D01*
G54D24*
G01X-0204250Y0074250D02*
X-0204000D01*
X-0203500Y0074750D01*
X-0200250D01*
X-0199750Y0075250D01*
X-0209250Y0078500D02*
Y0078750D01*
X-0208500Y0079500D01*
X-0208125D01*
X-0205625D02*
Y0079125D01*
X-0206250Y0078500D01*
X-0207250Y0077500D01*
X-0207500D01*
X-0208000Y0077000D01*
Y0074500D01*
X-0208750Y0073750D01*
X-0205750Y0081700D02*
X-0205250Y0081200D01*
Y0080250D01*
X-0207750Y0080500D02*
X-0206750Y0081500D01*
X-0207750Y0080250D02*
X-0207000Y0079500D01*
X-0197750Y0082750D02*
X-0198250Y0083250D01*
X-0200750D01*
Y0084500D01*
X-0201250Y0085000D01*
X-0201500Y0081750D02*
X-0200750D01*
Y0083250D01*
Y0084500D01*
X-0201250Y0085000D01*
X-0200750Y0081750D02*
X-0201500D01*
X-0206250Y0080750D02*
Y0080500D01*
X-0206000Y0080250D01*
X-0207750Y0085250D02*
Y0083250D01*
X-0208250Y0082750D01*
Y0081000D01*
X-0208500Y0080750D01*
Y0080250D01*
G54D26*
G01X-0210750Y0084000D02*
X-0211750Y0083000D01*
X-0209250Y0078500D02*
Y0077250D01*
X-0208750Y0076750D01*
X-0212250Y0081500D02*
X-0211500Y0082250D01*
X-0211250D01*
X-0210500Y0083000D01*
X-0209750D01*
X-0204750Y0085250D02*
Y0086000D01*
X-0204000Y0086750D01*
X-0197750Y0082750D02*
Y0081500D01*
X-0206750Y0084000D02*
X-0206250D01*
X-0205500Y0084750D01*
Y0084760D01*
X-0201500Y0085750D02*
Y0085250D01*
X-0201250Y0085000D01*
Y0086500D02*
X-0201500Y0086250D01*
Y0085750D01*
X-0205500Y0084760D02*
X-0205250Y0084500D01*
X-0204250D01*
X-0204000Y0084750D01*
X-0203500D01*
X-0203000Y0084250D01*
X-0202000D01*
X-0201250Y0085000D01*
X-0202500Y0085750D02*
Y0085000D01*
X-0202550D01*
X-0205500Y0085500D02*
X-0206550D01*
X-0206750Y0085300D01*
X-0202500Y0085750D02*
X-0202750D01*
X-0203500D01*
X-0202550Y0086500D02*
Y0085800D01*
X-0202500Y0085750D01*
X-0204000Y0087750D02*
X-0205250D01*
X-0206000D01*
X-0203500Y0085750D02*
X-0202750D01*
Y0086500D01*
X-0204000Y0087750D01*
X-0205500Y0085500D02*
Y0086000D01*
X-0205000Y0086500D01*
Y0087750D01*
X-0206000D01*
G54D27*
G01X-0207500Y0086250D02*
X-0208250D01*
X-0209250Y0085250D01*
X-0206000Y0086750D02*
X-0206500Y0086250D01*
X-0207500D01*
X-0206750Y0085300D02*
Y0085250D01*
X-0207750D01*
X-0206000Y0087750D02*
X-0206200Y0087550D01*
X-0207500D01*
G54D10*
X-0203250Y0075500D03*
X-0201250D03*
X-0212250Y0076250D03*
Y0078250D03*
Y0079500D03*
Y0081500D03*
X-0211750Y0083000D03*
X-0209750D03*
X-0197000Y0074750D03*
X-0210500Y0074500D03*
X-0210750Y0084000D03*
X-0207750Y0085250D03*
X-0209250D03*
X-0210750Y0075500D03*
Y0081500D03*
X-0196500Y0079500D03*
Y0080500D03*
Y0081500D03*
Y0082500D03*
Y0083500D03*
X-0199500Y0085750D03*
X-0200500D03*
X-0201500D03*
X-0202500D03*
X-0203500D03*
X-0202500Y0078750D03*
X-0201500D03*
X-0200500D03*
X-0199500D03*
X-0198500D03*
G54D11*
X-0196500Y0078500D03*
X-0198500Y0085750D03*
X-0203500Y0078750D03*
G54D12*
X-0209250Y0078500D03*
X-0208250D03*
X-0206250D03*
X-0207250D03*
X-0204000Y0086750D03*
X-0206000D03*
G54D13*
X-0204000Y0087750D03*
X-0206000D03*
G54D14*
X-0206750Y0083000D03*
Y0081700D03*
X-0205750Y0083000D03*
Y0081700D03*
X-0197750Y0082750D03*
Y0084050D03*
Y0081500D03*
Y0080200D03*
X-0201250Y0085000D03*
X-0202550D03*
X-0201500Y0081750D03*
Y0083050D03*
X-0206750Y0084000D03*
Y0085300D03*
X-0201250Y0086500D03*
X-0202550D03*
X-0207500Y0086250D03*
Y0087550D03*
G54D15*
X-0204710Y0085130D03*
G54D16*
X-0205500Y0085500D03*
Y0084760D03*
G54D17*
X-0196750Y0076250D03*
G54D18*
X-0208750Y0075250D03*
Y0076750D03*
X-0202750Y0073750D03*
X-0200750D03*
X-0198750D03*
X-0202750Y0076750D03*
X-0198750D03*
X-0200750D03*
X-0199750Y0075250D03*
G54D19*
X-0208750Y0073750D03*
G54D20*
X-0207750Y0080310D03*
X-0208500D03*
X-0208125Y0079440D03*
X-0205250Y0080310D03*
X-0206000D03*
X-0205625Y0079440D03*
G54D21*
X-0207250Y0075250D03*
Y0074250D03*
X-0204250D03*
Y0075250D03*
Y0076250D03*
G54D22*
X-0207250D03*
G54D25*
X-0203250Y0081500D03*
X-0207500Y0082250D03*
X-0203750Y0084000D03*
X-0204250Y0083000D03*
X-0207000Y0079500D03*
X-0199250Y0082500D03*
X-0202250Y0083000D03*
X-0198500Y0080000D03*
X-0204000Y0086750D03*
X-0200750Y0081750D03*
X-0201500Y0082500D03*
X-0206250Y0080750D03*
M02*
