*
G04 Mass Parameters ***
*
G04 Image ***
*
%INC:\PROJECTS\ORCAD\ACTUATOR\ACTUATOR.AST*%
%ICAS*%
%MOIN*%
%IPPOS*%
%ASAXBY*%
G74*%FSLAN2X34Y34*%
*
G04 Aperture Definitions ***
*
%ADD10C,0.0550*%
%ADD11R,0.0550X0.0550*%
%ADD12C,0.0520*%
%ADD13R,0.0520X0.0520*%
%ADD14R,0.0600X0.0600*%
%ADD15R,0.0500X0.0340*%
%ADD16R,0.0400X0.0340*%
%ADD17C,0.1040*%
%ADD18C,0.0710*%
%ADD19R,0.0710X0.0710*%
%ADD20R,0.0400X0.0560*%
%ADD21C,0.0580*%
%ADD22R,0.0580X0.0580*%
%ADD23C,0.0120*%
%ADD24C,0.0200*%
%ADD25C,0.0500*%
%ADD26C,0.0300*%
%ADD27C,0.0400*%
%ADD28O,0.0240X0.0860*%
%ADD29R,0.0240X0.0860*%
%ADD30R,0.0650X0.0650*%
%ADD31C,0.0150*%
%ADD32C,0.0100*%
%ADD33C,0.0010*%
%ADD34C,0.0250*%
%ADD35C,0.1000*%
%ADD36C,0.0750*%
%ADD37R,0.0750X0.0750*%
%ADD38C,0.0720*%
%ADD39R,0.0720X0.0720*%
%ADD40C,0.0650*%
%ADD41C,0.1100*%
%ADD42C,0.0910*%
%ADD43R,0.0910X0.0910*%
%ADD44C,0.0780*%
%ADD45R,0.0780X0.0780*%
%ADD46C,0.0500*%
%ADD47C,0.0600*%
%ADD48C,0.1090*%
%ADD49C,0.0080*%
%ADD50C,0.0060*%
*
G04 Plot Data ***
*
G54D46*
G01X-0194750Y0088500D02*
Y0072500D01*
X-0212750D01*
Y0088500D01*
X-0194750D01*
G54D49*
G01X-0203276Y0086951D02*
Y0086784D01*
X-0203331Y0086756D01*
X-0203387D01*
X-0203442Y0086784D01*
Y0086951D01*
X-0203387Y0086978D01*
X-0203331D01*
X-0203109Y0086867D01*
X-0203442Y0087166D02*
Y0087277D01*
Y0087222D02*
X-0203109D01*
X-0203164Y0087277D01*
X-0203387Y0087520D02*
X-0203442Y0087548D01*
Y0087715D01*
X-0203387Y0087743D01*
X-0203164D01*
X-0203109Y0087715D01*
Y0087548D01*
X-0203164Y0087520D01*
X-0204757Y0086239D02*
Y0086406D01*
X-0204923D02*
X-0204590D01*
Y0086183D01*
Y0086593D02*
X-0204868D01*
X-0204923Y0086621D01*
Y0086788D01*
X-0204868Y0086816D01*
X-0204590D01*
X-0204923Y0087142D02*
X-0204868Y0087198D01*
X-0204812Y0087226D01*
X-0204701D01*
X-0204646Y0087198D01*
X-0204590Y0087142D01*
Y0087087D01*
X-0204646Y0087031D01*
X-0204701Y0087003D01*
X-0204812D01*
X-0204868Y0087031D01*
X-0204923Y0087087D01*
Y0087142D01*
Y0087413D02*
Y0087636D01*
X-0204701Y0087413D01*
X-0204646D01*
X-0204590Y0087441D01*
Y0087608D01*
X-0204646Y0087636D01*
X-0204923Y0087823D02*
Y0088046D01*
X-0204701Y0087823D01*
X-0204646D01*
X-0204590Y0087851D01*
Y0088018D01*
X-0204646Y0088046D01*
X-0210666Y0083308D02*
X-0210777D01*
X-0210722D02*
Y0083641D01*
X-0210777Y0083585D01*
X-0211104Y0083474D02*
X-0211020Y0083308D01*
X-0211243Y0083474D02*
X-0211076D01*
X-0211020Y0083530D01*
Y0083585D01*
X-0211076Y0083641D01*
X-0211243D01*
Y0083308D01*
X-0211308Y0078459D02*
Y0078348D01*
Y0078403D02*
X-0211641D01*
X-0211585Y0078348D01*
X-0211363Y0078104D02*
X-0211308Y0078077D01*
Y0077910D01*
X-0211363Y0077882D01*
X-0211585D01*
X-0211641Y0077910D01*
Y0078077D01*
X-0211585Y0078104D01*
X-0202397Y0075674D02*
X-0202663D01*
X-0202397Y0075941D01*
Y0076007D01*
X-0202430Y0076074D01*
X-0202630D01*
X-0202663Y0076007D01*
X-0202857D02*
X-0202890Y0076074D01*
X-0203090D01*
X-0203123Y0076007D01*
Y0075941D01*
X-0203090Y0075874D01*
X-0202890D01*
X-0202857Y0075807D01*
Y0075741D01*
X-0202890Y0075674D01*
X-0203090D01*
X-0203123Y0075741D01*
X-0203317Y0075674D02*
X-0203550D01*
Y0076074D01*
X-0205217Y0075234D02*
Y0075457D01*
X-0204995Y0075234D01*
X-0204939D01*
X-0204884Y0075262D01*
Y0075429D01*
X-0204939Y0075457D01*
X-0204884Y0075644D02*
X-0205162D01*
X-0205217Y0075672D01*
Y0075839D01*
X-0205162Y0075867D01*
X-0204884D01*
X-0206542Y0077762D02*
X-0206570Y0077817D01*
X-0206737D01*
X-0206764Y0077762D01*
Y0077651D01*
X-0206709Y0077595D01*
X-0206542D01*
Y0077484D01*
X-0206764D01*
X-0206160Y0077817D02*
Y0077484D01*
X-0206132Y0077817D02*
X-0206299D01*
X-0206354Y0077706D01*
Y0077595D01*
X-0206299Y0077484D01*
X-0206132D01*
X-0212558Y0080639D02*
Y0080417D01*
X-0212780Y0080639D01*
X-0212835D01*
X-0212891Y0080612D01*
Y0080445D01*
X-0212835Y0080417D01*
X-0212724Y0080146D02*
X-0212558Y0080229D01*
X-0212724Y0080007D02*
Y0080174D01*
X-0212780Y0080229D01*
X-0212835D01*
X-0212891Y0080174D01*
Y0080007D01*
X-0212558D01*
X-0201923Y0075863D02*
X-0201867Y0075808D01*
X-0201756D01*
X-0201700Y0075863D01*
Y0075919D01*
X-0201812Y0076030D01*
X-0201700Y0076141D01*
X-0201923D01*
X-0202110Y0075808D02*
X-0202333D01*
X-0202110Y0076030D01*
Y0076085D01*
X-0202138Y0076141D01*
X-0202305D01*
X-0202333Y0076085D01*
X-0202604Y0075974D02*
X-0202520Y0075808D01*
X-0202743Y0075974D02*
X-0202576D01*
X-0202520Y0076030D01*
Y0076085D01*
X-0202576Y0076141D01*
X-0202743D01*
Y0075808D01*
X-0212613Y0077521D02*
X-0212558Y0077549D01*
Y0077716D01*
X-0212613Y0077744D01*
X-0212724D01*
X-0212780Y0077688D01*
Y0077521D01*
X-0212891D01*
Y0077744D01*
X-0212558Y0077334D02*
Y0077223D01*
Y0077278D02*
X-0212891D01*
X-0212835Y0077223D01*
X-0212724Y0076896D02*
X-0212558Y0076979D01*
X-0212724Y0076757D02*
Y0076924D01*
X-0212780Y0076979D01*
X-0212835D01*
X-0212891Y0076924D01*
Y0076757D01*
X-0212558D01*
X-0200594Y0079544D02*
X-0200817D01*
X-0200706Y0079766D01*
X-0200650D01*
Y0079433D01*
X-0201088Y0079599D02*
X-0201004Y0079433D01*
X-0201227Y0079599D02*
X-0201060D01*
X-0201004Y0079655D01*
Y0079710D01*
X-0201060Y0079766D01*
X-0201227D01*
Y0079433D01*
X-0201609D02*
Y0079766D01*
X-0201637Y0079433D02*
X-0201470D01*
X-0201414Y0079488D01*
Y0079544D01*
X-0201442Y0079599D01*
X-0201609D02*
X-0201442D01*
X-0201414Y0079655D01*
Y0079710D01*
X-0201470Y0079766D01*
X-0201637D01*
X-0200809Y0077732D02*
X-0200920D01*
X-0200864D02*
Y0078066D01*
X-0200920Y0078010D01*
X-0201219Y0077899D02*
X-0201386D01*
Y0077732D02*
Y0078066D01*
X-0201163D01*
X-0201573Y0077899D02*
X-0201796D01*
X-0201573Y0077732D02*
Y0078066D01*
X-0201796Y0077732D02*
Y0078066D01*
X-0201183Y0085012D02*
X-0201211Y0085067D01*
X-0201378D01*
X-0201405Y0085012D01*
Y0084901D01*
X-0201350Y0084845D01*
X-0201183D01*
Y0084734D01*
X-0201405D01*
X-0200912Y0084901D02*
X-0200995Y0085067D01*
X-0200773Y0084901D02*
X-0200940D01*
X-0200995Y0084845D01*
Y0084789D01*
X-0200940Y0084734D01*
X-0200773D01*
Y0085067D01*
X-0200391D02*
Y0084734D01*
X-0200363Y0085067D02*
X-0200530D01*
X-0200585Y0085012D01*
Y0084956D01*
X-0200558Y0084901D01*
X-0200391D02*
X-0200558D01*
X-0200585Y0084845D01*
Y0084789D01*
X-0200530Y0084734D01*
X-0200363D01*
X-0201247Y0086767D02*
X-0201024D01*
X-0201247Y0086545D01*
Y0086490D01*
X-0201219Y0086434D01*
X-0201052D01*
X-0201024Y0086490D01*
X-0200781Y0086601D02*
X-0200614D01*
Y0086767D02*
Y0086434D01*
X-0200837D01*
X-0200427Y0086601D02*
X-0200204D01*
X-0200427Y0086767D02*
Y0086434D01*
X-0200204Y0086767D02*
Y0086434D01*
X-0197183Y0081239D02*
X-0197516Y0081405D01*
Y0081183D01*
X-0197349Y0080912D02*
X-0197183Y0080995D01*
X-0197349Y0080773D02*
Y0080940D01*
X-0197405Y0080995D01*
X-0197460D01*
X-0197516Y0080940D01*
Y0080773D01*
X-0197183D01*
Y0080391D02*
X-0197516D01*
X-0197183Y0080363D02*
Y0080530D01*
X-0197238Y0080585D01*
X-0197294D01*
X-0197349Y0080558D01*
Y0080391D02*
Y0080558D01*
X-0197405Y0080585D01*
X-0197460D01*
X-0197516Y0080530D01*
Y0080363D01*
X-0207868Y0078737D02*
X-0207924Y0078792D01*
X-0208035D01*
X-0208090Y0078737D01*
Y0078681D01*
X-0207979Y0078570D01*
X-0208090Y0078459D01*
X-0207868D01*
X-0207569Y0078681D02*
X-0207680Y0078792D01*
X-0207458Y0078737D02*
X-0207486Y0078792D01*
X-0207597D01*
X-0207625Y0078737D01*
X-0207680Y0078681D01*
Y0078514D01*
X-0207653Y0078459D01*
X-0207486D01*
X-0207458Y0078514D01*
Y0078737D01*
X-0205442Y0087110D02*
Y0087333D01*
X-0205220Y0087110D01*
X-0205164D01*
X-0205109Y0087138D01*
Y0087305D01*
X-0205164Y0087333D01*
X-0205387Y0087520D02*
X-0205442Y0087548D01*
Y0087715D01*
X-0205387Y0087743D01*
X-0205164D01*
X-0205109Y0087715D01*
Y0087548D01*
X-0205164Y0087520D01*
X-0202469Y0075076D02*
X-0202636Y0075243D01*
X-0202469Y0075410D01*
X-0202691D02*
Y0075076D01*
X-0202879D02*
X-0202990D01*
X-0202934D02*
Y0075410D01*
X-0202990Y0075354D01*
X-0208930Y0079349D02*
X-0208763D01*
X-0208735Y0079294D01*
Y0079238D01*
X-0208763Y0079183D01*
X-0208930D01*
X-0208958Y0079238D01*
Y0079294D01*
X-0208847Y0079516D01*
X-0209340Y0079183D02*
Y0079516D01*
X-0209368Y0079183D02*
X-0209201D01*
X-0209145Y0079294D01*
Y0079405D01*
X-0209201Y0079516D01*
X-0209368D01*
X-0207250Y0086000D02*
Y0084500D01*
X-0209750D01*
Y0086000D01*
X-0207250D01*
X-0211875Y0079250D02*
X-0211625D01*
Y0081750D01*
X-0211875D01*
X-0206225Y0079895D02*
Y0079595D01*
X-0205965D01*
X-0207785D02*
X-0207525D01*
Y0079895D01*
X-0207475D01*
X-0212000Y0082625D02*
Y0082375D01*
X-0209500D01*
Y0082625D01*
Y0083375D02*
Y0083625D01*
X-0212000D01*
Y0083375D01*
X-0197750Y0072750D02*
Y0077750D01*
X-0209750D01*
Y0072750D01*
X-0197750D01*
X-0208725Y0079895D02*
Y0079595D01*
X-0208465D01*
X-0206250Y0077125D02*
X-0205250D01*
X-0204750D01*
Y0073375D01*
X-0206750D01*
Y0077125D01*
X-0206250D01*
Y0076875D01*
X-0205250D01*
Y0077125D01*
X-0212625Y0081750D02*
X-0212875D01*
Y0079250D01*
X-0212625D01*
X-0204000Y0078250D02*
X-0198000D01*
Y0079250D01*
X-0204000D01*
Y0078250D01*
X-0204050Y0078200D01*
X-0198000Y0086250D02*
X-0204000D01*
Y0085250D01*
X-0198000D01*
Y0086250D01*
X-0197950Y0086300D01*
X-0205285Y0079595D02*
X-0205025D01*
Y0079895D01*
X-0204975D01*
X-0206625Y0078750D02*
X-0206875D01*
X-0212625Y0078500D02*
X-0212875D01*
Y0076000D01*
X-0212625D01*
X-0211125Y0081875D02*
X-0211625D01*
Y0075125D01*
X-0211125D01*
X-0210375D02*
X-0209875D01*
Y0081875D01*
X-0210375D01*
X-0203500Y0075125D02*
Y0074875D01*
X-0201000D01*
Y0075125D01*
Y0075875D02*
Y0076125D01*
X-0203500D01*
Y0075875D01*
X-0208625Y0078750D02*
X-0208875D01*
Y0078250D02*
X-0208625D01*
X-0196000Y0078000D02*
Y0084000D01*
X-0197000D01*
Y0078000D01*
X-0196000D01*
X-0195950Y0077950D01*
X-0206875Y0078250D02*
X-0206625D01*
X-0211875Y0076000D02*
X-0211625D01*
Y0078500D01*
X-0211875D01*
G01X-0204000Y0088250D02*
G03X-0205000Y0087250I0000000J0001000D01*
G03X-0204000Y0086250I0001000J0000000D01*
G03X-0203000Y0087250I0000000J0001000D01*
G03X-0204000Y0088250I0001000J0000000D01*
G01X-0206000D02*
G03X-0207000Y0087250I0000000J0001000D01*
G03X-0206000Y0086250I0001000J0000000D01*
G03X-0205000Y0087250I0000000J0001000D01*
G03X-0206000Y0088250I0001000J0000000D01*
G54D50*
G01X-0198249Y0083298D02*
Y0083131D01*
X-0198305Y0083103D01*
X-0198360D01*
X-0198416Y0083131D01*
Y0083298D01*
X-0198360Y0083325D01*
X-0198305D01*
X-0198083Y0083214D01*
X-0198249Y0082872D02*
X-0198083Y0082955D01*
X-0198249Y0082733D02*
Y0082900D01*
X-0198305Y0082955D01*
X-0198360D01*
X-0198416Y0082900D01*
Y0082733D01*
X-0198083D01*
X-0197082Y0083557D02*
X-0197249Y0083390D01*
X-0197416Y0083557D01*
Y0083334D02*
X-0197082D01*
Y0083020D02*
X-0197416Y0083187D01*
Y0082964D01*
X-0197194Y0082817D02*
Y0082594D01*
X-0197416Y0082705D01*
Y0082761D01*
X-0197082D01*
X-0205251Y0082138D02*
Y0082305D01*
X-0205195Y0082332D01*
X-0205139D01*
X-0205084Y0082305D01*
Y0082138D01*
X-0205139Y0082110D01*
X-0205195D01*
X-0205417Y0082221D01*
Y0082480D02*
Y0082591D01*
Y0082536D02*
X-0205084D01*
X-0205139Y0082591D01*
X-0205251Y0082878D02*
X-0205417Y0082794D01*
X-0205251Y0083017D02*
Y0082850D01*
X-0205195Y0082794D01*
X-0205139D01*
X-0205084Y0082850D01*
Y0083017D01*
X-0205417D01*
X-0206362Y0082416D02*
X-0206417Y0082360D01*
Y0082249D01*
X-0206362Y0082193D01*
X-0206306D01*
X-0206195Y0082304D01*
X-0206084Y0082193D01*
Y0082416D01*
X-0206417Y0082563D02*
X-0206251Y0082730D01*
X-0206084Y0082563D01*
Y0082786D02*
X-0206417D01*
X-0206362Y0083156D02*
X-0206417Y0083100D01*
Y0082989D01*
X-0206362Y0082933D01*
X-0206306D01*
X-0206195Y0083044D01*
X-0206084Y0082933D01*
Y0083156D01*
X-0201825Y0086056D02*
X-0201603D01*
X-0201714Y0085834D01*
X-0201770D01*
Y0086167D01*
X-0201455Y0086112D02*
X-0201428Y0086167D01*
X-0201261D01*
X-0201233Y0086112D01*
Y0085889D01*
X-0201261Y0085834D01*
X-0201428D01*
X-0201455Y0085889D01*
X-0201631Y0086834D02*
Y0087112D01*
X-0201603Y0087167D01*
X-0201436D01*
X-0201409Y0087112D01*
Y0086834D01*
X-0201261Y0087167D02*
X-0201150D01*
X-0201205D02*
Y0086834D01*
X-0201150Y0086890D01*
X-0197417Y0081091D02*
X-0197084Y0080924D01*
Y0081147D01*
X-0197251Y0081378D02*
X-0197417Y0081294D01*
X-0197251Y0081517D02*
Y0081350D01*
X-0197195Y0081294D01*
X-0197139D01*
X-0197084Y0081350D01*
Y0081517D01*
X-0197417D01*
X-0198417Y0080693D02*
X-0198251Y0080860D01*
X-0198084Y0080693D01*
Y0080916D02*
X-0198417D01*
Y0081230D02*
X-0198084Y0081063D01*
Y0081286D01*
X-0198306Y0081433D02*
Y0081656D01*
X-0198084Y0081544D01*
Y0081489D01*
X-0198417D01*
X-0201999Y0082131D02*
Y0082298D01*
X-0201944Y0082325D01*
X-0201888D01*
X-0201833Y0082298D01*
Y0082131D01*
X-0201888Y0082103D01*
X-0201944D01*
X-0202166Y0082214D01*
X-0201888Y0081955D02*
X-0201833Y0081928D01*
Y0081761D01*
X-0201888Y0081733D01*
X-0202110D01*
X-0202166Y0081761D01*
Y0081928D01*
X-0202110Y0081955D01*
X-0201166Y0082871D02*
X-0200832D01*
X-0200888Y0082815D01*
X-0201110Y0082704D01*
X-0201166Y0082649D01*
X-0200832D01*
Y0082362D02*
X-0200888Y0082306D01*
X-0200944Y0082279D01*
X-0201055D01*
X-0201110Y0082306D01*
X-0201166Y0082362D01*
Y0082418D01*
Y0082417D02*
X-0201110Y0082473D01*
X-0201055Y0082501D01*
X-0200944D01*
X-0200888Y0082473D01*
X-0200832Y0082418D01*
Y0082417D02*
Y0082362D01*
Y0081992D02*
X-0200888Y0081936D01*
X-0200944Y0081909D01*
X-0201055D01*
X-0201110Y0081936D01*
X-0201166Y0081992D01*
Y0082048D01*
Y0082047D02*
X-0201110Y0082103D01*
X-0201055Y0082131D01*
X-0200944D01*
X-0200888Y0082103D01*
X-0200832Y0082048D01*
Y0082047D02*
Y0081992D01*
Y0081761D02*
Y0081650D01*
Y0081705D02*
X-0201166D01*
X-0201110Y0081650D01*
X-0202084Y0084667D02*
X-0201973D01*
X-0202029D02*
Y0084334D01*
X-0201973Y0084389D01*
X-0201770Y0084667D02*
X-0201659D01*
X-0201714D02*
Y0084334D01*
X-0201659Y0084389D01*
X-0201455Y0084612D02*
X-0201428Y0084667D01*
X-0201261D01*
X-0201233Y0084612D01*
Y0084389D01*
X-0201261Y0084334D01*
X-0201428D01*
X-0201455Y0084389D01*
X-0202371Y0085334D02*
Y0085667D01*
X-0202315Y0085612D01*
X-0202204Y0085390D01*
X-0202149Y0085334D01*
Y0085667D01*
X-0201862D02*
X-0201806Y0085612D01*
X-0201779Y0085556D01*
Y0085445D01*
X-0201806Y0085390D01*
X-0201862Y0085334D01*
X-0201918D01*
X-0201917D02*
X-0201973Y0085390D01*
X-0202001Y0085445D01*
Y0085556D01*
X-0201973Y0085612D01*
X-0201918Y0085667D01*
X-0201917D02*
X-0201862D01*
X-0201492D02*
X-0201436Y0085612D01*
X-0201409Y0085556D01*
Y0085445D01*
X-0201436Y0085390D01*
X-0201492Y0085334D01*
X-0201548D01*
X-0201547D02*
X-0201603Y0085390D01*
X-0201631Y0085445D01*
Y0085556D01*
X-0201603Y0085612D01*
X-0201548Y0085667D01*
X-0201547D02*
X-0201492D01*
X-0201261D02*
X-0201150D01*
X-0201205D02*
Y0085334D01*
X-0201150Y0085390D01*
X-0207138Y0084353D02*
X-0207083Y0084381D01*
Y0084548D01*
X-0207138Y0084575D01*
X-0207249D01*
X-0207305Y0084520D01*
Y0084353D01*
X-0207416D01*
Y0084575D01*
X-0207138Y0084205D02*
X-0207083Y0084178D01*
Y0084011D01*
X-0207138Y0083983D01*
X-0207360D01*
X-0207416Y0084011D01*
Y0084178D01*
X-0207360Y0084205D01*
X-0205247Y0085204D02*
Y0085427D01*
X-0205025Y0085204D01*
X-0204969D01*
X-0204914Y0085232D01*
Y0085399D01*
X-0204969Y0085427D01*
X-0205247Y0085769D02*
X-0204914D01*
X-0205247Y0085797D02*
Y0085630D01*
X-0205136Y0085574D01*
X-0205025D01*
X-0204914Y0085630D01*
Y0085797D01*
X-0204692Y0085246D02*
X-0204747Y0085190D01*
Y0085079D01*
X-0204692Y0085023D01*
X-0204636D01*
X-0204525Y0085134D01*
X-0204414Y0085023D01*
Y0085246D01*
Y0085393D02*
X-0204525D01*
X-0204747Y0085504D01*
X-0204525Y0085616D01*
X-0204414D01*
X-0204692Y0085986D02*
X-0204747Y0085930D01*
Y0085819D01*
X-0204692Y0085763D01*
X-0204636D01*
X-0204525Y0085874D01*
X-0204414Y0085763D01*
Y0085986D01*
X-0207888Y0086603D02*
X-0207833Y0086659D01*
Y0086770D01*
X-0207888Y0086825D01*
X-0207944D01*
X-0208055Y0086714D01*
X-0208166Y0086825D01*
Y0086603D01*
X-0207888Y0086455D02*
X-0207833Y0086428D01*
Y0086261D01*
X-0207888Y0086233D01*
X-0208110D01*
X-0208166Y0086261D01*
Y0086428D01*
X-0208110Y0086455D01*
X-0206417Y0082193D02*
X-0206362Y0082249D01*
X-0206306Y0082277D01*
X-0206195D01*
X-0206139Y0082249D01*
X-0206084Y0082193D01*
Y0082138D01*
X-0206139Y0082082D01*
X-0206195Y0082054D01*
X-0206306D01*
X-0206362Y0082082D01*
X-0206417Y0082138D01*
Y0082193D01*
Y0082424D02*
Y0082647D01*
X-0206195Y0082424D01*
X-0206139D01*
X-0206084Y0082452D01*
Y0082619D01*
X-0206139Y0082647D01*
X-0206251Y0082878D02*
X-0206417Y0082794D01*
X-0206251Y0083017D02*
Y0082850D01*
X-0206195Y0082794D01*
X-0206139D01*
X-0206084Y0082850D01*
Y0083017D01*
X-0206417D01*
X-0207362Y0082416D02*
X-0207417Y0082360D01*
Y0082249D01*
X-0207362Y0082193D01*
X-0207306D01*
X-0207195Y0082304D01*
X-0207084Y0082193D01*
Y0082416D01*
X-0207417Y0082563D02*
X-0207251Y0082730D01*
X-0207084Y0082563D01*
Y0082786D02*
X-0207417D01*
X-0207362Y0083156D02*
X-0207417Y0083100D01*
Y0082989D01*
X-0207362Y0082933D01*
X-0207306D01*
X-0207195Y0083044D01*
X-0207084Y0082933D01*
Y0083156D01*
X-0206200Y0081250D02*
Y0083450D01*
X-0205300D01*
Y0081250D01*
X-0206200D01*
X-0203000Y0086950D02*
X-0200800D01*
Y0086050D01*
X-0203000D01*
Y0086950D01*
X-0198200Y0079750D02*
Y0081950D01*
X-0197300D01*
Y0079750D01*
X-0198200D01*
X-0197300Y0084500D02*
Y0082300D01*
X-0198200D01*
Y0084500D01*
X-0197300D01*
X-0201050Y0083500D02*
Y0081300D01*
X-0201950D01*
Y0083500D01*
X-0201050D01*
X-0203000Y0085450D02*
X-0200800D01*
Y0084550D01*
X-0203000D01*
Y0085450D01*
X-0206300Y0085750D02*
Y0083550D01*
X-0207200D01*
Y0085750D01*
X-0206300D01*
X-0204800Y0085470D02*
Y0085730D01*
X-0205100D01*
Y0085780D01*
Y0084530D02*
X-0204800D01*
Y0084790D01*
X-0207050Y0088000D02*
Y0085800D01*
X-0207950D01*
Y0088000D01*
X-0207050D01*
X-0207200Y0081250D02*
Y0083450D01*
X-0206300D01*
Y0081250D01*
X-0207200D01*
G54D10*
X-0203250Y0075500D03*
X-0201250D03*
X-0212250Y0076250D03*
Y0078250D03*
Y0079500D03*
Y0081500D03*
X-0211750Y0083000D03*
X-0209750D03*
X-0207750Y0085250D03*
X-0209250D03*
X-0210750Y0075500D03*
Y0081500D03*
X-0196500Y0079500D03*
Y0080500D03*
Y0081500D03*
Y0082500D03*
Y0083500D03*
X-0199500Y0085750D03*
X-0200500D03*
X-0201500D03*
X-0202500D03*
X-0203500D03*
X-0202500Y0078750D03*
X-0201500D03*
X-0200500D03*
X-0199500D03*
X-0198500D03*
G54D11*
X-0196500Y0078500D03*
X-0198500Y0085750D03*
X-0203500Y0078750D03*
G54D12*
X-0209250Y0078500D03*
X-0208250D03*
X-0206250D03*
X-0207250D03*
X-0204000Y0086750D03*
X-0206000D03*
G54D13*
X-0204000Y0087750D03*
X-0206000D03*
G54D14*
X-0206750Y0083000D03*
Y0081700D03*
X-0205750Y0083000D03*
Y0081700D03*
X-0197750Y0082750D03*
Y0084050D03*
Y0081500D03*
Y0080200D03*
X-0201250Y0085000D03*
X-0202550D03*
X-0201500Y0081750D03*
Y0083050D03*
X-0206750Y0084000D03*
Y0085300D03*
X-0201250Y0086500D03*
X-0202550D03*
X-0207500Y0086250D03*
Y0087550D03*
G54D15*
X-0204710Y0085130D03*
G54D16*
X-0205500Y0085500D03*
Y0084760D03*
G54D18*
X-0208750Y0075250D03*
Y0076750D03*
X-0202750Y0073750D03*
X-0200750D03*
X-0198750D03*
X-0202750Y0076750D03*
X-0198750D03*
X-0200750D03*
X-0199750Y0075250D03*
G54D19*
X-0208750Y0073750D03*
G54D20*
X-0207750Y0080310D03*
X-0208500D03*
X-0208125Y0079440D03*
X-0205250Y0080310D03*
X-0206000D03*
X-0205625Y0079440D03*
G54D21*
X-0207250Y0075250D03*
Y0074250D03*
X-0204250D03*
Y0075250D03*
Y0076250D03*
G54D22*
X-0207250D03*
M02*
