*
G04 Mass Parameters ***
*
G04 Image ***
*
%INC:\PROJECTS\ORCAD\ACTUATOR\ACTUATOR.SST*%
%ICAS*%
%MOIN*%
%IPPOS*%
%ASAXBY*%
G74*%FSLAN2X34Y34*%
*
G04 Aperture Definitions ***
*
%ADD10C,0.0550*%
%ADD11R,0.0550X0.0550*%
%ADD12C,0.0520*%
%ADD13R,0.0520X0.0520*%
%ADD14R,0.0600X0.0600*%
%ADD15R,0.0500X0.0340*%
%ADD16R,0.0400X0.0340*%
%ADD17C,0.1040*%
%ADD18C,0.0710*%
%ADD19R,0.0710X0.0710*%
%ADD20R,0.0400X0.0560*%
%ADD21C,0.0580*%
%ADD22R,0.0580X0.0580*%
%ADD23C,0.0120*%
%ADD24C,0.0200*%
%ADD25C,0.0500*%
%ADD26C,0.0300*%
%ADD27C,0.0400*%
%ADD28O,0.0240X0.0860*%
%ADD29R,0.0240X0.0860*%
%ADD30R,0.0650X0.0650*%
%ADD31C,0.0150*%
%ADD32C,0.0100*%
%ADD33C,0.0010*%
%ADD34C,0.0250*%
%ADD35C,0.1000*%
%ADD36C,0.0750*%
%ADD37R,0.0750X0.0750*%
%ADD38C,0.0720*%
%ADD39R,0.0720X0.0720*%
%ADD40C,0.0650*%
%ADD41C,0.1100*%
%ADD42C,0.0910*%
%ADD43R,0.0910X0.0910*%
%ADD44C,0.0780*%
%ADD45R,0.0780X0.0780*%
%ADD46C,0.0500*%
%ADD47C,0.0600*%
%ADD48C,0.1090*%
%ADD49C,0.0080*%
%ADD50C,0.0060*%
*
G04 Plot Data ***
*
G54D33*
G01X-0208827Y0085426D02*
X-0208652D01*
X-0208739D02*
Y0084899D01*
X-0208652Y0084987D01*
X-0208193Y0085426D02*
Y0084899D01*
X-0208149Y0085426D02*
X-0208412D01*
X-0208500Y0085250D01*
Y0085074D01*
X-0208412Y0084899D01*
X-0208149D01*
X-0196655Y0076459D02*
Y0076270D01*
X-0196844Y0076459D01*
X-0196892D01*
X-0196939Y0076435D01*
Y0076293D01*
X-0196892Y0076270D01*
X-0196750Y0076061D02*
X-0196703D01*
X-0196655Y0076085D01*
Y0076179D01*
X-0196703Y0076203D01*
X-0196939D01*
Y0076226D02*
Y0076132D01*
X-0210655Y0084161D02*
Y0084067D01*
Y0084114D02*
X-0210939D01*
X-0210892Y0084067D01*
X-0210750Y0083811D02*
X-0210703D01*
X-0210655Y0083835D01*
Y0083929D01*
X-0210703Y0083953D01*
X-0210939D01*
Y0083976D02*
Y0083882D01*
X-0210453Y0074520D02*
X-0210405Y0074567D01*
Y0074661D01*
X-0210453Y0074709D01*
X-0210500D01*
X-0210594Y0074614D01*
X-0210689Y0074709D01*
Y0074520D01*
X-0210500Y0074311D02*
X-0210453D01*
X-0210405Y0074335D01*
Y0074429D01*
X-0210453Y0074453D01*
X-0210689D01*
Y0074476D02*
Y0074382D01*
X-0197000Y0074959D02*
Y0074770D01*
X-0197189Y0074864D01*
Y0074911D01*
X-0196905D01*
X-0197000Y0074561D02*
X-0196953D01*
X-0196905Y0074585D01*
Y0074679D01*
X-0196953Y0074703D01*
X-0197189D01*
Y0074726D02*
Y0074632D01*
G54D49*
G01X-0202776Y0087451D02*
Y0087284D01*
X-0202831Y0087256D01*
X-0202887D01*
X-0202942Y0087284D01*
Y0087451D01*
X-0202887Y0087478D01*
X-0202831D01*
X-0202609Y0087367D01*
X-0202942Y0087666D02*
Y0087777D01*
Y0087722D02*
X-0202609D01*
X-0202664Y0087777D01*
X-0202887Y0088020D02*
X-0202942Y0088048D01*
Y0088215D01*
X-0202887Y0088243D01*
X-0202664D01*
X-0202609Y0088215D01*
Y0088048D01*
X-0202664Y0088020D01*
X-0205340Y0079042D02*
X-0205118D01*
X-0205340Y0078820D01*
Y0078764D01*
X-0205313Y0078709D01*
X-0205146D01*
X-0205118Y0078764D01*
X-0204819Y0078931D02*
X-0204930Y0079042D01*
X-0204708Y0078987D02*
X-0204736Y0079042D01*
X-0204847D01*
X-0204875Y0078987D01*
X-0204930Y0078931D01*
Y0078764D01*
X-0204903Y0078709D01*
X-0204736D01*
X-0204708Y0078764D01*
Y0078987D01*
X-0211166Y0083808D02*
X-0211277D01*
X-0211222D02*
Y0084141D01*
X-0211277Y0084085D01*
X-0211604Y0083974D02*
X-0211520Y0083808D01*
X-0211743Y0083974D02*
X-0211576D01*
X-0211520Y0084030D01*
Y0084085D01*
X-0211576Y0084141D01*
X-0211743D01*
Y0083808D01*
X-0197183Y0078489D02*
X-0197516Y0078655D01*
Y0078433D01*
X-0197349Y0078162D02*
X-0197183Y0078245D01*
X-0197349Y0078023D02*
Y0078190D01*
X-0197405Y0078245D01*
X-0197460D01*
X-0197516Y0078190D01*
Y0078023D01*
X-0197183D01*
Y0077641D02*
X-0197516D01*
X-0197183Y0077613D02*
Y0077780D01*
X-0197238Y0077835D01*
X-0197294D01*
X-0197349Y0077808D01*
Y0077641D02*
Y0077808D01*
X-0197405Y0077835D01*
X-0197460D01*
X-0197516Y0077780D01*
Y0077613D01*
X-0202397Y0075674D02*
X-0202663D01*
X-0202397Y0075941D01*
Y0076007D01*
X-0202430Y0076074D01*
X-0202630D01*
X-0202663Y0076007D01*
X-0202857D02*
X-0202890Y0076074D01*
X-0203090D01*
X-0203123Y0076007D01*
Y0075941D01*
X-0203090Y0075874D01*
X-0202890D01*
X-0202857Y0075807D01*
Y0075741D01*
X-0202890Y0075674D01*
X-0203090D01*
X-0203123Y0075741D01*
X-0203317Y0075674D02*
X-0203550D01*
Y0076074D01*
X-0203467Y0076484D02*
Y0076707D01*
X-0203245Y0076484D01*
X-0203189D01*
X-0203134Y0076512D01*
Y0076679D01*
X-0203189Y0076707D01*
X-0203134Y0076894D02*
X-0203412D01*
X-0203467Y0076922D01*
Y0077089D01*
X-0203412Y0077117D01*
X-0203134D01*
X-0211808Y0077959D02*
Y0077848D01*
Y0077903D02*
X-0212141D01*
X-0212085Y0077848D01*
X-0211863Y0077604D02*
X-0211808Y0077577D01*
Y0077410D01*
X-0211863Y0077382D01*
X-0212085D01*
X-0212141Y0077410D01*
Y0077577D01*
X-0212085Y0077604D01*
X-0212308Y0080889D02*
Y0080667D01*
X-0212530Y0080889D01*
X-0212585D01*
X-0212641Y0080862D01*
Y0080695D01*
X-0212585Y0080667D01*
X-0212474Y0080396D02*
X-0212308Y0080479D01*
X-0212474Y0080257D02*
Y0080424D01*
X-0212530Y0080479D01*
X-0212585D01*
X-0212641Y0080424D01*
Y0080257D01*
X-0212308D01*
X-0203344Y0079544D02*
X-0203567D01*
X-0203456Y0079766D01*
X-0203400D01*
Y0079433D01*
X-0203838Y0079599D02*
X-0203754Y0079433D01*
X-0203977Y0079599D02*
X-0203810D01*
X-0203754Y0079655D01*
Y0079710D01*
X-0203810Y0079766D01*
X-0203977D01*
Y0079433D01*
X-0204359D02*
Y0079766D01*
X-0204387Y0079433D02*
X-0204220D01*
X-0204164Y0079488D01*
Y0079544D01*
X-0204192Y0079599D01*
X-0204359D02*
X-0204192D01*
X-0204164Y0079655D01*
Y0079710D01*
X-0204220Y0079766D01*
X-0204387D01*
X-0206542Y0077762D02*
X-0206570Y0077817D01*
X-0206737D01*
X-0206764Y0077762D01*
Y0077651D01*
X-0206709Y0077595D01*
X-0206542D01*
Y0077484D01*
X-0206764D01*
X-0206160Y0077817D02*
Y0077484D01*
X-0206132Y0077817D02*
X-0206299D01*
X-0206354Y0077706D01*
Y0077595D01*
X-0206299Y0077484D01*
X-0206132D01*
X-0198433Y0085012D02*
X-0198461Y0085067D01*
X-0198628D01*
X-0198655Y0085012D01*
Y0084901D01*
X-0198600Y0084845D01*
X-0198433D01*
Y0084734D01*
X-0198655D01*
X-0198162Y0084901D02*
X-0198245Y0085067D01*
X-0198023Y0084901D02*
X-0198190D01*
X-0198245Y0084845D01*
Y0084789D01*
X-0198190Y0084734D01*
X-0198023D01*
Y0085067D01*
X-0197641D02*
Y0084734D01*
X-0197613Y0085067D02*
X-0197780D01*
X-0197835Y0085012D01*
Y0084956D01*
X-0197808Y0084901D01*
X-0197641D02*
X-0197808D01*
X-0197835Y0084845D01*
Y0084789D01*
X-0197780Y0084734D01*
X-0197613D01*
X-0207618Y0078987D02*
X-0207674Y0079042D01*
X-0207785D01*
X-0207840Y0078987D01*
Y0078931D01*
X-0207729Y0078820D01*
X-0207840Y0078709D01*
X-0207618D01*
X-0207319Y0078931D02*
X-0207430Y0079042D01*
X-0207208Y0078987D02*
X-0207236Y0079042D01*
X-0207347D01*
X-0207375Y0078987D01*
X-0207430Y0078931D01*
Y0078764D01*
X-0207403Y0078709D01*
X-0207236D01*
X-0207208Y0078764D01*
Y0078987D01*
X-0204942Y0087610D02*
Y0087833D01*
X-0204720Y0087610D01*
X-0204664D01*
X-0204609Y0087638D01*
Y0087805D01*
X-0204664Y0087833D01*
X-0204887Y0088020D02*
X-0204942Y0088048D01*
Y0088215D01*
X-0204887Y0088243D01*
X-0204664D01*
X-0204609Y0088215D01*
Y0088048D01*
X-0204664Y0088020D01*
X-0212363Y0077521D02*
X-0212308Y0077549D01*
Y0077716D01*
X-0212363Y0077744D01*
X-0212474D01*
X-0212530Y0077688D01*
Y0077521D01*
X-0212641D01*
Y0077744D01*
X-0212308Y0077334D02*
Y0077223D01*
Y0077278D02*
X-0212641D01*
X-0212585Y0077223D01*
X-0212474Y0076896D02*
X-0212308Y0076979D01*
X-0212474Y0076757D02*
Y0076924D01*
X-0212530Y0076979D01*
X-0212585D01*
X-0212641Y0076924D01*
Y0076757D01*
X-0212308D01*
X-0202423Y0076363D02*
X-0202367Y0076308D01*
X-0202256D01*
X-0202200Y0076363D01*
Y0076419D01*
X-0202312Y0076530D01*
X-0202200Y0076641D01*
X-0202423D01*
X-0202610Y0076308D02*
X-0202833D01*
X-0202610Y0076530D01*
Y0076585D01*
X-0202638Y0076641D01*
X-0202805D01*
X-0202833Y0076585D01*
X-0203104Y0076474D02*
X-0203020Y0076308D01*
X-0203243Y0076474D02*
X-0203076D01*
X-0203020Y0076530D01*
Y0076585D01*
X-0203076Y0076641D01*
X-0203243D01*
Y0076308D01*
X-0208930Y0079349D02*
X-0208763D01*
X-0208735Y0079294D01*
Y0079238D01*
X-0208763Y0079183D01*
X-0208930D01*
X-0208958Y0079238D01*
Y0079294D01*
X-0208847Y0079516D01*
X-0209340Y0079183D02*
Y0079516D01*
X-0209368Y0079183D02*
X-0209201D01*
X-0209145Y0079294D01*
Y0079405D01*
X-0209201Y0079516D01*
X-0209368D01*
X-0207250Y0086000D02*
Y0084500D01*
X-0209750D01*
Y0086000D01*
X-0207250D01*
X-0211875Y0079250D02*
X-0211625D01*
Y0081750D01*
X-0211875D01*
X-0206225Y0079895D02*
Y0079595D01*
X-0205965D01*
X-0207785D02*
X-0207525D01*
Y0079895D01*
X-0207475D01*
X-0212000Y0082625D02*
Y0082375D01*
X-0209500D01*
Y0082625D01*
Y0083375D02*
Y0083625D01*
X-0212000D01*
Y0083375D01*
X-0197750Y0072750D02*
Y0077750D01*
X-0209750D01*
Y0072750D01*
X-0197750D01*
X-0208725Y0079895D02*
Y0079595D01*
X-0208465D01*
X-0206250Y0077125D02*
X-0205250D01*
X-0204750D01*
Y0073375D01*
X-0206750D01*
Y0077125D01*
X-0206250D01*
Y0076875D01*
X-0205250D01*
Y0077125D01*
X-0212625Y0081750D02*
X-0212875D01*
Y0079250D01*
X-0212625D01*
X-0204000Y0078250D02*
X-0198000D01*
Y0079250D01*
X-0204000D01*
Y0078250D01*
X-0204050Y0078200D01*
X-0198000Y0086250D02*
X-0204000D01*
Y0085250D01*
X-0198000D01*
Y0086250D01*
X-0197950Y0086300D01*
X-0205285Y0079595D02*
X-0205025D01*
Y0079895D01*
X-0204975D01*
X-0206625Y0078750D02*
X-0206875D01*
X-0212625Y0078500D02*
X-0212875D01*
Y0076000D01*
X-0212625D01*
X-0211125Y0081875D02*
X-0211625D01*
Y0075125D01*
X-0211125D01*
X-0210375D02*
X-0209875D01*
Y0081875D01*
X-0210375D01*
X-0203500Y0075125D02*
Y0074875D01*
X-0201000D01*
Y0075125D01*
Y0075875D02*
Y0076125D01*
X-0203500D01*
Y0075875D01*
X-0208625Y0078750D02*
X-0208875D01*
Y0078250D02*
X-0208625D01*
X-0196000Y0078000D02*
Y0084000D01*
X-0197000D01*
Y0078000D01*
X-0196000D01*
X-0195950Y0077950D01*
X-0206875Y0078250D02*
X-0206625D01*
X-0211875Y0076000D02*
X-0211625D01*
Y0078500D01*
X-0211875D01*
G01X-0204000Y0088250D02*
G03X-0205000Y0087250I0000000J0001000D01*
G03X-0204000Y0086250I0001000J0000000D01*
G03X-0203000Y0087250I0000000J0001000D01*
G03X-0204000Y0088250I0001000J0000000D01*
G01X-0206000D02*
G03X-0207000Y0087250I0000000J0001000D01*
G03X-0206000Y0086250I0001000J0000000D01*
G03X-0205000Y0087250I0000000J0001000D01*
G03X-0206000Y0088250I0001000J0000000D01*
G54D50*
G01X-0198499Y0083048D02*
Y0082881D01*
X-0198555Y0082853D01*
X-0198610D01*
X-0198666Y0082881D01*
Y0083048D01*
X-0198610Y0083075D01*
X-0198555D01*
X-0198333Y0082964D01*
X-0198499Y0082622D02*
X-0198333Y0082705D01*
X-0198499Y0082483D02*
Y0082650D01*
X-0198555Y0082705D01*
X-0198610D01*
X-0198666Y0082650D01*
Y0082483D01*
X-0198333D01*
X-0205001Y0082388D02*
Y0082555D01*
X-0204945Y0082582D01*
X-0204889D01*
X-0204834Y0082555D01*
Y0082388D01*
X-0204889Y0082360D01*
X-0204945D01*
X-0205167Y0082471D01*
Y0082730D02*
Y0082841D01*
Y0082786D02*
X-0204834D01*
X-0204889Y0082841D01*
X-0205001Y0083128D02*
X-0205167Y0083044D01*
X-0205001Y0083267D02*
Y0083100D01*
X-0204945Y0083044D01*
X-0204889D01*
X-0204834Y0083100D01*
Y0083267D01*
X-0205167D01*
X-0201575Y0085806D02*
X-0201353D01*
X-0201464Y0085584D01*
X-0201520D01*
Y0085917D01*
X-0201205Y0085862D02*
X-0201178Y0085917D01*
X-0201011D01*
X-0200983Y0085862D01*
Y0085639D01*
X-0201011Y0085584D01*
X-0201178D01*
X-0201205Y0085639D01*
X-0197167Y0081341D02*
X-0196834Y0081174D01*
Y0081397D01*
X-0197001Y0081628D02*
X-0197167Y0081544D01*
X-0197001Y0081767D02*
Y0081600D01*
X-0196945Y0081544D01*
X-0196889D01*
X-0196834Y0081600D01*
Y0081767D01*
X-0197167D01*
X-0202249Y0081881D02*
Y0082048D01*
X-0202194Y0082075D01*
X-0202138D01*
X-0202083Y0082048D01*
Y0081881D01*
X-0202138Y0081853D01*
X-0202194D01*
X-0202416Y0081964D01*
X-0202138Y0081705D02*
X-0202083Y0081678D01*
Y0081511D01*
X-0202138Y0081483D01*
X-0202360D01*
X-0202416Y0081511D01*
Y0081678D01*
X-0202360Y0081705D01*
X-0201834Y0084417D02*
X-0201723D01*
X-0201779D02*
Y0084084D01*
X-0201723Y0084139D01*
X-0201520Y0084417D02*
X-0201409D01*
X-0201464D02*
Y0084084D01*
X-0201409Y0084139D01*
X-0201205Y0084362D02*
X-0201178Y0084417D01*
X-0201011D01*
X-0200983Y0084362D01*
Y0084139D01*
X-0201011Y0084084D01*
X-0201178D01*
X-0201205Y0084139D01*
X-0207388Y0084103D02*
X-0207333Y0084131D01*
Y0084298D01*
X-0207388Y0084325D01*
X-0207499D01*
X-0207555Y0084270D01*
Y0084103D01*
X-0207666D01*
Y0084325D01*
X-0207388Y0083955D02*
X-0207333Y0083928D01*
Y0083761D01*
X-0207388Y0083733D01*
X-0207610D01*
X-0207666Y0083761D01*
Y0083928D01*
X-0207610Y0083955D01*
X-0204247Y0085204D02*
Y0085427D01*
X-0204025Y0085204D01*
X-0203969D01*
X-0203914Y0085232D01*
Y0085399D01*
X-0203969Y0085427D01*
X-0204247Y0085769D02*
X-0203914D01*
X-0204247Y0085797D02*
Y0085630D01*
X-0204136Y0085574D01*
X-0204025D01*
X-0203914Y0085630D01*
Y0085797D01*
X-0208138Y0086353D02*
X-0208083Y0086409D01*
Y0086520D01*
X-0208138Y0086575D01*
X-0208194D01*
X-0208305Y0086464D01*
X-0208416Y0086575D01*
Y0086353D01*
X-0208138Y0086205D02*
X-0208083Y0086178D01*
Y0086011D01*
X-0208138Y0085983D01*
X-0208360D01*
X-0208416Y0086011D01*
Y0086178D01*
X-0208360Y0086205D01*
X-0206167Y0082443D02*
X-0206112Y0082499D01*
X-0206056Y0082527D01*
X-0205945D01*
X-0205889Y0082499D01*
X-0205834Y0082443D01*
Y0082388D01*
X-0205889Y0082332D01*
X-0205945Y0082304D01*
X-0206056D01*
X-0206112Y0082332D01*
X-0206167Y0082388D01*
Y0082443D01*
Y0082674D02*
Y0082897D01*
X-0205945Y0082674D01*
X-0205889D01*
X-0205834Y0082702D01*
Y0082869D01*
X-0205889Y0082897D01*
X-0206001Y0083128D02*
X-0206167Y0083044D01*
X-0206001Y0083267D02*
Y0083100D01*
X-0205945Y0083044D01*
X-0205889D01*
X-0205834Y0083100D01*
Y0083267D01*
X-0206167D01*
X-0207050Y0088000D02*
Y0085800D01*
X-0207950D01*
Y0088000D01*
X-0207050D01*
X-0197300Y0084500D02*
Y0082300D01*
X-0198200D01*
Y0084500D01*
X-0197300D01*
X-0206200Y0081250D02*
Y0083450D01*
X-0205300D01*
Y0081250D01*
X-0206200D01*
X-0203000Y0086950D02*
X-0200800D01*
Y0086050D01*
X-0203000D01*
Y0086950D01*
X-0198200Y0079750D02*
Y0081950D01*
X-0197300D01*
Y0079750D01*
X-0198200D01*
X-0201050Y0083500D02*
Y0081300D01*
X-0201950D01*
Y0083500D01*
X-0201050D01*
X-0203000Y0085450D02*
X-0200800D01*
Y0084550D01*
X-0203000D01*
Y0085450D01*
X-0206300Y0085750D02*
Y0083550D01*
X-0207200D01*
Y0085750D01*
X-0206300D01*
X-0204800Y0085470D02*
Y0085730D01*
X-0205100D01*
Y0085780D01*
Y0084530D02*
X-0204800D01*
Y0084790D01*
X-0207200Y0081250D02*
Y0083450D01*
X-0206300D01*
Y0081250D01*
X-0207200D01*
M02*
