*
G04 Mass Parameters ***
*
G04 Image ***
*
%INC:\PROJECTS\ORCAD\SWITCH\SWITCH.BOT*%
%ICAS*%
%MOIN*%
%IPPOS*%
%ASAXBY*%
G74*%FSLAN2X34Y34*%
*
G04 Aperture Definitions ***
*
%ADD10C,0.1240*%
%ADD11R,0.0650X0.0650*%
%ADD12R,0.0600X0.0600*%
%ADD13R,0.0800X0.1160*%
%ADD14C,0.0620*%
%ADD15C,0.0550*%
%ADD16C,0.0197*%
%ADD17C,0.0100*%
%ADD18C,0.0120*%
%ADD19C,0.0394*%
%ADD20C,0.0500*%
%ADD21C,0.0250*%
%ADD22R,0.0500X0.0340*%
%ADD23R,0.0400X0.0340*%
%ADD24O,0.0250X0.0940*%
%ADD25R,0.0250X0.0940*%
%ADD26C,0.0039*%
*
G04 Plot Data ***
*
G54D16*
G01X-0044250Y0037450D02*
Y0038150D01*
X-0043550D01*
X-0043500Y0038260D02*
Y0038200D01*
X-0043527D01*
X-0043550Y0038150D02*
X-0044250D01*
Y0037450D01*
X-0043550Y0038150D02*
X-0044250D01*
Y0037450D01*
X-0049000Y0035500D02*
X-0048900Y0035600D01*
X-0048400D01*
X-0048300Y0035700D01*
X-0048250Y0035850D01*
Y0036750D02*
Y0035850D01*
X-0049000Y0035500D02*
X-0049100D01*
Y0035400D01*
X-0049600Y0034900D01*
Y0031491D01*
X-0046800Y0039500D02*
X-0046700D01*
X-0046100Y0038900D01*
X-0045600D01*
X-0044900Y0038200D01*
X-0043527D01*
X-0048350Y0034250D02*
X-0048790D01*
X-0049000Y0034200D01*
X-0050100Y0038400D02*
X-0051900Y0040200D01*
X-0048200Y0032807D02*
Y0033300D01*
G54D17*
G01X-0042050Y0039659D02*
Y0039250D01*
X-0043002Y0039006D02*
X-0042748Y0038752D01*
X-0042494Y0038498D02*
X-0042748Y0038752D01*
X-0043002Y0038498D02*
X-0042748Y0038752D01*
X-0042494Y0039006D02*
X-0042748Y0038752D01*
X-0042541Y0037250D02*
X-0042950D01*
Y0037659D02*
Y0037250D01*
X-0042459Y0038250D02*
X-0042050D01*
Y0037841D02*
Y0038250D01*
Y0038659D02*
Y0038250D01*
X-0042459Y0037250D02*
X-0042050D01*
Y0037659D02*
Y0037250D01*
X-0043170Y0039845D02*
X-0043579D01*
Y0039435D02*
Y0039845D01*
X-0042459Y0039250D02*
X-0042050D01*
Y0038841D02*
Y0039250D01*
G54D18*
G01X-0044250Y0037250D02*
X-0044200Y0037400D01*
X-0044250Y0037450D01*
Y0037250D01*
X-0049285Y0031191D02*
X-0049493Y0031399D01*
Y0032607D01*
X-0049285D01*
X-0044250Y0037450D02*
Y0037250D01*
X-0049600Y0031491D02*
X-0049285Y0031191D01*
X-0044250Y0037250D02*
X-0044200Y0037200D01*
X-0043800D01*
X-0043300Y0036700D01*
Y0035700D01*
X-0043850Y0035150D01*
X-0043900D01*
X-0048700Y0040350D02*
X-0048650Y0040250D01*
X-0049550D01*
X-0042250Y0039250D02*
X-0042050D01*
X-0049000Y0034200D02*
X-0048500Y0034750D01*
X-0048240Y0033700D02*
Y0034140D01*
X-0048350Y0034250D01*
X-0043900Y0034150D02*
X-0044000Y0034250D01*
X-0044200D01*
X-0044800Y0034900D01*
X-0048240D01*
Y0033700D01*
X-0042050Y0039250D02*
X-0042250D01*
X-0045250Y0035850D02*
Y0037000D01*
X-0046750D02*
X-0046250Y0036500D01*
Y0035850D01*
X-0046750D02*
Y0035450D01*
X-0046500Y0035200D01*
X-0045000D01*
X-0044300Y0035900D01*
X-0044000D01*
Y0036050D01*
X-0043900Y0036150D01*
X-0045770Y0033690D02*
X-0045750Y0033670D01*
Y0032750D01*
X-0045240Y0033690D02*
X-0045250Y0033500D01*
Y0032750D01*
X-0045000Y0032500D01*
X-0050100Y0038100D02*
Y0038400D01*
X-0051900Y0040200D02*
Y0040171D01*
X-0047200Y0038100D02*
Y0038250D01*
X-0047400Y0038450D01*
Y0040350D01*
X-0048800Y0038100D02*
X-0048400D01*
X-0047500Y0037200D01*
Y0036600D01*
X-0047750Y0036350D01*
Y0035850D01*
X-0047250D02*
X-0047750D01*
X-0045750D02*
Y0038150D01*
X-0045800Y0038100D01*
X-0045900D01*
X-0046270Y0033690D02*
X-0046250Y0033500D01*
Y0032500D01*
X-0045500Y0031750D01*
X-0045000D01*
X-0043900Y0032150D02*
X-0044500Y0032800D01*
Y0033300D01*
X-0044750Y0033550D01*
Y0033950D01*
X-0045150Y0034400D01*
X-0047100D01*
X-0047270Y0034230D01*
Y0033700D01*
X-0043900Y0033150D02*
X-0044500Y0033800D01*
Y0034100D01*
X-0044800Y0034400D01*
Y0034408D01*
X-0045058Y0034650D01*
X-0047600D01*
X-0047750Y0034500D01*
Y0033700D01*
X-0046760Y0033690D02*
X-0046750Y0033500D01*
Y0032750D01*
X-0047950Y0031550D01*
Y0031226D01*
X-0047985Y0031191D01*
X-0047250Y0032250D02*
X-0047950Y0031550D01*
Y0031226D01*
X-0047985Y0031191D01*
X-0042050Y0037250D02*
X-0042000Y0037300D01*
Y0038250D02*
X-0042050D01*
X-0047985Y0032607D02*
X-0048200Y0032807D01*
Y0033300D02*
X-0048240Y0033700D01*
X-0049000Y0034200D02*
Y0034250D01*
X-0048500Y0034750D01*
X-0048240Y0033700D02*
X-0048200Y0034100D01*
X-0048240Y0034140D01*
Y0034900D01*
X-0044800D01*
X-0044200Y0034250D01*
X-0044000D01*
X-0043900Y0034150D01*
X-0048600Y0040450D02*
X-0048700Y0040350D01*
X-0043500Y0039900D02*
X-0043550D01*
X-0043579Y0039871D01*
Y0039845D01*
X-0042050Y0038250D02*
X-0042000Y0038300D01*
Y0039250D02*
X-0042050D01*
X-0040750D02*
X-0040800Y0040400D01*
X-0044290Y0038630D02*
Y0038790D01*
X-0040750Y0039250D02*
X-0040800Y0040400D01*
X-0040750Y0039250D02*
Y0040350D01*
X-0040800Y0040400D01*
G54D19*
G01X-0043550Y0038150D02*
X-0043527Y0038200D01*
X-0043500Y0038260D01*
X-0043527Y0038200D02*
X-0043550Y0038150D01*
X-0043500Y0038260D02*
X-0043527Y0038200D01*
X-0043550Y0038150D01*
X-0046900Y0039500D02*
X-0046800D01*
X-0043527Y0038200D02*
X-0043500Y0038260D01*
Y0039000D02*
X-0042640D01*
X-0042788Y0038752D01*
X-0042250Y0039250D01*
X-0042748Y0038752D01*
X-0042000Y0035050D02*
Y0035750D01*
X-0041000Y0035050D02*
X-0042000D01*
X-0041000Y0033750D02*
X-0042000D01*
Y0033200D02*
Y0033750D01*
Y0037300D02*
Y0038250D01*
X-0042050Y0037250D02*
X-0042950D01*
X-0043500Y0039000D02*
Y0039900D01*
X-0042000Y0038300D02*
Y0039250D01*
X-0040800Y0040400D02*
X-0040900Y0040500D01*
X-0044300D01*
X-0044900Y0039900D01*
X-0044850D01*
X-0044879Y0039871D01*
Y0039845D01*
X-0044290Y0038790D02*
X-0044850Y0039350D01*
Y0039815D01*
X-0044879Y0039845D01*
X-0040750Y0038250D02*
Y0037250D01*
Y0039250D02*
Y0038250D01*
X-0040800Y0040400D02*
Y0039300D01*
X-0040750Y0039250D01*
G54D26*
G01X-0042490Y0039053D02*
X-0042500D01*
X-0042490Y0039088D02*
X-0042551D01*
X-0042490Y0039124D02*
X-0042631D01*
X-0042000Y0038699D02*
X-0042362D01*
X-0042490Y0037035D02*
X-0042510D01*
X-0043044Y0040000D02*
Y0039005D01*
X-0043009Y0040000D02*
Y0039041D01*
X-0042973Y0040000D02*
Y0039070D01*
X-0042938Y0040000D02*
Y0039092D01*
X-0042867Y0040000D02*
Y0039123D01*
X-0042832Y0040000D02*
Y0039132D01*
X-0042796Y0040000D02*
Y0039138D01*
X-0043160Y0038690D02*
X-0043250D01*
X-0042088Y0037810D02*
Y0037690D01*
X-0042490Y0039407D02*
X-0043140D01*
X-0042490Y0037885D02*
X-0043250D01*
X-0043160Y0038570D02*
Y0037950D01*
X-0043840Y0039310D02*
Y0039250D01*
X-0043160Y0039310D02*
Y0038690D01*
Y0039310D02*
X-0043840D01*
X-0042510Y0037690D02*
Y0037000D01*
X-0042865Y0038380D02*
X-0043160D01*
X-0043115Y0040000D02*
Y0038883D01*
X-0042490Y0038460D02*
Y0037810D01*
X-0042000D02*
X-0042490D01*
Y0037690D02*
Y0037000D01*
X-0042000Y0037690D02*
X-0042490D01*
X-0043140Y0039405D02*
X-0044000D01*
X-0042490Y0039690D02*
Y0039044D01*
X-0043140Y0040000D02*
Y0039405D01*
X-0042490Y0038380D02*
X-0042630D01*
X-0043127Y0038663D02*
X-0043250D01*
X-0043840Y0039250D02*
X-0044000D01*
X-0042159Y0037810D02*
Y0037690D01*
X-0044000Y0039405D02*
Y0039250D01*
X-0042510Y0037690D02*
X-0043250D01*
X-0042000Y0037810D02*
Y0037690D01*
X-0042018Y0037810D02*
Y0037690D01*
X-0042053Y0037810D02*
Y0037690D01*
X-0042124Y0037810D02*
Y0037690D01*
X-0043894Y0039405D02*
Y0039250D01*
X-0042195Y0037810D02*
Y0037690D01*
X-0042230Y0037810D02*
Y0037690D01*
X-0042265Y0037810D02*
Y0037690D01*
X-0042301Y0037810D02*
Y0037690D01*
X-0042336Y0037810D02*
Y0037690D01*
X-0042372Y0037810D02*
Y0037690D01*
X-0042490Y0037000D02*
X-0042510D01*
X-0042513Y0038441D02*
Y0037690D01*
X-0042549Y0038417D02*
Y0037690D01*
X-0042584Y0038398D02*
Y0037690D01*
X-0042619Y0038384D02*
Y0037690D01*
X-0042655Y0038373D02*
Y0037690D01*
X-0042690Y0038366D02*
Y0037690D01*
X-0042726Y0038363D02*
Y0037690D01*
X-0042761Y0038362D02*
Y0037690D01*
X-0042796Y0038365D02*
Y0037690D01*
X-0042832Y0038371D02*
Y0037690D01*
X-0042867Y0038381D02*
Y0037690D01*
X-0042903Y0038394D02*
Y0037690D01*
X-0042938Y0038412D02*
Y0037690D01*
X-0042973Y0038434D02*
Y0037690D01*
X-0043009Y0038462D02*
Y0037690D01*
X-0043044Y0038499D02*
Y0037690D01*
X-0042000Y0040000D02*
X-0043140D01*
X-0043150Y0039405D02*
Y0037690D01*
X-0042490Y0037956D02*
X-0043160D01*
X-0043250Y0037950D02*
Y0037690D01*
X-0043186Y0037950D02*
Y0037690D01*
X-0043221Y0037950D02*
Y0037690D01*
X-0042490Y0037814D02*
X-0043250D01*
X-0042490Y0037071D02*
X-0042510D01*
X-0043964Y0039405D02*
Y0039250D01*
X-0042000Y0039973D02*
X-0043140D01*
X-0042000Y0039938D02*
X-0043140D01*
X-0042000Y0039902D02*
X-0043140D01*
X-0042000Y0039867D02*
X-0043140D01*
X-0042000Y0039832D02*
X-0043140D01*
X-0042000Y0039796D02*
X-0043140D01*
X-0042000Y0039761D02*
X-0043140D01*
X-0042407Y0037810D02*
Y0037690D01*
X-0042000Y0039725D02*
X-0043140D01*
X-0042490Y0039655D02*
X-0043140D01*
X-0042490Y0039619D02*
X-0043140D01*
X-0042490Y0039584D02*
X-0043140D01*
X-0042490Y0039548D02*
X-0043140D01*
X-0042490Y0039513D02*
X-0043140D01*
X-0042490Y0039478D02*
X-0043140D01*
X-0042490Y0039442D02*
X-0043140D01*
X-0042000Y0039690D02*
X-0043140D01*
X-0042490Y0039371D02*
X-0044000D01*
X-0043858Y0039405D02*
Y0039250D01*
X-0043840Y0039301D02*
X-0044000D01*
X-0042490Y0039336D02*
X-0044000D01*
X-0042000Y0038805D02*
X-0042362D01*
X-0042490Y0037849D02*
X-0043250D01*
X-0042000Y0038770D02*
X-0042359D01*
X-0042000Y0038734D02*
X-0042359D01*
X-0042478Y0037810D02*
Y0037690D01*
X-0043134Y0038699D02*
X-0043160D01*
X-0042000Y0038690D02*
X-0042363D01*
X-0043160Y0038570D02*
X-0043250D01*
X-0042000Y0037779D02*
X-0043250D01*
X-0042000Y0037743D02*
X-0043250D01*
X-0042490Y0038416D02*
X-0042551D01*
X-0043840Y0039265D02*
X-0044000D01*
X-0042000Y0037708D02*
X-0043250D01*
X-0042513Y0040000D02*
Y0039063D01*
X-0042549Y0040000D02*
Y0039087D01*
X-0042584Y0040000D02*
Y0039105D01*
X-0042619Y0040000D02*
Y0039120D01*
X-0042655Y0040000D02*
Y0039130D01*
X-0042690Y0040000D02*
Y0039137D01*
X-0042726Y0040000D02*
Y0039141D01*
X-0042761Y0040000D02*
Y0039141D01*
X-0043160Y0037950D02*
X-0043250D01*
X-0042490Y0037920D02*
X-0043250D01*
X-0043080Y0038547D02*
Y0037690D01*
X-0043085Y0038557D02*
X-0043160D01*
X-0043062Y0038522D02*
X-0043160D01*
X-0043033Y0038486D02*
X-0043160D01*
X-0042996Y0038451D02*
X-0043160D01*
X-0042945Y0038416D02*
X-0043160D01*
X-0042490Y0038345D02*
X-0043160D01*
X-0042490Y0038309D02*
X-0043160D01*
X-0042490Y0038274D02*
X-0043160D01*
X-0042490Y0038239D02*
X-0043160D01*
X-0042490Y0038203D02*
X-0043160D01*
X-0042490Y0038168D02*
X-0043160D01*
X-0042490Y0038133D02*
X-0043160D01*
X-0042490Y0038097D02*
X-0043160D01*
X-0042490Y0038062D02*
X-0043160D01*
X-0042490Y0038026D02*
X-0043160D01*
X-0042490Y0037991D02*
X-0043160D01*
X-0043186Y0039405D02*
Y0039310D01*
X-0043221Y0039405D02*
Y0039310D01*
X-0043257Y0039405D02*
Y0039310D01*
X-0043292Y0039405D02*
Y0039310D01*
X-0043327Y0039405D02*
Y0039310D01*
X-0043363Y0039405D02*
Y0039310D01*
X-0043398Y0039405D02*
Y0039310D01*
X-0043434Y0039405D02*
Y0039310D01*
X-0043469Y0039405D02*
Y0039310D01*
X-0043504Y0039405D02*
Y0039310D01*
X-0043540Y0039405D02*
Y0039310D01*
X-0043575Y0039405D02*
Y0039310D01*
X-0043610Y0039405D02*
Y0039310D01*
X-0043646Y0039405D02*
Y0039310D01*
X-0043681Y0039405D02*
Y0039310D01*
X-0043717Y0039405D02*
Y0039310D01*
X-0043752Y0039405D02*
Y0039310D01*
X-0043787Y0039405D02*
Y0039310D01*
X-0043823Y0039405D02*
Y0039310D01*
X-0042490Y0039301D02*
X-0043160D01*
X-0042490Y0039265D02*
X-0043160D01*
X-0042490Y0039230D02*
X-0043160D01*
X-0042490Y0039194D02*
X-0043160D01*
X-0042490Y0039159D02*
X-0043160D01*
X-0042490Y0038451D02*
X-0042500D01*
X-0042865Y0039124D02*
X-0043160D01*
X-0042945Y0039088D02*
X-0043160D01*
X-0042995Y0039053D02*
X-0043160D01*
X-0043033Y0039017D02*
X-0043160D01*
X-0043062Y0038982D02*
X-0043160D01*
X-0043085Y0038947D02*
X-0043160D01*
X-0043103Y0038911D02*
X-0043160D01*
X-0043117Y0038876D02*
X-0043160D01*
X-0043127Y0038840D02*
X-0043160D01*
X-0043134Y0038805D02*
X-0043160D01*
X-0043137Y0038770D02*
X-0043160D01*
X-0043137Y0038734D02*
X-0043160D01*
X-0042490Y0037672D02*
X-0042510D01*
X-0042490Y0037637D02*
X-0042510D01*
X-0042490Y0037602D02*
X-0042510D01*
X-0042490Y0037566D02*
X-0042510D01*
X-0042490Y0037531D02*
X-0042510D01*
X-0042490Y0037495D02*
X-0042510D01*
X-0042490Y0037460D02*
X-0042510D01*
X-0042490Y0037425D02*
X-0042510D01*
X-0042490Y0037389D02*
X-0042510D01*
X-0042490Y0037354D02*
X-0042510D01*
X-0042490Y0037318D02*
X-0042510D01*
X-0042490Y0037283D02*
X-0042510D01*
X-0042490Y0037248D02*
X-0042510D01*
X-0042490Y0037212D02*
X-0042510D01*
X-0042490Y0037177D02*
X-0042510D01*
X-0042490Y0037141D02*
X-0042510D01*
X-0042490Y0037106D02*
X-0042510D01*
X-0042000Y0038810D02*
Y0038690D01*
X-0043080Y0040000D02*
Y0038956D01*
X-0042018Y0038810D02*
Y0038690D01*
X-0042053Y0038810D02*
Y0038690D01*
X-0042088Y0038810D02*
Y0038690D01*
X-0042124Y0038810D02*
Y0038690D01*
X-0042159Y0038810D02*
Y0038690D01*
X-0042195Y0038810D02*
Y0038690D01*
X-0042230Y0038810D02*
Y0038690D01*
X-0042265Y0038810D02*
Y0038690D01*
X-0042301Y0038810D02*
Y0038690D01*
X-0042336Y0038810D02*
Y0038690D01*
X-0043115Y0038621D02*
Y0037690D01*
X-0042000Y0040000D02*
Y0039690D01*
X-0042018Y0040000D02*
Y0039690D01*
X-0042053Y0040000D02*
Y0039690D01*
X-0042088Y0040000D02*
Y0039690D01*
X-0042124Y0040000D02*
Y0039690D01*
X-0042159Y0040000D02*
Y0039690D01*
X-0042000D02*
X-0042490D01*
X-0042230Y0040000D02*
Y0039690D01*
X-0042265Y0040000D02*
Y0039690D01*
X-0042301Y0040000D02*
Y0039690D01*
X-0042336Y0040000D02*
Y0039690D01*
X-0042372Y0040000D02*
Y0039690D01*
X-0042407Y0040000D02*
Y0039690D01*
X-0042442Y0040000D02*
Y0039690D01*
X-0042195Y0040000D02*
Y0039690D01*
X-0042442Y0037810D02*
Y0037690D01*
X-0043929Y0039405D02*
Y0039250D01*
X-0043117Y0038628D02*
X-0043250D01*
X-0043104Y0038593D02*
X-0043250D01*
X-0042903Y0040000D02*
Y0039109D01*
X-0043221Y0038690D02*
Y0038570D01*
X-0043186Y0038690D02*
Y0038570D01*
X-0043250Y0038690D02*
Y0038570D01*
X-0042000Y0038810D02*
X-0042363D01*
X-0042478Y0040000D02*
Y0039690D01*
G01X-0043138Y0038752D02*
G03X-0042748Y0038362I0000390J0000000D01*
Y0039142D02*
G03X-0043138Y0038752I0000000J0000390D01*
G01X-0042358D02*
G03X-0042363Y0038810I0000390J0000000D01*
G01X-0042748Y0038362D02*
G03X-0042490Y0038460I0000000J0000390D01*
G01X-0042363Y0038690D02*
G03X-0042358Y0038752I0000385J0000062D01*
G01X-0042490Y0039044D02*
G03X-0042748Y0039142I0000258J0000292D01*
G54D10*
X-0038075Y0030601D03*
Y0040601D03*
X-0037075Y0035601D03*
X-0039075D03*
G54D11*
X-0043900Y0035150D03*
Y0036150D03*
Y0034150D03*
Y0033150D03*
Y0032150D03*
Y0031150D03*
G54D12*
X-0045900Y0038100D03*
X-0047200D03*
X-0042000Y0033750D03*
Y0035050D03*
X-0050100Y0038100D03*
X-0048800D03*
X-0049285Y0031191D03*
X-0047985D03*
X-0047400Y0040350D03*
X-0048700D03*
X-0049285Y0032607D03*
X-0047985D03*
X-0044250Y0037250D03*
X-0042950D03*
X-0049000Y0035500D03*
Y0034200D03*
X-0041000Y0033750D03*
Y0035050D03*
X-0040750Y0038250D03*
X-0042050D03*
X-0040750Y0037250D03*
X-0042050D03*
X-0044879Y0039845D03*
X-0043579D03*
X-0040750Y0039250D03*
X-0042050D03*
G54D14*
X-0051900Y0038400D03*
Y0040171D03*
X-0054459D03*
Y0038400D03*
G54D15*
X-0039727Y0030562D03*
Y0031427D03*
Y0033119D03*
Y0032253D03*
Y0036737D03*
Y0033945D03*
X-0039766Y0039019D03*
Y0039884D03*
X-0040750Y0031000D03*
X-0040800Y0032550D03*
G54D20*
X-0048250Y0036750D03*
X-0046900Y0039500D03*
X-0049550Y0040250D03*
X-0042748Y0038752D03*
X-0045250Y0037000D03*
X-0046750D03*
X-0042000Y0035750D03*
X-0045750Y0032750D03*
X-0045000Y0032500D03*
X-0042000Y0033200D03*
X-0045000Y0031750D03*
X-0047250Y0032250D03*
X-0048500Y0034750D03*
X-0040800Y0040400D03*
G54D22*
X-0044290Y0038630D03*
G54D23*
X-0043500Y0039000D03*
Y0038260D03*
G54D24*
X-0047750Y0035850D03*
X-0047250D03*
X-0046750D03*
X-0046250D03*
X-0045750D03*
X-0045250D03*
X-0045240Y0033690D03*
X-0045770D03*
X-0046270D03*
X-0046760D03*
X-0047270Y0033700D03*
X-0047750D03*
X-0048240D03*
G54D25*
X-0048250Y0035850D03*
M02*
