*
G04 Mass Parameters ***
*
G04 Image ***
*
%INC:\PROJECTS\ORCAD\SWITCH\SWITCH.TOP*%
%ICAS*%
%MOIN*%
%IPPOS*%
%ASAXBY*%
G74*%FSLAN2X34Y34*%
*
G04 Aperture Definitions ***
*
%ADD10C,0.1240*%
%ADD11R,0.0650X0.0650*%
%ADD12R,0.0600X0.0600*%
%ADD13R,0.0800X0.1160*%
%ADD14C,0.0620*%
%ADD15C,0.0550*%
%ADD16C,0.0197*%
%ADD17C,0.0100*%
%ADD18C,0.0120*%
%ADD19C,0.0394*%
%ADD20C,0.0500*%
%ADD21C,0.0250*%
*
G04 Plot Data ***
*
G54D16*
G01X-0048000Y0038000D02*
Y0037250D01*
X-0048250Y0037000D01*
X-0048500Y0034250D02*
X-0048750D01*
Y0032500D01*
X-0049500Y0031750D01*
X-0046250Y0032697D02*
X-0047110D01*
X-0046250Y0033250D02*
Y0031750D01*
X-0047241Y0031782D02*
Y0031750D01*
X-0044250Y0033250D02*
Y0030750D01*
X-0043500D02*
X-0044250D01*
X-0043500Y0037750D02*
Y0030750D01*
X-0042000Y0037750D02*
X-0043500D01*
X-0043006Y0038361D02*
X-0044457D01*
X-0042000Y0040750D02*
X-0050250D01*
X-0050073D02*
Y0038543D01*
X-0048457Y0037457D02*
X-0048543D01*
X-0048834D02*
Y0037084D01*
X-0048480Y0034282D02*
Y0031750D01*
X-0046468Y0040018D02*
Y0039681D01*
X-0043500Y0036591D02*
X-0043972D01*
X-0046028Y0034644D02*
X-0048044D01*
X-0042639Y0038296D02*
Y0037750D01*
X-0042816Y0038288D02*
Y0037750D01*
X-0043170Y0038549D02*
Y0037750D01*
X-0043347Y0040750D02*
Y0037750D01*
X-0043524Y0040750D02*
Y0030750D01*
X-0043701Y0040750D02*
Y0030750D01*
X-0044457Y0037850D02*
X-0044056Y0037449D01*
X-0044528Y0036365D02*
X-0045944Y0034949D01*
X-0043500Y0031458D02*
X-0044250D01*
X-0045294Y0040750D02*
Y0038543D01*
X-0043500Y0032520D02*
X-0044250D01*
X-0044409Y0035697D02*
Y0033250D01*
X-0045432Y0038982D02*
X-0045722D01*
X-0044055Y0036051D02*
Y0030750D01*
X-0049542Y0038982D02*
Y0038543D01*
X-0043500Y0033582D02*
X-0045472D01*
X-0048834Y0040750D02*
Y0038543D01*
X-0046250Y0032874D02*
X-0048750D01*
X-0046028Y0034750D02*
Y0033250D01*
X-0046887Y0031954D02*
Y0031750D01*
X-0047713Y0032180D02*
X-0047944Y0031949D01*
X-0046356Y0036747D02*
Y0031750D01*
X-0048768Y0039954D02*
X-0049032D01*
X-0047064Y0031820D02*
Y0031750D01*
X-0048317Y0037457D02*
X-0048457D01*
X-0042108Y0040750D02*
Y0040548D01*
X-0046250Y0032166D02*
X-0046789D01*
X-0048480Y0036342D02*
Y0035218D01*
X-0046250Y0032520D02*
X-0046867D01*
X-0049543Y0038543D02*
X-0050250D01*
X-0050068Y0039423D02*
X-0050250D01*
X-0048718Y0036768D02*
X-0048750D01*
X-0048303Y0040750D02*
Y0040018D01*
X-0046179Y0040750D02*
Y0040018D01*
X-0046732D02*
X-0047732D01*
X-0043500Y0037476D02*
X-0044082D01*
X-0050068Y0039954D02*
X-0050250D01*
X-0049896Y0038982D02*
Y0038543D01*
X-0042000Y0040662D02*
X-0049327D01*
X-0043500Y0035706D02*
X-0044400D01*
X-0046978Y0036591D02*
X-0047809D01*
X-0046457Y0037457D02*
X-0046543D01*
X-0047457D02*
X-0047543D01*
X-0049207D02*
X-0048750Y0037000D01*
X-0048415Y0038715D02*
X-0050250D01*
Y0040750D02*
Y0038543D01*
X-0049543Y0038538D02*
X-0050250D01*
X-0043878Y0040750D02*
Y0030750D01*
X-0047278Y0037457D02*
Y0037250D01*
X-0044850Y0037457D02*
X-0045147D01*
X-0046028Y0033759D02*
X-0048750D01*
X-0047278Y0037457D02*
X-0047457D01*
X-0048415Y0038543D02*
X-0048457D01*
X-0048542Y0037122D02*
X-0048872D01*
X-0047904Y0031989D02*
X-0049261D01*
X-0048697Y0035175D02*
X-0048750D01*
X-0049188Y0032062D02*
Y0031750D01*
X-0048126Y0036298D02*
Y0035032D01*
Y0034468D02*
Y0031750D01*
X-0045187Y0035706D02*
X-0048750D01*
X-0045895Y0034998D02*
X-0048103D01*
X-0046028Y0033936D02*
X-0048750D01*
X-0046028Y0033250D02*
X-0046250D01*
X-0046028Y0034113D02*
X-0048750D01*
X-0042000Y0038207D02*
Y0037750D01*
X-0045648Y0036753D02*
Y0035245D01*
X-0046710Y0036533D02*
Y0031750D01*
X-0046179Y0037457D02*
Y0033250D01*
X-0046250Y0032343D02*
X-0046791D01*
X-0049773Y0040662D02*
X-0050250D01*
X-0047709Y0032343D02*
X-0048907D01*
X-0043500Y0037299D02*
X-0043976D01*
X-0043215Y0038715D02*
X-0045722D01*
X-0042993Y0040750D02*
Y0039151D01*
X-0043500Y0033936D02*
X-0045472D01*
X-0042108Y0038207D02*
Y0037750D01*
X-0046250Y0031989D02*
X-0046861D01*
X-0044940Y0040750D02*
Y0038543D01*
X-0046250Y0033051D02*
X-0048750D01*
X-0042000Y0040548D02*
X-0042978D01*
X-0044232Y0035874D02*
Y0030750D01*
X-0043500Y0032874D02*
X-0044250D01*
X-0043500Y0034290D02*
X-0045472D01*
X-0046468Y0039777D02*
X-0046522D01*
X-0048657Y0040750D02*
Y0040018D01*
X-0050068Y0039246D02*
X-0050250D01*
X-0046468Y0039954D02*
X-0046732D01*
X-0047732Y0040018D02*
X-0047768D01*
X-0049957D02*
X-0050068D01*
X-0047772Y0040750D02*
Y0040018D01*
X-0049365Y0040750D02*
Y0040680D01*
X-0043500Y0032697D02*
X-0044250D01*
X-0049188Y0040750D02*
Y0040547D01*
X-0048768Y0039600D02*
X-0049032D01*
X-0046250Y0031812D02*
X-0047084D01*
X-0048028Y0031750D02*
X-0049500D01*
X-0049011Y0032239D02*
Y0031750D01*
X-0044763Y0035343D02*
Y0033250D01*
X-0046250Y0033228D02*
X-0048750D01*
X-0043500Y0037122D02*
X-0043972D01*
X-0043500Y0036060D02*
X-0044046D01*
X-0042639Y0040750D02*
Y0040548D01*
X-0045942Y0037299D02*
X-0046389D01*
X-0042293Y0038538D02*
X-0042331D01*
X-0045432Y0040018D02*
Y0038982D01*
Y0040018D02*
X-0046468D01*
X-0048415Y0038982D02*
Y0038543D01*
X-0047595Y0040750D02*
Y0040018D01*
X-0042000Y0038207D02*
X-0042293D01*
Y0038641D02*
Y0038207D01*
X-0043164Y0038538D02*
X-0044457D01*
X-0050068Y0040018D02*
Y0038982D01*
X-0049032D02*
X-0050068D01*
X-0049032Y0040018D02*
Y0038982D01*
X-0050015Y0040308D02*
X-0050250D01*
X-0048768Y0040018D02*
Y0038982D01*
X-0043195Y0038892D02*
X-0045722D01*
X-0048480Y0040750D02*
Y0040018D01*
X-0050003Y0040131D02*
X-0050250D01*
X-0047543Y0037457D02*
X-0047683D01*
X-0049457Y0038543D02*
X-0049543D01*
X-0048543D02*
X-0049457D01*
X-0044692Y0037299D02*
X-0044889D01*
X-0048457Y0038543D02*
X-0048543D01*
X-0049188Y0038982D02*
Y0038543D01*
X-0048676Y0036945D02*
X-0048750D01*
X-0042978Y0040548D02*
Y0039160D01*
X-0044763Y0040750D02*
Y0038543D01*
X-0044457D02*
X-0045457D01*
X-0044586Y0040750D02*
Y0038543D01*
X-0042000Y0037830D02*
X-0044436D01*
X-0044586Y0035520D02*
Y0033250D01*
X-0045457Y0038543D02*
X-0045543D01*
X-0044457D02*
Y0037850D01*
X-0043500Y0033759D02*
X-0045472D01*
X-0049011Y0037457D02*
Y0037261D01*
X-0049719Y0038982D02*
Y0038543D01*
X-0048657Y0036518D02*
Y0035191D01*
X-0048415Y0038982D02*
X-0048768D01*
X-0042462Y0040750D02*
Y0040548D01*
X-0043500Y0031281D02*
X-0044250D01*
X-0042285Y0040750D02*
Y0040548D01*
X-0048768Y0039777D02*
X-0049032D01*
X-0046732Y0040018D02*
Y0039937D01*
X-0045117Y0040750D02*
Y0038543D01*
X-0045722Y0038982D02*
Y0038543D01*
X-0045825Y0040750D02*
Y0040018D01*
X-0045648Y0040750D02*
Y0040018D01*
X-0043500Y0036768D02*
X-0043972D01*
X-0048500Y0034282D02*
Y0034250D01*
X-0049011Y0040750D02*
Y0038543D01*
X-0043500Y0037653D02*
X-0044259D01*
X-0042293Y0038952D02*
X-0042324D01*
X-0045117Y0036551D02*
Y0035776D01*
X-0042293Y0038952D02*
Y0038863D01*
Y0038361D02*
X-0042490D01*
X-0048576Y0036414D02*
X-0048750D01*
X-0045478Y0036591D02*
X-0046522D01*
X-0044528D02*
X-0045022D01*
X-0044528Y0036768D02*
X-0044843D01*
X-0045648Y0038982D02*
Y0038543D01*
X-0047319Y0031787D02*
X-0047356Y0031750D01*
X-0045294Y0036534D02*
Y0035599D01*
X-0042816Y0040750D02*
Y0040548D01*
X-0045765Y0037122D02*
X-0046298D01*
X-0043500Y0031104D02*
X-0044250D01*
X-0043170Y0040750D02*
Y0038955D01*
X-0047064Y0036652D02*
Y0032680D01*
X-0047241Y0037111D02*
Y0032718D01*
X-0044940Y0036649D02*
Y0035953D01*
X-0046533Y0037457D02*
Y0037415D01*
X-0046356Y0037457D02*
Y0037253D01*
X-0043093Y0039069D02*
X-0045432D01*
X-0045117Y0037457D02*
Y0037449D01*
X-0045825Y0037181D02*
Y0035068D01*
X-0042293Y0038892D02*
X-0042301D01*
X-0044940Y0037457D02*
Y0037351D01*
X-0044656Y0036237D02*
X-0048750D01*
X-0046019Y0034821D02*
X-0048037D01*
X-0045541Y0035352D02*
X-0048750D01*
X-0049365Y0031885D02*
Y0031750D01*
X-0043500Y0035529D02*
X-0044577D01*
X-0043500Y0031635D02*
X-0044250D01*
X-0046028Y0033582D02*
X-0048750D01*
X-0045715Y0036945D02*
X-0046285D01*
X-0046028Y0033405D02*
X-0048750D01*
X-0045718Y0035175D02*
X-0048303D01*
X-0042285Y0038207D02*
Y0037750D01*
X-0045657Y0036768D02*
X-0046343D01*
X-0043500Y0035883D02*
X-0044223D01*
X-0044940Y0035166D02*
Y0033250D01*
X-0046028Y0034467D02*
X-0048127D01*
X-0043500Y0034821D02*
X-0045285D01*
X-0043500Y0034998D02*
X-0045108D01*
X-0043500Y0035352D02*
X-0044754D01*
X-0046028Y0034290D02*
X-0048412D01*
X-0043500Y0031812D02*
X-0044250D01*
X-0043500Y0032343D02*
X-0044250D01*
X-0044232Y0040750D02*
Y0037625D01*
X-0042993Y0038353D02*
Y0037750D01*
X-0044055Y0040750D02*
Y0037448D01*
X-0049896Y0040750D02*
Y0040565D01*
X-0044833Y0036060D02*
X-0048750D01*
X-0045117Y0034989D02*
Y0033250D01*
X-0045471Y0034635D02*
Y0033250D01*
X-0043500Y0034644D02*
X-0045462D01*
X-0044528Y0037122D02*
X-0044798D01*
X-0043500Y0036414D02*
X-0043972D01*
X-0044528Y0037135D02*
Y0036365D01*
X-0043972Y0037250D02*
Y0036250D01*
X-0042000Y0038184D02*
X-0044457D01*
X-0045471Y0040750D02*
Y0040018D01*
X-0042000Y0038007D02*
X-0044457D01*
X-0044409Y0040750D02*
Y0037802D01*
X-0043500Y0036945D02*
X-0043972D01*
X-0045294Y0034812D02*
Y0033250D01*
X-0045364Y0035529D02*
X-0048750D01*
X-0043500Y0030927D02*
X-0044250D01*
X-0044850Y0037457D02*
X-0044528Y0037135D01*
X-0044056Y0036050D02*
X-0045472Y0034635D01*
X-0043500Y0033228D02*
X-0044250D01*
X-0043500Y0033405D02*
X-0045472D01*
X-0044528Y0036945D02*
X-0044785D01*
X-0048021Y0031812D02*
X-0049438D01*
X-0043500Y0031989D02*
X-0044250D01*
X-0045472Y0034635D02*
Y0033250D01*
X-0043500Y0035175D02*
X-0044931D01*
X-0046002Y0037358D02*
Y0034868D01*
X-0046100Y0037457D02*
X-0046457D01*
X-0043500Y0032166D02*
X-0044250D01*
X-0045471Y0036587D02*
Y0035422D01*
X-0044586Y0037192D02*
Y0036307D01*
X-0044763Y0037369D02*
Y0036130D01*
X-0045543Y0038543D02*
X-0045722D01*
X-0046250Y0031750D02*
X-0047356D01*
X-0049188Y0037457D02*
Y0037438D01*
X-0046887Y0036552D02*
Y0032546D01*
X-0047595Y0037457D02*
Y0032567D01*
X-0047418Y0037457D02*
Y0032687D01*
X-0046710Y0040750D02*
Y0039928D01*
X-0046887Y0040750D02*
Y0040018D01*
X-0047064Y0040750D02*
Y0040018D01*
X-0046533Y0040750D02*
Y0039791D01*
X-0047768Y0040018D02*
X-0048768D01*
X-0046002Y0040750D02*
Y0040018D01*
X-0048750Y0037000D02*
Y0035146D01*
X-0046533Y0036585D02*
Y0031750D01*
X-0043500Y0033051D02*
X-0044250D01*
X-0042000Y0040750D02*
Y0040548D01*
X-0050068Y0039600D02*
X-0050250D01*
X-0048657Y0038982D02*
Y0038543D01*
X-0050068Y0039777D02*
X-0050250D01*
X-0048768Y0039069D02*
X-0049032D01*
X-0042978Y0039246D02*
X-0045432D01*
X-0042978Y0039423D02*
X-0045432D01*
X-0047949Y0036391D02*
Y0031944D01*
Y0040750D02*
Y0040018D01*
X-0048480Y0038982D02*
Y0038543D01*
X-0042978Y0039600D02*
X-0045432D01*
X-0048126Y0040750D02*
Y0040018D01*
X-0042978Y0039777D02*
X-0045432D01*
X-0042978Y0039954D02*
X-0045432D01*
X-0048768Y0039246D02*
X-0049032D01*
X-0048768Y0039423D02*
X-0049032D01*
X-0046356Y0040750D02*
Y0040018D01*
X-0050068Y0039069D02*
X-0050250D01*
X-0047241Y0040750D02*
Y0040018D01*
X-0048303Y0036285D02*
Y0035175D01*
X-0048415Y0038982D02*
Y0038543D01*
X-0047418Y0040750D02*
Y0040018D01*
X-0047727Y0032166D02*
X-0049084D01*
X-0048480Y0037457D02*
Y0037217D01*
X-0047775Y0037026D02*
X-0047835Y0036967D01*
X-0047278Y0037299D02*
X-0047683D01*
X-0047247Y0037122D02*
X-0047710D01*
X-0048543Y0037457D02*
X-0049207D01*
X-0048657D02*
Y0036982D01*
X-0048317Y0037381D02*
X-0048474Y0037224D01*
X-0047772Y0037030D02*
Y0032121D01*
X-0048317Y0037457D02*
Y0037381D01*
X-0047683Y0037457D02*
Y0037250D01*
X-0049542Y0040750D02*
Y0040718D01*
X-0048690Y0036591D02*
X-0048750D01*
X-0044528Y0036414D02*
X-0047924D01*
X-0049955Y0040485D02*
X-0050250D01*
X-0048303Y0034325D02*
Y0031750D01*
X-0047633Y0032520D02*
X-0048750D01*
X-0048834Y0032416D02*
Y0031750D01*
X-0048657Y0034250D02*
Y0031750D01*
X-0045471Y0038982D02*
Y0038543D01*
X-0049365Y0038982D02*
Y0038543D01*
X-0047215Y0036945D02*
X-0047824D01*
X-0047157Y0036768D02*
X-0047782D01*
X-0048399Y0037299D02*
X-0049049D01*
X-0049719Y0040750D02*
Y0040687D01*
X-0042978Y0040485D02*
X-0049145D01*
X-0042978Y0040308D02*
X-0049085D01*
X-0049032Y0040018D02*
X-0049143D01*
X-0042978Y0040131D02*
X-0049097D01*
X-0048415Y0038892D02*
X-0050250D01*
X-0046543Y0037457D02*
X-0046647D01*
X-0046100D02*
X-0045713Y0037069D01*
X-0044250Y0033250D02*
X-0045472D01*
X-0045010Y0035883D02*
X-0048750D01*
X-0043500Y0034113D02*
X-0045472D01*
X-0043500Y0034467D02*
X-0045472D01*
X-0047390Y0032697D02*
X-0048750D01*
X-0043500Y0036237D02*
X-0043972D01*
X-0042462Y0038381D02*
Y0037750D01*
G01X-0047947Y0031947D02*
G03X-0048029Y0031750I0000197J0000197D01*
G01X-0047782Y0036750D02*
G03X-0047835Y0036967I0000468J0000000D01*
G01X-0049143Y0040018D02*
G03X-0049082Y0040250I0000407J0000232D01*
G01X-0044053Y0036053D02*
G03X-0043971Y0036250I0000197J0000197D01*
G01X-0047250Y0031782D02*
G03X-0046782Y0032250I0000000J0000468D01*
G03X-0047250Y0032718I0000468J0000000D01*
G03X-0047718Y0032250I0000000J0000468D01*
G01X-0048032Y0034750D02*
G03X-0048500Y0035218I0000468J0000000D01*
Y0034282D02*
G03X-0048032Y0034750I0000000J0000468D01*
G01X-0042978Y0039160D02*
G03X-0043216Y0038752I0000230J0000408D01*
G01X-0047319Y0031787D02*
G03X-0047250Y0031782I0000069J0000463D01*
G01X-0049082Y0040250D02*
G03X-0049550Y0040718I0000468J0000000D01*
G03X-0050018Y0040250I0000000J0000468D01*
G01X-0048032Y0034750D02*
G03X-0048500Y0035218I0000468J0000000D01*
Y0034282D02*
G03X-0048032Y0034750I0000000J0000468D01*
G01X-0043216Y0038752D02*
G03X-0042748Y0038284I0000468J0000000D01*
G03X-0042293Y0038641I0000000J0000468D01*
G01X-0046468Y0039681D02*
G03X-0046732Y0039937I0000432J0000181D01*
G01X-0045718Y0037000D02*
G03X-0045250Y0036532I0000468J0000000D01*
G03X-0044782Y0037000I0000000J0000468D01*
G01X-0042293Y0038863D02*
G03X-0042324Y0038952I0000455J0000111D01*
G01X-0044782Y0037000D02*
G03X-0045147Y0037457I0000468J0000000D01*
G01X-0047278Y0037250D02*
G03X-0047213Y0037071I0000278J0000000D01*
G01X-0047218Y0037000D02*
G03X-0046750Y0036532I0000468J0000000D01*
G03X-0046282Y0037000I0000000J0000468D01*
G01X-0048546Y0037113D02*
G03X-0048718Y0036750I0000296J0000363D01*
G01X-0046282Y0037000D02*
G03X-0046647Y0037457I0000468J0000000D01*
G01X-0048500Y0035218D02*
G03X-0048750Y0035146I0000000J0000468D01*
G01X-0045947Y0034947D02*
G03X-0046029Y0034750I0000197J0000197D01*
G01X-0043972Y0037250D02*
G03X-0044053Y0037447I0000278J0000000D01*
G01X-0047718Y0032250D02*
G03X-0047713Y0032180I0000468J0000000D01*
G01X-0048500Y0035218D02*
G03X-0048750Y0035146I0000000J0000468D01*
G01X-0047213Y0037071D02*
G03X-0047218Y0037000I0000463J0000071D01*
G01X-0047776Y0037026D02*
G03X-0047683Y0037250I0000224J0000224D01*
G01X-0048474Y0037224D02*
G03X-0048546Y0037113I0000224J0000224D01*
G01X-0048718Y0036750D02*
G03X-0048250Y0036282I0000468J0000000D01*
G03X-0047782Y0036750I0000000J0000468D01*
G01X-0050018Y0040250D02*
G03X-0049957Y0040018I0000468J0000000D01*
G01X-0045713Y0037069D02*
G03X-0045718Y0037000I0000463J0000069D01*
G54D17*
G01X-0048135Y0035115D02*
X-0048500Y0034750D01*
X-0049915Y0040615D02*
X-0049550Y0040250D01*
X-0049185Y0040615D02*
X-0049550Y0040250D01*
X-0048135Y0034385D02*
X-0048500Y0034750D01*
X-0043113Y0039117D02*
X-0042748Y0038752D01*
X-0042383Y0038387D02*
X-0042748Y0038752D01*
X-0043113Y0038387D02*
X-0042748Y0038752D01*
X-0048135Y0035115D02*
X-0048500Y0034750D01*
X-0048135Y0034385D02*
X-0048500Y0034750D01*
X-0042360Y0040597D02*
Y0039750D01*
Y0038903D02*
Y0039750D01*
X-0043027D02*
X-0042360D01*
X-0048983Y0039500D02*
X-0049550D01*
X-0050117D02*
X-0049550D01*
Y0038933D02*
Y0039500D01*
X-0049000Y0037409D02*
Y0038000D01*
Y0038591D02*
Y0038000D01*
G54D18*
G01X-0048250Y0039500D02*
X-0048000D01*
X-0048250Y0037000D02*
Y0036750D01*
X-0047250Y0039500D02*
X-0046900D01*
X-0042400Y0040200D02*
Y0039900D01*
X-0042360Y0039750D01*
X-0042250D02*
X-0042360D01*
X-0049550Y0040250D02*
Y0040200D01*
X-0050000Y0031000D02*
Y0031250D01*
X-0045950Y0039500D02*
X-0046000Y0039450D01*
Y0038000D01*
X-0045250Y0037000D02*
X-0046000Y0037750D01*
Y0038000D01*
X-0047000D02*
Y0037250D01*
X-0046750Y0037000D01*
X-0042000Y0035750D02*
Y0036000D01*
X-0045750Y0032750D02*
Y0034750D01*
X-0044250Y0036250D01*
Y0037250D01*
X-0045000Y0038000D01*
Y0032500D02*
X-0046000Y0031500D01*
Y0031000D01*
X-0040750Y0033500D02*
X-0041000Y0033700D01*
X-0040750D01*
X-0045000Y0031750D02*
Y0031000D01*
X-0048000D02*
X-0047750Y0031250D01*
Y0031750D01*
X-0047250Y0032250D01*
X-0040840Y0039750D02*
X-0040800Y0040100D01*
Y0040400D01*
X-0040700Y0039300D02*
X-0040840Y0039750D01*
X-0040700Y0039300D02*
X-0040840Y0039750D01*
G54D19*
G01X-0047250Y0039500D02*
X-0048000D01*
Y0038000D01*
Y0039500D02*
Y0038000D01*
X-0049550Y0039500D02*
Y0040200D01*
X-0042400D01*
X-0041750Y0038750D02*
X-0042200D01*
X-0042250Y0038800D01*
Y0039750D01*
X-0049550Y0040200D02*
Y0039500D01*
X-0050000Y0038000D02*
Y0039500D01*
X-0051500D01*
X-0051900Y0039100D01*
Y0038400D01*
X-0050000Y0031250D02*
X-0049000Y0032250D01*
Y0038000D01*
X-0048500Y0034750D02*
X-0049000D01*
Y0038000D01*
X-0042750Y0038750D02*
X-0041750D01*
X-0042000Y0036000D02*
X-0041750Y0036250D01*
X-0040750Y0031000D02*
X-0042000D01*
X-0040800Y0032550D02*
X-0040750Y0032600D01*
Y0033500D01*
X-0042000Y0032300D02*
Y0033200D01*
X-0040750Y0036250D02*
Y0035000D01*
X-0049550Y0039500D02*
X-0050000D01*
Y0038000D01*
X-0037075Y0035601D02*
X-0039075D01*
X-0049000Y0038000D02*
X-0050000D01*
X-0042100Y0038100D02*
X-0042000D01*
X-0041900Y0038000D01*
X-0039875D01*
X-0039075Y0037175D01*
Y0035601D01*
X-0048500Y0034750D02*
X-0049000D01*
Y0038000D01*
X-0040800Y0040400D02*
X-0040599Y0040601D01*
X-0038075D01*
X-0040800Y0040400D02*
X-0040599Y0040601D01*
X-0038075D01*
X-0040750Y0038750D02*
Y0039250D01*
X-0040700Y0039300D01*
Y0039610D02*
Y0039300D01*
G54D21*
G01X-0042748Y0038752D02*
X-0042750Y0038750D01*
G54D10*
X-0038075Y0030601D03*
Y0040601D03*
X-0037075Y0035601D03*
X-0039075D03*
G54D11*
X-0040750Y0038750D03*
X-0041750D03*
Y0036250D03*
X-0040750D03*
X-0046000Y0038000D03*
X-0045000D03*
X-0047000D03*
X-0048000D03*
X-0049000D03*
X-0050000D03*
X-0049000Y0031000D03*
X-0050000D03*
X-0048000D03*
X-0047000D03*
X-0046000D03*
X-0045000D03*
G54D12*
X-0040750Y0035000D03*
Y0033700D03*
X-0042000Y0031000D03*
Y0032300D03*
X-0047250Y0039500D03*
X-0045950D03*
X-0048250D03*
X-0049550D03*
G54D13*
X-0042360Y0039750D03*
X-0040840D03*
G54D14*
X-0051900Y0038400D03*
Y0040171D03*
X-0054459D03*
Y0038400D03*
G54D15*
X-0039727Y0030562D03*
Y0031427D03*
Y0033119D03*
Y0032253D03*
Y0036737D03*
Y0033945D03*
X-0039766Y0039019D03*
Y0039884D03*
X-0040750Y0031000D03*
X-0040800Y0032550D03*
G54D20*
X-0048250Y0036750D03*
X-0046900Y0039500D03*
X-0049550Y0040250D03*
X-0042748Y0038752D03*
X-0045250Y0037000D03*
X-0046750D03*
X-0042000Y0035750D03*
X-0045750Y0032750D03*
X-0045000Y0032500D03*
X-0042000Y0033200D03*
X-0045000Y0031750D03*
X-0047250Y0032250D03*
X-0048500Y0034750D03*
X-0040800Y0040400D03*
M02*
