*
G04 Mass Parameters ***
*
G04 Image ***
*
%INC:\PROJECTS\ORCAD\SWITCH\SWITCH.SMT*%
%ICAS*%
%MOIN*%
%IPPOS*%
%ASAXBY*%
G74*%FSLAN2X34Y34*%
*
G04 Aperture Definitions ***
*
%ADD10C,0.1240*%
%ADD11R,0.0650X0.0650*%
%ADD12R,0.0600X0.0600*%
%ADD13R,0.0800X0.1160*%
%ADD14C,0.0620*%
%ADD15C,0.0550*%
%ADD16C,0.0197*%
%ADD17C,0.0100*%
%ADD18C,0.0120*%
%ADD19C,0.0394*%
%ADD20C,0.0500*%
%ADD21C,0.0250*%
%ADD22R,0.0500X0.0340*%
%ADD23R,0.0400X0.0340*%
%ADD24O,0.0250X0.0940*%
%ADD25R,0.0250X0.0940*%
%ADD26C,0.0039*%
%ADD27C,0.1290*%
%ADD28C,0.0670*%
%ADD29C,0.0600*%
*
G04 Plot Data ***
*
G54D12*
X-0040750Y0035000D03*
Y0033700D03*
X-0042000Y0031000D03*
Y0032300D03*
X-0047250Y0039500D03*
X-0045950D03*
X-0048250D03*
X-0049550D03*
G54D13*
X-0042360Y0039750D03*
X-0040840D03*
G54D15*
X-0048250Y0036750D03*
X-0046900Y0039500D03*
X-0049550Y0040250D03*
X-0042748Y0038752D03*
X-0045250Y0037000D03*
X-0046750D03*
X-0042000Y0035750D03*
X-0045750Y0032750D03*
X-0045000Y0032500D03*
X-0042000Y0033200D03*
X-0045000Y0031750D03*
X-0047250Y0032250D03*
X-0048500Y0034750D03*
X-0040800Y0040400D03*
G54D27*
X-0038075Y0030601D03*
Y0040601D03*
X-0037075Y0035601D03*
X-0039075D03*
G54D28*
X-0051900Y0038400D03*
Y0040171D03*
X-0054459D03*
Y0038400D03*
G54D29*
X-0039727Y0030562D03*
Y0031427D03*
Y0033119D03*
Y0032253D03*
Y0036737D03*
Y0033945D03*
X-0039766Y0039019D03*
Y0039884D03*
X-0040750Y0031000D03*
X-0040800Y0032550D03*
M02*
