*
G04 Mass Parameters ***
*
G04 Image ***
*
%INC:\PROJECTS\ORCAD\SWITCH\SWITCH.AST*%
%ICAS*%
%MOIN*%
%IPPOS*%
%ASAXBY*%
G74*%FSLAN2X34Y34*%
*
G04 Aperture Definitions ***
*
%ADD10C,0.1240*%
%ADD11R,0.0650X0.0650*%
%ADD12R,0.0600X0.0600*%
%ADD13R,0.0800X0.1160*%
%ADD14C,0.0620*%
%ADD15C,0.0550*%
%ADD16C,0.0197*%
%ADD17C,0.0100*%
%ADD18C,0.0120*%
%ADD19C,0.0394*%
%ADD20C,0.0500*%
%ADD21C,0.0250*%
%ADD22R,0.0500X0.0340*%
%ADD23R,0.0400X0.0340*%
%ADD24O,0.0250X0.0940*%
%ADD25R,0.0250X0.0940*%
%ADD26C,0.0039*%
%ADD27C,0.1290*%
%ADD28C,0.0670*%
%ADD29C,0.0600*%
%ADD30C,0.0060*%
%ADD31C,0.0010*%
%ADD32C,0.0080*%
*
G04 Plot Data ***
*
G54D16*
G01X-0055500Y0041000D02*
Y0030000D01*
X-0035000D01*
Y0041250D01*
X-0055500D01*
Y0041000D01*
G54D17*
G01X-0041700Y0035417D02*
X-0041367D01*
X-0041366D02*
X-0041700Y0035083D01*
Y0035000D01*
X-0041658Y0034917D01*
X-0041408D01*
X-0041367Y0035000D01*
X-0041125Y0034917D02*
Y0035083D01*
X-0040958Y0035417D01*
X-0040792Y0035083D01*
X-0040791D02*
X-0040792Y0034917D01*
G54D30*
G01X-0042333Y0031779D02*
X-0042666Y0031945D01*
Y0031723D01*
X-0042333Y0031575D02*
Y0031353D01*
X-0042555Y0031575D01*
X-0042610D01*
X-0042666Y0031548D01*
Y0031381D01*
X-0042610Y0031353D01*
X-0042499Y0031122D02*
X-0042333Y0031205D01*
X-0042499Y0030983D02*
Y0031150D01*
X-0042555Y0031205D01*
X-0042610D01*
X-0042666Y0031150D01*
Y0030983D01*
X-0042333D01*
X-0041332Y0031807D02*
X-0041499Y0031640D01*
X-0041666Y0031807D01*
Y0031584D02*
X-0041332D01*
Y0031270D02*
X-0041666Y0031437D01*
Y0031214D01*
X-0041444Y0031067D02*
Y0030844D01*
X-0041666Y0030955D01*
Y0031011D01*
X-0041332D01*
X-0040251Y0034082D02*
Y0034249D01*
X-0040195Y0034277D01*
X-0040139D01*
X-0040084Y0034249D01*
Y0034082D01*
X-0040139Y0034054D01*
X-0040195D01*
X-0040417Y0034166D01*
Y0034424D02*
Y0034647D01*
X-0040195Y0034424D01*
X-0040139D01*
X-0040084Y0034452D01*
Y0034619D01*
X-0040139Y0034647D01*
X-0040251Y0034878D02*
X-0040417Y0034794D01*
X-0040251Y0035017D02*
Y0034850D01*
X-0040195Y0034794D01*
X-0040139D01*
X-0040084Y0034850D01*
Y0035017D01*
X-0040417D01*
X-0041417Y0034193D02*
X-0041251Y0034360D01*
X-0041084Y0034193D01*
Y0034416D02*
X-0041417D01*
Y0034730D02*
X-0041084Y0034563D01*
Y0034786D01*
X-0041306Y0034933D02*
Y0035156D01*
X-0041084Y0035044D01*
Y0034989D01*
X-0041417D01*
X-0046702Y0039999D02*
X-0046869D01*
X-0046897Y0040055D01*
Y0040110D01*
X-0046869Y0040166D01*
X-0046702D01*
X-0046674Y0040110D01*
Y0040055D01*
X-0046786Y0039833D01*
X-0047128Y0039999D02*
X-0047044Y0039833D01*
X-0047267Y0039999D02*
X-0047100D01*
X-0047044Y0040055D01*
Y0040110D01*
X-0047100Y0040166D01*
X-0047267D01*
Y0039833D01*
X-0046443Y0038832D02*
X-0046610Y0038999D01*
X-0046443Y0039166D01*
X-0046666D02*
Y0038832D01*
X-0046980D02*
X-0046813Y0039166D01*
X-0047036D01*
X-0047183Y0038944D02*
X-0047406D01*
X-0047294Y0039166D01*
X-0047239D01*
Y0038832D01*
X-0048603Y0039112D02*
X-0048631Y0039167D01*
X-0048798D01*
X-0048825Y0039112D01*
Y0039001D01*
X-0048770Y0038945D01*
X-0048603D01*
Y0038834D01*
X-0048825D01*
X-0048455Y0039112D02*
X-0048428Y0039167D01*
X-0048261D01*
X-0048233Y0039112D01*
Y0038889D01*
X-0048261Y0038834D01*
X-0048428D01*
X-0048455Y0038889D01*
X-0049371Y0039834D02*
Y0040167D01*
X-0049315Y0040112D01*
X-0049204Y0039890D01*
X-0049149Y0039834D01*
Y0040167D01*
X-0048862D02*
X-0048806Y0040112D01*
X-0048779Y0040056D01*
Y0039945D01*
X-0048806Y0039890D01*
X-0048862Y0039834D01*
X-0048918D01*
X-0048917D02*
X-0048973Y0039890D01*
X-0049001Y0039945D01*
Y0040056D01*
X-0048973Y0040112D01*
X-0048918Y0040167D01*
X-0048917D02*
X-0048862D01*
X-0048492D02*
X-0048436Y0040112D01*
X-0048409Y0040056D01*
Y0039945D01*
X-0048436Y0039890D01*
X-0048492Y0039834D01*
X-0048548D01*
X-0048547D02*
X-0048603Y0039890D01*
X-0048631Y0039945D01*
Y0040056D01*
X-0048603Y0040112D01*
X-0048548Y0040167D01*
X-0048547D02*
X-0048492D01*
X-0048261D02*
X-0048150D01*
X-0048205D02*
Y0039834D01*
X-0048150Y0039890D01*
X-0042875Y0039750D02*
X-0042800Y0039675D01*
Y0039050D01*
X-0040370D01*
Y0040450D01*
X-0042800D01*
Y0039825D01*
X-0042875Y0039750D01*
X-0041550Y0032750D02*
Y0030550D01*
X-0042450D01*
Y0032750D01*
X-0041550D01*
X-0041200Y0033250D02*
Y0035450D01*
X-0040300D01*
Y0033250D01*
X-0041200D01*
X-0045500Y0039050D02*
X-0047700D01*
Y0039950D01*
X-0045500D01*
Y0039050D01*
X-0050000Y0039950D02*
X-0047800D01*
Y0039050D01*
X-0050000D01*
Y0039950D01*
G54D12*
X-0040750Y0035000D03*
Y0033700D03*
X-0042000Y0031000D03*
Y0032300D03*
X-0047250Y0039500D03*
X-0045950D03*
X-0048250D03*
X-0049550D03*
G54D13*
X-0042360Y0039750D03*
X-0040840D03*
M02*
