%
T1C0.028F200S100
X-049550Y040250
X-048500Y034750
X-048250Y036750
X-047250Y032250
X-046900Y039500
X-046750Y037000
X-045750Y032750
X-045250Y037000
X-045000Y031750
X-045000Y032500
X-042748Y038752
X-042000Y033200
X-042000Y035750
X-040800Y040400
T3C0.038F200S100
X-054459Y038400
X-054459Y040171
X-051900Y038400
X-051900Y040171
T2C0.036F200S100
X-040800Y032550
X-040750Y031000
X-039766Y039019
X-039766Y039884
X-039727Y030562
X-039727Y031427
X-039727Y032253
X-039727Y033119
X-039727Y033945
X-039727Y036737
T4C0.100F200S100
X-039075Y035601
X-038075Y030601
X-038075Y040601
X-037075Y035601
M30
